<?xml version="1.0" standalone="no"?>
<!DOCTYPE svg PUBLIC "-//W3C//DTD SVG 1.1//EN" "http://www.w3.org/Graphics/SVG/1.1/DTD/svg11.dtd" >
<svg>
<metadata>
Created by FontForge 20110222 at Thu Jan 29 13:45:03 2015
 By deploy user
Copyright 2010 URW++ Design &#38; Development Hamburg
</metadata>
<defs>
<font id="Volta-Med" horiz-adv-x="500" >
  <font-face 
    font-family="VoltaMed"
    font-weight="500"
    font-stretch="normal"
    units-per-em="1000"
    panose-1="0 0 6 0 0 0 0 0 0 0"
    ascent="667"
    descent="-333"
    x-height="471"
    cap-height="667"
    bbox="-223 -281 1403 924"
    underline-thickness="93"
    underline-position="-10"
    unicode-range="U+0020-FB04"
  />
<missing-glyph horiz-adv-x="300" 
 />
    <glyph glyph-name="ff" unicode="ff" horiz-adv-x="832" 
d="M268 471h232q3 51 12.5 79.5t32.5 54.5q67 75 173 75q63 0 103.5 -29t40.5 -75q0 -32 -19.5 -53t-48.5 -21t-49 20t-20 50q0 23 18 44q-12 7 -27 7q-36 0 -51 -22.5t-15 -76.5v-53h137v-68h-137v-240q0 -56 16 -74q18 -21 62 -21h64v-68h-379v68h13q45 0 62 20.5t17 74.5
v240h-237v-240q0 -56 16 -74q19 -21 61 -21h31v-68h-346v68h14q44 0 61.5 20.5t17.5 74.5v240h-93v68h88q3 51 12.5 79.5t32.5 54.5q67 75 172 75q64 0 104 -29t40 -75q0 -31 -19 -52.5t-48 -21.5t-49 20t-20 50q0 23 18 44q-13 7 -27 7q-36 0 -51 -22.5t-15 -76.5v-53z" />
    <glyph glyph-name="fi" unicode="fi" horiz-adv-x="792" 
d="M648 471v-308q0 -53 17.5 -74t61.5 -21h19v-68h-337v68h16q45 0 62.5 20.5t17.5 74.5v145q0 41 -7.5 59t-27.5 27q-18 9 -63 9h-139v-240q0 -56 16 -74q19 -21 61 -21h31v-68h-346v68h14q44 0 61.5 20.5t17.5 74.5v240h-93v68h88q4 55 17 85t46 58q90 79 238 79
q97 0 159 -33t62 -85q0 -31 -19.5 -52t-48.5 -21t-49 20t-20 49q0 25 18 44q-53 21 -104 21q-82 0 -115.5 -25.5t-33.5 -87.5v-52h380z" />
    <glyph glyph-name="fl" unicode="fl" horiz-adv-x="772" 
d="M493 667h157v-504q0 -53 17.5 -74t62.5 -21h12v-68h-329v68h16q44 0 61 21t17 74v340q0 38 -5 55.5t-19 31.5q-37 37 -104 37q-66 0 -93 -30q-18 -21 -18 -73v-53h136v-68h-136v-240q0 -56 16 -74q19 -21 61 -21h31v-68h-346v68h14q44 0 61.5 20.5t17.5 74.5v240h-93v68
h88q3 51 14.5 79.5t39.5 55.5q79 74 211 74q54 0 110 -13z" />
    <glyph glyph-name="ffi" unicode="ffi" horiz-adv-x="1175" 
d="M268 471h232q4 55 17 85.5t46 57.5q91 79 239 79q96 0 158 -33t62 -85q0 -31 -19.5 -52t-48.5 -21t-49 20t-20 50q0 23 18 44q-51 20 -103 20q-82 0 -116 -25t-34 -87v-53h380v-308q0 -53 17.5 -74t61.5 -21h19v-68h-336v68h16q45 0 62 20.5t17 74.5v145q0 41 -7.5 59
t-27.5 27q-17 9 -62 9h-140v-240q0 -56 16 -74q18 -21 62 -21h31v-68h-346v68h13q45 0 62 20.5t17 74.5v240h-237v-240q0 -56 16 -74q19 -21 61 -21h31v-68h-346v68h14q44 0 61.5 20.5t17.5 74.5v240h-93v68h88q3 51 12.5 79.5t32.5 54.5q67 75 172 75q64 0 104 -29t40 -75
q0 -31 -19 -52.5t-48 -21.5t-49 20t-20 50q0 23 18 44q-13 7 -27 7q-36 0 -51 -22.5t-15 -76.5v-53z" />
    <glyph glyph-name="ffl" unicode="ffl" horiz-adv-x="1154" 
d="M268 471h232q3 51 14.5 79.5t39.5 55.5q80 74 212 74q54 0 110 -13h157v-504q0 -53 17.5 -74t61.5 -21h12v-68h-329v68h16q44 0 61.5 20.5t17.5 74.5v340q0 38 -5 55.5t-19 31.5q-37 37 -104 37t-94 -30q-18 -21 -18 -73v-53h137v-68h-137v-240q0 -56 16 -74
q18 -21 62 -21h31v-68h-346v68h13q45 0 62 20.5t17 74.5v240h-237v-240q0 -56 16 -74q19 -21 61 -21h31v-68h-346v68h14q44 0 61.5 20.5t17.5 74.5v240h-93v68h88q3 51 12.5 79.5t32.5 54.5q67 75 172 75q64 0 104 -29t40 -75q0 -31 -19 -52.5t-48 -21.5t-49 20t-20 49
q0 24 18 45q-13 7 -27 7q-36 0 -51 -22.5t-15 -76.5v-53z" />
    <glyph glyph-name=".notdef" horiz-adv-x="300" 
 />
    <glyph glyph-name=".null" horiz-adv-x="0" 
 />
    <glyph glyph-name="nonmarkingreturn" horiz-adv-x="333" 
 />
    <glyph glyph-name="space" unicode=" " horiz-adv-x="300" 
 />
    <glyph glyph-name="exclam" unicode="!" horiz-adv-x="349" 
d="M202 157q35 0 60.5 -26t25.5 -61q0 -37 -25.5 -62.5t-61.5 -25.5q-37 0 -62.5 25.5t-25.5 62.5q0 36 26 61.5t63 25.5zM231 206h-57l-54 283q-7 32 -7 42q0 38 24.5 63.5t61.5 25.5t61.5 -25.5t24.5 -63.5q0 -18 -4 -37z" />
    <glyph glyph-name="quotedbl" unicode="&#x22;" horiz-adv-x="438" 
d="M167 399h-111l-29 268h170zM382 399h-112l-29 268h170z" />
    <glyph glyph-name="numbersign" unicode="#" horiz-adv-x="644" 
d="M424 213l-25 -173h-72l24 173h-99l-25 -173h-72l24 173h-106l10 70h106l13 94h-106l10 70h106l23 158h72l-22 -158h99l23 158h72l-22 -158h113l-9 -70h-114l-13 -94h113l-9 -70h-114zM374 377h-99l-13 -94h99z" />
    <glyph glyph-name="dollar" unicode="$" horiz-adv-x="709" 
d="M54 0v211h61q12 -63 63 -99t150 -51v187q-37 4 -46 5q-79 8 -114.5 18t-62.5 32q-57 49 -57 138q0 60 31 107t88 72q60 27 161 30v60h44v-63q34 -4 39 -5q3 0 9.5 -2t20 -6t24.5 -7q49 -13 65 -13q24 0 31 31h64v-202h-62q-4 56 -58.5 95t-132.5 42v-186q124 -8 180 -31
q53 -21 81.5 -63.5t28.5 -99.5q0 -91 -73 -152t-182 -61h-35v-77h-44v81q-52 13 -88 25q-61 20 -86 20q-20 0 -28.5 -8t-10.5 -28h-61zM372 246v-188q60 2 96 17q28 12 46 36.5t18 51.5q0 44 -52 66q-31 14 -108 17zM328 398v183q-77 -4 -117 -30q-45 -29 -45 -74
q0 -29 19 -46q16 -14 39 -20.5t70 -10.5q4 0 34 -2z" />
    <glyph glyph-name="percent" unicode="%" horiz-adv-x="895" 
d="M659 287q77 0 128 -44.5t51 -111.5q0 -64 -52.5 -107t-129.5 -43q-78 0 -128 42t-50 109q0 68 51 111.5t130 43.5zM653 246q-35 0 -56.5 -30t-21.5 -81t23 -82t60 -31q36 0 59 30.5t23 78.5q0 50 -24.5 82.5t-62.5 32.5zM238 654q77 0 128 -44.5t51 -111.5
q0 -64 -52.5 -107t-129.5 -43q-78 0 -128 42t-50 109q0 68 51 111.5t130 43.5zM232 613q-35 0 -56.5 -30.5t-21.5 -80.5q0 -51 23 -82t60 -31q36 0 59 30.5t23 78.5q0 50 -24.5 82.5t-62.5 32.5zM225 -33l-41 28l489 672l43 -28z" />
    <glyph glyph-name="ampersand" unicode="&#x26;" horiz-adv-x="809" 
d="M709 194h64q2 -36 2 -43q0 -170 -141 -170q-42 0 -72.5 14t-87.5 60q-58 -43 -107 -60t-111 -17q-101 0 -162 51t-61 135q0 94 79 143q32 20 89 36l-6 12q-8 11 -13 20q-27 42 -27 98q0 68 40 110.5t104 42.5q60 0 100.5 -38.5t40.5 -95.5q0 -84 -90 -138l160 -171
q49 51 49 85q0 38 -85 41v67h290v-67q-67 -3 -94 -20.5t-67 -81.5q-9 -14 -48 -67q69 -68 106 -68q50 0 50 87q0 5 -2 35zM236 288q-53 -39 -53 -96q0 -54 37 -89t93 -35q49 0 103 31q-105 91 -180 189zM307 400q36 22 50.5 42.5t14.5 48.5q0 29 -18.5 49t-45.5 20
q-24 0 -40.5 -18t-16.5 -44q0 -19 11.5 -39t44.5 -59z" />
    <glyph glyph-name="quotesingle" unicode="'" horiz-adv-x="228" 
d="M172 399h-116l-29 268h174z" />
    <glyph glyph-name="parenleft" unicode="(" horiz-adv-x="464" 
d="M404 684v-64q-49 -10 -75.5 -28t-43.5 -53q-33 -68 -33 -301q0 -217 62 -279q28 -28 90 -40v-64q-49 4 -80.5 15t-66.5 37q-157 119 -157 362q0 245 158 362q35 26 66 37.5t80 15.5z" />
    <glyph glyph-name="parenright" unicode=")" horiz-adv-x="464" 
d="M60 620v64q49 -4 80 -15.5t66 -37.5q158 -117 158 -362q0 -243 -157 -362q-35 -26 -66.5 -37t-80.5 -15v64q62 12 90 40q62 62 62 279q0 249 -41 316q-18 28 -42 42.5t-69 23.5z" />
    <glyph glyph-name="asterisk" unicode="*" horiz-adv-x="533" 
d="M265 444l-39 -116q-18 -52 -54 -52q-22 0 -40.5 16.5t-18.5 36.5q0 28 29 49l107 78h-137q-55 0 -55 52q0 25 13.5 41t33.5 16q25 0 50 -18l102 -72l-38 123q-6 17 -6 28q0 24 15 39t40 15q23 0 39.5 -14.5t16.5 -35.5q0 -13 -8 -40l-39 -115l109 78q22 15 38 15
q21 0 37 -18.5t16 -41.5q0 -52 -61 -52h-135l107 -78q29 -20 29 -49q0 -22 -19.5 -39t-43.5 -17q-32 0 -46 45z" />
    <glyph glyph-name="plus" unicode="+" 
d="M9 396h202v200h76v-200h203v-73h-203v-200h-76v200h-202v73z" />
    <glyph glyph-name="comma" unicode="," horiz-adv-x="268" 
d="M109 -173l-38 43q57 56 64 115q-15 -3 -21 -3q-30 0 -49.5 21.5t-19.5 54.5q0 38 24 62.5t61 24.5q40 0 67 -30t27 -75q0 -107 -115 -213z" />
    <glyph glyph-name="hyphen" unicode="-" horiz-adv-x="276" 
d="M276 298v-92h-276v92h276z" />
    <glyph glyph-name="period" unicode="." horiz-adv-x="268" 
d="M136 149q35 0 60.5 -26t25.5 -61q0 -37 -25.5 -62.5t-61.5 -25.5q-37 0 -62.5 25.5t-25.5 62.5q0 36 26 61.5t63 25.5z" />
    <glyph glyph-name="slash" unicode="/" horiz-adv-x="619" 
d="M73 -186l-80 45l477 821l75 -42z" />
    <glyph glyph-name="zero" unicode="0" horiz-adv-x="683" 
d="M338 654q149 0 230 -89.5t81 -252.5q0 -154 -82 -243t-223 -89q-144 0 -229 88q-82 86 -82 249q0 161 77 245q83 92 228 92zM342 590q-34 0 -64 -18.5t-45 -49.5q-33 -71 -33 -198q0 -119 26 -191q14 -39 44 -61t69 -22q38 0 69.5 22t44.5 58q28 72 28 187q0 104 -22 178
q-28 95 -117 95z" />
    <glyph glyph-name="one" unicode="1" horiz-adv-x="683" 
d="M420 633v-470q0 -53 17.5 -74t62.5 -21h49v-68h-409v68h44q45 0 62.5 20.5t17.5 74.5v239q0 54 -17.5 74.5t-62.5 20.5h-50v68q84 0 126.5 16t58.5 52h101z" />
    <glyph glyph-name="two" unicode="2" horiz-adv-x="683" 
d="M583 205v-205h-501q3 103 50 169q29 35 58.5 56t131.5 79q100 58 100 142q0 52 -38.5 89.5t-92.5 37.5q-66 0 -109 -55q73 -18 73 -80q0 -32 -22.5 -54.5t-55.5 -22.5q-40 0 -64 26.5t-24 69.5q0 83 72 140t176 57q112 0 188 -66q61 -53 61 -143q0 -103 -83 -161
q-44 -30 -145 -62q-90 -29 -122.5 -49t-49.5 -59h254q36 0 52.5 19t16.5 60v12h74z" />
    <glyph glyph-name="three" unicode="3" horiz-adv-x="683" 
d="M234 290v68q89 1 114 9q35 11 55 37.5t20 62.5q0 48 -35.5 80.5t-87.5 32.5q-51 0 -98 -34q33 -27 33 -62q0 -29 -21.5 -49.5t-51.5 -20.5q-33 0 -55 23.5t-22 59.5q0 66 71.5 111.5t175.5 45.5q111 0 183 -50.5t72 -128.5q0 -72 -68 -115q-24 -16 -62 -26q42 -14 71 -30
q41 -23 63.5 -60t22.5 -81q0 -59 -39 -101q-73 -82 -235 -82q-119 0 -195.5 46.5t-76.5 119.5q0 37 23.5 61.5t58.5 24.5q33 0 57 -24t24 -56q0 -39 -38 -62q53 -38 113 -38q58 0 97.5 34.5t39.5 85.5q0 58 -51 93q-36 24 -114 25h-44z" />
    <glyph glyph-name="four" unicode="4" horiz-adv-x="683" 
d="M493 633v-391h130v-67h-130v-11q0 -55 17 -75.5t62 -20.5h51v-68h-406v68h49q44 0 61.5 21t17.5 75v11h-286v60l347 398h87zM345 242v211l-186 -211h186z" />
    <glyph glyph-name="five" unicode="5" horiz-adv-x="683" 
d="M552 633v-112h-357v-135q70 46 164 46q111 0 180.5 -61t69.5 -158q0 -103 -78 -168t-201 -65q-105 0 -181 51.5t-76 123.5q0 35 23 59.5t57 24.5q33 0 56.5 -24t23.5 -58q0 -39 -38 -62q43 -37 101 -37q63 0 105 44.5t42 111.5q0 60 -39.5 99.5t-99.5 39.5q-34 0 -58 -12
t-51 -41h-73v333h430z" />
    <glyph glyph-name="six" unicode="6" horiz-adv-x="683" 
d="M230 382q71 54 162 54q100 0 167 -63.5t67 -157.5q0 -100 -78 -170q-71 -65 -192 -65q-150 0 -226 94q-74 90 -74 231q0 154 91 251.5t236 97.5q94 0 158.5 -41t64.5 -101q0 -33 -20.5 -53.5t-52.5 -20.5q-31 0 -51.5 19t-20.5 47q0 22 16 41q-45 38 -97 38
q-66 0 -109 -45t-43 -114q0 -10 2 -42zM341 361q-51 0 -83 -43t-32 -111q0 -71 32 -114t85 -43q50 0 81.5 42t31.5 109q0 73 -31.5 116.5t-83.5 43.5z" />
    <glyph glyph-name="seven" unicode="7" horiz-adv-x="683" 
d="M591 633v-88q-31 -27 -49.5 -48.5t-43.5 -61.5q-76 -117 -76 -229q0 -28 3 -62q4 -32 4 -59q0 -47 -25.5 -76t-66.5 -29q-46 0 -71 31t-25 88q0 85 48.5 171.5t185.5 244.5h-210q-60 0 -77.5 -15t-20.5 -69q0 -2 -0.5 -5t-1 -8t-0.5 -9h-73v224h499z" />
    <glyph glyph-name="eight" unicode="8" horiz-adv-x="683" 
d="M474 327q52 -20 80 -38q70 -46 70 -125q0 -85 -77.5 -134.5t-208.5 -49.5q-128 0 -202 48q-35 23 -56 60t-21 77q0 82 69 124q26 17 77 38q-56 21 -77 39q-51 40 -51 112q0 78 72.5 127t187.5 49q121 0 193.5 -49t72.5 -129q0 -53 -30.5 -88.5t-98.5 -60.5zM343 292
q-51 0 -86 -35t-35 -87q0 -50 34 -85t83 -35t84 35t35 84q0 52 -33 87.5t-82 35.5zM341 582q-45 0 -77 -33.5t-32 -80.5t32 -80t78 -33q44 0 75 32t31 78q0 48 -31.5 82.5t-75.5 34.5z" />
    <glyph glyph-name="nine" unicode="9" horiz-adv-x="683" 
d="M446 252q-71 -54 -162 -54q-100 0 -167 63.5t-67 157.5q0 100 78 170q71 65 192 65q150 0 226 -94q74 -90 74 -231q0 -154 -91 -251.5t-236 -97.5q-94 0 -158.5 41t-64.5 101q0 33 20 53.5t53 20.5q31 0 51.5 -19t20.5 -47q0 -22 -16 -41q46 -38 98 -38q65 0 108 45
t43 114q0 10 -2 42zM333 584q-50 0 -81.5 -42t-31.5 -109q0 -73 31.5 -116.5t83.5 -43.5q51 0 83 43t32 111q0 71 -32 114t-85 43z" />
    <glyph glyph-name="colon" unicode=":" horiz-adv-x="268" 
d="M136 149q35 0 60.5 -26t25.5 -61q0 -37 -25.5 -62.5t-61.5 -25.5q-37 0 -62.5 25.5t-25.5 62.5q0 36 26 61.5t63 25.5zM136 473q35 0 60.5 -26t25.5 -61q0 -37 -25.5 -62.5t-61.5 -25.5q-37 0 -62.5 25.5t-25.5 62.5q0 36 26 61.5t63 25.5z" />
    <glyph glyph-name="semicolon" unicode=";" horiz-adv-x="268" 
d="M109 -173l-38 43q57 56 64 115q-15 -3 -21 -3q-30 0 -49.5 21.5t-19.5 54.5q0 38 24 62.5t61 24.5q40 0 67 -30t27 -75q0 -107 -115 -213zM136 473q35 0 60.5 -26t25.5 -61q0 -37 -25.5 -62.5t-61.5 -25.5q-37 0 -62.5 25.5t-25.5 62.5q0 36 26 61.5t63 25.5z" />
    <glyph glyph-name="less" unicode="&#x3c;" 
d="M466 632v-155l-268 -140l268 -140v-155l-433 230v131z" />
    <glyph glyph-name="equal" unicode="=" 
d="M9 470h482v-71h-482v71zM9 320h482v-71h-482v71z" />
    <glyph glyph-name="greater" unicode="&#x3e;" 
d="M33 42v156l267 140l-267 140v154l433 -229v-131z" />
    <glyph glyph-name="question" unicode="?" horiz-adv-x="587" 
d="M297 153q35 0 60.5 -26t25.5 -61q0 -36 -25.5 -61.5t-61.5 -25.5t-61.5 25.5t-25.5 62.5q0 36 25.5 61t62.5 25zM336 206h-74q-1 38 10.5 62t48.5 58q50 48 65.5 71.5t15.5 51.5q0 45 -31 76t-75 31q-42 0 -80 -32q26 -31 26 -57q0 -32 -21.5 -54t-52.5 -22
q-35 0 -58 23.5t-23 58.5q0 67 65.5 109t170.5 42q107 0 169 -44t62 -121q0 -62 -44 -104q-18 -18 -39 -31.5t-75 -41.5q-36 -20 -46.5 -33t-13.5 -43z" />
    <glyph glyph-name="at" unicode="@" horiz-adv-x="675" 
d="M590 170h56q-38 -80 -119 -129.5t-174 -49.5q-139 0 -236.5 97.5t-97.5 236.5q0 140 97.5 237t238.5 97q125 0 213 -80.5t88 -195.5q0 -114 -89 -184q-61 -48 -123 -48q-53 0 -70 43q-57 -45 -104 -45q-52 0 -85.5 36.5t-33.5 93.5q0 83 60 152.5t131 69.5q62 0 95 -52
l13 36h77l-78 -236q-8 -27 -8 -36q0 -10 7.5 -16.5t18.5 -6.5q43 0 86 50q53 61 53 139q0 97 -73.5 165.5t-178.5 68.5q-119 0 -200.5 -83t-81.5 -204q0 -120 82.5 -203.5t200.5 -83.5q70 0 133.5 35.5t101.5 95.5zM379 290l23 63q11 32 11 50q0 23 -13.5 38.5t-33.5 15.5
q-43 0 -82 -57q-19 -28 -33.5 -72t-14.5 -76q0 -29 13 -46.5t35 -17.5q61 0 95 102z" />
    <glyph glyph-name="A" unicode="A" horiz-adv-x="863" 
d="M390 673h66l264 -482q37 -73 70 -96t103 -27v-68h-462v68q76 2 100 19q25 17 25 39q0 19 -10 41l-11 24h-317l-14 -29q-9 -22 -9 -39q0 -25 30 -39q23 -10 98 -16v-68h-353v68q53 2 85 23t60 73zM499 258l-123 226l-122 -226h245z" />
    <glyph glyph-name="B" unicode="B" horiz-adv-x="888" 
d="M50 667h512q121 0 180 -38q34 -22 53.5 -57.5t19.5 -75.5q0 -65 -52 -106q-28 -23 -88 -37q171 -47 171 -169q0 -44 -22.5 -83t-61.5 -64q-59 -37 -174 -37h-538v69h23q106 0 106 117v294q0 118 -106 118h-23v69zM341 382h176q64 0 96 28q33 30 33 77q0 57 -47 90
q-30 22 -99 22h-159v-217zM341 68h198q55 0 92 35.5t37 87.5q0 67 -51 100q-35 21 -98 21h-178v-244z" />
    <glyph glyph-name="C" unicode="C" horiz-adv-x="856" 
d="M812 667v-260h-78q-8 82 -64 129q-37 32 -90 51t-105 19q-112 0 -182 -77t-70 -199q0 -116 76.5 -196.5t187.5 -80.5q55 0 108.5 21.5t86.5 56.5q42 44 60 112h70q-11 -61 -32 -101.5t-59 -75.5q-98 -92 -274 -92q-186 0 -300 99.5t-114 260.5q0 75 27 143.5t75 115.5
q103 100 277 100q118 0 234 -48q42 -19 57 -19q36 0 39 41h70z" />
    <glyph glyph-name="D" unicode="D" horiz-adv-x="963" 
d="M50 667h463q208 0 305 -84q50 -44 80.5 -112t30.5 -138q0 -73 -34 -143.5t-91 -116.5q-50 -39 -111 -56t-152 -17h-491v69h23q105 0 105 117v295q0 117 -105 117h-23v69zM340 68h100q83 0 136 17.5t90 56.5q73 79 73 195q0 132 -92 207q-69 55 -202 55h-105v-531z" />
    <glyph glyph-name="E" unicode="E" horiz-adv-x="844" 
d="M719 257h75v-257h-744v69h23q105 0 105 117v295q0 117 -105 117h-23v69h744v-259h-75q-3 84 -39 133q-24 31 -60 44.5t-95 13.5h-185v-220h88q66 0 87 46q9 20 10 78h70v-314h-70q-4 69 -26 95t-75 26h-84v-242h185q120 0 165 71q23 37 29 118z" />
    <glyph glyph-name="F" unicode="F" horiz-adv-x="828" 
d="M795 667v-259h-75q-9 89 -44 133q-47 58 -146 58h-188v-219h70q53 0 76 12t34 47q8 27 8 64h69v-317h-69v19q0 43 -20 71q-22 33 -100 33h-68v-104q0 -46 6 -67.5t23 -38.5q32 -30 81 -30h22v-69h-424v69h23q107 0 107 117v276q0 77 -26 106q-28 30 -81 30h-23v69h745z
" />
    <glyph glyph-name="G" unicode="G" horiz-adv-x="991" 
d="M818 679v-265h-73q-10 88 -80.5 144.5t-170.5 56.5q-116 0 -194 -78t-78 -195q0 -118 79.5 -198.5t196.5 -80.5q79 0 139.5 32.5t60.5 75.5q0 40 -50 56q-19 6 -85 11v70h411v-69h-23q-51 0 -81 -30q-14 -14 -17 -28t-3 -59v-122h-59l-35 83q-122 -109 -306 -109
q-180 0 -293 97q-124 105 -124 264q0 155 113.5 256.5t287.5 101.5q113 0 229 -45q51 -19 61 -19q12 0 20 12t8 29v9h66z" />
    <glyph glyph-name="H" unicode="H" horiz-adv-x="1042" 
d="M700 309h-357v-123q0 -39 4.5 -56.5t17.5 -30.5q28 -30 80 -30h23v-69h-418v69h25q51 0 81 30q25 26 25 106v276q0 117 -106 117h-18v69h416v-69h-23q-53 0 -80 -30t-27 -106v-82h357v82q0 76 -27 106q-28 30 -81 30h-23v69h417v-69h-18q-106 0 -106 -117v-276
q0 -80 25 -106q30 -30 81 -30h24v-69h-418v69h23q53 0 81 30q13 14 17.5 31t4.5 56v123z" />
    <glyph glyph-name="I" unicode="I" horiz-adv-x="529" 
d="M472 0h-415v69h23q50 0 80 30q23 24 23 87v295q0 63 -23 87q-30 30 -80 30h-23v69h415v-69h-23q-51 0 -81 -30q-23 -24 -23 -87v-295q0 -63 23 -87q30 -30 81 -30h23v-69z" />
    <glyph glyph-name="J" unicode="J" horiz-adv-x="628" 
d="M465 481v-288q0 -77 -19 -111q-28 -51 -85.5 -79.5t-129.5 -28.5q-91 0 -144.5 40.5t-53.5 109.5q0 45 24.5 73t64.5 28q36 0 60 -23t24 -58q0 -40 -48 -62q4 -21 22 -33.5t44 -12.5q51 0 68 50q11 31 11 101v294q0 39 -4.5 56t-17.5 31q-28 30 -80 30h-23v69h410v-69
h-17q-106 0 -106 -117z" />
    <glyph glyph-name="K" unicode="K" horiz-adv-x="963" 
d="M566 424l232 -273q44 -54 68 -68t70 -14v-69h-414v69q6 0 14 0.5t12.5 1t6.5 0.5q36 2 49.5 7.5t13.5 19.5q0 16 -32 53l-148 174l-102 -78v-42q0 -80 25 -106q30 -30 82 -30h24v-69h-417v69h23q52 0 80 30q13 14 17.5 31t4.5 56v295q0 39 -4.5 56t-17.5 31
q-28 30 -80 30h-23v69h417v-69h-24q-52 0 -82 -30q-25 -26 -25 -106v-117l230 176q42 31 42 52q0 12 -18.5 18t-67.5 7v69h360v-69q-55 1 -93 -14.5t-107 -68.5z" />
    <glyph glyph-name="L" unicode="L" horiz-adv-x="761" 
d="M731 255v-255h-681v69h23q52 0 79.5 30t27.5 87v275q0 78 -26 107q-28 30 -81 30h-23v69h421v-69h-23q-52 0 -79 -30t-27 -87v-413h125q60 0 96.5 17t60.5 56q29 44 33 114h74z" />
    <glyph glyph-name="M" unicode="M" horiz-adv-x="1189" 
d="M834 667h305v-69h-18q-52 0 -80 -30q-25 -26 -25 -106v-257q0 -80 25 -106q28 -30 80 -30h18v-69h-413v69h23q53 0 81 30q25 26 25 87v344l-256 -530h-75l-269 554v-349q0 -80 25 -106q28 -30 80 -30h25v-69h-335v69h23q52 0 80 30q23 24 23 87v295q0 63 -23 87
q-28 30 -80 30h-23v69h335l224 -463z" />
    <glyph glyph-name="N" unicode="N" horiz-adv-x="1030" 
d="M864 -7h-62l-553 513v-301q0 -78 25 -106q30 -30 81 -30h26v-69h-334v69h23q51 0 81 30q23 24 23 87v295q0 63 -23 87q-30 30 -81 30h-23v69h272l470 -440v235q0 80 -25 106q-30 30 -82 30h-24v69h332v-69h-23q-52 0 -80 -30q-23 -24 -23 -87v-488z" />
    <glyph glyph-name="O" unicode="O" horiz-adv-x="954" 
d="M480 693q178 0 287 -74q72 -49 113 -127.5t41 -164.5q0 -71 -33 -140t-90 -117q-114 -96 -317 -96q-194 0 -308 84q-65 49 -102.5 123.5t-37.5 156.5t37.5 154t105.5 119q120 82 304 82zM472 624q-106 0 -177 -83t-71 -205q0 -132 81 -221q64 -70 170 -70q104 0 169 68
q84 89 84 219q0 128 -72 210t-184 82z" />
    <glyph glyph-name="P" unicode="P" horiz-adv-x="806" 
d="M341 298v-112q0 -63 23 -87q28 -30 81 -30h23v-69h-418v69h23q52 0 80 30q24 25 24 87v295q0 62 -24 87q-28 30 -80 30h-23v69h483q76 0 119.5 -12t74.5 -42q59 -54 59 -133q0 -49 -26.5 -91.5t-70.5 -65.5q-29 -16 -60 -20.5t-109 -4.5h-179zM341 368h124q75 0 108 24
q43 35 43 91q0 66 -57 99q-33 17 -110 17h-108v-231z" />
    <glyph glyph-name="Q" unicode="Q" horiz-adv-x="952" 
d="M844 0h66q-4 -66 -31 -104q-39 -56 -112 -56q-66 0 -123 60q-15 16 -55 79q-57 -5 -101 -5q-230 0 -346 107q-51 46 -80 114t-29 139q0 74 31.5 142t87.5 117q115 100 317 100q211 0 336 -109q114 -100 114 -252q0 -130 -82 -226q-25 -29 -53 -50t-77 -48q31 -48 47 -63
t38 -15t37 19t15 46v5zM640 106q89 87 89 220q0 130 -73 214t-185 84q-107 0 -175.5 -81.5t-68.5 -209.5q0 -154 115 -250q20 50 39 72q43 49 107 49q44 0 79.5 -23t72.5 -75zM545 51q-22 37 -41 52.5t-45 15.5q-45 0 -70 -63q40 -10 85 -10q44 0 71 5z" />
    <glyph glyph-name="R" unicode="R" horiz-adv-x="951" 
d="M861 196h70q-1 -66 -6 -95t-20 -52q-38 -60 -131 -60q-88 0 -121 52q-12 19 -16 41t-9 83q-4 54 -12.5 81.5t-26.5 44.5q-16 14 -34 18t-68 4h-145v-108q0 -80 25 -106q28 -30 81 -30h25v-69h-415v69h17q106 0 106 117v295q0 117 -106 117h-25v69h552q109 0 153 -35
q56 -43 56 -121q0 -71 -63 -117q-32 -24 -105 -43q72 -9 105.5 -46t35.5 -111q5 -69 12.5 -90.5t28.5 -21.5q20 0 28 19t8 69v26zM342 384h138q157 0 157 116q0 53 -41 80q-27 19 -95 19h-159v-215z" />
    <glyph glyph-name="S" unicode="S" horiz-adv-x="773" 
d="M688 675v-221h-69q-11 62 -72 105q-67 47 -183 47q-84 0 -130 -25q-53 -28 -53 -81q0 -25 17 -40q29 -28 117 -32q206 -9 256 -23q78 -20 118 -78q35 -52 35 -116q0 -104 -78 -167t-205 -63q-63 0 -140 19q-49 11 -99 25q-21 6 -35 6q-30 0 -33 -42h-68v238h68
q5 -39 21.5 -64t53.5 -48q87 -54 199 -54q80 0 132.5 31.5t52.5 80.5q0 42 -51 67q-23 11 -54 15t-121 7q-145 5 -206 29q-51 20 -81 68t-30 107q0 97 79 157.5t206 60.5q99 0 214 -35q25 -7 38 -7q30 0 32 33h69z" />
    <glyph glyph-name="T" unicode="T" horiz-adv-x="844" 
d="M824 667v-252h-78q-1 80 -38 125q-48 59 -153 59h-52v-403q0 -73 23 -97q30 -30 81 -30h32v-69h-424v69h24q106 0 106 117v413h-70q-106 0 -149 -73q-21 -36 -29 -111h-77v252h804z" />
    <glyph glyph-name="U" unicode="U" horiz-adv-x="977" 
d="M615 667h329v-69h-23q-51 0 -81 -30q-23 -24 -23 -87v-242q0 -77 -22 -125.5t-73 -85.5q-77 -54 -221 -54q-189 0 -273 78q-49 46 -62 110q-5 24 -5 114v205q0 117 -105 117h-23v69h414v-69h-18q-106 0 -106 -117v-206q0 -121 53 -168q61 -56 159 -56q120 0 177 87
q19 28 24 58t5 113v172q0 64 -23 87q-28 30 -80 30h-23v69z" />
    <glyph glyph-name="V" unicode="V" horiz-adv-x="897" 
d="M565 667h356v-68q-65 -7 -96 -35t-81 -126l-244 -455h-71l-255 470q-3 6 -20 38q-33 64 -67.5 85t-109.5 23v68h478v-68q-128 -3 -128 -56q0 -16 19 -59q29 -60 30 -62l138 -247l145 266q35 65 35 98q0 29 -30 45q-21 11 -74 13q-3 0 -25 2v68z" />
    <glyph glyph-name="W" unicode="W" horiz-adv-x="1157" 
d="M855 667h325v-68q-59 1 -94.5 -26t-55.5 -88l-202 -502h-57l-192 465l-185 -465h-59l-189 465q-26 64 -41.5 89t-39.5 40q-33 22 -78 22h-10v68h417v-68q-45 -1 -57 -5q-23 -6 -36 -21.5t-13 -35.5q0 -15 17 -52l106 -255l178 437h74l181 -437l105 255q14 34 14 55
q0 59 -98 59h-10v68z" />
    <glyph glyph-name="X" unicode="X" horiz-adv-x="912" 
d="M539 372l248 -235q40 -38 58 -49t57 -20v-68h-436v68q59 3 77.5 9t18.5 22q0 26 -55 78l-86 82l-100 -95q-38 -36 -38 -60q0 -18 24 -28q14 -5 68 -8v-68h-365v68q61 1 99 15q38 15 55 32l46 45l155 150l-197 189q-64 62 -89.5 78t-68.5 22v68h434v-68q-53 -3 -67 -6
q-24 -6 -24 -22q0 -10 15.5 -31t37.5 -42l76 -73l72 68q55 53 55 76q0 16 -20 22.5t-69 7.5v68h367v-68q-75 0 -111 -14t-83 -62z" />
    <glyph glyph-name="Y" unicode="Y" horiz-adv-x="816" 
d="M514 667h325v-68q-66 -4 -98 -24t-85 -89l-162 -203v-97q0 -62 24 -87q28 -30 81 -30h23v-69h-419v69h23q106 0 106 117v97l-185 219q-51 61 -83.5 79.5t-86.5 17.5v68h437v-68h-27q-36 0 -51 -7t-15 -23q0 -13 8 -25.5t40 -52.5l97 -118l114 141q25 31 25 51
q0 34 -91 34v68z" />
    <glyph glyph-name="Z" unicode="Z" horiz-adv-x="788" 
d="M758 262v-262h-728v68l474 531h-230q-49 0 -80 -15.5t-53 -50.5q-29 -47 -36 -128h-75v262h700v-68l-471 -531h221q62 0 99.5 15.5t63.5 52.5q35 49 35 126h80z" />
    <glyph glyph-name="bracketleft" unicode="[" horiz-adv-x="412" 
d="M352 604h-98v-704h98v-67h-239v838h239v-67z" />
    <glyph glyph-name="backslash" unicode="\" horiz-adv-x="619" 
d="M545 -186l-472 824l75 42l477 -821z" />
    <glyph glyph-name="bracketright" unicode="]" horiz-adv-x="412" 
d="M60 -100h98v704h-98v67h239v-838h-239v67z" />
    <glyph glyph-name="asciicircum" unicode="^" 
d="M152 348h-138l150 323h173l150 -323h-138l-99 217z" />
    <glyph glyph-name="underscore" unicode="_" 
d="M0 -55h500v-93h-500v93z" />
    <glyph glyph-name="grave" unicode="`" 
d="M215 553l-149 148h166l83 -148h-100z" />
    <glyph glyph-name="a" unicode="a" horiz-adv-x="713" 
d="M639 193h61v-88q0 -57 -27 -84q-36 -38 -107 -38q-103 0 -138 94q-40 -38 -71 -55q-67 -39 -147 -39q-70 0 -120 43t-50 104q0 55 34 89t109 53q42 11 154 28q86 13 86 61q0 31 -31 50.5t-78 19.5q-58 0 -117 -28q20 -23 20 -47q0 -25 -19.5 -41.5t-48.5 -16.5
q-31 0 -51 19t-20 48q0 57 64.5 90t176.5 33q133 0 193 -44q31 -22 43 -54.5t12 -94.5v-133q1 -70 6 -83q7 -18 27 -18q39 0 39 67v65zM421 265q-50 -25 -98 -37q-65 -16 -84 -30q-31 -22 -31 -57q0 -28 21 -46t53 -18q30 0 60.5 13.5t49.5 34.5q31 36 31 95q0 11 -2 45z
" />
    <glyph glyph-name="b" unicode="b" horiz-adv-x="649" 
d="M66 0v503q0 54 -17 75t-62 21h-7v68h231v-260q38 44 77.5 62.5t94.5 18.5q107 0 169 -74q63 -75 63 -182q0 -109 -65.5 -179t-166.5 -70q-124 0 -187 97l-68 -80h-62zM330 409q-54 0 -88 -45t-34 -118q0 -84 33 -134.5t88 -50.5q54 0 85.5 44.5t31.5 121.5
q0 87 -30.5 134.5t-85.5 47.5z" />
    <glyph glyph-name="c" unicode="c" horiz-adv-x="552" 
d="M471 157h61q-13 -47 -27.5 -73t-40.5 -48q-64 -53 -161 -53q-115 0 -192.5 72.5t-77.5 179.5q0 112 75.5 182.5t195.5 70.5q91 0 150 -38t59 -96q0 -34 -22 -56.5t-56 -22.5q-30 0 -50.5 20.5t-20.5 49.5q0 31 25 53q-27 26 -68 26q-57 0 -91.5 -46.5t-34.5 -123.5
q0 -88 41 -142.5t106 -54.5q45 0 79 26t50 74z" />
    <glyph glyph-name="d" unicode="d" horiz-adv-x="703" 
d="M576 667v-504q0 -53 17.5 -74t62.5 -21h23v-68h-232v73q-44 -48 -86 -68t-99 -20q-106 0 -167 75q-62 76 -62 179q0 104 66 174.5t163 70.5q100 0 170 -83v102q0 54 -17.5 75t-61.5 21h-22v68h245zM317 407q-53 0 -86.5 -46.5t-33.5 -120.5q0 -80 34 -130t89 -50
q53 0 85 45t32 118q0 86 -32 135t-88 49z" />
    <glyph glyph-name="e" unicode="e" horiz-adv-x="617" 
d="M499 151h75q-27 -63 -62 -96q-75 -72 -199 -72q-116 0 -190 63q-41 35 -65.5 87t-24.5 106q0 49 20.5 97.5t55.5 81.5q73 70 197 70q75 0 136.5 -28.5t97.5 -80.5q25 -35 34 -73t10 -104h-382q6 -48 25 -77q20 -31 56 -49.5t77 -18.5q106 0 139 94zM195 273h226
q-1 60 -22 96q-31 51 -89 51q-51 0 -81 -38.5t-34 -108.5z" />
    <glyph glyph-name="f" unicode="f" horiz-adv-x="449" 
d="M268 403v-240q0 -56 16 -74q19 -21 61 -21h64v-68h-379v68h14q44 0 61.5 20.5t17.5 74.5v240h-93v68h88q3 51 12.5 79.5t32.5 54.5q67 75 172 75q63 0 103.5 -29t40.5 -75q0 -32 -19.5 -53t-48.5 -21t-48.5 20t-19.5 50q0 23 18 44q-13 7 -27 7q-36 0 -51 -22.5
t-15 -76.5v-53h136v-68h-136z" />
    <glyph glyph-name="g" unicode="g" horiz-adv-x="735" 
d="M374 68l109 1q109 0 152 -24q26 -15 42 -44t16 -63q0 -175 -356 -175q-160 0 -235 29t-75 90q0 52 64 81q-63 36 -63 97q0 74 89 118q-65 54 -65 128q0 84 72.5 133t197.5 49q75 0 120.5 -15.5t90.5 -55.5q20 21 35 34q32 24 77 24t76 -30t31 -73q0 -35 -22 -58.5
t-55 -23.5q-30 0 -51 19t-21 46q0 21 14 41q-9 4 -16 4q-21 0 -40 -22q16 -42 16 -76q0 -77 -72.5 -125.5t-187.5 -48.5q-87 0 -166 29q-19 -17 -24 -25t-5 -21q0 -33 40 -40q25 -5 105 -5q5 0 107 2zM317 425q-45 0 -74 -32.5t-29 -84.5t28 -85t72 -33t72 31.5t28 81.5
q0 55 -26.5 88.5t-70.5 33.5zM349 -57q-138 0 -188 -10.5t-50 -38.5q0 -22 30 -38q24 -11 83.5 -20t116.5 -9q127 0 193 29q30 14 30 40q0 29 -41.5 38t-173.5 9z" />
    <glyph glyph-name="h" unicode="h" horiz-adv-x="784" 
d="M278 667v-270q32 33 57 49q64 42 138 42q45 0 85.5 -17.5t66.5 -47.5q40 -49 40 -148v-112q0 -54 17.5 -74.5t62.5 -20.5h10v-68h-331v68h14q45 0 62 21t17 74v58q0 90 -17 128q-11 23 -35.5 37.5t-54.5 14.5q-68 0 -104 -52q-28 -38 -28 -119v-67q0 -53 17 -74t62 -21
h21v-68h-337v68h14q44 0 61.5 20.5t17.5 74.5v340q0 54 -17 75t-62 21h-18v68h241z" />
    <glyph glyph-name="i" unicode="i" horiz-adv-x="410" 
d="M281 471v-308q0 -53 17.5 -74t61.5 -21h19v-68h-336v68h16q45 0 62 20.5t17 74.5v145q0 54 -17 74.5t-62 20.5h-16v68h238zM202 699q35 0 61 -26t26 -62q0 -37 -26 -63t-62 -26q-37 0 -63 26t-26 63t26 62.5t64 25.5z" />
    <glyph glyph-name="j" unicode="j" horiz-adv-x="328" 
d="M249 471v-524q0 -81 -55 -126q-61 -48 -138 -48q-61 0 -102 27.5t-41 68.5q0 29 19.5 48.5t48.5 19.5q28 0 46.5 -17t18.5 -43q0 -24 -19 -42q14 -10 30 -10q31 0 41 27q7 16 8 123v333q0 53 -17.5 74t-61.5 21h-20v68h242zM169 700q35 0 60.5 -26t25.5 -61
q0 -37 -25.5 -62.5t-61.5 -25.5q-37 0 -62.5 25.5t-25.5 62.5q0 36 26 61.5t63 25.5z" />
    <glyph glyph-name="k" unicode="k" horiz-adv-x="746" 
d="M478 303l148 -182q27 -33 42.5 -43t40.5 -10v-68h-307v68q31 0 42 4t11 16q0 10 -23 39l-75 94l-81 -56v-34q0 -46 29 -58q7 -4 39 -5v-68h-307v68h15q45 0 62.5 20.5t17.5 74.5v340q0 55 -17 75.5t-63 20.5h-15v68h239v-418l126 83q48 32 48 48q0 23 -38 23h-17v68h291
v-68h-10q-33 0 -56 -10q-33 -14 -72 -41z" />
    <glyph glyph-name="l" unicode="l" horiz-adv-x="396" 
d="M275 667v-504q0 -53 17.5 -74t61.5 -21h12v-68h-329v68h16q44 0 61.5 21t17.5 74v341q0 53 -17.5 74t-61.5 21h-16v68h238z" />
    <glyph glyph-name="m" unicode="m" horiz-adv-x="1088" 
d="M272 471v-89q40 56 82.5 81t97.5 25q71 0 117 -40q24 -21 47 -66q68 106 182 106q92 0 137 -64q34 -50 34 -141v-120q0 -56 17 -74q19 -21 62 -21h10v-68h-307v68q0 3 5 3q6 0 14 -1h4q19 0 37 18q9 10 11.5 26t2.5 62v69q0 91 -16 115q-22 34 -70 34q-55 0 -88 -44
q-24 -34 -24 -109v-92q0 -48 13 -62.5t61 -18.5v-68h-294v68q41 4 56 16q20 19 20 66v101q0 67 -17 101q-21 42 -70 42q-27 0 -52.5 -14t-39.5 -37q-21 -35 -21 -103v-71q0 -61 15.5 -80.5t62.5 -20.5v-68h-318v68h17q43 0 62 21q17 20 17 74v145q0 53 -17.5 74t-61.5 21
h-17v68h229z" />
    <glyph glyph-name="n" unicode="n" horiz-adv-x="789" 
d="M277 471v-79q86 96 198 96q97 0 151 -59q43 -47 43 -148v-118q0 -53 17.5 -74t61.5 -21h11v-68h-328v68h15q44 0 61.5 21t17.5 74v89q0 77 -25.5 113.5t-78.5 36.5q-62 0 -104 -47q-19 -22 -26 -44.5t-7 -62.5v-85q0 -53 17.5 -74t61.5 -21h20v-68h-335v68h13
q45 0 62 20.5t17 74.5v145q0 54 -17 74.5t-62 20.5h-18v68h234z" />
    <glyph glyph-name="o" unicode="o" horiz-adv-x="677" 
d="M339 488q131 0 217.5 -73.5t86.5 -184.5q0 -52 -28.5 -103.5t-77.5 -86.5q-79 -57 -197 -57q-132 0 -219.5 72.5t-87.5 181.5q0 115 101 192q78 59 205 59zM339 426q-61 0 -100 -53.5t-39 -137.5q0 -82 38.5 -134t99.5 -52q68 0 103 51q37 55 37 136q0 84 -39 137
t-100 53z" />
    <glyph glyph-name="p" unicode="p" horiz-adv-x="682" 
d="M240 471v-65q61 82 172 82q104 0 170.5 -69.5t66.5 -179.5t-65 -183t-163 -73q-94 0 -172 79v-104q0 -53 17.5 -74t61.5 -21h16v-68h-335v68h17q44 0 61.5 20.5t17.5 74.5v350q0 53 -17.5 74t-61.5 21h-17v68h231zM366 407q-55 0 -87.5 -46.5t-32.5 -124.5
q0 -77 32 -123.5t86 -46.5q52 0 85 45.5t33 117.5q0 83 -31 130.5t-85 47.5z" />
    <glyph glyph-name="q" unicode="q" horiz-adv-x="696" 
d="M442 471h231v-68h-17q-44 0 -61.5 -21t-17.5 -74v-350q0 -54 17.5 -74.5t61.5 -20.5h17v-68h-335v68h16q44 0 61.5 21t17.5 74v104q-78 -79 -172 -79q-98 0 -163 73t-65 183t66.5 179.5t170.5 69.5q111 0 172 -82v65zM316 407q-53 0 -84.5 -47t-31.5 -126
q0 -76 32.5 -122t85.5 -46q54 0 86 46.5t32 123.5q0 78 -32.5 124.5t-87.5 46.5z" />
    <glyph glyph-name="r" unicode="r" horiz-adv-x="588" 
d="M276 471v-103q41 63 83.5 91.5t97.5 28.5q51 0 84 -30.5t33 -77.5q0 -35 -22.5 -58t-57.5 -23q-29 0 -47 16.5t-18 43.5q0 10 4 25q-43 0 -73 -18q-76 -44 -76 -166v-37q0 -54 17 -74.5t62 -20.5h19v-68h-335v68h15q45 0 62 20.5t17 74.5v145q0 54 -17.5 74.5t-61.5 20.5
h-19v68h233z" />
    <glyph glyph-name="s" unicode="s" horiz-adv-x="634" 
d="M64 0v184h64q4 -56 42 -84q60 -46 154 -46q49 0 77.5 15.5t28.5 42.5t-28 43q-19 9 -69 18l-106 18q-89 15 -129.5 49t-40.5 95q0 71 54 112t147 41q73 0 148 -25q55 -19 67 -19q19 0 22 27h60v-157h-60q-9 30 -21 46.5t-35 29.5q-62 34 -140 34q-48 0 -77.5 -14.5
t-29.5 -38.5q0 -20 19 -30.5t69 -18.5l102 -17q60 -10 90.5 -21t55.5 -31q51 -43 51 -110q0 -71 -53.5 -115.5t-139.5 -44.5q-52 0 -92.5 8.5t-122.5 37.5q-11 4 -21 4q-27 0 -27 -33h-59z" />
    <glyph glyph-name="t" unicode="t" horiz-adv-x="421" 
d="M310 188h64v-72q0 -63 -36.5 -98t-102.5 -35q-79 0 -115 48q-26 34 -26 107v265h-83v68q71 4 117.5 47.5t45.5 105.5h64v-153h130v-68h-130v-272q0 -39 8.5 -55t29.5 -16q19 0 26.5 14t7.5 47v67z" />
    <glyph glyph-name="u" unicode="u" horiz-adv-x="780" 
d="M644 471v-308q0 -54 17 -74.5t62 -20.5h10v-68h-234v81q-43 -53 -87.5 -75.5t-106.5 -22.5q-93 0 -143 51.5t-50 148.5v125q0 53 -17.5 74t-61.5 21h-10v68h233v-237q0 -74 16 -110q25 -54 92 -54q62 0 98.5 44.5t36.5 119.5v74q0 53 -17.5 74t-61.5 21h-18v68h242z" />
    <glyph glyph-name="v" unicode="v" horiz-adv-x="649" 
d="M679 471v-68q-46 1 -72.5 -15.5t-54.5 -61.5l-203 -333h-46l-201 324q-31 52 -56 68t-76 18v68h368v-68q-48 -2 -65.5 -9t-17.5 -23q0 -18 25 -56l95 -152l96 157q24 39 24 51q0 16 -19 23t-67 9v68h270z" />
    <glyph glyph-name="w" unicode="w" horiz-adv-x="895" 
d="M925 471v-68q-50 -3 -66.5 -14t-38.5 -55l-176 -342h-41l-156 289l-146 -289h-46l-167 318q-29 56 -52 74.5t-66 18.5v68h354v-68l-21 -1q-72 -3 -72 -32q0 -17 15 -44l78 -142l144 287h48l152 -287l75 146q14 27 14 39q0 19 -22 26.5t-81 7.5v68h271z" />
    <glyph glyph-name="x" unicode="x" horiz-adv-x="722" 
d="M712 68v-68h-345v68q38 2 49.5 5t11.5 13q0 9 -26 35l-61 57l-67 -61q-17 -16 -20.5 -20t-3.5 -10q0 -10 13 -14t49 -5v-68h-302v68q70 -1 98.5 9t80.5 54l97 90l-104 91q-59 55 -89 71.5t-78 19.5v68h352v-68q-52 -1 -52 -15t26 -35l49 -41l37 38q21 22 24.5 26.5
t3.5 10.5q0 15 -47 16v68h271v-68q-64 -2 -87 -9.5t-56 -36.5l-98 -89l174 -150q33 -31 51.5 -39.5t48.5 -10.5z" />
    <glyph glyph-name="y" unicode="y" horiz-adv-x="641" 
d="M678 471v-68q-56 -2 -80 -22.5t-71 -107.5l-224 -399q-58 -103 -147 -103q-55 0 -92 33t-37 81q0 34 20.5 57t51.5 23q27 0 46.5 -19t19.5 -45q0 -27 -23 -40q12 -15 30 -15q37 0 76 69l41 74l-178 303q-38 63 -67 85t-81 26v68h373v-68q-52 -2 -69.5 -9t-17.5 -26
q0 -13 21 -49l104 -181l99 179q19 33 19 53q0 19 -24 27q-12 5 -57 6v68h267z" />
    <glyph glyph-name="z" unicode="z" horiz-adv-x="596" 
d="M560 195v-195h-523v68l305 335h-128q-58 0 -80 -20.5t-22 -73.5v-18h-68v180h502v-68l-308 -335h145q69 0 91 23q11 13 15 31.5t5 72.5h66z" />
    <glyph glyph-name="braceleft" unicode="{" 
d="M303 454v-90q0 -49 -12 -74.5t-46 -47.5q33 -20 45.5 -46.5t12.5 -75.5v-95q0 -100 20 -128q17 -21 62 -21h15v-66q-62 -2 -74 -2q-69 0 -98.5 8t-50.5 33q-29 32 -29 105v140q0 56 -12.5 83t-43.5 36v66q56 17 56 112v145q0 74 35 108q21 20 49.5 26.5t92.5 6.5
q17 0 75 -2v-66h-13q-50 0 -66 -27q-18 -28 -18 -128z" />
    <glyph glyph-name="bar" unicode="|" 
d="M171 667h157v-834h-157v834z" />
    <glyph glyph-name="braceright" unicode="}" 
d="M198 31v90q0 49 12 74.5t46 47.5q-33 20 -45.5 46.5t-12.5 75.5v95q-2 70 -5 91t-15 37q-18 21 -63 21h-15v66q64 2 74 2q69 0 98.5 -8t51.5 -32q29 -33 29 -106v-140q0 -55 12.5 -82t42.5 -37v-65q-55 -18 -55 -113v-145q0 -74 -35 -108q-21 -20 -49.5 -26.5t-92.5 -6.5
q-18 0 -76 2v66h13q50 0 67 27q18 28 18 128z" />
    <glyph glyph-name="asciitilde" unicode="~" horiz-adv-x="667" 
d="M169 549l-76 64q56 138 150 138q35 0 112 -33q58 -24 76 -24q38 0 70 60l76 -63q-31 -75 -66.5 -106t-90.5 -31q-21 0 -39 6t-72 29q-49 21 -72 21q-36 0 -68 -61z" />
    <glyph glyph-name="uni00A0" unicode="&#xa0;" horiz-adv-x="300" 
 />
    <glyph glyph-name="exclamdown" unicode="&#xa1;" horiz-adv-x="349" 
d="M149 487q35 0 60.5 -26t25.5 -61q0 -37 -25.5 -62.5t-61.5 -25.5q-37 0 -62.5 25.5t-25.5 62.5q0 36 26 61.5t63 25.5zM118 262h57l54 -283q7 -32 7 -42q0 -38 -24.5 -63.5t-61.5 -25.5t-61.5 25.5t-24.5 63.5q0 16 4 37z" />
    <glyph glyph-name="cent" unicode="&#xa2;" horiz-adv-x="683" 
d="M529 261h60q-17 -77 -68 -122t-130 -52v-70h-44v70q-55 7 -87.5 18t-64.5 34q-47 35 -74 88t-27 113q0 63 30 119.5t80 88.5q53 34 143 42v91h44v-91q80 -13 120 -37q59 -36 59 -97q0 -32 -22 -54t-54 -22q-30 0 -51 21t-21 52q0 28 26 49q-22 16 -57 26v-364
q20 -2 22 -2q45 0 85 42q19 20 31 57zM347 176v348q-44 -11 -69 -56t-25 -114q0 -132 94 -178z" />
    <glyph glyph-name="sterling" unicode="&#xa3;" horiz-adv-x="698" 
d="M593 178h63q-14 -74 -44 -117q-60 -81 -175 -81q-68 0 -159 38q-51 22 -70.5 28t-40.5 6q-48 0 -65 -52h-61q12 65 36 101q53 77 154 77q45 0 106 -23q19 25 19 52q0 19 -15 33q-11 11 -22.5 16t-71.5 25q-12 3 -66 26h-140v48h78q-44 45 -44 107q0 85 71 138.5t184 53.5
q44 0 77.5 -6t105.5 -26q11 -4 22 -4q21 0 25 31h60v-200h-60q-8 59 -51 91q-65 48 -163 48q-66 0 -108 -24t-42 -62q0 -24 13 -37q12 -11 27 -18t94 -37q60 -25 99 -55h118v-48h-90q3 -18 3 -28q0 -66 -80 -138q86 -29 122 -29q78 0 91 66z" />
    <glyph glyph-name="currency" unicode="&#xa4;" horiz-adv-x="716" 
d="M41 107l101 101q-37 63 -37 131q0 63 40 133l-104 103l81 81l105 -105q72 38 131 38q56 0 129 -37l104 103l80 -80l-102 -102q41 -68 41 -135q0 -60 -37 -129l101 -101l-79 -81l-101 101q-65 -42 -131 -42q-68 0 -141 41l-101 -99zM359 457q-49 0 -83 -34.5t-34 -83.5
t34 -83.5t82 -34.5t82 34.5t34 83.5q0 48 -34 83t-81 35z" />
    <glyph glyph-name="yen" unicode="&#xa5;" horiz-adv-x="683" 
d="M450 350h90v-76h-131v-58h131v-76h-128q12 -71 78 -71h18v-69h-327v69h18q64 0 79 71h-136v76h140v58h-140v76h96l-100 152q-41 61 -66 79.5t-67 17.5v68h341v-68h-24q-48 0 -48 -29q0 -21 37 -79l76 -118l88 141q20 32 20 52q0 33 -71 33v68h254v-68q-52 -4 -77 -24
t-67 -89z" />
    <glyph glyph-name="brokenbar" unicode="&#xa6;" 
d="M171 667h157v-354h-157v354zM171 153h157v-320h-157v320z" />
    <glyph glyph-name="section" unicode="&#xa7;" horiz-adv-x="533" 
d="M227 506l138 -68q72 -35 94 -53q47 -36 47 -94q0 -60 -49 -100q-22 -18 -69 -34q59 -26 83.5 -56t24.5 -76q0 -41 -22 -79t-59 -62q-59 -40 -157 -40q-86 0 -153 40q-78 46 -78 113q0 32 18.5 52t48.5 20q25 0 41.5 -15.5t16.5 -39.5q0 -34 -37 -48q24 -62 123 -62
q53 0 85 21t32 55q0 33 -30 53q-6 4 -49 25l-128 64q-56 28 -82 50q-39 34 -39 89q0 53 38 93q23 25 76 44q-49 28 -66 43q-41 36 -41 92q0 68 63 113.5t158 45.5q88 0 145.5 -31.5t57.5 -79.5q0 -23 -17.5 -38t-43.5 -15q-25 0 -41 12.5t-16 32.5q0 19 21 37q-40 34 -99 34
q-47 0 -77 -19t-30 -49q0 -20 14.5 -34t57.5 -36zM210 253l130 -64q41 27 41 57q0 20 -11.5 31.5t-45.5 27.5l-137 65q-42 -31 -42 -57q0 -20 22 -37q6 -5 43 -23z" />
    <glyph glyph-name="dieresis" unicode="&#xa8;" 
d="M369 710q34 0 58 -24.5t24 -58.5q0 -35 -24.5 -59t-58.5 -24q-35 0 -59 24.5t-24 59.5q0 34 24.5 58t59.5 24zM131 705q33 0 56.5 -24t23.5 -57q0 -34 -23.5 -57.5t-57.5 -23.5t-57.5 24t-23.5 58q0 33 24 56.5t58 23.5z" />
    <glyph glyph-name="copyright" unicode="&#xa9;" horiz-adv-x="772" 
d="M581 500v-130h-39q-4 40 -32 64q-42 35 -97 35t-90.5 -38.5t-35.5 -99.5q0 -58 38 -98.5t94 -40.5q48 0 81.5 25.5t45.5 70.5h35q-26 -135 -182 -135q-93 0 -150 49.5t-57 130.5t52 130.5t137 49.5q61 0 117 -25q22 -9 29 -9q17 0 19 21h35zM391 681q140 0 240.5 -102.5
t100.5 -245.5t-101.5 -245t-243.5 -102q-143 0 -245 102t-102 245q0 146 102 247t249 101zM391 638q-127 0 -214 -88.5t-87 -216.5q0 -125 87 -214.5t209 -89.5q123 0 209.5 89t86.5 215q0 125 -86 215t-205 90z" />
    <glyph glyph-name="ordfeminine" unicode="&#xaa;" horiz-adv-x="459" 
d="M400 387h46v-55q0 -75 -86 -75q-65 0 -88 52q-59 -52 -133 -52q-45 0 -77 26.5t-32 63.5q0 34 22 54.5t70 32.5q23 6 95 16q50 7 50 33q0 16 -18 27t-45 11q-35 0 -67 -14q10 -13 10 -27q0 -16 -13 -26.5t-33 -10.5q-21 0 -34.5 12t-13.5 30q0 35 41 55.5t112 20.5
q84 0 122 -26q20 -13 28 -33.5t8 -57.5v-79q0 -21 0.5 -30.5t2.5 -16t4.5 -7.5t8.5 -1q20 0 20 35v42zM266 421q-22 -10 -56 -20q-40 -10 -54 -19.5t-14 -28.5q0 -15 11.5 -24.5t30.5 -9.5q37 0 60 22.5t23 58.5q0 13 -1 21z" />
    <glyph glyph-name="guillemotleft" unicode="&#xab;" horiz-adv-x="502" 
d="M345 130l-122 117l122 115h123l-123 -115l123 -117h-123zM155 130l-122 117l122 115h123l-123 -115l123 -117h-123z" />
    <glyph glyph-name="logicalnot" unicode="&#xac;" 
d="M314 0v155h-281v137h433v-292h-152z" />
    <glyph glyph-name="uni00AD" unicode="&#xad;" horiz-adv-x="276" 
d="M276 298v-92h-276v92h276z" />
    <glyph glyph-name="registered" unicode="&#xae;" horiz-adv-x="772" 
d="M571 262h35q0 -53 -13 -74q-19 -30 -65 -30q-45 0 -61 26q-9 14 -13 62q-3 47 -15.5 60.5t-54.5 13.5h-72v-54q0 -37 12 -52.5t40 -15.5h13v-34h-208v34h9q53 0 53 59v147q0 59 -54 59h-12v34h276q53 0 77 -18q28 -20 28 -60q0 -59 -84 -79q69 -10 70 -79q2 -35 6 -46
t15 -11t14.5 10.5t3.5 47.5zM312 356h68q79 0 79 58q0 49 -68 49h-79v-107zM391 681q140 0 240.5 -102.5t100.5 -245.5t-101.5 -245t-243.5 -102q-143 0 -245 102t-102 245q0 146 102 247t249 101zM391 638q-127 0 -214 -88.5t-87 -216.5q0 -125 87 -214.5t209 -89.5
q123 0 209.5 89t86.5 215q0 125 -86 215t-205 90z" />
    <glyph glyph-name="macron" unicode="&#xaf;" 
d="M17 577v100h467v-100h-467z" />
    <glyph glyph-name="degree" unicode="&#xb0;" 
d="M251 673q66 0 111.5 -46.5t45.5 -113.5q0 -65 -46 -111t-111 -46q-66 0 -112.5 46.5t-46.5 111.5q0 66 46.5 112.5t112.5 46.5zM249 613q-39 0 -67.5 -29.5t-28.5 -69.5t28.5 -69t68.5 -29q39 0 68 28.5t29 67.5q0 42 -28.5 71.5t-69.5 29.5z" />
    <glyph glyph-name="plusminus" unicode="&#xb1;" 
d="M9 400h202v200h76v-200h204v-73h-204v-193h-76v193h-202v73zM9 93h482v-73h-482v73z" />
    <glyph glyph-name="twosuperior" unicode="&#xb2;" horiz-adv-x="433" 
d="M372 395v-129h-313q4 71 31 105t118 81q59 33 59 81q0 29 -22.5 50t-54.5 21q-36 0 -60 -26q42 -14 42 -50q0 -20 -15 -34.5t-36 -14.5q-26 0 -41.5 16.5t-15.5 43.5q0 51 45 85.5t110 34.5q68 0 111.5 -36t43.5 -91q0 -63 -52 -97q-23 -16 -90 -36q-52 -17 -71.5 -28.5
t-28.5 -30.5h149q21 0 30 10.5t9 35.5v9h52z" />
    <glyph glyph-name="threesuperior" unicode="&#xb3;" horiz-adv-x="433" 
d="M148 438v47q54 0 71 5q44 13 44 56q0 27 -20.5 45t-51.5 18q-29 0 -54 -17q18 -15 18 -36q0 -19 -14 -32t-34 -13q-22 0 -36 14.5t-14 37.5q0 40 44.5 68t109.5 28q68 0 113.5 -30.5t45.5 -76.5q0 -29 -19.5 -52t-52.5 -33q88 -31 88 -101q0 -50 -46.5 -80.5
t-123.5 -30.5q-74 0 -121.5 28.5t-47.5 73.5q0 23 15.5 38.5t37.5 15.5t37.5 -15t15.5 -36q0 -24 -21 -37q29 -19 63 -19t57 19.5t23 48.5q0 32 -29 51q-22 15 -68 15h-30z" />
    <glyph glyph-name="acute" unicode="&#xb4;" 
d="M286 553h-100l83 148h166z" />
    <glyph glyph-name="mu" unicode="&#xb5;" 
d="M29 -171v651h132v-250q0 -61 16 -87q28 -42 72 -42q43 0 66 34.5t23 98.5v246h132v-480h-132v65q-29 -75 -91 -75q-54 0 -86 60v-221h-132z" />
    <glyph glyph-name="paragraph" unicode="&#xb6;" horiz-adv-x="625" 
d="M248 -113v433q-91 0 -142.5 45.5t-51.5 126.5q0 105 83 149q49 26 143 26h257v-58h-52v-722h-75v722h-87v-722h-75z" />
    <glyph glyph-name="periodcentered" unicode="&#xb7;" horiz-adv-x="250" 
d="M199 331v-167h-148v167h148z" />
    <glyph glyph-name="cedilla" unicode="&#xb8;" 
d="M289 0l-24 -74q92 -9 92 -64q0 -31 -28 -50t-72 -19q-91 0 -113 66h62q4 -24 29 -24q14 0 23 8t9 20q0 15 -11 24t-29 9q-11 0 -18 -1h-10l29 105h61z" />
    <glyph glyph-name="onesuperior" unicode="&#xb9;" horiz-adv-x="433" 
d="M267 647v-280q0 -30 10 -41.5t35 -11.5h34v-47h-256v47h30q26 0 35.5 11t9.5 42v140q0 31 -9.5 42t-35.5 11h-34v47q53 0 79 9t35 31h67z" />
    <glyph glyph-name="ordmasculine" unicode="&#xba;" horiz-adv-x="437" 
d="M219 561q82 0 137 -44t55 -111q0 -63 -55.5 -106t-136.5 -43q-83 0 -138.5 44t-55.5 109q0 66 54.5 108.5t139.5 42.5zM218 518q-36 0 -59 -30.5t-23 -78.5q0 -47 22.5 -76.5t59.5 -29.5t59.5 29t22.5 78q0 47 -23 77.5t-59 30.5z" />
    <glyph glyph-name="guillemotright" unicode="&#xbb;" horiz-adv-x="502" 
d="M156 130h-123l123 117l-123 115h123l122 -115zM347 130h-124l124 117l-124 115h124l121 -115z" />
    <glyph glyph-name="onequarter" unicode="&#xbc;" horiz-adv-x="961" 
d="M267 647v-280q0 -30 10 -41.5t35 -11.5h34v-47h-256v47h30q26 0 35.5 11t9.5 42v140q0 31 -9.5 42t-35.5 11h-34v47q53 0 79 9t35 31h67zM251 -33l-42 28l490 672l43 -28zM840 380v-231h79v-46h-79v-3q0 -31 9.5 -42t35.5 -11h34v-47h-254v47h33q26 0 35.5 11t9.5 42v3
h-174v40l213 237h58zM743 149v113l-103 -113h103z" />
    <glyph glyph-name="onehalf" unicode="&#xbd;" horiz-adv-x="961" 
d="M267 647v-280q0 -30 10 -41.5t35 -11.5h34v-47h-256v47h30q26 0 35.5 11t9.5 42v140q0 31 -9.5 42t-35.5 11h-34v47q53 0 79 9t35 31h67zM251 -33l-42 28l490 672l43 -28zM899 128v-128h-313q4 70 31 104t118 81q59 33 59 81q0 29 -22.5 50t-54.5 21q-36 0 -60 -26
q42 -12 42 -49q0 -20 -15 -34.5t-36 -14.5q-26 0 -41.5 16.5t-15.5 43.5q0 50 45 84.5t110 34.5q68 0 111.5 -36t43.5 -91q0 -61 -52 -97q-24 -16 -90 -36q-52 -17 -71.5 -28t-28.5 -30h149q21 0 30 10.5t9 34.5v9h52z" />
    <glyph glyph-name="threequarters" unicode="&#xbe;" horiz-adv-x="961" 
d="M148 438v47q54 0 71 5q44 13 44 56q0 27 -20.5 45t-51.5 18q-29 0 -54 -17q18 -15 18 -36q0 -19 -14 -32t-34 -13q-22 0 -36 14.5t-14 37.5q0 40 44.5 68t109.5 28q68 0 113.5 -30.5t45.5 -76.5q0 -29 -19.5 -52t-52.5 -33q88 -31 88 -101q0 -50 -46.5 -80.5
t-123.5 -30.5q-74 0 -121.5 28.5t-47.5 73.5q0 23 15.5 38.5t37.5 15.5t37.5 -15t15.5 -36q0 -24 -21 -37q29 -19 63 -19t57 19.5t23 48.5q0 32 -29 51q-22 15 -68 15h-30zM251 -33l-41 28l489 672l43 -28zM841 380v-231h79v-46h-79v-3q0 -31 9.5 -42t35.5 -11h34v-47h-254
v47h33q26 0 35.5 11t9.5 42v3h-175v40l214 237h58zM744 149v113l-103 -113h103z" />
    <glyph glyph-name="questiondown" unicode="&#xbf;" horiz-adv-x="587" 
d="M292 483q35 0 60.5 -26t25.5 -61q0 -36 -25.5 -61.5t-61.5 -25.5t-61.5 25.5t-25.5 62.5q0 36 25.5 61t62.5 25zM251 257h74q1 -38 -10.5 -62t-48.5 -58q-50 -48 -65.5 -71.5t-15.5 -51.5q0 -45 31 -76t75 -31q42 0 80 32q-26 31 -26 57q0 32 21.5 54t52.5 22
q35 0 58 -23.5t23 -58.5q0 -67 -65.5 -109t-170.5 -42q-107 0 -169 44t-62 121q0 62 44 104q18 18 39 31.5t75 41.5q36 20 46.5 33t13.5 43z" />
    <glyph glyph-name="Agrave" unicode="&#xc0;" horiz-adv-x="863" 
d="M390 673h66l264 -482q37 -73 70 -96t103 -27v-68h-462v68q76 2 100 19q25 17 25 39q0 19 -10 41l-11 24h-317l-14 -29q-9 -22 -9 -39q0 -25 30 -39q23 -10 98 -16v-68h-353v68q53 2 85 23t60 73zM499 258l-123 226l-122 -226h245zM501 731h-106l-192 151h173z" />
    <glyph glyph-name="Aacute" unicode="&#xc1;" horiz-adv-x="863" 
d="M390 673h66l264 -482q37 -73 70 -96t103 -27v-68h-462v68q76 2 100 19q25 17 25 39q0 19 -10 41l-11 24h-317l-14 -29q-9 -22 -9 -39q0 -25 30 -39q23 -10 98 -16v-68h-353v68q53 2 85 23t60 73zM499 258l-123 226l-122 -226h245zM456 731h-106l125 150h171z" />
    <glyph glyph-name="Acircumflex" unicode="&#xc2;" horiz-adv-x="863" 
d="M390 673h66l264 -482q37 -73 70 -96t103 -27v-68h-462v68q76 2 100 19q25 17 25 39q0 19 -10 41l-11 24h-317l-14 -29q-9 -22 -9 -39q0 -25 30 -39q23 -10 98 -16v-68h-353v68q53 2 85 23t60 73zM499 258l-123 226l-122 -226h245zM636 824l-36 -98l-179 57l-164 -57
l-30 81l205 81z" />
    <glyph glyph-name="Atilde" unicode="&#xc3;" horiz-adv-x="863" 
d="M390 673h66l264 -482q37 -73 70 -96t103 -27v-68h-462v68q76 2 100 19q25 17 25 39q0 19 -10 41l-11 24h-317l-14 -29q-9 -22 -9 -39q0 -25 30 -39q23 -10 98 -16v-68h-353v68q53 2 85 23t60 73zM499 258l-123 226l-122 -226h245zM619 880l60 -19q-25 -52 -36 -69
q-43 -65 -110 -65q-21 0 -36.5 4t-83.5 26q-69 21 -107 21q-25 0 -37.5 -9.5t-19.5 -33.5l-65 18q22 55 40 78q18 25 47.5 39.5t61.5 14.5q48 0 162 -36q38 -13 58 -13q45 0 66 44z" />
    <glyph glyph-name="Adieresis" unicode="&#xc4;" horiz-adv-x="863" 
d="M390 673h66l264 -482q37 -73 70 -96t103 -27v-68h-462v68q76 2 100 19q25 17 25 39q0 19 -10 41l-11 24h-317l-14 -29q-9 -22 -9 -39q0 -25 30 -39q23 -10 98 -16v-68h-353v68q53 2 85 23t60 73zM499 258l-123 226l-122 -226h245zM587 887q30 0 52 -22t22 -53t-22 -53.5
t-53 -22.5q-32 0 -54 22t-22 54q0 31 22.5 53t54.5 22zM278 887q30 0 52 -22t22 -53t-22 -53t-53 -22t-53 22t-22 54q0 31 22 52.5t54 21.5z" />
    <glyph glyph-name="Aring" unicode="&#xc5;" horiz-adv-x="863" 
d="M390 673h66l264 -482q37 -73 70 -96t103 -27v-68h-462v68q76 2 100 19q25 17 25 39q0 19 -10 41l-11 24h-317l-14 -29q-9 -22 -9 -39q0 -25 30 -39q23 -10 98 -16v-68h-353v68q53 2 85 23t60 73zM499 258l-123 226l-122 -226h245zM420 924q44 0 75.5 -32t31.5 -76
q0 -45 -32 -77t-76 -32q-46 0 -77.5 32t-31.5 77t32 76.5t78 31.5zM419 857q-17 0 -29.5 -12t-12.5 -29t12.5 -29.5t29.5 -12.5t29 12.5t12 29.5q0 16 -12 28.5t-29 12.5z" />
    <glyph glyph-name="AE" unicode="&#xc6;" horiz-adv-x="1213" 
d="M1169 264v-264h-744v68h23q105 0 105 113v14h-302l-32 -41q-23 -31 -23 -45q0 -16 20 -25q17 -7 107 -16v-68h-353v68q54 2 83 20t77 81l248 319q34 44 34 66q0 21 -21 31.5t-68 13.5v68h846v-258h-73q-8 92 -49 138q-45 52 -144 52h-189v-217h94q51 0 71 25.5t24 97.5
h70v-314h-70q-4 61 -19 84q-23 38 -80 38h-90v-245h189q68 0 103.5 15.5t58.5 56.5q27 47 31 124h73zM553 261v323l-250 -323h250z" />
    <glyph glyph-name="Ccedilla" unicode="&#xc7;" horiz-adv-x="855" 
d="M743 238h68q-43 -239 -307 -268l-13 -41q91 -9 91 -64q0 -30 -28 -49t-72 -19q-89 0 -113 65h63q3 -23 29 -23q13 0 22 8t9 19q0 15 -11 24t-29 9q-10 0 -17 -1h-11l20 72q-91 4 -146.5 18.5t-107.5 48.5q-157 103 -157 294q0 163 103.5 262.5t272.5 99.5q124 0 219 -42
q62 -27 74 -27q38 0 41 43h68v-263h-76q-10 77 -54 121q-82 80 -209 80q-108 0 -181 -82q-69 -78 -69 -187q0 -123 75.5 -204.5t189.5 -81.5q54 0 107 22t90 60q39 39 59 106z" />
    <glyph glyph-name="Egrave" unicode="&#xc8;" horiz-adv-x="844" 
d="M719 257h75v-257h-744v69h23q105 0 105 117v295q0 117 -105 117h-23v69h744v-259h-75q-3 84 -39 133q-24 31 -60 44.5t-95 13.5h-185v-220h88q66 0 87 46q9 20 10 78h70v-314h-70q-4 69 -26 95t-75 26h-84v-242h185q120 0 165 71q23 37 29 118zM471 731h-106l-192 151
h174z" />
    <glyph glyph-name="Eacute" unicode="&#xc9;" horiz-adv-x="844" 
d="M719 257h75v-257h-744v69h23q105 0 105 117v295q0 117 -105 117h-23v69h744v-259h-75q-3 84 -39 133q-24 31 -60 44.5t-95 13.5h-185v-220h88q66 0 87 46q9 20 10 78h70v-314h-70q-4 69 -26 95t-75 26h-84v-242h185q120 0 165 71q23 37 29 118zM446 731h-105l124 150h172
z" />
    <glyph glyph-name="Ecircumflex" unicode="&#xca;" horiz-adv-x="844" 
d="M719 257h75v-257h-744v69h23q105 0 105 117v295q0 117 -105 117h-23v69h744v-259h-75q-3 84 -39 133q-24 31 -60 44.5t-95 13.5h-185v-220h88q66 0 87 46q9 20 10 78h70v-314h-70q-4 69 -26 95t-75 26h-84v-242h185q120 0 165 71q23 37 29 118zM627 824l-36 -98l-180 57
l-163 -57l-30 81l204 81z" />
    <glyph glyph-name="Edieresis" unicode="&#xcb;" horiz-adv-x="844" 
d="M719 257h75v-257h-744v69h23q105 0 105 117v295q0 117 -105 117h-23v69h744v-259h-75q-3 84 -39 133q-24 31 -60 44.5t-95 13.5h-185v-220h88q66 0 87 46q9 20 10 78h70v-314h-70q-4 69 -26 95t-75 26h-84v-242h185q120 0 165 71q23 37 29 118zM578 887q30 0 52 -22
t22 -53t-22 -53.5t-53 -22.5t-53.5 22t-22.5 54q0 31 22.5 53t54.5 22zM268 887q30 0 52 -22t22 -53t-22 -53t-53 -22t-53 22t-22 54q0 31 22 52.5t54 21.5z" />
    <glyph glyph-name="Igrave" unicode="&#xcc;" horiz-adv-x="529" 
d="M472 0h-415v69h23q50 0 80 30q23 24 23 87v295q0 63 -23 87q-30 30 -80 30h-23v69h415v-69h-23q-51 0 -81 -30q-23 -24 -23 -87v-295q0 -63 23 -87q30 -30 81 -30h23v-69zM347 731h-106l-192 151h173z" />
    <glyph glyph-name="Iacute" unicode="&#xcd;" horiz-adv-x="529" 
d="M472 0h-415v69h23q50 0 80 30q23 24 23 87v295q0 63 -23 87q-30 30 -80 30h-23v69h415v-69h-23q-51 0 -81 -30q-23 -24 -23 -87v-295q0 -63 23 -87q30 -30 81 -30h23v-69zM289 731h-106l125 150h171z" />
    <glyph glyph-name="Icircumflex" unicode="&#xce;" horiz-adv-x="529" 
d="M472 0h-415v69h23q50 0 80 30q23 24 23 87v295q0 63 -23 87q-30 30 -80 30h-23v69h415v-69h-23q-51 0 -81 -30q-23 -24 -23 -87v-295q0 -63 23 -87q30 -30 81 -30h23v-69zM469 824l-36 -98l-179 57l-164 -57l-30 81l205 81z" />
    <glyph glyph-name="Idieresis" unicode="&#xcf;" horiz-adv-x="529" 
d="M472 0h-415v69h23q50 0 80 30q23 24 23 87v295q0 63 -23 87q-30 30 -80 30h-23v69h415v-69h-23q-51 0 -81 -30q-23 -24 -23 -87v-295q0 -63 23 -87q30 -30 81 -30h23v-69zM369 856q26 0 45 -19.5t19 -45.5q0 -27 -19 -46t-46 -19t-46 19t-19 45q0 28 19 47t47 19z
M164 856q25 0 44 -19.5t19 -45.5q0 -27 -19 -46t-46 -19t-46 19t-19 45q0 28 19.5 47t47.5 19z" />
    <glyph glyph-name="Eth" unicode="&#xd0;" horiz-adv-x="956" 
d="M50 667h463q110 0 182 -20t123 -64q52 -45 82 -112.5t30 -137.5q0 -73 -34 -143.5t-92 -116.5q-50 -39 -110.5 -56t-151.5 -17h-492v69h23q105 0 105 117v127h-100v63h100v105q0 117 -105 117h-23v69zM340 68h100q158 0 226 74q74 79 74 195q0 133 -93 207
q-69 55 -201 55h-106v-223h134v-63h-134v-245z" />
    <glyph glyph-name="Ntilde" unicode="&#xd1;" horiz-adv-x="1030" 
d="M864 -7h-62l-553 513v-301q0 -78 25 -106q30 -30 81 -30h26v-69h-334v69h23q51 0 81 30q23 24 23 87v295q0 63 -23 87q-30 30 -81 30h-23v69h272l470 -440v235q0 80 -25 106q-30 30 -82 30h-24v69h332v-69h-23q-52 0 -80 -30q-23 -24 -23 -87v-488zM702 880l61 -19
q-22 -47 -37 -69q-41 -65 -109 -65q-21 0 -37 4t-84 26q-68 21 -106 21q-26 0 -38.5 -9.5t-18.5 -33.5l-66 18q22 55 40 78q41 54 110 54q47 0 162 -36q37 -13 57 -13q45 0 66 44z" />
    <glyph glyph-name="Ograve" unicode="&#xd2;" horiz-adv-x="954" 
d="M480 693q178 0 287 -74q72 -49 113 -127.5t41 -164.5q0 -71 -33 -140t-90 -117q-114 -96 -317 -96q-194 0 -308 84q-65 49 -102.5 123.5t-37.5 156.5t37.5 154t105.5 119q120 82 304 82zM472 624q-106 0 -177 -83t-71 -205q0 -132 81 -221q64 -70 170 -70q104 0 169 68
q84 89 84 219q0 128 -72 210t-184 82zM559 731h-106l-192 151h174z" />
    <glyph glyph-name="Oacute" unicode="&#xd3;" horiz-adv-x="954" 
d="M480 693q178 0 287 -74q72 -49 113 -127.5t41 -164.5q0 -71 -33 -140t-90 -117q-114 -96 -317 -96q-194 0 -308 84q-65 49 -102.5 123.5t-37.5 156.5t37.5 154t105.5 119q120 82 304 82zM472 624q-106 0 -177 -83t-71 -205q0 -132 81 -221q64 -70 170 -70q104 0 169 68
q84 89 84 219q0 128 -72 210t-184 82zM501 731h-106l125 150h171z" />
    <glyph glyph-name="Ocircumflex" unicode="&#xd4;" horiz-adv-x="954" 
d="M480 693q178 0 287 -74q72 -49 113 -127.5t41 -164.5q0 -71 -33 -140t-90 -117q-114 -96 -317 -96q-194 0 -308 84q-65 49 -102.5 123.5t-37.5 156.5t37.5 154t105.5 119q120 82 304 82zM472 624q-106 0 -177 -83t-71 -205q0 -132 81 -221q64 -70 170 -70q104 0 169 68
q84 89 84 219q0 128 -72 210t-184 82zM681 824l-36 -98l-179 57l-164 -57l-30 81l205 81z" />
    <glyph glyph-name="Otilde" unicode="&#xd5;" horiz-adv-x="954" 
d="M480 693q178 0 287 -74q72 -49 113 -127.5t41 -164.5q0 -71 -33 -140t-90 -117q-114 -96 -317 -96q-194 0 -308 84q-65 49 -102.5 123.5t-37.5 156.5t37.5 154t105.5 119q120 82 304 82zM472 624q-106 0 -177 -83t-71 -205q0 -132 81 -221q64 -70 170 -70q104 0 169 68
q84 89 84 219q0 128 -72 210t-184 82zM664 880l60 -19q-25 -52 -36 -69q-43 -65 -110 -65q-20 0 -36 4t-84 26q-69 21 -107 21q-25 0 -37.5 -9.5t-19.5 -33.5l-65 18q22 55 40 78q18 25 47.5 39.5t61.5 14.5q48 0 162 -36q38 -13 58 -13q45 0 66 44z" />
    <glyph glyph-name="Odieresis" unicode="&#xd6;" horiz-adv-x="954" 
d="M480 693q178 0 287 -74q72 -49 113 -127.5t41 -164.5q0 -71 -33 -140t-90 -117q-114 -96 -317 -96q-194 0 -308 84q-65 49 -102.5 123.5t-37.5 156.5t37.5 154t105.5 119q120 82 304 82zM472 624q-106 0 -177 -83t-71 -205q0 -132 81 -221q64 -70 170 -70q104 0 169 68
q84 89 84 219q0 128 -72 210t-184 82zM632 887q30 0 52 -22t22 -53t-22 -53.5t-53 -22.5t-53.5 22t-22.5 54q0 31 22.5 53t54.5 22zM323 887q30 0 52 -22t22 -53t-22 -53t-53 -22t-53 22t-22 54q0 31 22 52.5t54 21.5z" />
    <glyph glyph-name="multiply" unicode="&#xd7;" 
d="M102 560l148 -149l149 151l54 -54l-151 -149l150 -149l-52 -52l-149 150l-149 -151l-54 54l151 150l-149 147z" />
    <glyph glyph-name="Oslash" unicode="&#xd8;" horiz-adv-x="947" 
d="M97 -32l-42 49l85 71q-103 103 -103 243q0 170 130 273q114 88 297 88q180 0 301 -80l89 76l41 -49l-80 -68q102 -109 102 -240q0 -80 -35 -152t-96 -120q-109 -86 -311 -86q-171 0 -286 74zM695 470l-405 -338q44 -49 85.5 -68.5t100.5 -19.5q118 0 187 90q66 86 66 196
q0 80 -34 140zM260 187l404 339q-32 41 -51 55q-56 42 -135 42q-112 0 -182.5 -83.5t-70.5 -216.5q0 -72 35 -136z" />
    <glyph glyph-name="Ugrave" unicode="&#xd9;" horiz-adv-x="977" 
d="M615 667h329v-69h-23q-51 0 -81 -30q-23 -24 -23 -87v-242q0 -77 -22 -125.5t-73 -85.5q-77 -54 -221 -54q-189 0 -273 78q-49 46 -62 110q-5 24 -5 114v205q0 117 -105 117h-23v69h414v-69h-18q-106 0 -106 -117v-206q0 -121 53 -168q61 -56 159 -56q120 0 177 87
q19 28 24 58t5 113v172q0 64 -23 87q-28 30 -80 30h-23v69zM604 731h-106l-192 151h173z" />
    <glyph glyph-name="Uacute" unicode="&#xda;" horiz-adv-x="977" 
d="M615 667h329v-69h-23q-51 0 -81 -30q-23 -24 -23 -87v-242q0 -77 -22 -125.5t-73 -85.5q-77 -54 -221 -54q-189 0 -273 78q-49 46 -62 110q-5 24 -5 114v205q0 117 -105 117h-23v69h414v-69h-18q-106 0 -106 -117v-206q0 -121 53 -168q61 -56 159 -56q120 0 177 87
q19 28 24 58t5 113v172q0 64 -23 87q-28 30 -80 30h-23v69zM546 731h-106l125 150h171z" />
    <glyph glyph-name="Ucircumflex" unicode="&#xdb;" horiz-adv-x="977" 
d="M615 667h329v-69h-23q-51 0 -81 -30q-23 -24 -23 -87v-242q0 -77 -22 -125.5t-73 -85.5q-77 -54 -221 -54q-189 0 -273 78q-49 46 -62 110q-5 24 -5 114v205q0 117 -105 117h-23v69h414v-69h-18q-106 0 -106 -117v-206q0 -121 53 -168q61 -56 159 -56q120 0 177 87
q19 28 24 58t5 113v172q0 64 -23 87q-28 30 -80 30h-23v69zM726 824l-36 -98l-179 57l-164 -57l-30 81l205 81z" />
    <glyph glyph-name="Udieresis" unicode="&#xdc;" horiz-adv-x="977" 
d="M615 667h329v-69h-23q-51 0 -81 -30q-23 -24 -23 -87v-242q0 -77 -22 -125.5t-73 -85.5q-77 -54 -221 -54q-189 0 -273 78q-49 46 -62 110q-5 24 -5 114v205q0 117 -105 117h-23v69h414v-69h-18q-106 0 -106 -117v-206q0 -121 53 -168q61 -56 159 -56q120 0 177 87
q19 28 24 58t5 113v172q0 64 -23 87q-28 30 -80 30h-23v69zM677 887q30 0 52 -22t22 -53t-22 -53.5t-53 -22.5q-32 0 -54 22t-22 54q0 31 22.5 53t54.5 22zM368 887q30 0 52 -22t22 -53t-22 -53t-53 -22t-53 22t-22 54q0 31 22 52.5t54 21.5z" />
    <glyph glyph-name="Yacute" unicode="&#xdd;" horiz-adv-x="816" 
d="M514 667h325v-68q-66 -4 -98 -24t-85 -89l-162 -203v-97q0 -62 24 -87q28 -30 81 -30h23v-69h-419v69h23q106 0 106 117v97l-185 219q-51 61 -83.5 79.5t-86.5 17.5v68h437v-68h-27q-36 0 -51 -7t-15 -23q0 -13 8 -25.5t40 -52.5l97 -118l114 141q25 31 25 51
q0 34 -91 34v68zM479 731h-106l125 150h172z" />
    <glyph glyph-name="Thorn" unicode="&#xde;" horiz-adv-x="806" 
d="M347 520h153q75 0 118.5 -12t74.5 -42q59 -53 59 -133q0 -48 -26 -90.5t-70 -65.5q-30 -16 -60.5 -20.5t-108.5 -4.5h-140q9 -83 102 -83h23v-69h-415v69h23q50 0 80 30q23 24 23 87v295q0 63 -23 87q-30 30 -80 30h-23v69h415v-69h-23q-43 0 -70 -20.5t-32 -57.5z
M345 452v-230h86q75 0 108 24q43 35 43 90q0 67 -57 99q-19 11 -38.5 14t-71.5 3h-70z" />
    <glyph glyph-name="germandbls" unicode="&#xdf;" horiz-adv-x="740" 
d="M318 189h64v-19q0 -49 19.5 -76.5t53.5 -27.5q42 0 66 39.5t24 109.5q0 106 -42 154q-30 34 -101 34q-22 0 -37 -1v69q31 0 44 2q28 5 44.5 24.5t16.5 46.5q0 34 -27 56.5t-68 22.5q-55 0 -83 -36q-18 -26 -18 -92v-495h-237v68h14q45 0 62 20.5t17 74.5v145
q0 54 -17.5 74.5t-61.5 20.5h-14v68h93q3 56 13 86t34 55q64 67 207 67q103 0 162 -27q28 -13 45 -39.5t17 -57.5q0 -82 -110 -106q90 -20 131 -52q81 -61 81 -188q0 -104 -56.5 -165t-153.5 -61q-129 0 -164 86q-15 36 -18 120z" />
    <glyph glyph-name="agrave" unicode="&#xe0;" horiz-adv-x="713" 
d="M639 193h61v-88q0 -57 -27 -84q-36 -38 -107 -38q-103 0 -138 94q-40 -38 -71 -55q-67 -39 -147 -39q-70 0 -120 43t-50 104q0 55 34 89t109 53q42 11 154 28q86 13 86 61q0 31 -31 50.5t-78 19.5q-58 0 -117 -28q20 -23 20 -47q0 -25 -19.5 -41.5t-48.5 -16.5
q-31 0 -51 19t-20 48q0 57 64.5 90t176.5 33q133 0 193 -44q31 -22 43 -54.5t12 -94.5v-133q1 -70 6 -83q7 -18 27 -18q39 0 39 67v65zM421 265q-50 -25 -98 -37q-65 -16 -84 -30q-31 -22 -31 -57q0 -28 21 -46t53 -18q30 0 60.5 13.5t49.5 34.5q31 36 31 95q0 11 -2 45z
M295 553l-150 148h167l82 -148h-99z" />
    <glyph glyph-name="aacute" unicode="&#xe1;" horiz-adv-x="713" 
d="M639 193h61v-88q0 -57 -27 -84q-36 -38 -107 -38q-103 0 -138 94q-40 -38 -71 -55q-67 -39 -147 -39q-70 0 -120 43t-50 104q0 55 34 89t109 53q42 11 154 28q86 13 86 61q0 31 -31 50.5t-78 19.5q-58 0 -117 -28q20 -23 20 -47q0 -25 -19.5 -41.5t-48.5 -16.5
q-31 0 -51 19t-20 48q0 57 64.5 90t176.5 33q133 0 193 -44q31 -22 43 -54.5t12 -94.5v-133q1 -70 6 -83q7 -18 27 -18q39 0 39 67v65zM421 265q-50 -25 -98 -37q-65 -16 -84 -30q-31 -22 -31 -57q0 -28 21 -46t53 -18q30 0 60.5 13.5t49.5 34.5q31 36 31 95q0 11 -2 45z
M365 553h-100l83 148h166z" />
    <glyph glyph-name="acircumflex" unicode="&#xe2;" horiz-adv-x="713" 
d="M639 193h61v-88q0 -57 -27 -84q-36 -38 -107 -38q-103 0 -138 94q-40 -38 -71 -55q-67 -39 -147 -39q-70 0 -120 43t-50 104q0 55 34 89t109 53q42 11 154 28q86 13 86 61q0 31 -31 50.5t-78 19.5q-58 0 -117 -28q20 -23 20 -47q0 -25 -19.5 -41.5t-48.5 -16.5
q-31 0 -51 19t-20 48q0 57 64.5 90t176.5 33q133 0 193 -44q31 -22 43 -54.5t12 -94.5v-133q1 -70 6 -83q7 -18 27 -18q39 0 39 67v65zM421 265q-50 -25 -98 -37q-65 -16 -84 -30q-31 -22 -31 -57q0 -28 21 -46t53 -18q30 0 60.5 13.5t49.5 34.5q31 36 31 95q0 11 -2 45z
M498 613l-76 -65l-101 75l-101 -75l-58 60l169 126z" />
    <glyph glyph-name="atilde" unicode="&#xe3;" horiz-adv-x="713" 
d="M639 193h61v-88q0 -57 -27 -84q-36 -38 -107 -38q-103 0 -138 94q-40 -38 -71 -55q-67 -39 -147 -39q-70 0 -120 43t-50 104q0 55 34 89t109 53q42 11 154 28q86 13 86 61q0 31 -31 50.5t-78 19.5q-58 0 -117 -28q20 -23 20 -47q0 -25 -19.5 -41.5t-48.5 -16.5
q-31 0 -51 19t-20 48q0 57 64.5 90t176.5 33q133 0 193 -44q31 -22 43 -54.5t12 -94.5v-133q1 -70 6 -83q7 -18 27 -18q39 0 39 67v65zM421 265q-50 -25 -98 -37q-65 -16 -84 -30q-31 -22 -31 -57q0 -28 21 -46t53 -18q30 0 60.5 13.5t49.5 34.5q31 36 31 95q0 11 -2 45z
M509 700l57 -18q-23 -62 -43 -88q-33 -43 -94 -43q-42 0 -113 25q-80 28 -100 28q-48 0 -63 -52l-59 10q11 52 31 78q40 56 110 56q44 0 146 -35q41 -15 64 -15q24 0 38.5 12t25.5 42z" />
    <glyph glyph-name="adieresis" unicode="&#xe4;" horiz-adv-x="713" 
d="M639 193h61v-88q0 -57 -27 -84q-36 -38 -107 -38q-103 0 -138 94q-40 -38 -71 -55q-67 -39 -147 -39q-70 0 -120 43t-50 104q0 55 34 89t109 53q42 11 154 28q86 13 86 61q0 31 -31 50.5t-78 19.5q-58 0 -117 -28q20 -23 20 -47q0 -25 -19.5 -41.5t-48.5 -16.5
q-31 0 -51 19t-20 48q0 57 64.5 90t176.5 33q133 0 193 -44q31 -22 43 -54.5t12 -94.5v-133q1 -70 6 -83q7 -18 27 -18q39 0 39 67v65zM421 265q-50 -25 -98 -37q-65 -16 -84 -30q-31 -22 -31 -57q0 -28 21 -46t53 -18q30 0 60.5 13.5t49.5 34.5q31 36 31 95q0 11 -2 45z
M449 710q34 0 58 -24.5t24 -58.5q0 -35 -24.5 -59t-58.5 -24q-35 0 -59 24.5t-24 59.5q0 34 24.5 58t59.5 24zM211 705q33 0 56.5 -24t23.5 -57q0 -34 -23.5 -57.5t-57.5 -23.5t-57.5 24t-23.5 58q0 33 24 56.5t58 23.5z" />
    <glyph glyph-name="aring" unicode="&#xe5;" horiz-adv-x="713" 
d="M639 193h61v-88q0 -57 -27 -84q-36 -38 -107 -38q-103 0 -138 94q-40 -38 -71 -55q-67 -39 -147 -39q-70 0 -120 43t-50 104q0 55 34 89t109 53q42 11 154 28q86 13 86 61q0 31 -31 50.5t-78 19.5q-58 0 -117 -28q20 -23 20 -47q0 -25 -19.5 -41.5t-48.5 -16.5
q-31 0 -51 19t-20 48q0 57 64.5 90t176.5 33q133 0 193 -44q31 -22 43 -54.5t12 -94.5v-133q1 -70 6 -83q7 -18 27 -18q39 0 39 67v65zM421 265q-50 -25 -98 -37q-65 -16 -84 -30q-31 -22 -31 -57q0 -28 21 -46t53 -18q30 0 60.5 13.5t49.5 34.5q31 36 31 95q0 11 -2 45z
M332 747q43 0 74.5 -32.5t31.5 -76.5q0 -45 -32 -77t-76 -32q-45 0 -77 32t-32 76q0 46 32 78t79 32zM330 680q-17 0 -29.5 -12.5t-12.5 -29.5t12.5 -29.5t29.5 -12.5t29 12.5t12 29.5t-12 29.5t-29 12.5z" />
    <glyph glyph-name="ae" unicode="&#xe6;" horiz-adv-x="992" 
d="M875 154h74q-30 -66 -66 -101q-74 -70 -198 -70q-80 0 -136 27.5t-100 89.5q-107 -117 -233 -117q-74 0 -125 43t-51 107q0 43 23.5 75.5t64.5 48.5q79 28 193 43q56 7 79 22t23 44t-27.5 47t-72.5 18q-59 0 -130 -28q24 -17 24 -43q0 -27 -20 -44.5t-50 -17.5
q-31 0 -49.5 17.5t-18.5 46.5q0 58 67.5 92t183.5 34q126 0 186 -47q78 47 169 47q129 0 201.5 -75t72.5 -208h-385q6 -49 27 -80q22 -31 57.5 -49.5t73.5 -18.5q52 0 91 26.5t52 70.5zM420 267q-44 -29 -98 -40q-63 -13 -88 -31.5t-25 -51.5q0 -30 21 -48.5t55 -18.5
q70 0 110 50q28 34 28 91q0 22 -3 49zM571 274h224q-7 150 -110 150q-53 0 -84 -40.5t-30 -109.5z" />
    <glyph glyph-name="ccedilla" unicode="&#xe7;" horiz-adv-x="515" 
d="M449 140h59q-29 -150 -178 -173l-13 -41q92 -9 92 -64q0 -31 -28 -50t-73 -19q-90 0 -112 66h62q3 -24 29 -24q14 0 23 8t9 20q0 15 -11 24t-29 9q-11 0 -18 -1h-11l20 71q-54 2 -87.5 12.5t-68.5 35.5q-104 73 -104 205q0 123 88 197q69 58 184 58q89 0 149 -38.5
t60 -95.5q0 -34 -23 -57.5t-55 -23.5q-30 0 -51 21t-21 52q0 25 25 50q-33 25 -71 25q-55 0 -89.5 -47.5t-34.5 -122.5q0 -86 42 -141t107 -55q44 0 78 26t51 73z" />
    <glyph glyph-name="egrave" unicode="&#xe8;" horiz-adv-x="617" 
d="M499 151h75q-27 -63 -62 -96q-75 -72 -199 -72q-116 0 -190 63q-41 35 -65.5 87t-24.5 106q0 49 20.5 97.5t55.5 81.5q73 70 197 70q75 0 136.5 -28.5t97.5 -80.5q25 -35 34 -73t10 -104h-382q6 -48 25 -77q20 -31 56 -49.5t77 -18.5q106 0 139 94zM195 273h226
q-1 60 -22 96q-31 51 -89 51q-51 0 -81 -38.5t-34 -108.5zM273 553l-149 148h166l83 -148h-100z" />
    <glyph glyph-name="eacute" unicode="&#xe9;" horiz-adv-x="617" 
d="M499 151h75q-27 -63 -62 -96q-75 -72 -199 -72q-116 0 -190 63q-41 35 -65.5 87t-24.5 106q0 49 20.5 97.5t55.5 81.5q73 70 197 70q75 0 136.5 -28.5t97.5 -80.5q25 -35 34 -73t10 -104h-382q6 -48 25 -77q20 -31 56 -49.5t77 -18.5q106 0 139 94zM195 273h226
q-1 60 -22 96q-31 51 -89 51q-51 0 -81 -38.5t-34 -108.5zM344 553h-100l83 148h166z" />
    <glyph glyph-name="ecircumflex" unicode="&#xea;" horiz-adv-x="617" 
d="M499 151h75q-27 -63 -62 -96q-75 -72 -199 -72q-116 0 -190 63q-41 35 -65.5 87t-24.5 106q0 49 20.5 97.5t55.5 81.5q73 70 197 70q75 0 136.5 -28.5t97.5 -80.5q25 -35 34 -73t10 -104h-382q6 -48 25 -77q20 -31 56 -49.5t77 -18.5q106 0 139 94zM195 273h226
q-1 60 -22 96q-31 51 -89 51q-51 0 -81 -38.5t-34 -108.5zM476 613l-75 -65l-101 75l-102 -75l-58 60l170 126z" />
    <glyph glyph-name="edieresis" unicode="&#xeb;" horiz-adv-x="617" 
d="M499 151h75q-27 -63 -62 -96q-75 -72 -199 -72q-116 0 -190 63q-41 35 -65.5 87t-24.5 106q0 49 20.5 97.5t55.5 81.5q73 70 197 70q75 0 136.5 -28.5t97.5 -80.5q25 -35 34 -73t10 -104h-382q6 -48 25 -77q20 -31 56 -49.5t77 -18.5q106 0 139 94zM195 273h226
q-1 60 -22 96q-31 51 -89 51q-51 0 -81 -38.5t-34 -108.5zM428 710q34 0 58 -24.5t24 -58.5q0 -35 -24 -59t-59 -24t-59 24.5t-24 59.5q0 34 24.5 58t59.5 24zM190 705q33 0 56.5 -24t23.5 -57q0 -34 -23.5 -57.5t-57.5 -23.5t-57.5 24t-23.5 58q0 33 24 56.5t58 23.5z" />
    <glyph glyph-name="igrave" unicode="&#xec;" horiz-adv-x="410" 
d="M281 471v-308q0 -53 17.5 -74t61.5 -21h19v-68h-336v68h16q45 0 62 20.5t17 74.5v145q0 54 -17 74.5t-62 20.5h-16v68h238zM169 553l-149 148h166l83 -148h-100z" />
    <glyph glyph-name="iacute" unicode="&#xed;" horiz-adv-x="410" 
d="M281 471v-308q0 -53 17.5 -74t61.5 -21h19v-68h-336v68h16q45 0 62 20.5t17 74.5v145q0 54 -17 74.5t-62 20.5h-16v68h238zM240 553h-100l83 148h166z" />
    <glyph glyph-name="icircumflex" unicode="&#xee;" horiz-adv-x="410" 
d="M282 471v-308q0 -53 17.5 -74t61.5 -21h19v-68h-337v68h16q45 0 62.5 20.5t17.5 74.5v145q0 56 -17 74q-19 21 -63 21h-16v68h239zM373 613l-75 -65l-101 75l-102 -75l-58 60l170 126z" />
    <glyph glyph-name="idieresis" unicode="&#xef;" horiz-adv-x="410" 
d="M282 471v-308q0 -53 17.5 -74t61.5 -21h19v-68h-337v68h16q45 0 62.5 20.5t17.5 74.5v145q0 56 -17 74q-19 21 -63 21h-16v68h239zM310 667q26 0 45 -19.5t19 -45.5q0 -27 -19 -46t-46 -19t-46 19t-19 45q0 28 19 47t47 19zM104 667q25 0 44 -19.5t19 -45.5
q0 -27 -19 -46t-46 -19t-46 19t-19 45q0 28 19.5 47t47.5 19z" />
    <glyph glyph-name="eth" unicode="&#xf0;" horiz-adv-x="677" 
d="M69 630l24 49q136 -21 186 -42l139 78l35 -46l-103 -55q121 -55 179 -109q115 -107 115 -251q0 -115 -79 -188q-86 -82 -227 -82q-135 0 -220 71t-85 184q0 80 44 138t125 84q29 10 42.5 11.5t63.5 1.5q43 0 61 -5q-33 39 -53.5 56.5t-57.5 38.5l-130 -73l-36 45l105 57
q-50 23 -128 37zM339 426q-61 0 -100 -53.5t-39 -137.5q0 -82 38.5 -134t99.5 -52q68 0 103 51q37 55 37 136q0 84 -39 137t-100 53z" />
    <glyph glyph-name="ntilde" unicode="&#xf1;" horiz-adv-x="789" 
d="M277 471v-79q86 96 198 96q97 0 151 -59q43 -47 43 -148v-118q0 -53 17.5 -74t61.5 -21h11v-68h-328v68h15q44 0 61.5 21t17.5 74v89q0 77 -25.5 113.5t-78.5 36.5q-62 0 -104 -47q-19 -22 -26 -44.5t-7 -62.5v-85q0 -53 17.5 -74t61.5 -21h20v-68h-335v68h13
q45 0 62 20.5t17 74.5v145q0 54 -17 74.5t-62 20.5h-18v68h234zM574 700l56 -18q-23 -62 -43 -88q-32 -43 -94 -43q-41 0 -113 25q-78 28 -100 28q-47 0 -63 -52l-59 10q11 49 31 78q40 56 111 56q44 0 146 -35q41 -15 63 -15q25 0 39.5 12t25.5 42z" />
    <glyph glyph-name="ograve" unicode="&#xf2;" horiz-adv-x="677" 
d="M339 488q131 0 217.5 -73.5t86.5 -184.5q0 -52 -28.5 -103.5t-77.5 -86.5q-79 -57 -197 -57q-132 0 -219.5 72.5t-87.5 181.5q0 115 101 192q78 59 205 59zM339 426q-61 0 -100 -53.5t-39 -137.5q0 -82 38.5 -134t99.5 -52q68 0 103 51q37 55 37 136q0 84 -39 137
t-100 53zM303 553l-149 148h166l83 -148h-100z" />
    <glyph glyph-name="oacute" unicode="&#xf3;" horiz-adv-x="677" 
d="M339 488q131 0 217.5 -73.5t86.5 -184.5q0 -52 -28.5 -103.5t-77.5 -86.5q-79 -57 -197 -57q-132 0 -219.5 72.5t-87.5 181.5q0 115 101 192q78 59 205 59zM339 426q-61 0 -100 -53.5t-39 -137.5q0 -82 38.5 -134t99.5 -52q68 0 103 51q37 55 37 136q0 84 -39 137
t-100 53zM374 553h-100l83 148h166z" />
    <glyph glyph-name="ocircumflex" unicode="&#xf4;" horiz-adv-x="677" 
d="M339 488q131 0 217.5 -73.5t86.5 -184.5q0 -52 -28.5 -103.5t-77.5 -86.5q-79 -57 -197 -57q-132 0 -219.5 72.5t-87.5 181.5q0 115 101 192q78 59 205 59zM339 426q-61 0 -100 -53.5t-39 -137.5q0 -82 38.5 -134t99.5 -52q68 0 103 51q37 55 37 136q0 84 -39 137
t-100 53zM506 613l-75 -65l-101 75l-102 -75l-58 60l170 126z" />
    <glyph glyph-name="otilde" unicode="&#xf5;" horiz-adv-x="677" 
d="M339 488q131 0 217.5 -73.5t86.5 -184.5q0 -52 -28.5 -103.5t-77.5 -86.5q-79 -57 -197 -57q-132 0 -219.5 72.5t-87.5 181.5q0 115 101 192q78 59 205 59zM339 426q-61 0 -100 -53.5t-39 -137.5q0 -82 38.5 -134t99.5 -52q68 0 103 51q37 55 37 136q0 84 -39 137
t-100 53zM518 700l56 -18q-23 -62 -43 -88q-32 -43 -94 -43q-41 0 -113 25q-78 28 -100 28q-47 0 -63 -52l-59 10q11 49 31 78q40 56 111 56q44 0 146 -35q41 -15 63 -15q25 0 39.5 12t25.5 42z" />
    <glyph glyph-name="odieresis" unicode="&#xf6;" horiz-adv-x="677" 
d="M339 488q131 0 217.5 -73.5t86.5 -184.5q0 -52 -28.5 -103.5t-77.5 -86.5q-79 -57 -197 -57q-132 0 -219.5 72.5t-87.5 181.5q0 115 101 192q78 59 205 59zM339 426q-61 0 -100 -53.5t-39 -137.5q0 -82 38.5 -134t99.5 -52q68 0 103 51q37 55 37 136q0 84 -39 137
t-100 53zM458 710q34 0 58 -24.5t24 -58.5q0 -35 -24 -59t-59 -24t-59 24.5t-24 59.5q0 34 24.5 58t59.5 24zM220 705q33 0 56.5 -24t23.5 -57q0 -34 -23.5 -57.5t-57.5 -23.5t-57.5 24t-23.5 58q0 33 24 56.5t58 23.5z" />
    <glyph glyph-name="divide" unicode="&#xf7;" 
d="M9 396h482v-73h-482v73zM250 587q23 0 39.5 -16.5t16.5 -39.5q0 -24 -16.5 -40.5t-39.5 -16.5q-24 0 -40.5 16.5t-16.5 40.5q0 23 16.5 39.5t40.5 16.5zM250 243q23 0 39.5 -16.5t16.5 -39.5q0 -24 -16.5 -40.5t-39.5 -16.5q-24 0 -40.5 16.5t-16.5 40.5q0 23 16.5 39.5
t40.5 16.5z" />
    <glyph glyph-name="oslash" unicode="&#xf8;" horiz-adv-x="677" 
d="M79 -25l-39 45l61 53q-67 78 -67 162q0 108 87.5 181t217.5 73q97 0 191 -47l69 62l40 -45l-64 -55q69 -75 69 -166q0 -108 -86 -180.5t-213 -72.5q-128 0 -196 52zM469 311l-235 -202q41 -61 104 -61q61 0 101.5 53.5t40.5 133.5q0 48 -11 76zM210 167l232 200
q-35 58 -101 58q-63 0 -102 -52.5t-39 -135.5q0 -46 10 -70z" />
    <glyph glyph-name="ugrave" unicode="&#xf9;" horiz-adv-x="780" 
d="M644 471v-308q0 -54 17 -74.5t62 -20.5h10v-68h-234v81q-43 -53 -87.5 -75.5t-106.5 -22.5q-93 0 -143 51.5t-50 148.5v125q0 53 -17.5 74t-61.5 21h-10v68h233v-237q0 -74 16 -110q25 -54 92 -54q62 0 98.5 44.5t36.5 119.5v74q0 53 -17.5 74t-61.5 21h-18v68h242z
M355 553l-149 148h166l82 -148h-99z" />
    <glyph glyph-name="uacute" unicode="&#xfa;" horiz-adv-x="780" 
d="M644 471v-308q0 -54 17 -74.5t62 -20.5h10v-68h-234v81q-43 -53 -87.5 -75.5t-106.5 -22.5q-93 0 -143 51.5t-50 148.5v125q0 53 -17.5 74t-61.5 21h-10v68h233v-237q0 -74 16 -110q25 -54 92 -54q62 0 98.5 44.5t36.5 119.5v74q0 53 -17.5 74t-61.5 21h-18v68h242z
M425 553h-99l82 148h166z" />
    <glyph glyph-name="ucircumflex" unicode="&#xfb;" horiz-adv-x="780" 
d="M644 471v-308q0 -54 17 -74.5t62 -20.5h10v-68h-234v81q-43 -53 -87.5 -75.5t-106.5 -22.5q-93 0 -143 51.5t-50 148.5v125q0 53 -17.5 74t-61.5 21h-10v68h233v-237q0 -74 16 -110q25 -54 92 -54q62 0 98.5 44.5t36.5 119.5v74q0 53 -17.5 74t-61.5 21h-18v68h242z
M558 613l-76 -65l-100 75l-102 -75l-58 60l170 126z" />
    <glyph glyph-name="udieresis" unicode="&#xfc;" horiz-adv-x="780" 
d="M644 471v-308q0 -54 17 -74.5t62 -20.5h10v-68h-234v81q-43 -53 -87.5 -75.5t-106.5 -22.5q-93 0 -143 51.5t-50 148.5v125q0 53 -17.5 74t-61.5 21h-10v68h233v-237q0 -74 16 -110q25 -54 92 -54q62 0 98.5 44.5t36.5 119.5v74q0 53 -17.5 74t-61.5 21h-18v68h242z
M510 710q34 0 58 -24.5t24 -58.5q0 -35 -24 -59t-59 -24t-59 24.5t-24 59.5q0 34 24.5 58t59.5 24zM271 705q33 0 56.5 -24t23.5 -57q0 -34 -23.5 -57.5t-57.5 -23.5t-57.5 24t-23.5 58q0 33 24 56.5t58 23.5z" />
    <glyph glyph-name="yacute" unicode="&#xfd;" horiz-adv-x="641" 
d="M678 471v-68q-56 -2 -80 -22.5t-71 -107.5l-224 -399q-58 -103 -147 -103q-55 0 -92 33t-37 81q0 34 20.5 57t51.5 23q27 0 46.5 -19t19.5 -45q0 -27 -23 -40q12 -15 30 -15q37 0 76 69l41 74l-178 303q-38 63 -67 85t-81 26v68h373v-68q-52 -2 -69.5 -9t-17.5 -26
q0 -13 21 -49l104 -181l99 179q19 33 19 53q0 19 -24 27q-12 5 -57 6v68h267zM389 553h-100l83 148h166z" />
    <glyph glyph-name="thorn" unicode="&#xfe;" horiz-adv-x="682" 
d="M239 667v-261q68 82 173 82q104 0 170.5 -69.5t66.5 -179.5t-65 -183t-163 -73q-94 0 -172 79v-104q0 -53 17.5 -74t61.5 -21h16v-68h-335v68h17q44 0 61.5 20.5t17.5 74.5v545q0 54 -17.5 75t-61.5 21h-17v68h230zM366 407q-54 0 -87 -47t-33 -124t32.5 -123.5
t85.5 -46.5q52 0 85 45.5t33 117.5q0 83 -31 130.5t-85 47.5z" />
    <glyph glyph-name="ydieresis" unicode="&#xff;" horiz-adv-x="641" 
d="M678 471v-68q-56 -2 -80 -22.5t-71 -107.5l-224 -399q-58 -103 -147 -103q-55 0 -92 33t-37 81q0 34 20.5 57t51.5 23q27 0 46.5 -19t19.5 -45q0 -27 -23 -40q12 -15 30 -15q37 0 76 69l41 74l-178 303q-38 63 -67 85t-81 26v68h373v-68q-52 -2 -69.5 -9t-17.5 -26
q0 -13 21 -49l104 -181l99 179q19 33 19 53q0 19 -24 27q-12 5 -57 6v68h267zM480 710q34 0 58 -24.5t24 -58.5q0 -35 -24 -59t-59 -24t-59 24.5t-24 59.5q0 34 24.5 58t59.5 24zM242 705q33 0 56.5 -24t23.5 -57q0 -34 -23.5 -57.5t-57.5 -23.5t-57.5 24t-23.5 58
q0 33 24 56.5t58 23.5z" />
    <glyph glyph-name="Amacron" unicode="&#x100;" horiz-adv-x="863" 
d="M390 673h66l264 -482q37 -73 70 -96t103 -27v-68h-462v68q76 2 100 19q25 17 25 39q0 19 -10 41l-11 24h-317l-14 -29q-9 -22 -9 -39q0 -25 30 -39q23 -10 98 -16v-68h-353v68q53 2 85 23t60 73zM499 258l-123 226l-122 -226h245zM185 760v100h467v-100h-467z" />
    <glyph glyph-name="amacron" unicode="&#x101;" horiz-adv-x="713" 
d="M639 193h61v-88q0 -57 -27 -84q-36 -38 -107 -38q-103 0 -138 94q-40 -38 -71 -55q-67 -39 -147 -39q-70 0 -120 43t-50 104q0 55 34 89t109 53q42 11 154 28q86 13 86 61q0 31 -31 50.5t-78 19.5q-58 0 -117 -28q20 -23 20 -47q0 -25 -19.5 -41.5t-48.5 -16.5
q-31 0 -51 19t-20 48q0 57 64.5 90t176.5 33q133 0 193 -44q31 -22 43 -54.5t12 -94.5v-133q1 -70 6 -83q7 -18 27 -18q39 0 39 67v65zM421 265q-50 -25 -98 -37q-65 -16 -84 -30q-31 -22 -31 -57q0 -28 21 -46t53 -18q30 0 60.5 13.5t49.5 34.5q31 36 31 95q0 11 -2 45z
M96 577v100h467v-100h-467z" />
    <glyph glyph-name="Abreve" unicode="&#x102;" horiz-adv-x="863" 
d="M390 673h66l264 -482q37 -73 70 -96t103 -27v-68h-462v68q76 2 100 19q25 17 25 39q0 19 -10 41l-11 24h-317l-14 -29q-9 -22 -9 -39q0 -25 30 -39q23 -10 98 -16v-68h-353v68q53 2 85 23t60 73zM499 258l-123 226l-122 -226h245zM592 904h57q-5 -85 -61.5 -131
t-155.5 -46t-156 46.5t-62 130.5h57q37 -73 161 -73t160 73z" />
    <glyph glyph-name="abreve" unicode="&#x103;" horiz-adv-x="713" 
d="M639 193h61v-88q0 -57 -27 -84q-36 -38 -107 -38q-103 0 -138 94q-40 -38 -71 -55q-67 -39 -147 -39q-70 0 -120 43t-50 104q0 55 34 89t109 53q42 11 154 28q86 13 86 61q0 31 -31 50.5t-78 19.5q-58 0 -117 -28q20 -23 20 -47q0 -25 -19.5 -41.5t-48.5 -16.5
q-31 0 -51 19t-20 48q0 57 64.5 90t176.5 33q133 0 193 -44q31 -22 43 -54.5t12 -94.5v-133q1 -70 6 -83q7 -18 27 -18q39 0 39 67v65zM421 265q-50 -25 -98 -37q-65 -16 -84 -30q-31 -22 -31 -57q0 -28 21 -46t53 -18q30 0 60.5 13.5t49.5 34.5q31 36 31 95q0 11 -2 45z
M490 724h57q-5 -85 -61.5 -131t-155.5 -46t-156 46t-61 131h56q37 -73 161 -73t160 73z" />
    <glyph glyph-name="Aogonek" unicode="&#x104;" horiz-adv-x="863" 
d="M893 0h-78q-79 -35 -79 -92q0 -16 12.5 -26t32.5 -10q31 0 62 29l24 -24q-54 -57 -116 -57q-40 0 -64.5 18.5t-24.5 49.5q0 56 72 112h-303v68q76 2 100 19q25 17 25 39q0 19 -10 41l-11 24h-317l-14 -29q-9 -22 -9 -39q0 -25 30 -39q23 -10 98 -16v-68h-353v68
q53 2 85 23t60 73l275 509h66l264 -482q37 -73 70 -96t103 -27v-68zM499 258l-123 226l-122 -226h245z" />
    <glyph glyph-name="aogonek" unicode="&#x105;" horiz-adv-x="713" 
d="M700 193v-88q0 -44 -13.5 -67t-50.5 -43q-45 -23 -45 -58q0 -17 10.5 -28t26.5 -11q19 0 42 22l26 -21q-22 -37 -45 -53.5t-55 -16.5q-36 0 -59 22.5t-23 58.5q0 40 35 74q-43 3 -75.5 27.5t-45.5 65.5q-40 -38 -71 -55q-67 -39 -147 -39q-70 0 -120 43t-50 104
q0 55 34 89t109 53q42 11 154 28q86 13 86 61q0 31 -31 50.5t-78 19.5q-58 0 -117 -28q20 -23 20 -47q0 -25 -19.5 -41.5t-48.5 -16.5q-31 0 -51 19t-20 48q0 57 64.5 90t176.5 33q133 0 193 -44q31 -22 43 -54.5t12 -94.5v-133q1 -69 6 -82q7 -18 27 -18q39 0 39 66v65h61z
M421 265q-50 -25 -98 -37q-65 -16 -84 -30q-31 -22 -31 -57q0 -28 21 -46t53 -18q30 0 60.5 13.5t49.5 34.5q31 36 31 95q0 11 -2 45z" />
    <glyph glyph-name="Cacute" unicode="&#x106;" horiz-adv-x="856" 
d="M812 667v-260h-78q-8 82 -64 129q-37 32 -90 51t-105 19q-112 0 -182 -77t-70 -199q0 -116 76.5 -196.5t187.5 -80.5q55 0 108.5 21.5t86.5 56.5q42 44 60 112h70q-11 -61 -32 -101.5t-59 -75.5q-98 -92 -274 -92q-186 0 -300 99.5t-114 260.5q0 75 27 143.5t75 115.5
q103 100 277 100q118 0 234 -48q42 -19 57 -19q36 0 39 41h70zM452 731h-106l124 150h172z" />
    <glyph glyph-name="cacute" unicode="&#x107;" horiz-adv-x="552" 
d="M471 157h61q-13 -47 -27.5 -73t-40.5 -48q-64 -53 -161 -53q-115 0 -192.5 72.5t-77.5 179.5q0 112 75.5 182.5t195.5 70.5q91 0 150 -38t59 -96q0 -34 -22 -56.5t-56 -22.5q-30 0 -50.5 20.5t-20.5 49.5q0 31 25 53q-27 26 -68 26q-57 0 -91.5 -46.5t-34.5 -123.5
q0 -88 41 -142.5t106 -54.5q45 0 79 26t50 74zM344 553h-99l82 148h167z" />
    <glyph glyph-name="Ccircumflex" unicode="&#x108;" horiz-adv-x="856" 
d="M812 667v-260h-78q-8 82 -64 129q-37 32 -90 51t-105 19q-112 0 -182 -77t-70 -199q0 -116 76.5 -196.5t187.5 -80.5q55 0 108.5 21.5t86.5 56.5q42 44 60 112h70q-11 -61 -32 -101.5t-59 -75.5q-98 -92 -274 -92q-186 0 -300 99.5t-114 260.5q0 75 27 143.5t75 115.5
q103 100 277 100q118 0 234 -48q42 -19 57 -19q36 0 39 41h70zM632 824l-36 -98l-179 57l-164 -57l-30 81l205 81z" />
    <glyph glyph-name="Cdotaccent" unicode="&#x10a;" horiz-adv-x="856" 
d="M812 667v-260h-78q-8 82 -64 129q-37 32 -90 51t-105 19q-112 0 -182 -77t-70 -199q0 -116 76.5 -196.5t187.5 -80.5q55 0 108.5 21.5t86.5 56.5q42 44 60 112h70q-11 -61 -32 -101.5t-59 -75.5q-98 -92 -274 -92q-186 0 -300 99.5t-114 260.5q0 75 27 143.5t75 115.5
q103 100 277 100q118 0 234 -48q42 -19 57 -19q36 0 39 41h70zM428 881q30 0 52 -22t22 -53t-22 -53t-53 -22t-53 22t-22 54q0 31 22 52.5t54 21.5z" />
    <glyph glyph-name="cdotaccent" unicode="&#x10b;" horiz-adv-x="552" 
d="M471 157h61q-13 -47 -27.5 -73t-40.5 -48q-64 -53 -161 -53q-115 0 -192.5 72.5t-77.5 179.5q0 112 75.5 182.5t195.5 70.5q91 0 150 -38t59 -96q0 -34 -22 -56.5t-56 -22.5q-30 0 -50.5 20.5t-20.5 49.5q0 31 25 53q-27 26 -68 26q-57 0 -91.5 -46.5t-34.5 -123.5
q0 -88 41 -142.5t106 -54.5q45 0 79 26t50 74zM310 705q33 0 56.5 -24t23.5 -57q0 -34 -23.5 -57.5t-57.5 -23.5t-57.5 24t-23.5 58q0 33 24 56.5t58 23.5z" />
    <glyph glyph-name="Ccaron" unicode="&#x10c;" horiz-adv-x="856" 
d="M812 667v-260h-78q-8 82 -64 129q-37 32 -90 51t-105 19q-112 0 -182 -77t-70 -199q0 -116 76.5 -196.5t187.5 -80.5q55 0 108.5 21.5t86.5 56.5q42 44 60 112h70q-11 -61 -32 -101.5t-59 -75.5q-98 -92 -274 -92q-186 0 -300 99.5t-114 260.5q0 75 27 143.5t75 115.5
q103 100 277 100q118 0 234 -48q42 -19 57 -19q36 0 39 41h70zM223 791l36 97l179 -56l164 56l30 -80l-205 -82z" />
    <glyph glyph-name="ccaron" unicode="&#x10d;" horiz-adv-x="552" 
d="M471 157h61q-13 -47 -27.5 -73t-40.5 -48q-64 -53 -161 -53q-115 0 -192.5 72.5t-77.5 179.5q0 112 75.5 182.5t195.5 70.5q91 0 150 -38t59 -96q0 -34 -22 -56.5t-56 -22.5q-30 0 -50.5 20.5t-20.5 49.5q0 31 25 53q-27 26 -68 26q-57 0 -91.5 -46.5t-34.5 -123.5
q0 -88 41 -142.5t106 -54.5q45 0 79 26t50 74zM141 655l76 65l101 -74l101 74l58 -59l-169 -126z" />
    <glyph glyph-name="Dcaron" unicode="&#x10e;" horiz-adv-x="963" 
d="M50 667h463q208 0 305 -84q50 -44 80.5 -112t30.5 -138q0 -73 -34 -143.5t-91 -116.5q-50 -39 -111 -56t-152 -17h-491v69h23q105 0 105 117v295q0 117 -105 117h-23v69zM340 68h100q83 0 136 17.5t90 56.5q73 79 73 195q0 132 -92 207q-69 55 -202 55h-105v-531z
M277 791l36 97l179 -56l164 56l30 -80l-205 -82z" />
    <glyph glyph-name="dcaron" unicode="&#x10f;" horiz-adv-x="870" 
d="M576 667v-504q0 -53 17.5 -74t62.5 -21h23v-68h-232v73q-44 -48 -86 -68t-99 -20q-106 0 -167 75q-62 76 -62 179q0 104 66 174.5t163 70.5q100 0 170 -83v102q0 54 -17.5 75t-61.5 21h-22v68h245zM317 407q-53 0 -86.5 -46.5t-33.5 -120.5q0 -80 34 -130t89 -50
q53 0 85 45t32 118q0 86 -32 135t-88 49zM708 375l-37 43q56 56 64 116q-17 -3 -22 -3q-30 0 -49.5 21.5t-19.5 53.5q0 38 24 62.5t61 24.5q40 0 67 -30t27 -75q0 -107 -115 -213z" />
    <glyph glyph-name="Dcroat" unicode="&#x110;" horiz-adv-x="956" 
d="M50 667h463q110 0 182 -20t123 -64q52 -45 82 -112.5t30 -137.5q0 -73 -34 -143.5t-92 -116.5q-50 -39 -110.5 -56t-151.5 -17h-492v69h23q105 0 105 117v127h-100v63h100v105q0 117 -105 117h-23v69zM340 68h100q158 0 226 74q74 79 74 195q0 133 -93 207
q-69 55 -201 55h-106v-223h134v-63h-134v-245z" />
    <glyph glyph-name="dcroat" unicode="&#x111;" horiz-adv-x="703" 
d="M576 667v-105h80v-60h-80v-339q0 -53 17.5 -74t62.5 -21h23v-68h-232v73q-44 -47 -86 -67.5t-98 -20.5q-107 0 -168 75q-62 76 -62 178q0 101 65.5 167t165.5 66q98 0 168 -70v101h-173v60h173v12q0 31 -79 31h-22v62h245zM317 394q-53 0 -86.5 -43t-33.5 -112
q0 -80 34 -129.5t89 -49.5q53 0 85 44.5t32 117.5q0 81 -32 126.5t-88 45.5z" />
    <glyph glyph-name="Emacron" unicode="&#x112;" horiz-adv-x="844" 
d="M719 257h75v-257h-744v69h23q105 0 105 117v295q0 117 -105 117h-23v69h744v-259h-75q-3 84 -39 133q-24 31 -60 44.5t-95 13.5h-185v-220h88q66 0 87 46q9 20 10 78h70v-314h-70q-4 69 -26 95t-75 26h-84v-242h185q120 0 165 71q23 37 29 118zM189 760v100h466v-100
h-466z" />
    <glyph glyph-name="emacron" unicode="&#x113;" horiz-adv-x="617" 
d="M499 151h75q-27 -63 -62 -96q-75 -72 -199 -72q-116 0 -190 63q-41 35 -65.5 87t-24.5 106q0 49 20.5 97.5t55.5 81.5q73 70 197 70q75 0 136.5 -28.5t97.5 -80.5q25 -35 34 -73t10 -104h-382q6 -48 25 -77q20 -31 56 -49.5t77 -18.5q106 0 139 94zM195 273h226
q-1 60 -22 96q-31 51 -89 51q-51 0 -81 -38.5t-34 -108.5zM75 577v100h467v-100h-467z" />
    <glyph glyph-name="Ebreve" unicode="&#x114;" horiz-adv-x="844" 
d="M719 257h75v-257h-744v69h23q105 0 105 117v295q0 117 -105 117h-23v69h744v-259h-75q-3 84 -39 133q-24 31 -60 44.5t-95 13.5h-185v-220h88q66 0 87 46q9 20 10 78h70v-314h-70q-4 69 -26 95t-75 26h-84v-242h185q120 0 165 71q23 37 29 118zM582 904h57
q-4 -85 -61 -131t-156 -46t-155.5 46.5t-61.5 130.5h57q36 -73 160 -73t160 73z" />
    <glyph glyph-name="ebreve" unicode="&#x115;" horiz-adv-x="617" 
d="M499 151h75q-27 -63 -62 -96q-75 -72 -199 -72q-116 0 -190 63q-41 35 -65.5 87t-24.5 106q0 49 20.5 97.5t55.5 81.5q73 70 197 70q75 0 136.5 -28.5t97.5 -80.5q25 -35 34 -73t10 -104h-382q6 -48 25 -77q20 -31 56 -49.5t77 -18.5q106 0 139 94zM195 273h226
q-1 60 -22 96q-31 51 -89 51q-51 0 -81 -38.5t-34 -108.5zM469 724h57q-6 -85 -62.5 -131t-155.5 -46q-98 0 -155 46t-62 131h57q37 -73 160 -73q125 0 161 73z" />
    <glyph glyph-name="Edotaccent" unicode="&#x116;" horiz-adv-x="844" 
d="M719 257h75v-257h-744v69h23q105 0 105 117v295q0 117 -105 117h-23v69h744v-259h-75q-3 84 -39 133q-24 31 -60 44.5t-95 13.5h-185v-220h88q66 0 87 46q9 20 10 78h70v-314h-70q-4 69 -26 95t-75 26h-84v-242h185q120 0 165 71q23 37 29 118zM423 881q30 0 52 -22
t22 -53t-22 -53t-53 -22t-53 22t-22 54q0 31 22 52.5t54 21.5z" />
    <glyph glyph-name="edotaccent" unicode="&#x117;" horiz-adv-x="617" 
d="M499 151h75q-27 -63 -62 -96q-75 -72 -199 -72q-116 0 -190 63q-41 35 -65.5 87t-24.5 106q0 49 20.5 97.5t55.5 81.5q73 70 197 70q75 0 136.5 -28.5t97.5 -80.5q25 -35 34 -73t10 -104h-382q6 -48 25 -77q20 -31 56 -49.5t77 -18.5q106 0 139 94zM195 273h226
q-1 60 -22 96q-31 51 -89 51q-51 0 -81 -38.5t-34 -108.5zM309 705q33 0 56.5 -24t23.5 -57q0 -34 -23.5 -57.5t-57.5 -23.5t-57.5 24t-23.5 58q0 33 24 56.5t58 23.5z" />
    <glyph glyph-name="Eogonek" unicode="&#x118;" horiz-adv-x="844" 
d="M794 0h-55q-79 -35 -79 -92q0 -16 12.5 -26t32.5 -10q31 0 62 29l24 -24q-54 -57 -116 -57q-40 0 -64.5 18.5t-24.5 49.5q0 54 72 112h-608v69h23q105 0 105 117v295q0 117 -105 117h-23v69h744v-259h-75q-3 84 -39 133q-24 31 -60 44.5t-95 13.5h-185v-220h88
q66 0 87 46q9 20 10 78h70v-314h-70q-4 69 -26 95t-75 26h-84v-242h185q120 0 165 71q23 37 29 118h75v-257z" />
    <glyph glyph-name="eogonek" unicode="&#x119;" horiz-adv-x="617" 
d="M499 151h75q-41 -104 -136 -144q-33 -14 -47 -29q-16 -19 -16 -41q0 -17 10.5 -28t26.5 -11q17 0 42 22l25 -21q-41 -70 -99 -70q-36 0 -59 23t-23 58q0 41 34 74q-9 -1 -20 -1q-89 0 -157 41q-55 32 -88.5 91t-33.5 124q0 49 20.5 97.5t55.5 81.5q73 70 197 70
q75 0 136.5 -28.5t97.5 -80.5q25 -35 34 -73t10 -104h-382q6 -48 25 -77q20 -31 56 -49.5t77 -18.5q106 0 139 94zM195 273h226q-1 60 -22 96q-31 51 -89 51q-51 0 -81 -38.5t-34 -108.5z" />
    <glyph glyph-name="Ecaron" unicode="&#x11a;" horiz-adv-x="844" 
d="M719 257h75v-257h-744v69h23q105 0 105 117v295q0 117 -105 117h-23v69h744v-259h-75q-3 84 -39 133q-24 31 -60 44.5t-95 13.5h-185v-220h88q66 0 87 46q9 20 10 78h70v-314h-70q-4 69 -26 95t-75 26h-84v-242h185q120 0 165 71q23 37 29 118zM218 791l36 97l179 -56
l163 56l31 -80l-205 -82z" />
    <glyph glyph-name="ecaron" unicode="&#x11b;" horiz-adv-x="617" 
d="M499 151h75q-27 -63 -62 -96q-75 -72 -199 -72q-116 0 -190 63q-41 35 -65.5 87t-24.5 106q0 49 20.5 97.5t55.5 81.5q73 70 197 70q75 0 136.5 -28.5t97.5 -80.5q25 -35 34 -73t10 -104h-382q6 -48 25 -77q20 -31 56 -49.5t77 -18.5q106 0 139 94zM195 273h226
q-1 60 -22 96q-31 51 -89 51q-51 0 -81 -38.5t-34 -108.5zM140 655l76 65l101 -74l102 74l57 -59l-169 -126z" />
    <glyph glyph-name="Gcircumflex" unicode="&#x11c;" horiz-adv-x="991" 
d="M818 679v-265h-73q-10 88 -80.5 144.5t-170.5 56.5q-116 0 -194 -78t-78 -195q0 -118 79.5 -198.5t196.5 -80.5q79 0 139.5 32.5t60.5 75.5q0 40 -50 56q-19 6 -85 11v70h411v-69h-23q-51 0 -81 -30q-14 -14 -17 -28t-3 -59v-122h-59l-35 83q-122 -109 -306 -109
q-180 0 -293 97q-124 105 -124 264q0 155 113.5 256.5t287.5 101.5q113 0 229 -45q51 -19 61 -19q12 0 20 12t8 29v9h66zM700 824l-36 -98l-180 57l-163 -57l-30 81l204 81z" />
    <glyph glyph-name="gcircumflex" unicode="&#x11d;" horiz-adv-x="735" 
d="M374 68l109 1q109 0 152 -24q26 -15 42 -44t16 -63q0 -175 -356 -175q-160 0 -235 29t-75 90q0 52 64 81q-63 36 -63 97q0 74 89 118q-65 54 -65 128q0 84 72.5 133t197.5 49q75 0 120.5 -15.5t90.5 -55.5q20 21 35 34q32 24 77 24t76 -30t31 -73q0 -35 -22 -58.5
t-55 -23.5q-30 0 -51 19t-21 46q0 21 14 41q-9 4 -16 4q-21 0 -40 -22q16 -42 16 -76q0 -77 -72.5 -125.5t-187.5 -48.5q-87 0 -166 29q-19 -17 -24 -25t-5 -21q0 -33 40 -40q25 -5 105 -5q5 0 107 2zM317 425q-45 0 -74 -32.5t-29 -84.5t28 -85t72 -33t72 31.5t28 81.5
q0 55 -26.5 88.5t-70.5 33.5zM349 -57q-138 0 -188 -10.5t-50 -38.5q0 -22 30 -38q24 -11 83.5 -20t116.5 -9q127 0 193 29q30 14 30 40q0 29 -41.5 38t-173.5 9zM496 613l-76 -65l-101 75l-101 -75l-58 60l169 126z" />
    <glyph glyph-name="Gbreve" unicode="&#x11e;" horiz-adv-x="991" 
d="M818 679v-265h-73q-10 88 -80.5 144.5t-170.5 56.5q-116 0 -194 -78t-78 -195q0 -118 79.5 -198.5t196.5 -80.5q79 0 139.5 32.5t60.5 75.5q0 40 -50 56q-19 6 -85 11v70h411v-69h-23q-51 0 -81 -30q-14 -14 -17 -28t-3 -59v-122h-59l-35 83q-122 -109 -306 -109
q-180 0 -293 97q-124 105 -124 264q0 155 113.5 256.5t287.5 101.5q113 0 229 -45q51 -19 61 -19q12 0 20 12t8 29v9h66zM656 904h56q-4 -85 -61 -131t-156 -46t-155.5 46.5t-61.5 130.5h57q37 -73 160 -73q124 0 161 73z" />
    <glyph glyph-name="gbreve" unicode="&#x11f;" horiz-adv-x="735" 
d="M374 68l109 1q109 0 152 -24q26 -15 42 -44t16 -63q0 -175 -356 -175q-160 0 -235 29t-75 90q0 52 64 81q-63 36 -63 97q0 74 89 118q-65 54 -65 128q0 84 72.5 133t197.5 49q75 0 120.5 -15.5t90.5 -55.5q20 21 35 34q32 24 77 24t76 -30t31 -73q0 -35 -22 -58.5
t-55 -23.5q-30 0 -51 19t-21 46q0 21 14 41q-9 4 -16 4q-21 0 -40 -22q16 -42 16 -76q0 -77 -72.5 -125.5t-187.5 -48.5q-87 0 -166 29q-19 -17 -24 -25t-5 -21q0 -33 40 -40q25 -5 105 -5q5 0 107 2zM317 425q-45 0 -74 -32.5t-29 -84.5t28 -85t72 -33t72 31.5t28 81.5
q0 55 -26.5 88.5t-70.5 33.5zM349 -57q-138 0 -188 -10.5t-50 -38.5q0 -22 30 -38q24 -11 83.5 -20t116.5 -9q127 0 193 29q30 14 30 40q0 29 -41.5 38t-173.5 9zM488 724h57q-5 -85 -61.5 -131t-155.5 -46t-156 46t-61 131h56q37 -73 161 -73t160 73z" />
    <glyph glyph-name="Gdotaccent" unicode="&#x120;" horiz-adv-x="991" 
d="M818 679v-265h-73q-10 88 -80.5 144.5t-170.5 56.5q-116 0 -194 -78t-78 -195q0 -118 79.5 -198.5t196.5 -80.5q79 0 139.5 32.5t60.5 75.5q0 40 -50 56q-19 6 -85 11v70h411v-69h-23q-51 0 -81 -30q-14 -14 -17 -28t-3 -59v-122h-59l-35 83q-122 -109 -306 -109
q-180 0 -293 97q-124 105 -124 264q0 155 113.5 256.5t287.5 101.5q113 0 229 -45q51 -19 61 -19q12 0 20 12t8 29v9h66zM496 881q30 0 52 -22t22 -53t-22 -53t-53 -22t-53 22t-22 54q0 31 22 52.5t54 21.5z" />
    <glyph glyph-name="gdotaccent" unicode="&#x121;" horiz-adv-x="735" 
d="M374 68l109 1q109 0 152 -24q26 -15 42 -44t16 -63q0 -175 -356 -175q-160 0 -235 29t-75 90q0 52 64 81q-63 36 -63 97q0 74 89 118q-65 54 -65 128q0 84 72.5 133t197.5 49q75 0 120.5 -15.5t90.5 -55.5q20 21 35 34q32 24 77 24t76 -30t31 -73q0 -35 -22 -58.5
t-55 -23.5q-30 0 -51 19t-21 46q0 21 14 41q-9 4 -16 4q-21 0 -40 -22q16 -42 16 -76q0 -77 -72.5 -125.5t-187.5 -48.5q-87 0 -166 29q-19 -17 -24 -25t-5 -21q0 -33 40 -40q25 -5 105 -5q5 0 107 2zM317 425q-45 0 -74 -32.5t-29 -84.5t28 -85t72 -33t72 31.5t28 81.5
q0 55 -26.5 88.5t-70.5 33.5zM349 -57q-138 0 -188 -10.5t-50 -38.5q0 -22 30 -38q24 -11 83.5 -20t116.5 -9q127 0 193 29q30 14 30 40q0 29 -41.5 38t-173.5 9zM328 705q33 0 56.5 -24t23.5 -57q0 -34 -23.5 -57.5t-57.5 -23.5t-57.5 24t-23.5 58q0 33 24 56.5t58 23.5z
" />
    <glyph glyph-name="Gcommaaccent" unicode="&#x122;" horiz-adv-x="991" 
d="M818 679v-265h-73q-10 88 -80.5 144.5t-170.5 56.5q-116 0 -194 -78t-78 -195q0 -118 79.5 -198.5t196.5 -80.5q79 0 139.5 32.5t60.5 75.5q0 40 -50 56q-19 6 -85 11v70h411v-69h-23q-51 0 -81 -30q-14 -14 -17 -28t-3 -59v-122h-59l-35 83q-122 -109 -306 -109
q-180 0 -293 97q-124 105 -124 264q0 155 113.5 256.5t287.5 101.5q113 0 229 -45q51 -19 61 -19q12 0 20 12t8 29v9h66zM470 -281l-34 33q51 41 58 88q-18 -2 -20 -2q-27 0 -44.5 16.5t-17.5 41.5q0 29 21.5 48t54.5 19q37 0 61 -22.5t24 -57.5q0 -83 -103 -164z" />
    <glyph glyph-name="Hcircumflex" unicode="&#x124;" horiz-adv-x="1042" 
d="M700 309h-357v-123q0 -39 4.5 -56.5t17.5 -30.5q28 -30 80 -30h23v-69h-418v69h25q51 0 81 30q25 26 25 106v276q0 117 -106 117h-18v69h416v-69h-23q-53 0 -80 -30t-27 -106v-82h357v82q0 76 -27 106q-28 30 -81 30h-23v69h417v-69h-18q-106 0 -106 -117v-276
q0 -80 25 -106q30 -30 81 -30h24v-69h-418v69h23q53 0 81 30q13 14 17.5 31t4.5 56v123zM726 824l-36 -98l-180 57l-163 -57l-30 81l204 81z" />
    <glyph glyph-name="Hbar" unicode="&#x126;" horiz-adv-x="1042" 
d="M97 453v63h81q-15 82 -103 82h-18v69h416v-69h-23q-87 0 -102 -82h347q-15 82 -103 82h-23v69h417v-69h-18q-88 0 -103 -82h80v-63h-83v-248q0 -80 25 -106q30 -30 81 -30h24v-69h-418v69h23q53 0 81 30q13 14 17.5 31t4.5 56v123h-357v-123q0 -39 4.5 -56.5t17.5 -30.5
q28 -30 80 -30h23v-69h-418v69h25q51 0 81 30q25 26 25 106v248h-84zM343 453v-73h357v73h-357z" />
    <glyph glyph-name="hbar" unicode="&#x127;" horiz-adv-x="784" 
d="M278 568h160v-60h-160v-111q35 35 57 49q64 42 138 42q45 0 85.5 -17.5t66.5 -47.5q40 -49 40 -148v-112q0 -54 17.5 -74.5t62.5 -20.5h10v-68h-331v68h14q45 0 62 21t17 74v58q0 90 -17 128q-11 23 -35.5 37.5t-54.5 14.5q-68 0 -104 -52q-28 -38 -28 -119v-67
q0 -53 17 -74t62 -21h21v-68h-337v68h14q44 0 61.5 20.5t17.5 74.5v345h-94v60h84q-20 31 -69 31h-18v68h241v-99z" />
    <glyph glyph-name="Imacron" unicode="&#x12a;" horiz-adv-x="529" 
d="M472 0h-415v69h23q50 0 80 30q23 24 23 87v295q0 63 -23 87q-30 30 -80 30h-23v69h415v-69h-23q-51 0 -81 -30q-23 -24 -23 -87v-295q0 -63 23 -87q30 -30 81 -30h23v-69zM31 760v100h467v-100h-467z" />
    <glyph glyph-name="imacron" unicode="&#x12b;" horiz-adv-x="410" 
d="M282 471v-308q0 -53 17.5 -74t61.5 -21h19v-68h-337v68h16q45 0 62.5 20.5t17.5 74.5v145q0 56 -17 74q-19 21 -63 21h-16v68h239zM-2 577v100h413v-100h-413z" />
    <glyph glyph-name="ibreve" unicode="&#x12d;" horiz-adv-x="410" 
d="M282 471v-308q0 -53 17.5 -74t61.5 -21h19v-68h-336v68h16q45 0 62 20.5t17 74.5v145q0 54 -17 74.5t-62 20.5h-16v68h238zM358 724h54q-5 -85 -59 -131t-148 -46t-147.5 46.5t-58.5 130.5h54q36 -73 152 -73q119 0 153 73z" />
    <glyph glyph-name="Idotaccent" unicode="&#x130;" horiz-adv-x="529" 
d="M472 0h-415v69h23q50 0 80 30q23 24 23 87v295q0 63 -23 87q-30 30 -80 30h-23v69h415v-69h-23q-51 0 -81 -30q-23 -24 -23 -87v-295q0 -63 23 -87q30 -30 81 -30h23v-69zM266 881q30 0 52 -22t22 -53t-22 -53t-53 -22t-53 22t-22 54q0 31 22 52.5t54 21.5z" />
    <glyph glyph-name="dotlessi" unicode="&#x131;" horiz-adv-x="410" 
d="M281 471v-308q0 -53 17.5 -74t61.5 -21h19v-68h-336v68h16q45 0 62 20.5t17 74.5v145q0 54 -17 74.5t-62 20.5h-16v68h238z" />
    <glyph glyph-name="IJ" unicode="&#x132;" horiz-adv-x="1157" 
d="M472 0h-415v69h23q50 0 80 30q23 24 23 87v295q0 63 -23 87q-30 30 -80 30h-23v69h415v-69h-23q-51 0 -81 -30q-23 -24 -23 -87v-295q0 -63 23 -87q30 -30 81 -30h23v-69zM994 481v-288q0 -77 -19 -111q-28 -51 -85.5 -79.5t-129.5 -28.5q-91 0 -144.5 40.5t-53.5 109.5
q0 45 24.5 73t64.5 28q36 0 60 -23t24 -58q0 -40 -48 -62q4 -21 22 -33.5t44 -12.5q51 0 68 50q11 31 11 101v294q0 39 -4.5 56t-17.5 31q-28 30 -80 30h-23v69h410v-69h-17q-106 0 -106 -117z" />
    <glyph glyph-name="ij" unicode="&#x133;" horiz-adv-x="738" 
d="M281 471v-308q0 -53 17.5 -74t61.5 -21h19v-68h-336v68h16q45 0 62 20.5t17 74.5v145q0 54 -17 74.5t-62 20.5h-16v68h238zM202 699q35 0 61 -26t26 -62q0 -37 -26 -63t-62 -26q-37 0 -63 26t-26 63t26 62.5t64 25.5zM659 471v-524q0 -81 -55 -126q-61 -48 -139 -48
q-61 0 -102 27.5t-41 68.5q0 29 19.5 48.5t48.5 19.5q28 0 46.5 -17t18.5 -43q0 -24 -19 -42q15 -10 30 -10q32 0 42 27q7 16 8 123v333q0 53 -17.5 74t-62.5 21h-20v68h243zM579 700q35 0 60.5 -26t25.5 -61q0 -37 -25.5 -62.5t-61.5 -25.5q-37 0 -62.5 25.5t-25.5 62.5
q0 36 26 61.5t63 25.5z" />
    <glyph glyph-name="Kcommaaccent" unicode="&#x136;" horiz-adv-x="963" 
d="M566 424l232 -273q44 -54 68 -68t70 -14v-69h-414v69q6 0 14 0.5t12.5 1t6.5 0.5q36 2 49.5 7.5t13.5 19.5q0 16 -32 53l-148 174l-102 -78v-42q0 -80 25 -106q30 -30 82 -30h24v-69h-417v69h23q52 0 80 30q13 14 17.5 31t4.5 56v295q0 39 -4.5 56t-17.5 31
q-28 30 -80 30h-23v69h417v-69h-24q-52 0 -82 -30q-25 -26 -25 -106v-117l230 176q42 31 42 52q0 12 -18.5 18t-67.5 7v69h360v-69q-55 1 -93 -14.5t-107 -68.5zM456 -281l-33 33q50 41 57 88q-18 -2 -19 -2q-27 0 -44.5 16.5t-17.5 41.5q0 29 21.5 48t54.5 19
q37 0 61 -22.5t24 -57.5q0 -83 -104 -164z" />
    <glyph glyph-name="kcommaaccent" unicode="&#x137;" horiz-adv-x="746" 
d="M478 303l148 -182q27 -33 42.5 -43t40.5 -10v-68h-307v68q31 0 42 4t11 16q0 10 -23 39l-75 94l-81 -56v-34q0 -46 29 -58q7 -4 39 -5v-68h-307v68h15q45 0 62.5 20.5t17.5 74.5v340q0 55 -17 75.5t-63 20.5h-15v68h239v-418l126 83q48 32 48 48q0 23 -38 23h-17v68h291
v-68h-10q-33 0 -56 -10q-33 -14 -72 -41zM349 -275l-33 32q49 39 55 83q-9 -1 -18 -1q-26 0 -42.5 15.5t-16.5 39.5q0 27 21 45t52 18q34 0 57 -22t23 -54q0 -78 -98 -156z" />
    <glyph glyph-name="kgreenlandic" unicode="&#x138;" horiz-adv-x="546" 
d="M532 482l-187 -188l213 -294h-171l-135 200l-51 -48v-152h-144v482h144v-182l168 182h163z" />
    <glyph glyph-name="Lacute" unicode="&#x139;" horiz-adv-x="761" 
d="M731 255v-255h-681v69h23q52 0 79.5 30t27.5 87v275q0 78 -26 107q-28 30 -81 30h-23v69h421v-69h-23q-52 0 -79 -30t-27 -87v-413h125q60 0 96.5 17t60.5 56q29 44 33 114h74zM325 731h-106l125 150h171z" />
    <glyph glyph-name="lacute" unicode="&#x13a;" horiz-adv-x="396" 
d="M275 667v-504q0 -53 17.5 -74t61.5 -21h12v-68h-329v68h16q44 0 61.5 21t17.5 74v341q0 53 -17.5 74t-61.5 21h-16v68h238zM222 731h-105l124 150h172z" />
    <glyph glyph-name="Lcommaaccent" unicode="&#x13b;" horiz-adv-x="761" 
d="M731 255v-255h-681v69h23q52 0 79.5 30t27.5 87v275q0 78 -26 107q-28 30 -81 30h-23v69h421v-69h-23q-52 0 -79 -30t-27 -87v-413h125q60 0 96.5 17t60.5 56q29 44 33 114h74zM355 -281l-33 33q50 41 57 88q-18 -2 -19 -2q-27 0 -44.5 16.5t-17.5 41.5q0 29 21.5 48
t54.5 19q37 0 61 -22.5t24 -57.5q0 -83 -104 -164z" />
    <glyph glyph-name="lcommaaccent" unicode="&#x13c;" horiz-adv-x="396" 
d="M275 667v-504q0 -53 17.5 -74t61.5 -21h12v-68h-329v68h16q44 0 61.5 21t17.5 74v341q0 53 -17.5 74t-61.5 21h-16v68h238zM174 -275l-33 32q49 39 55 83q-9 -1 -18 -1q-26 0 -42.5 15.5t-16.5 39.5q0 27 21 45t52 18q34 0 57 -22t23 -54q0 -78 -98 -156z" />
    <glyph glyph-name="Lcaron" unicode="&#x13d;" horiz-adv-x="761" 
d="M731 255v-255h-681v69h23q52 0 79.5 30t27.5 87v275q0 78 -26 107q-28 30 -81 30h-23v69h421v-69h-23q-52 0 -79 -30t-27 -87v-413h125q60 0 96.5 17t60.5 56q29 44 33 114h74zM589 375l-38 43q56 54 64 116q-15 -3 -22 -3q-30 0 -49.5 21.5t-19.5 53.5q0 38 24 62.5
t61 24.5q40 0 67 -30t27 -75q0 -106 -114 -213z" />
    <glyph glyph-name="lcaron" unicode="&#x13e;" horiz-adv-x="568" 
d="M275 667v-504q0 -53 17.5 -74t61.5 -21h12v-68h-329v68h16q44 0 61.5 21t17.5 74v341q0 53 -17.5 74t-61.5 21h-16v68h238zM407 375l-38 43q56 54 64 116q-15 -3 -21 -3q-30 0 -49.5 21.5t-19.5 53.5q0 37 24 62t60 25q40 0 67 -30t27 -75q0 -106 -114 -213z" />
    <glyph glyph-name="Ldot" unicode="&#x13f;" horiz-adv-x="768" 
d="M731 255v-255h-681v69h23q52 0 79.5 30t27.5 87v275q0 78 -26 107q-28 30 -81 30h-23v69h421v-69h-23q-52 0 -79 -30t-27 -87v-413h125q60 0 96.5 17t60.5 56q29 44 33 114h74zM636 512q41 0 71.5 -30.5t30.5 -73.5t-30.5 -73.5t-73.5 -30.5t-73.5 30.5t-30.5 74.5
q0 43 31 73t75 30z" />
    <glyph glyph-name="ldot" unicode="&#x140;" horiz-adv-x="571" 
d="M275 667v-504q0 -53 17.5 -74t61.5 -21h12v-68h-329v68h16q44 0 61.5 21t17.5 74v341q0 53 -17.5 74t-61.5 21h-16v68h238zM435 446q41 0 71.5 -30.5t30.5 -73.5t-30.5 -73.5t-73.5 -30.5t-73.5 30.5t-30.5 74.5q0 43 31 73t75 30z" />
    <glyph glyph-name="Lslash" unicode="&#x141;" horiz-adv-x="761" 
d="M710 255v-255h-681v69h23q52 0 79.5 30t27.5 87v47l-93 -71v73l93 71v155q0 78 -26 107q-30 30 -81 30h-23v69h421v-69h-22q-107 0 -107 -118v-80l119 91v-73l-119 -92v-258h125q60 0 96.5 17t60.5 56q29 44 33 114h74z" />
    <glyph glyph-name="lslash" unicode="&#x142;" horiz-adv-x="396" 
d="M267 667v-253l87 67v-74l-87 -67v-177q0 -53 17.5 -74t61.5 -21h12v-68h-329v68h16q45 0 62 20.5t17 74.5v80l-87 -67v74l87 67v187q0 54 -17 74.5t-62 20.5h-16v68h238z" />
    <glyph glyph-name="Nacute" unicode="&#x143;" horiz-adv-x="1030" 
d="M864 -7h-62l-553 513v-301q0 -78 25 -106q30 -30 81 -30h26v-69h-334v69h23q51 0 81 30q23 24 23 87v295q0 63 -23 87q-30 30 -81 30h-23v69h272l470 -440v235q0 80 -25 106q-30 30 -82 30h-24v69h332v-69h-23q-52 0 -80 -30q-23 -24 -23 -87v-488zM539 731h-105l124 150
h172z" />
    <glyph glyph-name="nacute" unicode="&#x144;" horiz-adv-x="789" 
d="M277 471v-79q86 96 198 96q97 0 151 -59q43 -47 43 -148v-118q0 -53 17.5 -74t61.5 -21h11v-68h-328v68h15q44 0 61.5 21t17.5 74v89q0 77 -25.5 113.5t-78.5 36.5q-62 0 -104 -47q-19 -22 -26 -44.5t-7 -62.5v-85q0 -53 17.5 -74t61.5 -21h20v-68h-335v68h13
q45 0 62 20.5t17 74.5v145q0 54 -17 74.5t-62 20.5h-18v68h234zM430 553h-100l83 148h166z" />
    <glyph glyph-name="Ncommaaccent" unicode="&#x145;" horiz-adv-x="1030" 
d="M864 -7h-62l-553 513v-301q0 -78 25 -106q30 -30 81 -30h26v-69h-334v69h23q51 0 81 30q23 24 23 87v295q0 63 -23 87q-30 30 -81 30h-23v69h272l470 -440v235q0 80 -25 106q-30 30 -82 30h-24v69h332v-69h-23q-52 0 -80 -30q-23 -24 -23 -87v-488zM490 -281l-34 33
q51 41 58 88q-18 -2 -20 -2q-27 0 -44.5 16.5t-17.5 41.5q0 29 21.5 48t54.5 19q37 0 61 -22.5t24 -57.5q0 -83 -103 -164z" />
    <glyph glyph-name="ncommaaccent" unicode="&#x146;" horiz-adv-x="789" 
d="M277 471v-79q86 96 198 96q97 0 151 -59q43 -47 43 -148v-118q0 -53 17.5 -74t61.5 -21h11v-68h-328v68h15q44 0 61.5 21t17.5 74v89q0 77 -25.5 113.5t-78.5 36.5q-62 0 -104 -47q-19 -22 -26 -44.5t-7 -62.5v-85q0 -53 17.5 -74t61.5 -21h20v-68h-335v68h13
q45 0 62 20.5t17 74.5v145q0 54 -17 74.5t-62 20.5h-18v68h234zM370 -275l-33 32q49 39 55 83q-9 -1 -18 -1q-26 0 -42.5 15.5t-16.5 39.5q0 27 21 45t52 18q34 0 57 -22t23 -54q0 -78 -98 -156z" />
    <glyph glyph-name="Ncaron" unicode="&#x147;" horiz-adv-x="1030" 
d="M864 -7h-62l-553 513v-301q0 -78 25 -106q30 -30 81 -30h26v-69h-334v69h23q51 0 81 30q23 24 23 87v295q0 63 -23 87q-30 30 -81 30h-23v69h272l470 -440v235q0 80 -25 106q-30 30 -82 30h-24v69h332v-69h-23q-52 0 -80 -30q-23 -24 -23 -87v-488zM311 791l36 97
l179 -56l164 56l30 -80l-205 -82z" />
    <glyph glyph-name="ncaron" unicode="&#x148;" horiz-adv-x="789" 
d="M277 471v-79q86 96 198 96q97 0 151 -59q43 -47 43 -148v-118q0 -53 17.5 -74t61.5 -21h11v-68h-328v68h15q44 0 61.5 21t17.5 74v89q0 77 -25.5 113.5t-78.5 36.5q-62 0 -104 -47q-19 -22 -26 -44.5t-7 -62.5v-85q0 -53 17.5 -74t61.5 -21h20v-68h-335v68h13
q45 0 62 20.5t17 74.5v145q0 54 -17 74.5t-62 20.5h-18v68h234zM226 655l76 65l101 -74l101 74l58 -59l-169 -126z" />
    <glyph glyph-name="napostrophe" unicode="&#x149;" horiz-adv-x="994" 
d="M111 375l-38 43q57 56 64 116q-15 -3 -21 -3q-30 0 -49.5 21.5t-19.5 53.5q0 38 24 62.5t61 24.5q40 0 67 -30t27 -75q0 -105 -115 -213zM483 471v-79q86 96 198 96q97 0 151 -59q43 -47 43 -148v-118q0 -53 17.5 -74t61.5 -21h11v-68h-328v68h15q44 0 61.5 21t17.5 74
v89q0 77 -25.5 113.5t-78.5 36.5q-62 0 -104 -47q-19 -22 -26 -44.5t-7 -62.5v-85q0 -53 17.5 -74t61.5 -21h20v-68h-335v68h13q45 0 62 20.5t17 74.5v145q0 54 -17 74.5t-62 20.5h-18v68h234z" />
    <glyph glyph-name="Eng" unicode="&#x14a;" horiz-adv-x="659" 
d="M60 663h148v-101q27 48 51 70q54 49 138 49q92 0 151 -59q52 -53 52 -170v-560q0 -45 -19.5 -60.5t-76.5 -15.5h-140v86h15q48 0 58 28q6 18 6 112v374q0 63 -22 92q-29 37 -83 37q-32 0 -60 -16.5t-43 -44.5q-18 -36 -18 -107v-377h-157v663z" />
    <glyph glyph-name="eng" unicode="&#x14b;" horiz-adv-x="590" 
d="M57 480h133v-81q29 52 67.5 74.5t96.5 22.5q92 0 140 -57q39 -46 39 -140v-398q0 -49 -27 -64q-16 -8 -63 -8h-127v66h13q34 0 47 11t13 39v325q0 47 -14 70q-22 36 -74 36q-28 0 -51.5 -12.5t-34.5 -34.5q-17 -30 -17 -88v-241h-141v480z" />
    <glyph glyph-name="Omacron" unicode="&#x14c;" horiz-adv-x="954" 
d="M480 693q178 0 287 -74q72 -49 113 -127.5t41 -164.5q0 -71 -33 -140t-90 -117q-114 -96 -317 -96q-194 0 -308 84q-65 49 -102.5 123.5t-37.5 156.5t37.5 154t105.5 119q120 82 304 82zM472 624q-106 0 -177 -83t-71 -205q0 -132 81 -221q64 -70 170 -70q104 0 169 68
q84 89 84 219q0 128 -72 210t-184 82zM243 760v100h467v-100h-467z" />
    <glyph glyph-name="omacron" unicode="&#x14d;" horiz-adv-x="677" 
d="M339 488q131 0 217.5 -73.5t86.5 -184.5q0 -52 -28.5 -103.5t-77.5 -86.5q-79 -57 -197 -57q-132 0 -219.5 72.5t-87.5 181.5q0 115 101 192q78 59 205 59zM339 426q-61 0 -100 -53.5t-39 -137.5q0 -82 38.5 -134t99.5 -52q68 0 103 51q37 55 37 136q0 84 -39 137
t-100 53zM105 577v100h467v-100h-467z" />
    <glyph glyph-name="Ohungarumlaut" unicode="&#x150;" horiz-adv-x="954" 
d="M480 693q178 0 287 -74q72 -49 113 -127.5t41 -164.5q0 -71 -33 -140t-90 -117q-114 -96 -317 -96q-194 0 -308 84q-65 49 -102.5 123.5t-37.5 156.5t37.5 154t105.5 119q120 82 304 82zM472 624q-106 0 -177 -83t-71 -205q0 -132 81 -221q64 -70 170 -70q104 0 169 68
q84 89 84 219q0 128 -72 210t-184 82zM398 745h-89l73 127h146zM632 745h-90l74 127h146z" />
    <glyph glyph-name="ohungarumlaut" unicode="&#x151;" horiz-adv-x="677" 
d="M339 488q131 0 217.5 -73.5t86.5 -184.5q0 -52 -28.5 -103.5t-77.5 -86.5q-79 -57 -197 -57q-132 0 -219.5 72.5t-87.5 181.5q0 115 101 192q78 59 205 59zM339 426q-61 0 -100 -53.5t-39 -137.5q0 -82 38.5 -134t99.5 -52q68 0 103 51q37 55 37 136q0 84 -39 137
t-100 53zM262 557h-85l44 126h141zM482 557h-85l44 126h141z" />
    <glyph glyph-name="OE" unicode="&#x152;" horiz-adv-x="1315" 
d="M1271 258v-258h-558q-29 0 -68 -7q-126 -19 -184 -19q-100 0 -183.5 27.5t-136.5 77.5q-49 46 -78.5 116.5t-29.5 140.5q0 155 120 256.5t303 101.5q55 0 172 -22q30 -5 63 -5h580v-260h-77q-4 49 -13 78.5t-29 55.5q-45 58 -122 58h-214v-222h67q68 0 93 26.5t26 98.5
h68v-316h-68q1 8 1 17q0 47 -25 79q-21 25 -79 25h-83v-239h175q74 0 105 15q66 29 88 97q9 26 10 78h77zM652 214v241q0 46 -7.5 70.5t-29.5 47.5q-48 51 -136 51q-121 0 -190 -90q-65 -85 -65 -200q0 -108 60 -193q68 -96 191 -96q89 0 139 45q22 20 30 46.5t8 77.5z" />
    <glyph glyph-name="oe" unicode="&#x153;" horiz-adv-x="1052" 
d="M938 153h72q-28 -66 -63 -99q-77 -71 -195 -71q-62 0 -108 16t-93 54q-89 -70 -221 -70q-148 0 -226 80q-71 71 -71 172q0 113 84 183t219 70q134 0 210 -73q83 73 200 73q78 0 139.5 -33t96.5 -93t36 -160h-384q9 -56 35 -88q46 -58 124 -58q51 0 90.5 26.5t54.5 70.5z
M632 271h224q-2 73 -31.5 112t-82.5 39q-52 0 -81 -40t-29 -111zM337 425q-61 0 -100 -53.5t-39 -136.5q0 -82 39 -134t100 -52q60 0 100 53.5t40 133.5q0 83 -39 136t-101 53z" />
    <glyph glyph-name="Racute" unicode="&#x154;" horiz-adv-x="951" 
d="M861 196h70q-1 -66 -6 -95t-20 -52q-38 -60 -131 -60q-88 0 -121 52q-12 19 -16 41t-9 83q-4 54 -12.5 81.5t-26.5 44.5q-16 14 -34 18t-68 4h-145v-108q0 -80 25 -106q28 -30 81 -30h25v-69h-415v69h17q106 0 106 117v295q0 117 -106 117h-25v69h552q109 0 153 -35
q56 -43 56 -121q0 -71 -63 -117q-32 -24 -105 -43q72 -9 105.5 -46t35.5 -111q5 -69 12.5 -90.5t28.5 -21.5q20 0 28 19t8 69v26zM342 384h138q157 0 157 116q0 53 -41 80q-27 19 -95 19h-159v-215zM500 731h-106l125 150h171z" />
    <glyph glyph-name="racute" unicode="&#x155;" horiz-adv-x="588" 
d="M276 471v-103q41 63 83.5 91.5t97.5 28.5q51 0 84 -30.5t33 -77.5q0 -35 -22.5 -58t-57.5 -23q-29 0 -47 16.5t-18 43.5q0 10 4 25q-43 0 -73 -18q-76 -44 -76 -166v-37q0 -54 17 -74.5t62 -20.5h19v-68h-335v68h15q45 0 62 20.5t17 74.5v145q0 54 -17.5 74.5t-61.5 20.5
h-19v68h233zM329 553h-100l83 148h166z" />
    <glyph glyph-name="Rcommaaccent" unicode="&#x156;" horiz-adv-x="951" 
d="M861 196h70q-1 -66 -6 -95t-20 -52q-38 -60 -131 -60q-88 0 -121 52q-12 19 -16 41t-9 83q-4 54 -12.5 81.5t-26.5 44.5q-16 14 -34 18t-68 4h-145v-108q0 -80 25 -106q28 -30 81 -30h25v-69h-415v69h17q106 0 106 117v295q0 117 -106 117h-25v69h552q109 0 153 -35
q56 -43 56 -121q0 -71 -63 -117q-32 -24 -105 -43q72 -9 105.5 -46t35.5 -111q5 -69 12.5 -90.5t28.5 -21.5q20 0 28 19t8 69v26zM342 384h138q157 0 157 116q0 53 -41 80q-27 19 -95 19h-159v-215zM451 -281l-34 33q51 43 57 88q-18 -2 -19 -2q-27 0 -44.5 16.5t-17.5 41.5
q0 29 21.5 48t54.5 19q37 0 61 -22.5t24 -57.5q0 -81 -103 -164z" />
    <glyph glyph-name="rcommaaccent" unicode="&#x157;" horiz-adv-x="588" 
d="M276 471v-103q41 63 83.5 91.5t97.5 28.5q51 0 84 -30.5t33 -77.5q0 -35 -22.5 -58t-57.5 -23q-29 0 -47 16.5t-18 43.5q0 10 4 25q-43 0 -73 -18q-76 -44 -76 -166v-37q0 -54 17 -74.5t62 -20.5h19v-68h-335v68h15q45 0 62 20.5t17 74.5v145q0 54 -17.5 74.5t-61.5 20.5
h-19v68h233zM189 -275l-32 32q48 39 55 83q-10 -1 -19 -1q-26 0 -42.5 15.5t-16.5 39.5q0 27 21 45t52 18q34 0 57 -22t23 -54q0 -78 -98 -156z" />
    <glyph glyph-name="Rcaron" unicode="&#x158;" horiz-adv-x="951" 
d="M861 196h70q-1 -66 -6 -95t-20 -52q-38 -60 -131 -60q-88 0 -121 52q-12 19 -16 41t-9 83q-4 54 -12.5 81.5t-26.5 44.5q-16 14 -34 18t-68 4h-145v-108q0 -80 25 -106q28 -30 81 -30h25v-69h-415v69h17q106 0 106 117v295q0 117 -106 117h-25v69h552q109 0 153 -35
q56 -43 56 -121q0 -71 -63 -117q-32 -24 -105 -43q72 -9 105.5 -46t35.5 -111q5 -69 12.5 -90.5t28.5 -21.5q20 0 28 19t8 69v26zM342 384h138q157 0 157 116q0 53 -41 80q-27 19 -95 19h-159v-215zM271 791l36 97l180 -56l163 56l30 -80l-204 -82z" />
    <glyph glyph-name="rcaron" unicode="&#x159;" horiz-adv-x="588" 
d="M276 471v-103q41 63 83.5 91.5t97.5 28.5q51 0 84 -30.5t33 -77.5q0 -35 -22.5 -58t-57.5 -23q-29 0 -47 16.5t-18 43.5q0 10 4 25q-43 0 -73 -18q-76 -44 -76 -166v-37q0 -54 17 -74.5t62 -20.5h19v-68h-335v68h15q45 0 62 20.5t17 74.5v145q0 54 -17.5 74.5t-61.5 20.5
h-19v68h233zM126 655l75 65l101 -74l102 74l58 -59l-170 -126z" />
    <glyph glyph-name="Sacute" unicode="&#x15a;" horiz-adv-x="773" 
d="M688 675v-221h-69q-11 62 -72 105q-67 47 -183 47q-84 0 -130 -25q-53 -28 -53 -81q0 -25 17 -40q29 -28 117 -32q206 -9 256 -23q78 -20 118 -78q35 -52 35 -116q0 -104 -78 -167t-205 -63q-63 0 -140 19q-49 11 -99 25q-21 6 -35 6q-30 0 -33 -42h-68v238h68
q5 -39 21.5 -64t53.5 -48q87 -54 199 -54q80 0 132.5 31.5t52.5 80.5q0 42 -51 67q-23 11 -54 15t-121 7q-145 5 -206 29q-51 20 -81 68t-30 107q0 97 79 157.5t206 60.5q99 0 214 -35q25 -7 38 -7q30 0 32 33h69zM411 731h-106l125 150h171z" />
    <glyph glyph-name="sacute" unicode="&#x15b;" horiz-adv-x="634" 
d="M64 0v184h64q4 -56 42 -84q60 -46 154 -46q49 0 77.5 15.5t28.5 42.5t-28 43q-19 9 -69 18l-106 18q-89 15 -129.5 49t-40.5 95q0 71 54 112t147 41q73 0 148 -25q55 -19 67 -19q19 0 22 27h60v-157h-60q-9 30 -21 46.5t-35 29.5q-62 34 -140 34q-48 0 -77.5 -14.5
t-29.5 -38.5q0 -20 19 -30.5t69 -18.5l102 -17q60 -10 90.5 -21t55.5 -31q51 -43 51 -110q0 -71 -53.5 -115.5t-139.5 -44.5q-52 0 -92.5 8.5t-122.5 37.5q-11 4 -21 4q-27 0 -27 -33h-59zM353 553h-100l83 148h166z" />
    <glyph glyph-name="Scircumflex" unicode="&#x15c;" horiz-adv-x="773" 
d="M688 675v-221h-69q-11 62 -72 105q-67 47 -183 47q-84 0 -130 -25q-53 -28 -53 -81q0 -25 17 -40q29 -28 117 -32q206 -9 256 -23q78 -20 118 -78q35 -52 35 -116q0 -104 -78 -167t-205 -63q-63 0 -140 19q-49 11 -99 25q-21 6 -35 6q-30 0 -33 -42h-68v238h68
q5 -39 21.5 -64t53.5 -48q87 -54 199 -54q80 0 132.5 31.5t52.5 80.5q0 42 -51 67q-23 11 -54 15t-121 7q-145 5 -206 29q-51 20 -81 68t-30 107q0 97 79 157.5t206 60.5q99 0 214 -35q25 -7 38 -7q30 0 32 33h69zM591 824l-36 -98l-179 57l-164 -57l-30 81l205 81z" />
    <glyph glyph-name="scircumflex" unicode="&#x15d;" horiz-adv-x="634" 
d="M64 0v184h64q4 -56 42 -84q60 -46 154 -46q49 0 77.5 15.5t28.5 42.5t-28 43q-19 9 -69 18l-106 18q-89 15 -129.5 49t-40.5 95q0 71 54 112t147 41q73 0 148 -25q55 -19 67 -19q19 0 22 27h60v-157h-60q-9 30 -21 46.5t-35 29.5q-62 34 -140 34q-48 0 -77.5 -14.5
t-29.5 -38.5q0 -20 19 -30.5t69 -18.5l102 -17q60 -10 90.5 -21t55.5 -31q51 -43 51 -110q0 -71 -53.5 -115.5t-139.5 -44.5q-52 0 -92.5 8.5t-122.5 37.5q-11 4 -21 4q-27 0 -27 -33h-59zM486 613l-76 -65l-101 75l-102 -75l-57 60l169 126z" />
    <glyph glyph-name="Scedilla" unicode="&#x15e;" horiz-adv-x="773" 
d="M417 -19l-15 -52q92 -9 92 -64q0 -30 -28 -49t-73 -19q-89 0 -112 65h62q3 -23 29 -23q13 0 22.5 8t9.5 19q0 15 -11 24t-29 9q-11 0 -18 -1h-11l24 89q-40 6 -157 38q-21 6 -35 6q-30 0 -33 -42h-68v238h68q5 -39 21.5 -64t53.5 -48q87 -54 199 -54q80 0 132.5 31.5
t52.5 80.5q0 42 -51 67q-23 11 -54 15t-121 7q-145 5 -206 29q-51 20 -81 68t-30 107q0 97 79 157.5t206 60.5q99 0 214 -35q25 -7 38 -7q30 0 32 33h69v-221h-69q-11 62 -72 105q-67 47 -183 47q-84 0 -130 -25q-53 -28 -53 -81q0 -25 17 -40q29 -28 117 -32
q206 -9 256 -23q78 -20 118 -78q35 -52 35 -116q0 -104 -78 -167t-205 -63h-24z" />
    <glyph glyph-name="scedilla" unicode="&#x15f;" horiz-adv-x="634" 
d="M351 -15l-19 -59q92 -9 92 -64q0 -31 -28 -50t-72 -19q-90 0 -113 66h62q4 -24 29 -24q14 0 23 8t9 20q0 14 -11 23.5t-29 9.5q-11 0 -17 -1h-11l28 98q-30 5 -43 9q-19 6 -80 27q-11 4 -21 4q-27 0 -27 -33h-59v184h64q2 -31 11.5 -49t30.5 -34q60 -46 154 -46
q49 0 77.5 15.5t28.5 42.5q0 28 -28 42q-20 10 -69 18l-106 18q-89 15 -129.5 49t-40.5 95q0 71 54 112t147 41q73 0 148 -25q55 -19 67 -19q19 0 22 27h60v-157h-60q-9 30 -21 46.5t-35 29.5q-62 34 -140 34q-48 0 -77.5 -14.5t-29.5 -38.5q0 -20 19 -30.5t69 -18.5
l102 -17q60 -10 90.5 -21t55.5 -31q51 -43 51 -110q0 -71 -53.5 -115.5t-141.5 -44.5q-19 0 -33 2z" />
    <glyph glyph-name="Scaron" unicode="&#x160;" horiz-adv-x="773" 
d="M688 675v-221h-69q-11 62 -72 105q-67 47 -183 47q-84 0 -130 -25q-53 -28 -53 -81q0 -25 17 -40q29 -28 117 -32q206 -9 256 -23q78 -20 118 -78q35 -52 35 -116q0 -104 -78 -167t-205 -63q-63 0 -140 19q-49 11 -99 25q-21 6 -35 6q-30 0 -33 -42h-68v238h68
q5 -39 21.5 -64t53.5 -48q87 -54 199 -54q80 0 132.5 31.5t52.5 80.5q0 42 -51 67q-23 11 -54 15t-121 7q-145 5 -206 29q-51 20 -81 68t-30 107q0 97 79 157.5t206 60.5q99 0 214 -35q25 -7 38 -7q30 0 32 33h69zM182 791l36 97l180 -56l163 56l30 -80l-204 -82z" />
    <glyph glyph-name="scaron" unicode="&#x161;" horiz-adv-x="634" 
d="M64 0v184h64q4 -56 42 -84q60 -46 154 -46q49 0 77.5 15.5t28.5 42.5t-28 43q-19 9 -69 18l-106 18q-89 15 -129.5 49t-40.5 95q0 71 54 112t147 41q73 0 148 -25q55 -19 67 -19q19 0 22 27h60v-157h-60q-9 30 -21 46.5t-35 29.5q-62 34 -140 34q-48 0 -77.5 -14.5
t-29.5 -38.5q0 -20 19 -30.5t69 -18.5l102 -17q60 -10 90.5 -21t55.5 -31q51 -43 51 -110q0 -71 -53.5 -115.5t-139.5 -44.5q-52 0 -92.5 8.5t-122.5 37.5q-11 4 -21 4q-27 0 -27 -33h-59zM150 655l75 65l101 -74l102 74l58 -59l-170 -126z" />
    <glyph glyph-name="Tcommaaccent" unicode="&#x162;" horiz-adv-x="844" 
d="M824 667v-252h-78q-1 80 -38 125q-48 59 -153 59h-52v-403q0 -73 23 -97q30 -30 81 -30h32v-69h-424v69h24q106 0 106 117v413h-70q-106 0 -149 -73q-21 -36 -29 -111h-77v252h804zM397 -281l-34 33q51 42 58 88q-4 0 -8 -0.5t-6.5 -1t-5.5 -0.5q-27 0 -44.5 16.5
t-17.5 41.5q0 29 21.5 48t54.5 19q37 0 61 -22.5t24 -57.5q0 -83 -103 -164z" />
    <glyph glyph-name="tcommaaccent" unicode="&#x163;" horiz-adv-x="421" 
d="M310 188h64v-72q0 -63 -36.5 -98t-102.5 -35q-79 0 -115 48q-26 34 -26 107v265h-83v68q71 4 117.5 47.5t45.5 105.5h64v-153h130v-68h-130v-272q0 -39 8.5 -55t29.5 -16q19 0 26.5 14t7.5 47v67zM186 -275l-33 32q49 39 55 83q-9 -1 -18 -1q-26 0 -42.5 15.5t-16.5 39.5
q0 27 21 45t52 18q34 0 57 -22t23 -54q0 -78 -98 -156z" />
    <glyph glyph-name="Tcaron" unicode="&#x164;" horiz-adv-x="844" 
d="M824 667v-252h-78q-1 80 -38 125q-48 59 -153 59h-52v-403q0 -73 23 -97q30 -30 81 -30h32v-69h-424v69h24q106 0 106 117v413h-70q-106 0 -149 -73q-21 -36 -29 -111h-77v252h804zM217 791l36 97l180 -56l163 56l30 -80l-204 -82z" />
    <glyph glyph-name="tcaron" unicode="&#x165;" horiz-adv-x="613" 
d="M310 188h64v-72q0 -63 -36.5 -98t-102.5 -35q-79 0 -115 48q-26 34 -26 107v265h-83v68q71 4 117.5 47.5t45.5 105.5h64v-153h130v-68h-130v-272q0 -39 8.5 -55t29.5 -16q19 0 26.5 14t7.5 47v67zM465 375l-38 43q56 54 64 116q-15 -3 -22 -3q-30 0 -49.5 21.5
t-19.5 53.5q0 38 24 62.5t61 24.5q40 0 67 -30t27 -75q0 -106 -114 -213z" />
    <glyph glyph-name="Tbar" unicode="&#x166;" horiz-adv-x="575" 
d="M366 424h161v-108h-161v-316h-157v316h-161v108h161v110h-201v133h559v-133h-201v-110z" />
    <glyph glyph-name="tbar" unicode="&#x167;" horiz-adv-x="356" 
d="M237 333h75v-85h-75v-73q0 -46 12 -59.5t52 -13.5q20 0 38 1v-105q-53 -3 -83 -3q-100 0 -137 45q-25 33 -25 110v98h-62v85h62v58h-82v91h82v150h143v-150h102v-91h-102v-58z" />
    <glyph glyph-name="utilde" unicode="&#x169;" horiz-adv-x="780" 
d="M644 471v-308q0 -54 17 -74.5t62 -20.5h10v-68h-234v81q-43 -53 -87.5 -75.5t-106.5 -22.5q-93 0 -143 51.5t-50 148.5v125q0 53 -17.5 74t-61.5 21h-10v68h233v-237q0 -74 16 -110q25 -54 92 -54q62 0 98.5 44.5t36.5 119.5v74q0 53 -17.5 74t-61.5 21h-18v68h242z
M569 700l57 -18q-23 -62 -43 -88q-32 -43 -94 -43q-42 0 -113 25q-78 28 -100 28q-48 0 -63 -52l-59 10q11 52 31 78q40 56 110 56q44 0 146 -35q41 -15 64 -15q24 0 38.5 12t25.5 42z" />
    <glyph glyph-name="Umacron" unicode="&#x16a;" horiz-adv-x="977" 
d="M615 667h329v-69h-23q-51 0 -81 -30q-23 -24 -23 -87v-242q0 -77 -22 -125.5t-73 -85.5q-77 -54 -221 -54q-189 0 -273 78q-49 46 -62 110q-5 24 -5 114v205q0 117 -105 117h-23v69h414v-69h-18q-106 0 -106 -117v-206q0 -121 53 -168q61 -56 159 -56q120 0 177 87
q19 28 24 58t5 113v172q0 64 -23 87q-28 30 -80 30h-23v69zM288 760v100h467v-100h-467z" />
    <glyph glyph-name="umacron" unicode="&#x16b;" horiz-adv-x="780" 
d="M644 471v-308q0 -54 17 -74.5t62 -20.5h10v-68h-234v81q-43 -53 -87.5 -75.5t-106.5 -22.5q-93 0 -143 51.5t-50 148.5v125q0 53 -17.5 74t-61.5 21h-10v68h233v-237q0 -74 16 -110q25 -54 92 -54q62 0 98.5 44.5t36.5 119.5v74q0 53 -17.5 74t-61.5 21h-18v68h242z
M130 577v100h467v-100h-467z" />
    <glyph glyph-name="ubreve" unicode="&#x16d;" horiz-adv-x="780" 
d="M644 471v-308q0 -54 17 -74.5t62 -20.5h10v-68h-234v81q-43 -53 -87.5 -75.5t-106.5 -22.5q-93 0 -143 51.5t-50 148.5v125q0 53 -17.5 74t-61.5 21h-10v68h233v-237q0 -74 16 -110q25 -54 92 -54q62 0 98.5 44.5t36.5 119.5v74q0 53 -17.5 74t-61.5 21h-18v68h242z
M550 724h57q-5 -85 -61.5 -131t-155.5 -46t-156 46t-61 131h57q36 -73 160 -73t160 73z" />
    <glyph glyph-name="Uring" unicode="&#x16e;" horiz-adv-x="977" 
d="M615 667h329v-69h-23q-51 0 -81 -30q-23 -24 -23 -87v-242q0 -77 -22 -125.5t-73 -85.5q-77 -54 -221 -54q-189 0 -273 78q-49 46 -62 110q-5 24 -5 114v205q0 117 -105 117h-23v69h414v-69h-18q-106 0 -106 -117v-206q0 -121 53 -168q61 -56 159 -56q120 0 177 87
q19 28 24 58t5 113v172q0 64 -23 87q-28 30 -80 30h-23v69zM523 924q44 0 75.5 -32t31.5 -76q0 -45 -32 -77t-76 -32q-46 0 -77.5 32t-31.5 77t32 76.5t78 31.5zM522 857q-17 0 -29.5 -12t-12.5 -29t12.5 -29.5t29.5 -12.5t29 12.5t12 29.5q0 16 -12.5 28.5t-28.5 12.5z" />
    <glyph glyph-name="uring" unicode="&#x16f;" horiz-adv-x="780" 
d="M644 471v-308q0 -54 17 -74.5t62 -20.5h10v-68h-234v81q-43 -53 -87.5 -75.5t-106.5 -22.5q-93 0 -143 51.5t-50 148.5v125q0 53 -17.5 74t-61.5 21h-10v68h233v-237q0 -74 16 -110q25 -54 92 -54q62 0 98.5 44.5t36.5 119.5v74q0 53 -17.5 74t-61.5 21h-18v68h242z
M393 747q43 0 74.5 -32.5t31.5 -76.5q0 -45 -32 -77t-77 -32t-77 32t-32 76q0 46 32.5 78t79.5 32zM391 680q-18 0 -30.5 -12.5t-12.5 -29.5t12.5 -29.5t29.5 -12.5t29.5 12.5t12.5 29.5t-12 29.5t-29 12.5z" />
    <glyph glyph-name="Uhungarumlaut" unicode="&#x170;" horiz-adv-x="977" 
d="M615 667h329v-69h-23q-51 0 -81 -30q-23 -24 -23 -87v-242q0 -77 -22 -125.5t-73 -85.5q-77 -54 -221 -54q-189 0 -273 78q-49 46 -62 110q-5 24 -5 114v205q0 117 -105 117h-23v69h414v-69h-18q-106 0 -106 -117v-206q0 -121 53 -168q61 -56 159 -56q120 0 177 87
q19 28 24 58t5 113v172q0 64 -23 87q-28 30 -80 30h-23v69zM416 745h-89l74 127h146zM650 745h-90l74 127h146z" />
    <glyph glyph-name="uhungarumlaut" unicode="&#x171;" horiz-adv-x="780" 
d="M644 471v-308q0 -54 17 -74.5t62 -20.5h10v-68h-234v81q-43 -53 -87.5 -75.5t-106.5 -22.5q-93 0 -143 51.5t-50 148.5v125q0 53 -17.5 74t-61.5 21h-10v68h233v-237q0 -74 16 -110q25 -54 92 -54q62 0 98.5 44.5t36.5 119.5v74q0 53 -17.5 74t-61.5 21h-18v68h242z
M314 557h-85l44 126h141zM534 557h-85l44 126h141z" />
    <glyph glyph-name="Wcircumflex" unicode="&#x174;" horiz-adv-x="1157" 
d="M855 667h325v-68q-59 1 -94.5 -26t-55.5 -88l-202 -502h-57l-192 465l-185 -465h-59l-189 465q-26 64 -41.5 89t-39.5 40q-33 22 -78 22h-10v68h417v-68q-45 -1 -57 -5q-23 -6 -36 -21.5t-13 -35.5q0 -15 17 -52l106 -255l178 437h74l181 -437l105 255q14 34 14 55
q0 59 -98 59h-10v68zM817 824l-36 -98l-180 57l-163 -57l-30 81l204 81z" />
    <glyph glyph-name="Ycircumflex" unicode="&#x176;" horiz-adv-x="816" 
d="M514 667h325v-68q-66 -4 -98 -24t-85 -89l-162 -203v-97q0 -62 24 -87q28 -30 81 -30h23v-69h-419v69h23q106 0 106 117v97l-185 219q-51 61 -83.5 79.5t-86.5 17.5v68h437v-68h-27q-36 0 -51 -7t-15 -23q0 -13 8 -25.5t40 -52.5l97 -118l114 141q25 31 25 51
q0 34 -91 34v68zM659 824l-36 -98l-179 57l-164 -57l-30 81l205 81z" />
    <glyph glyph-name="ycircumflex" unicode="&#x177;" horiz-adv-x="641" 
d="M678 471v-68q-56 -2 -80 -22.5t-71 -107.5l-224 -399q-58 -103 -147 -103q-55 0 -92 33t-37 81q0 34 20.5 57t51.5 23q27 0 46.5 -19t19.5 -45q0 -27 -23 -40q12 -15 30 -15q37 0 76 69l41 74l-178 303q-38 63 -67 85t-81 26v68h373v-68q-52 -2 -69.5 -9t-17.5 -26
q0 -13 21 -49l104 -181l99 179q19 33 19 53q0 19 -24 27q-12 5 -57 6v68h267zM528 613l-75 -65l-101 75l-102 -75l-58 60l170 126z" />
    <glyph glyph-name="Ydieresis" unicode="&#x178;" horiz-adv-x="816" 
d="M514 667h325v-68q-66 -4 -98 -24t-85 -89l-162 -203v-97q0 -62 24 -87q28 -30 81 -30h23v-69h-419v69h23q106 0 106 117v97l-185 219q-51 61 -83.5 79.5t-86.5 17.5v68h437v-68h-27q-36 0 -51 -7t-15 -23q0 -13 8 -25.5t40 -52.5l97 -118l114 141q25 31 25 51
q0 34 -91 34v68zM610 887q30 0 52 -22t22 -53t-22 -53.5t-53 -22.5t-53.5 22t-22.5 54q0 31 22.5 53t54.5 22zM301 887q30 0 52 -22t22 -53t-22 -53t-53 -22t-53 22t-22 54q0 31 22 52.5t54 21.5z" />
    <glyph glyph-name="Zacute" unicode="&#x179;" horiz-adv-x="788" 
d="M758 262v-262h-728v68l474 531h-230q-49 0 -80 -15.5t-53 -50.5q-29 -47 -36 -128h-75v262h700v-68l-471 -531h221q62 0 99.5 15.5t63.5 52.5q35 49 35 126h80zM418 731h-105l124 150h172z" />
    <glyph glyph-name="zacute" unicode="&#x17a;" horiz-adv-x="596" 
d="M560 195v-195h-523v68l305 335h-128q-58 0 -80 -20.5t-22 -73.5v-18h-68v180h502v-68l-308 -335h145q69 0 91 23q11 13 15 31.5t5 72.5h66zM334 553h-100l83 148h166z" />
    <glyph glyph-name="Zdotaccent" unicode="&#x17b;" horiz-adv-x="788" 
d="M758 262v-262h-728v68l474 531h-230q-49 0 -80 -15.5t-53 -50.5q-29 -47 -36 -128h-75v262h700v-68l-471 -531h221q62 0 99.5 15.5t63.5 52.5q35 49 35 126h80zM395 881q30 0 52 -22t22 -53t-22 -53t-53 -22t-53 22t-22 54q0 31 22 52.5t54 21.5z" />
    <glyph glyph-name="zdotaccent" unicode="&#x17c;" horiz-adv-x="596" 
d="M560 195v-195h-523v68l305 335h-128q-58 0 -80 -20.5t-22 -73.5v-18h-68v180h502v-68l-308 -335h145q69 0 91 23q11 13 15 31.5t5 72.5h66zM299 705q33 0 56.5 -24t23.5 -57q0 -34 -23.5 -57.5t-57.5 -23.5t-57.5 24t-23.5 58q0 33 24 56.5t58 23.5z" />
    <glyph glyph-name="Zcaron" unicode="&#x17d;" horiz-adv-x="788" 
d="M758 262v-262h-728v68l474 531h-230q-49 0 -80 -15.5t-53 -50.5q-29 -47 -36 -128h-75v262h700v-68l-471 -531h221q62 0 99.5 15.5t63.5 52.5q35 49 35 126h80zM189 791l36 97l180 -56l163 56l31 -80l-205 -82z" />
    <glyph glyph-name="zcaron" unicode="&#x17e;" horiz-adv-x="596" 
d="M560 195v-195h-523v68l305 335h-128q-58 0 -80 -20.5t-22 -73.5v-18h-68v180h502v-68l-308 -335h145q69 0 91 23q11 13 15 31.5t5 72.5h66zM131 655l75 65l101 -74l102 74l58 -59l-170 -126z" />
    <glyph glyph-name="florin" unicode="&#x192;" horiz-adv-x="630" 
d="M508 439l-14 -89h-98l-57 -324q-20 -110 -62.5 -147.5t-146.5 -37.5q-25 0 -64 3l17 101q16 -1 33 -1q40 0 53 20t28 104l50 282h-93l15 89h94l18 102q11 56 22.5 85t33.5 51q45 45 143 45q27 0 80 -4l-17 -102q-23 3 -41 3q-35 0 -49 -17t-24 -70l-16 -93h95z" />
    <glyph glyph-name="uni01CD" unicode="&#x1cd;" horiz-adv-x="863" 
d="M390 673h66l264 -482q37 -73 70 -96t103 -27v-68h-462v68q76 2 100 19q25 17 25 39q0 19 -10 41l-11 24h-317l-14 -29q-9 -22 -9 -39q0 -25 30 -39q23 -10 98 -16v-68h-353v68q53 2 85 23t60 73zM499 258l-123 226l-122 -226h245zM227 791l36 97l180 -56l163 56l30 -80
l-204 -82z" />
    <glyph glyph-name="uni01CE" unicode="&#x1ce;" horiz-adv-x="713" 
d="M639 193h61v-88q0 -57 -27 -84q-36 -38 -107 -38q-103 0 -138 94q-40 -38 -71 -55q-67 -39 -147 -39q-70 0 -120 43t-50 104q0 55 34 89t109 53q42 11 154 28q86 13 86 61q0 31 -31 50.5t-78 19.5q-58 0 -117 -28q20 -23 20 -47q0 -25 -19.5 -41.5t-48.5 -16.5
q-31 0 -51 19t-20 48q0 57 64.5 90t176.5 33q133 0 193 -44q31 -22 43 -54.5t12 -94.5v-133q1 -70 6 -83q7 -18 27 -18q39 0 39 67v65zM421 265q-50 -25 -98 -37q-65 -16 -84 -30q-31 -22 -31 -57q0 -28 21 -46t53 -18q30 0 60.5 13.5t49.5 34.5q31 36 31 95q0 11 -2 45z
M162 655l75 65l101 -74l102 74l58 -59l-170 -126z" />
    <glyph glyph-name="uni01D3" unicode="&#x1d3;" horiz-adv-x="977" 
d="M615 667h329v-69h-23q-51 0 -81 -30q-23 -24 -23 -87v-242q0 -77 -22 -125.5t-73 -85.5q-77 -54 -221 -54q-189 0 -273 78q-49 46 -62 110q-5 24 -5 114v205q0 117 -105 117h-23v69h414v-69h-18q-106 0 -106 -117v-206q0 -121 53 -168q61 -56 159 -56q120 0 177 87
q19 28 24 58t5 113v172q0 64 -23 87q-28 30 -80 30h-23v69zM317 791l36 97l179 -56l164 56l30 -80l-205 -82z" />
    <glyph glyph-name="uni01D4" unicode="&#x1d4;" horiz-adv-x="780" 
d="M644 471v-308q0 -54 17 -74.5t62 -20.5h10v-68h-234v81q-43 -53 -87.5 -75.5t-106.5 -22.5q-93 0 -143 51.5t-50 148.5v125q0 53 -17.5 74t-61.5 21h-10v68h233v-237q0 -74 16 -110q25 -54 92 -54q62 0 98.5 44.5t36.5 119.5v74q0 53 -17.5 74t-61.5 21h-18v68h242z
M189 655l75 65l101 -74l102 74l58 -59l-170 -126z" />
    <glyph glyph-name="Gcaron" unicode="&#x1e6;" horiz-adv-x="991" 
d="M818 679v-265h-73q-10 88 -80.5 144.5t-170.5 56.5q-116 0 -194 -78t-78 -195q0 -118 79.5 -198.5t196.5 -80.5q79 0 139.5 32.5t60.5 75.5q0 40 -50 56q-19 6 -85 11v70h411v-69h-23q-51 0 -81 -30q-14 -14 -17 -28t-3 -59v-122h-59l-35 83q-122 -109 -306 -109
q-180 0 -293 97q-124 105 -124 264q0 155 113.5 256.5t287.5 101.5q113 0 229 -45q51 -19 61 -19q12 0 20 12t8 29v9h66zM291 791l36 97l179 -56l164 56l30 -80l-205 -82z" />
    <glyph glyph-name="gcaron" unicode="&#x1e7;" horiz-adv-x="735" 
d="M374 68l109 1q109 0 152 -24q26 -15 42 -44t16 -63q0 -175 -356 -175q-160 0 -235 29t-75 90q0 52 64 81q-63 36 -63 97q0 74 89 118q-65 54 -65 128q0 84 72.5 133t197.5 49q75 0 120.5 -15.5t90.5 -55.5q20 21 35 34q32 24 77 24t76 -30t31 -73q0 -35 -22 -58.5
t-55 -23.5q-30 0 -51 19t-21 46q0 21 14 41q-9 4 -16 4q-21 0 -40 -22q16 -42 16 -76q0 -77 -72.5 -125.5t-187.5 -48.5q-87 0 -166 29q-19 -17 -24 -25t-5 -21q0 -33 40 -40q25 -5 105 -5q5 0 107 2zM317 425q-45 0 -74 -32.5t-29 -84.5t28 -85t72 -33t72 31.5t28 81.5
q0 55 -26.5 88.5t-70.5 33.5zM349 -57q-138 0 -188 -10.5t-50 -38.5q0 -22 30 -38q24 -11 83.5 -20t116.5 -9q127 0 193 29q30 14 30 40q0 29 -41.5 38t-173.5 9zM160 655l75 65l101 -74l102 74l58 -59l-170 -126z" />
    <glyph glyph-name="uni01F4" unicode="&#x1f4;" horiz-adv-x="991" 
d="M818 679v-265h-73q-10 88 -80.5 144.5t-170.5 56.5q-116 0 -194 -78t-78 -195q0 -118 79.5 -198.5t196.5 -80.5q79 0 139.5 32.5t60.5 75.5q0 40 -50 56q-19 6 -85 11v70h411v-69h-23q-51 0 -81 -30q-14 -14 -17 -28t-3 -59v-122h-59l-35 83q-122 -109 -306 -109
q-180 0 -293 97q-124 105 -124 264q0 155 113.5 256.5t287.5 101.5q113 0 229 -45q51 -19 61 -19q12 0 20 12t8 29v9h66zM519 731h-105l124 150h172z" />
    <glyph glyph-name="Scommaaccent" unicode="&#x218;" horiz-adv-x="773" 
d="M688 675v-221h-69q-11 62 -72 105q-67 47 -183 47q-84 0 -130 -25q-53 -28 -53 -81q0 -25 17 -40q29 -28 117 -32q206 -9 256 -23q78 -20 118 -78q35 -52 35 -116q0 -104 -78 -167t-205 -63q-63 0 -140 19q-49 11 -99 25q-21 6 -35 6q-30 0 -33 -42h-68v238h68
q5 -39 21.5 -64t53.5 -48q87 -54 199 -54q80 0 132.5 31.5t52.5 80.5q0 42 -51 67q-23 11 -54 15t-121 7q-145 5 -206 29q-51 20 -81 68t-30 107q0 97 79 157.5t206 60.5q99 0 214 -35q25 -7 38 -7q30 0 32 33h69zM362 -281l-34 33q51 43 57 88q-18 -2 -19 -2
q-27 0 -44.5 16.5t-17.5 41.5q0 29 21.5 48t54.5 19q37 0 61 -22.5t24 -57.5q0 -83 -103 -164z" />
    <glyph glyph-name="scommaaccent" unicode="&#x219;" horiz-adv-x="634" 
d="M64 0v184h64q4 -56 42 -84q60 -46 154 -46q49 0 77.5 15.5t28.5 42.5t-28 43q-19 9 -69 18l-106 18q-89 15 -129.5 49t-40.5 95q0 71 54 112t147 41q73 0 148 -25q55 -19 67 -19q19 0 22 27h60v-157h-60q-9 30 -21 46.5t-35 29.5q-62 34 -140 34q-48 0 -77.5 -14.5
t-29.5 -38.5q0 -20 19 -30.5t69 -18.5l102 -17q60 -10 90.5 -21t55.5 -31q51 -43 51 -110q0 -71 -53.5 -115.5t-139.5 -44.5q-52 0 -92.5 8.5t-122.5 37.5q-11 4 -21 4q-27 0 -27 -33h-59zM293 -275l-32 32q48 39 55 83q-10 -1 -19 -1q-26 0 -42.5 15.5t-16.5 39.5
q0 27 21 45t52 18q34 0 57 -22t23 -54q0 -78 -98 -156z" />
    <glyph glyph-name="uni021A" unicode="&#x21a;" horiz-adv-x="844" 
d="M824 667v-252h-78q-1 80 -38 125q-48 59 -153 59h-52v-403q0 -73 23 -97q30 -30 81 -30h32v-69h-424v69h24q106 0 106 117v413h-70q-106 0 -149 -73q-21 -36 -29 -111h-77v252h804zM397 -281l-34 33q51 42 58 88q-4 0 -8 -0.5t-6.5 -1t-5.5 -0.5q-27 0 -44.5 16.5
t-17.5 41.5q0 29 21.5 48t54.5 19q37 0 61 -22.5t24 -57.5q0 -83 -103 -164z" />
    <glyph glyph-name="uni021B" unicode="&#x21b;" horiz-adv-x="421" 
d="M310 188h64v-72q0 -63 -36.5 -98t-102.5 -35q-79 0 -115 48q-26 34 -26 107v265h-83v68q71 4 117.5 47.5t45.5 105.5h64v-153h130v-68h-130v-272q0 -39 8.5 -55t29.5 -16q19 0 26.5 14t7.5 47v67zM186 -275l-33 32q49 39 55 83q-9 -1 -18 -1q-26 0 -42.5 15.5t-16.5 39.5
q0 27 21 45t52 18q34 0 57 -22t23 -54q0 -78 -98 -156z" />
    <glyph glyph-name="afii57929" unicode="&#x2bc;" horiz-adv-x="272" 
d="M111 375l-38 43q57 56 64 116q-15 -3 -21 -3q-30 0 -49.5 21.5t-19.5 53.5q0 38 24 62.5t61 24.5q40 0 67 -30t27 -75q0 -105 -115 -213z" />
    <glyph glyph-name="circumflex" unicode="&#x2c6;" 
d="M418 613l-75 -65l-101 75l-102 -75l-58 60l170 126z" />
    <glyph glyph-name="caron" unicode="&#x2c7;" 
d="M82 655l76 65l100 -74l102 74l58 -59l-170 -126z" />
    <glyph glyph-name="uni02C9" unicode="&#x2c9;" 
d="M17 577v100h467v-100h-467z" />
    <glyph glyph-name="breve" unicode="&#x2d8;" 
d="M411 724h56q-5 -85 -61.5 -131t-155.5 -46t-156 46t-61 131h57q36 -73 160 -73t161 73z" />
    <glyph glyph-name="dotaccent" unicode="&#x2d9;" 
d="M251 705q33 0 56.5 -24t23.5 -57q0 -34 -23.5 -57.5t-57.5 -23.5t-57.5 24t-23.5 58q0 33 24 56.5t58 23.5z" />
    <glyph glyph-name="ring" unicode="&#x2da;" 
d="M252 747q43 0 74.5 -32.5t31.5 -76.5q0 -45 -32 -77t-76 -32q-45 0 -77 32t-32 76q0 46 32 78t79 32zM250 680q-17 0 -29.5 -12.5t-12.5 -29.5t12.5 -29.5t29.5 -12.5t29 12.5t12 29.5t-12 29.5t-29 12.5z" />
    <glyph glyph-name="ogonek" unicode="&#x2db;" 
d="M214 0h76q-54 -20 -54 -63q0 -17 10.5 -28t26.5 -11q17 0 42 22l26 -21q-22 -37 -45 -53.5t-55 -16.5q-36 0 -59 23t-23 58q0 51 55 90z" />
    <glyph glyph-name="tilde" unicode="&#x2dc;" 
d="M430 700l56 -18q-23 -62 -43 -88q-32 -43 -94 -43q-41 0 -113 25q-78 28 -100 28q-48 0 -63 -52l-59 10q11 52 31 78q40 56 111 56q42 0 146 -35q41 -15 63 -15q24 0 38.5 12t26.5 42z" />
    <glyph glyph-name="hungarumlaut" unicode="&#x2dd;" 
d="M174 557h-85l44 126h141zM394 557h-85l44 126h141z" />
    <glyph glyph-name="uni0387" unicode="&#x387;" horiz-adv-x="250" 
d="M199 331v-167h-148v167h148z" />
    <glyph glyph-name="Wacute" unicode="&#x1e82;" horiz-adv-x="343" 
d="M309 298v-92h-276v92h276z" />
    <glyph glyph-name="Wdieresis" unicode="&#x1e84;" horiz-adv-x="1157" 
d="M855 667h325v-68q-59 1 -94.5 -26t-55.5 -88l-202 -502h-57l-192 465l-185 -465h-59l-189 465q-26 64 -41.5 89t-39.5 40q-33 22 -78 22h-10v68h417v-68q-45 -1 -57 -5q-23 -6 -36 -21.5t-13 -35.5q0 -15 17 -52l106 -255l178 437h74l181 -437l105 255q14 34 14 55
q0 59 -98 59h-10v68zM768 887q30 0 52 -22t22 -53t-22 -53.5t-53 -22.5t-53.5 22t-22.5 54q0 31 22.5 53t54.5 22zM458 887q30 0 52 -22t22 -53t-22 -53t-53 -22t-53 22t-22 54q0 31 22 52.5t54 21.5z" />
    <glyph glyph-name="uni2006" unicode="&#x2006;" horiz-adv-x="67" 
 />
    <glyph glyph-name="uni2007" unicode="&#x2007;" horiz-adv-x="556" 
 />
    <glyph glyph-name="uni2011" unicode="&#x2011;" horiz-adv-x="276" 
d="M276 298v-92h-276v92h276z" />
    <glyph glyph-name="figuredash" unicode="&#x2012;" horiz-adv-x="602" 
d="M571 298v-92h-528v92h528z" />
    <glyph glyph-name="endash" unicode="&#x2013;" horiz-adv-x="602" 
d="M571 298v-92h-528v92h528z" />
    <glyph glyph-name="emdash" unicode="&#x2014;" horiz-adv-x="1015" 
d="M1015 298v-92h-1015v92h1015z" />
    <glyph glyph-name="afii00208" unicode="&#x2015;" horiz-adv-x="1015" 
d="M1015 298v-92h-1015v92h1015z" />
    <glyph glyph-name="underscoredbl" unicode="&#x2017;" 
d="M0 -51h500v-64h-500v64zM0 -168h500v-64h-500v64z" />
    <glyph glyph-name="quoteleft" unicode="&#x2018;" horiz-adv-x="272" 
d="M162 693l37 -43q-56 -56 -64 -115q17 3 22 3q30 0 49.5 -21.5t19.5 -54.5q0 -38 -24 -62.5t-61 -24.5q-40 0 -67 30t-27 75q0 107 115 213z" />
    <glyph glyph-name="quoteright" unicode="&#x2019;" horiz-adv-x="272" 
d="M111 375l-38 43q57 56 64 116q-15 -3 -21 -3q-30 0 -49.5 21.5t-19.5 53.5q0 38 24 62.5t61 24.5q40 0 67 -30t27 -75q0 -105 -115 -213z" />
    <glyph glyph-name="quotesinglbase" unicode="&#x201a;" horiz-adv-x="268" 
d="M109 -173l-38 43q57 56 64 115q-15 -3 -21 -3q-30 0 -49.5 21.5t-19.5 54.5q0 38 24 62.5t61 24.5q40 0 67 -30t27 -75q0 -107 -115 -213z" />
    <glyph glyph-name="quotedblleft" unicode="&#x201c;" horiz-adv-x="472" 
d="M155 693l35 -41q-53 -53 -60 -108q3 0 6.5 0.5t5.5 1t4 0.5h4q28 0 46.5 -20t18.5 -51q0 -35 -23 -58t-57 -23q-38 0 -63 28t-25 71q0 101 108 200zM365 693l36 -41q-53 -51 -61 -108q3 0 6.5 0.5t5.5 1t4 0.5h4q28 0 46.5 -20t18.5 -51q0 -35 -23 -58t-57 -23
q-38 0 -63 28t-25 71q0 101 108 200z" />
    <glyph glyph-name="quotedblright" unicode="&#x201d;" horiz-adv-x="472" 
d="M107 394l-35 41q53 52 60 108q-15 -3 -20 -3q-28 0 -46.5 20t-18.5 51q0 35 22.5 58.5t56.5 23.5q38 0 63.5 -28t25.5 -71q0 -99 -108 -200zM318 394l-36 41q53 50 60 108q-14 -3 -20 -3q-28 0 -46.5 20t-18.5 51q0 35 23 58.5t57 23.5q38 0 63 -28t25 -71
q0 -100 -107 -200z" />
    <glyph glyph-name="quotedblbase" unicode="&#x201e;" horiz-adv-x="472" 
d="M107 -163l-35 41q53 52 60 108q-14 -3 -20 -3q-28 0 -46.5 20t-18.5 51q0 35 23 58.5t57 23.5q38 0 63 -28t25 -71q0 -99 -108 -200zM318 -163l-36 41q53 52 60 108q-14 -3 -20 -3q-28 0 -46.5 20t-18.5 51q0 35 23 58.5t57 23.5q38 0 63 -28t25 -71q0 -100 -107 -200z
" />
    <glyph glyph-name="dagger" unicode="&#x2020;" horiz-adv-x="533" 
d="M241 390l-128 -32q-12 -3 -24 -3q-28 0 -45.5 17.5t-17.5 44.5q0 26 16.5 43.5t40.5 17.5q5 0 19 -2l136 -26l-34 154q-2 10 -2 16q0 28 18.5 47t46.5 19q27 0 45.5 -19t18.5 -47q0 -4 -2 -16l-34 -154l136 26q12 2 19 2q24 0 40.5 -17.5t16.5 -43.5q0 -27 -17.5 -44.5
t-45.5 -17.5q-12 0 -24 3l-128 32l46 -498q1 -11 1 -28q0 -33 -20 -53t-54 -20q-32 0 -52 20t-20 53q0 6 2 28z" />
    <glyph glyph-name="daggerdbl" unicode="&#x2021;" horiz-adv-x="533" 
d="M295 450l136 26q12 2 19 2q24 0 40.5 -17.5t16.5 -43.5q0 -27 -17.5 -44.5t-45.5 -17.5q-12 0 -24 3l-128 32q14 -99 14 -152q0 -52 -14 -151l128 32q12 3 24 3q28 0 45.5 -17.5t17.5 -44.5q0 -26 -16.5 -44t-40.5 -18q-5 0 -19 2l-136 27l34 -154q2 -10 2 -15
q0 -28 -18.5 -47.5t-45.5 -19.5q-28 0 -46.5 19t-18.5 48q0 5 2 15l34 154l-136 -27q-16 -2 -19 -2q-24 0 -40.5 18t-16.5 44q0 27 17.5 44.5t45.5 17.5q12 0 24 -3l128 -32q-15 96 -15 151q0 54 15 152l-128 -32q-12 -3 -24 -3q-28 0 -45.5 17.5t-17.5 44.5q0 26 16.5 43.5
t40.5 17.5q5 0 19 -2l136 -26l-34 154q-2 10 -2 16q0 28 18.5 47t46.5 19q27 0 45.5 -19t18.5 -47q0 -4 -2 -16z" />
    <glyph glyph-name="bullet" unicode="&#x2022;" horiz-adv-x="667" 
d="M337 477q55 0 95.5 -41t40.5 -97q0 -58 -40.5 -98.5t-97.5 -40.5t-98 40.5t-41 97.5q0 58 41 98.5t100 40.5z" />
    <glyph glyph-name="ellipsis" unicode="&#x2026;" horiz-adv-x="805" 
d="M136 149q35 0 60.5 -26t25.5 -61q0 -37 -25.5 -62.5t-61.5 -25.5q-37 0 -62.5 25.5t-25.5 62.5q0 36 26 61.5t63 25.5zM404 149q35 0 60.5 -26t25.5 -61q0 -37 -25.5 -62.5t-61.5 -25.5q-37 0 -62.5 25.5t-25.5 62.5q0 36 26 61.5t63 25.5zM673 149q35 0 60.5 -26
t25.5 -61q0 -37 -25.5 -62.5t-61.5 -25.5q-37 0 -62.5 25.5t-25.5 62.5q0 36 26 61.5t63 25.5z" />
    <glyph glyph-name="perthousand" unicode="&#x2030;" horiz-adv-x="1313" 
d="M659 287q77 0 128 -44.5t51 -111.5q0 -64 -52.5 -107t-129.5 -43q-78 0 -128 42t-50 109q0 68 51 111.5t130 43.5zM653 246q-35 0 -56.5 -30t-21.5 -81t23 -82t60 -31q36 0 59 30.5t23 78.5q0 50 -24.5 82.5t-62.5 32.5zM238 654q77 0 128 -44.5t51 -111.5
q0 -64 -52.5 -107t-129.5 -43q-78 0 -128 42t-50 109q0 68 51 111.5t130 43.5zM232 613q-35 0 -56.5 -30.5t-21.5 -80.5q0 -51 23 -82t60 -31q36 0 59 30.5t23 78.5q0 50 -24.5 82.5t-62.5 32.5zM225 -33l-41 28l489 672l43 -28zM1076 287q77 0 128 -44.5t51 -111.5
q0 -64 -52.5 -107t-129.5 -43q-78 0 -128 42t-50 109q0 68 51 111.5t130 43.5zM1070 246q-35 0 -56.5 -30t-21.5 -81t23 -82t60 -31q36 0 59 30.5t23 78.5q0 50 -24.5 82.5t-62.5 32.5z" />
    <glyph glyph-name="guilsinglleft" unicode="&#x2039;" horiz-adv-x="312" 
d="M155 130l-122 117l122 115h123l-123 -115l123 -117h-123z" />
    <glyph glyph-name="guilsinglright" unicode="&#x203a;" horiz-adv-x="312" 
d="M156 130h-123l123 117l-123 115h123l122 -115z" />
    <glyph glyph-name="exclamdbl" unicode="&#x203c;" horiz-adv-x="462" 
d="M188 667v-177l-41 -279h-71l-41 277v179h153zM191 156v-156h-159v156h159zM427 667v-177l-41 -279h-71l-41 277v179h153zM430 156v-156h-159v156h159z" />
    <glyph glyph-name="uni203E" unicode="&#x203e;" 
d="M0 878h500v-92h-500v92z" />
    <glyph glyph-name="fraction" unicode="&#x2044;" horiz-adv-x="95" 
d="M-182 -33l-41 28l489 672l43 -28z" />
    <glyph glyph-name="zerosuperior" unicode="&#x2070;" horiz-adv-x="433" 
d="M214 659q92 0 142.5 -54t50.5 -151q0 -92 -51 -145.5t-138 -53.5q-92 0 -142.5 53t-50.5 149t48 147q52 55 141 55zM217 615q-84 0 -84 -154q0 -158 81 -158q23 0 41.5 12.5t25.5 32.5q17 44 17 109q0 158 -81 158z" />
    <glyph glyph-name="foursuperior" unicode="&#x2074;" horiz-adv-x="433" 
d="M312 647v-231h80v-46h-80v-3q0 -31 9.5 -42t35.5 -11h35v-47h-254v47h33q25 0 34.5 11t9.5 42v3h-174v40l213 237h58zM215 416v113l-102 -113h102z" />
    <glyph glyph-name="fivesuperior" unicode="&#x2075;" horiz-adv-x="433" 
d="M349 647v-73h-218v-71q42 25 97 25q69 0 112.5 -37t43.5 -95q0 -62 -48.5 -101.5t-125.5 -39.5q-65 0 -112.5 31.5t-47.5 74.5q0 23 15 38.5t37 15.5t37 -15t15 -37q0 -24 -21 -37q24 -18 56 -18q37 0 62 25.5t25 63.5q0 34 -23 56t-59 22q-35 0 -65 -31h-49v203h269z
" />
    <glyph glyph-name="sixsuperior" unicode="&#x2076;" horiz-adv-x="433" 
d="M151 520v-19q41 28 94 28q61 0 104.5 -39t43.5 -94q0 -61 -47.5 -101.5t-120.5 -40.5q-86 0 -136 52t-50 143q0 93 56.5 151.5t145.5 58.5q59 0 99.5 -25t40.5 -62q0 -21 -13 -34t-35 -13q-20 0 -33.5 12.5t-13.5 30.5q0 10 9 23q-26 19 -55 19q-38 0 -63.5 -25.5
t-25.5 -64.5zM216 479q-30 0 -48.5 -24.5t-18.5 -63.5q0 -40 18.5 -64.5t49.5 -24.5q29 0 47.5 24t18.5 62q0 41 -18 66t-49 25z" />
    <glyph glyph-name="sevensuperior" unicode="&#x2077;" horiz-adv-x="433" 
d="M372 647v-57q-48 -40 -75.5 -93t-27.5 -105q0 -11 2 -37q2 -28 2 -35q0 -29 -16.5 -47t-43.5 -18q-29 0 -45 19.5t-16 54.5q0 50 29.5 101.5t108.5 139.5h-120q-35 0 -45 -8t-12 -38q0 -9 -1 -16h-51v139h311z" />
    <glyph glyph-name="eightsuperior" unicode="&#x2078;" horiz-adv-x="433" 
d="M307 462q45 -17 65.5 -39.5t20.5 -56.5q0 -52 -48 -82t-130 -30q-80 0 -127 30.5t-47 82.5q0 33 19 55t64 40q-72 27 -72 89q0 48 45 78t117 30q74 0 119.5 -30t45.5 -79q0 -60 -72 -88zM218 439q-30 0 -50.5 -20t-20.5 -49q0 -28 19.5 -48t48.5 -20t49.5 19.5t20.5 47.5
q0 30 -19 50t-48 20zM216 610q-26 0 -44.5 -19t-18.5 -45t18.5 -44.5t45.5 -18.5q25 0 43 18t18 43q0 27 -18.5 46.5t-43.5 19.5z" />
    <glyph glyph-name="ninesuperior" unicode="&#x2079;" horiz-adv-x="433" 
d="M281 412q-42 -27 -94 -27q-61 0 -104.5 39t-43.5 94q0 61 48 101t121 40q86 0 136 -52t50 -143q0 -92 -56.5 -150.5t-146.5 -58.5q-59 0 -99.5 25t-40.5 62q0 21 13 34t35 13q20 0 33.5 -12.5t13.5 -30.5q0 -10 -8 -23q24 -19 55 -19q38 0 63.5 25.5t25.5 64.5
q0 11 -1 18zM215 611q-29 0 -47.5 -23.5t-18.5 -61.5q0 -42 18.5 -66.5t49.5 -24.5q30 0 48.5 24.5t18.5 62.5q0 41 -19 65t-50 24z" />
    <glyph glyph-name="zeroinferior" unicode="&#x2080;" horiz-adv-x="433" 
d="M214 392q92 0 142.5 -54t50.5 -151q0 -92 -51 -145.5t-138 -53.5q-92 0 -142.5 53t-50.5 149t48 147q52 55 141 55zM217 348q-84 0 -84 -154q0 -158 81 -158q23 0 41.5 12.5t25.5 32.5q17 44 17 109q0 158 -81 158z" />
    <glyph glyph-name="oneinferior" unicode="&#x2081;" horiz-adv-x="433" 
d="M267 380v-280q0 -30 10 -41.5t35 -11.5h34v-47h-256v47h30q26 0 35.5 11t9.5 42v140q0 31 -9.5 42t-35.5 11h-34v47q53 0 79 9t35 31h67z" />
    <glyph glyph-name="twoinferior" unicode="&#x2082;" horiz-adv-x="433" 
d="M372 128v-128h-313q4 70 31 104t118 81q59 33 59 81q0 29 -22.5 50t-54.5 21q-36 0 -60 -26q42 -12 42 -49q0 -20 -15 -34.5t-36 -14.5q-26 0 -41.5 16.5t-15.5 43.5q0 50 45 84.5t110 34.5q68 0 111.5 -36t43.5 -91q0 -61 -52 -97q-24 -16 -90 -36q-52 -17 -71.5 -28
t-28.5 -30h149q21 0 30 10.5t9 34.5v9h52z" />
    <glyph glyph-name="threeinferior" unicode="&#x2083;" horiz-adv-x="433" 
d="M148 171v47q54 0 71 5q44 13 44 56q0 27 -20.5 45t-51.5 18q-29 0 -54 -17q18 -15 18 -36q0 -19 -14 -32t-34 -13q-22 0 -36 14.5t-14 37.5q0 40 44.5 68t109.5 28q68 0 113.5 -30.5t45.5 -76.5q0 -29 -19.5 -52t-52.5 -33q88 -31 88 -101q0 -50 -46.5 -80.5
t-123.5 -30.5q-74 0 -121.5 28.5t-47.5 73.5q0 23 15.5 38.5t37.5 15.5t37.5 -15t15.5 -36q0 -23 -21 -37q29 -19 63 -19t57 19.5t23 48.5q0 32 -29 51q-22 15 -68 15h-30z" />
    <glyph glyph-name="fourinferior" unicode="&#x2084;" horiz-adv-x="433" 
d="M312 380v-231h80v-46h-80v-3q0 -31 9.5 -42t35.5 -11h35v-47h-254v47h33q25 0 34.5 11.5t9.5 41.5v3h-174v40l213 237h58zM215 149v113l-102 -113h102z" />
    <glyph glyph-name="fiveinferior" unicode="&#x2085;" horiz-adv-x="433" 
d="M349 380v-73h-218v-70q41 24 97 24q70 0 113 -36.5t43 -95.5q0 -62 -48.5 -101.5t-125.5 -39.5q-65 0 -112.5 31.5t-47.5 74.5q0 23 15 38.5t37 15.5t37 -15t15 -37q0 -24 -21 -37q22 -18 56 -18q37 0 62 25t25 63q0 35 -23 57t-59 22q-35 0 -65 -31h-49v203h269z" />
    <glyph glyph-name="sixinferior" unicode="&#x2086;" horiz-adv-x="433" 
d="M151 253v-18q42 27 94 27q62 0 105 -39t43 -94q0 -61 -47.5 -101t-120.5 -40q-86 0 -136 52t-50 143q0 92 56.5 150.5t145.5 58.5q59 0 99.5 -25t40.5 -62q0 -21 -13 -34t-35 -13q-20 0 -33.5 12.5t-13.5 30.5q0 11 9 23q-24 19 -55 19q-38 0 -63.5 -25.5t-25.5 -64.5z
M216 212q-30 0 -48.5 -24.5t-18.5 -62.5q0 -40 18.5 -64.5t49.5 -24.5q29 0 47.5 23.5t18.5 61.5q0 41 -18 66t-49 25z" />
    <glyph glyph-name="seveninferior" unicode="&#x2087;" horiz-adv-x="433" 
d="M372 380v-57q-48 -40 -75.5 -93t-27.5 -105q0 -11 2 -37q2 -28 2 -35q0 -29 -16.5 -47t-43.5 -18q-29 0 -45 19.5t-16 54.5q0 49 30 101.5t108 139.5h-120q-35 0 -45 -8t-12 -38q0 -9 -1 -16h-51v139h311z" />
    <glyph glyph-name="eightinferior" unicode="&#x2088;" horiz-adv-x="433" 
d="M307 196q45 -17 65.5 -39.5t20.5 -56.5q0 -52 -48 -82t-130 -30q-81 0 -127.5 30t-46.5 83q0 33 19 55t64 40q-72 27 -72 89q0 47 45 77t117 30q74 0 119.5 -29.5t45.5 -78.5q0 -60 -72 -88zM218 172q-30 0 -50.5 -19.5t-20.5 -48.5q0 -28 19.5 -48t48.5 -20t49.5 19.5
t20.5 47.5q0 29 -19.5 49t-47.5 20zM216 343q-26 0 -44.5 -19t-18.5 -45t18.5 -44.5t45.5 -18.5q25 0 43 18t18 43q0 27 -18.5 46.5t-43.5 19.5z" />
    <glyph glyph-name="nineinferior" unicode="&#x2089;" horiz-adv-x="433" 
d="M281 145q-42 -27 -94 -27q-61 0 -104.5 39t-43.5 94q0 61 48 101t121 40q86 0 136 -52t50 -143q0 -92 -56.5 -150.5t-146.5 -58.5q-59 0 -99.5 25t-40.5 62q0 21 13 34t35 13q20 0 33.5 -12.5t13.5 -30.5q0 -10 -8 -23q24 -19 55 -19q38 0 63.5 25.5t25.5 64.5
q0 11 -1 18zM215 344q-29 0 -47.5 -23.5t-18.5 -61.5q0 -42 18.5 -66.5t49.5 -24.5q30 0 48.5 24.5t18.5 62.5q0 41 -19 65t-50 24z" />
    <glyph glyph-name="franc" unicode="&#x20a3;" horiz-adv-x="1416" 
d="M795 667v-259h-75q-9 89 -44 133q-47 58 -146 58h-188v-219h70q53 0 76 12t34 47q8 27 8 64h69v-317h-69v19q0 43 -20 71q-22 33 -100 33h-68v-104q0 -46 6 -67.5t23 -38.5q32 -30 81 -30h22v-69h-424v69h23q107 0 107 117v276q0 77 -26 106q-28 30 -81 30h-23v69h745z
M1104 471v-103q43 64 85.5 92t96.5 28q51 0 84 -30.5t33 -77.5q0 -35 -22.5 -58t-57.5 -23q-29 0 -47 16.5t-18 43.5q0 10 4 25q-43 0 -73 -18q-76 -44 -76 -166v-37q0 -54 17 -74.5t62 -20.5h19v-68h-335v68h15q45 0 62 20.5t17 74.5v145q0 54 -17.5 74.5t-61.5 20.5h-20
v68h233z" />
    <glyph glyph-name="lira" unicode="&#x20a4;" horiz-adv-x="639" 
d="M402 385v-48h-91q0 -2 1 -3.5t2 -3.5v-1q7 -16 7 -18q4 -13 7 -29h75v-48h-87q-7 -33 -22.5 -54t-51.5 -45q55 20 84 20q20 0 36 -3.5t78 -23.5q9 -4 27 -4q50 0 96 53l54 -128q-71 -65 -148 -65q-43 0 -127 31q-56 21 -83 21q-44 0 -97 -40l-77 115q76 44 88 123h-98v48
h94q-2 5 -5 11q-10 25 -23 44h-66v48h36q-23 47 -23 83q0 44 23 86.5t62 70.5q70 51 181 51q156 0 222 -96q35 -50 40 -152h-145q-3 64 -30 93.5t-81 29.5q-47 0 -77.5 -24.5t-30.5 -62.5q0 -27 28 -71l1 -1l2 -4t2 -3h117z" />
    <glyph glyph-name="peseta" unicode="&#x20a7;" horiz-adv-x="1395" 
d="M341 298v-112q0 -63 23 -87q28 -30 81 -30h23v-69h-418v69h23q52 0 80 30q24 25 24 87v295q0 62 -24 87q-28 30 -80 30h-23v69h483q76 0 119.5 -12t74.5 -42q59 -54 59 -133q0 -49 -26.5 -91.5t-70.5 -65.5q-29 -16 -60 -20.5t-109 -4.5h-179zM341 368h124q75 0 108 24
q43 35 43 91q0 66 -57 99q-33 17 -110 17h-108v-231zM902 118h48v-46q0 -39 -23.5 -60.5t-66.5 -21.5q-91 0 -91 95v153h-52v47q46 1 74.5 26.5t26.5 63.5h48v-90h81v-47h-81v-157q0 -39 19 -39q17 0 17 33v43zM1028 0v115h47q1 -32 24 -50q37 -26 94 -26q62 0 62 31
q0 13 -12 20t-45 12l-66 10q-56 9 -82 30.5t-26 58.5q0 43 34.5 68t93.5 25q46 0 92 -15q34 -11 41 -11q9 0 10 16h45v-99h-44q-11 32 -34 44q-35 20 -85 20q-28 0 -45 -7.5t-17 -20.5q0 -16 51 -24l63 -10q64 -10 92 -32q34 -25 34 -67q0 -43 -34.5 -70.5t-89.5 -27.5
q-53 0 -134 27q-10 2 -12 2q-13 0 -13 -17v-2h-44z" />
    <glyph glyph-name="Euro" unicode="&#x20ac;" horiz-adv-x="852" 
d="M286 446h372l-71 -100h-320v-3v-11q0 -24 1 -34h283l-71 -100h-184q32 -67 93.5 -104.5t136.5 -37.5q161 0 246 158v-126q-62 -62 -118 -84q-77 -30 -177 -30q-136 0 -235.5 59t-140.5 165h-135l71 100h41q-1 16 -1 45v3h-111l71 100h55q35 118 125.5 182.5t221.5 64.5
q111 0 209 -49q38 -18 52 -18q36 0 39 41h70v-260h-79q-5 81 -55 129q-72 70 -173 70q-76 0 -133 -42.5t-83 -117.5z" />
    <glyph glyph-name="uni2101" unicode="&#x2101;" horiz-adv-x="1254" 
d="M282 670h46l164 -285q23 -43 43.5 -56.5t64.5 -14.5v-47h-294v47q50 1 64 10t14 21q0 8 -6 22l-7 13h-191l-7 -16q-6 -12 -6 -21q0 -14 16.5 -20t63.5 -9v-47h-227v47q34 1 53.5 13t37.5 43zM346 426l-70 122l-70 -122h140zM525 0h-61l455 667h57zM1179 405v-137h-50
q-8 42 -48 65.5t-106 23.5q-110 0 -110 -59q0 -36 79 -39q125 -5 160 -14q46 -11 71.5 -42t25.5 -75q0 -63 -49 -101t-130 -38q-56 0 -150 26q-11 4 -20 4q-16 0 -17 -25h-50v147h50q2 -24 12 -39t33 -28q51 -31 121 -31q48 0 79.5 17.5t31.5 45.5q0 24 -29 36
q-20 10 -108 13t-129 17q-32 12 -51.5 41t-19.5 65q0 59 50.5 95.5t130.5 36.5q65 0 134 -20q11 -4 22 -4q16 0 16 19h51z" />
    <glyph glyph-name="afii61248" unicode="&#x2105;" horiz-adv-x="438" 
d="M219 430q28 0 47 -19.5t19 -46.5q0 -28 -19.5 -47.5t-46.5 -19.5q-28 0 -47.5 19.5t-19.5 46.5q0 28 19.5 47.5t47.5 19.5z" />
    <glyph glyph-name="afii61289" unicode="&#x2113;" 
d="M268 270l-11 -12q-22 -127 -22 -176q0 -25 14 -25q7 0 14 9t21 35q12 22 25 22q21 0 21 -24q0 -32 -28 -72q-36 -49 -84 -49q-64 0 -83 70q-8 26 -8 90q0 13 1 24q-30 -37 -41 -37q-7 0 -13 10.5t-6 22.5q0 10 5 17.5t33 40.5q4 4 8 9.5t10.5 13.5t11.5 14q28 172 77 289
q54 127 138 127q39 0 62.5 -27.5t23.5 -72.5q0 -64 -43 -142q-22 -41 -39.5 -63t-86.5 -94zM267 335q43 47 75.5 115.5t32.5 110.5q0 33 -21 33q-25 0 -45 -60.5t-42 -198.5z" />
    <glyph glyph-name="uni2117" unicode="&#x2117;" horiz-adv-x="271" 
d="M188 551v-184q0 -31 9.5 -42t35.5 -11h16v-47h-217v47h14q26 0 35.5 11t9.5 42v85q0 31 -9.5 42t-35.5 11h-14v46h156zM135 686q24 0 41 -16t17 -39t-17 -39.5t-42 -16.5t-42 16.5t-17 39.5t17.5 39t42.5 16z" />
    <glyph glyph-name="trademark" unicode="&#x2122;" horiz-adv-x="1295" 
d="M523 667v-155h-56q-1 56 -28.5 82t-85.5 26h-28v-234q0 -42 13 -55q17 -17 48 -17h23v-47h-271v47h19q62 0 62 66v240h-40q-52 0 -76 -24.5t-31 -83.5h-55v155h506zM1063 667h197v-47h-15q-34 0 -48 -17.5t-14 -59.5v-152q0 -42 14 -59.5t48 -17.5h15v-47h-264v47h18
q61 0 61 66v187l-151 -300h-52l-161 314v-190q0 -45 14 -60q17 -17 48 -17h19v-47h-216v47h18q30 0 47 17q13 13 13 49v174q0 36 -13 49q-17 17 -47 17h-18v47h215l136 -268z" />
    <glyph glyph-name="uni2126" unicode="&#x2126;" horiz-adv-x="666" 
d="M27 0v129h137q-73 45 -106.5 103t-33.5 138q0 131 90 222.5t219 91.5q130 0 219.5 -91.5t89.5 -222.5q0 -80 -33.5 -137.5t-106.5 -103.5h137v-129h-270v119q59 31 90.5 89t31.5 134q0 91 -45 151.5t-113 60.5q-67 0 -112.5 -60.5t-45.5 -149.5q0 -162 122 -225v-119
h-270z" />
    <glyph glyph-name="onethird" unicode="&#x2153;" horiz-adv-x="961" 
d="M267 647v-280q0 -30 10 -41.5t35 -11.5h34v-47h-256v47h30q26 0 35.5 11t9.5 42v140q0 31 -9.5 42t-35.5 11h-34v47q53 0 79 9t35 31h67zM251 -33l-42 28l490 672l43 -28zM675 171v47q53 0 71 5q44 13 44 56q0 27 -20.5 45t-51.5 18q-28 0 -54 -17q18 -15 18 -36
q0 -19 -14 -32t-34 -13q-22 0 -36 14.5t-14 37.5q0 40 44.5 68t109.5 28q68 0 113.5 -30.5t45.5 -76.5q0 -29 -19.5 -52t-52.5 -33q88 -31 88 -101q0 -50 -46.5 -80.5t-123.5 -30.5q-74 0 -121.5 28.5t-47.5 73.5q0 23 15.5 38.5t37.5 15.5t37.5 -15t15.5 -36q0 -23 -21 -37
q29 -19 63 -19t57 19.5t23 48.5q0 32 -29 51q-23 15 -68 15h-30z" />
    <glyph glyph-name="twothirds" unicode="&#x2154;" horiz-adv-x="961" 
d="M372 395v-129h-313q4 71 31 105t118 81q59 33 59 81q0 29 -22.5 50t-54.5 21q-36 0 -60 -26q42 -14 42 -50q0 -20 -15 -34.5t-36 -14.5q-26 0 -41.5 16.5t-15.5 43.5q0 51 45 85.5t110 34.5q68 0 111.5 -36t43.5 -91q0 -63 -52 -97q-23 -16 -90 -36q-52 -17 -71.5 -28.5
t-28.5 -30.5h149q21 0 30 10.5t9 35.5v9h52zM251 -33l-41 28l489 672l43 -28zM676 171v47q54 0 71 5q44 13 44 56q0 27 -20.5 45t-51.5 18q-29 0 -54 -17q18 -15 18 -36q0 -19 -14 -32t-34 -13q-22 0 -36 14.5t-14 37.5q0 40 44.5 68t109.5 28q68 0 113.5 -30.5t45.5 -76.5
q0 -29 -19.5 -52t-52.5 -33q88 -31 88 -101q0 -50 -46.5 -80.5t-123.5 -30.5q-74 0 -121.5 28.5t-47.5 73.5q0 23 15.5 38.5t37.5 15.5t37.5 -15t15.5 -36q0 -23 -21 -37q29 -19 63 -19t57 19.5t23 48.5q0 32 -29 51q-22 15 -68 15h-30z" />
    <glyph glyph-name="oneeighth" unicode="&#x215b;" horiz-adv-x="961" 
d="M267 647v-280q0 -30 10 -41.5t35 -11.5h34v-47h-256v47h30q26 0 35.5 11t9.5 42v140q0 31 -9.5 42t-35.5 11h-34v47q53 0 79 9t35 31h67zM251 -33l-42 28l490 672l43 -28zM834 196q45 -17 65.5 -39.5t20.5 -56.5q0 -52 -48 -82t-130 -30q-81 0 -127.5 30t-46.5 83
q0 33 19.5 55t64.5 40q-73 27 -73 89q0 47 45 77t117 30q75 0 120.5 -29.5t45.5 -78.5q0 -60 -73 -88zM745 172q-30 0 -50.5 -19.5t-20.5 -48.5q0 -28 20 -48t48 -20q29 0 49.5 19.5t20.5 47.5q0 29 -19.5 49t-47.5 20zM743 343q-26 0 -44.5 -19t-18.5 -45t19 -44.5
t45 -18.5q25 0 43.5 18t18.5 43q0 27 -18.5 46.5t-44.5 19.5z" />
    <glyph glyph-name="threeeighths" unicode="&#x215c;" horiz-adv-x="961" 
d="M148 438v47q54 0 71 5q44 13 44 56q0 27 -20.5 45t-51.5 18q-29 0 -54 -17q18 -15 18 -36q0 -19 -14 -32t-34 -13q-22 0 -36 14.5t-14 37.5q0 40 44.5 68t109.5 28q68 0 113.5 -30.5t45.5 -76.5q0 -29 -19.5 -52t-52.5 -33q88 -31 88 -101q0 -50 -46.5 -80.5
t-123.5 -30.5q-74 0 -121.5 28.5t-47.5 73.5q0 23 15.5 38.5t37.5 15.5t37.5 -15t15.5 -36q0 -24 -21 -37q29 -19 63 -19t57 19.5t23 48.5q0 32 -29 51q-22 15 -68 15h-30zM251 -33l-41 28l489 672l43 -28zM835 196q45 -17 65.5 -39.5t20.5 -56.5q0 -52 -48 -82t-130 -30
q-81 0 -127.5 30t-46.5 83q0 33 19 55t64 40q-72 27 -72 89q0 47 45 77t117 30q74 0 119.5 -29.5t45.5 -78.5q0 -60 -72 -88zM746 172q-30 0 -50.5 -19.5t-20.5 -48.5q0 -28 19.5 -48t48.5 -20t49.5 19.5t20.5 47.5q0 29 -19.5 49t-47.5 20zM744 343q-26 0 -44.5 -19
t-18.5 -45t18.5 -44.5t45.5 -18.5q25 0 43 18t18 43q0 27 -18.5 46.5t-43.5 19.5z" />
    <glyph glyph-name="fiveeighths" unicode="&#x215d;" horiz-adv-x="961" 
d="M349 647v-73h-218v-71q42 25 97 25q69 0 112.5 -37t43.5 -95q0 -62 -48.5 -101.5t-125.5 -39.5q-65 0 -112.5 31.5t-47.5 74.5q0 23 15 38.5t37 15.5t37 -15t15 -37q0 -24 -21 -37q24 -18 56 -18q37 0 62 25.5t25 63.5q0 34 -23 56t-59 22q-35 0 -65 -31h-49v203h269z
M252 -33l-42 28l489 672l44 -28zM835 196q45 -17 65.5 -39.5t20.5 -56.5q0 -52 -48 -82t-130 -30q-81 0 -127.5 30t-46.5 83q0 33 19 55t64 40q-72 27 -72 89q0 47 45 77t117 30q75 0 120.5 -29.5t45.5 -78.5q0 -60 -73 -88zM746 172q-30 0 -50.5 -19.5t-20.5 -48.5
q0 -28 19.5 -48t48.5 -20t49.5 19.5t20.5 47.5q0 29 -19.5 49t-47.5 20zM744 343q-26 0 -44.5 -19t-18.5 -45t19 -44.5t45 -18.5q25 0 43.5 18t18.5 43q0 27 -18.5 46.5t-44.5 19.5z" />
    <glyph glyph-name="seveneighths" unicode="&#x215e;" horiz-adv-x="961" 
d="M372 647v-57q-48 -40 -75.5 -93t-27.5 -105q0 -11 2 -37q2 -28 2 -35q0 -29 -16.5 -47t-43.5 -18q-29 0 -45 19.5t-16 54.5q0 50 29.5 101.5t108.5 139.5h-120q-35 0 -45 -8t-12 -38q0 -9 -1 -16h-51v139h311zM251 -33l-41 28l489 672l43 -28zM835 196q85 -32 85 -96
q0 -52 -48 -82t-129 -30t-127.5 30t-46.5 83q0 33 19 55t64 40q-72 27 -72 89q0 47 45 77t117 30q74 0 119.5 -29.5t45.5 -78.5q0 -60 -72 -88zM745 172q-30 0 -50 -19.5t-20 -48.5q0 -28 19.5 -48t48.5 -20t49 19.5t20 47.5q0 29 -19.5 49t-47.5 20zM744 343
q-26 0 -44.5 -19t-18.5 -45t18.5 -44.5t45.5 -18.5q25 0 43 18t18 43q0 27 -18.5 46.5t-43.5 19.5z" />
    <glyph glyph-name="arrowleft" unicode="&#x2190;" horiz-adv-x="667" 
d="M653 363v-51h-500q15 -19 33.5 -56t18.5 -48q0 -14 -15 -14q-8 0 -22 17q-47 54 -132 104q-23 11 -23 20q0 10 16 19q62 37 87 57t58 59q8 9 16 9q15 0 15 -15q0 -29 -52 -101h500z" />
    <glyph glyph-name="arrowup" unicode="&#x2191;" horiz-adv-x="667" 
d="M360 13h-51v500q-19 -15 -56 -33.5t-48 -18.5q-14 0 -14 15q0 8 17 23q55 46 103 132q13 23 21 23q10 0 19 -17q38 -63 57.5 -87.5t58.5 -57.5q9 -8 9 -16q0 -15 -15 -15q-29 0 -101 52v-500z" />
    <glyph glyph-name="arrowright" unicode="&#x2192;" horiz-adv-x="667" 
d="M13 310v51h500q-15 19 -33.5 56t-18.5 48q0 14 15 14q8 0 22 -17q49 -56 132 -103q23 -13 23 -21q0 -10 -16 -19q-62 -37 -87 -57t-58 -59q-8 -9 -16 -9q-15 0 -15 15q0 29 52 101h-500z" />
    <glyph glyph-name="arrowdown" unicode="&#x2193;" horiz-adv-x="667" 
d="M307 653h51v-500q19 16 56 34t48 18q14 0 14 -15q0 -8 -17 -22q-55 -47 -103 -132q-13 -23 -21 -23q-10 0 -19 16q-37 62 -57 87t-59 58q-9 8 -9 16q0 15 15 15q27 0 101 -52v500z" />
    <glyph glyph-name="arrowboth" unicode="&#x2194;" horiz-adv-x="667" 
d="M513 310h-361q22 -29 37.5 -59t15.5 -42q0 -15 -15 -15q-6 0 -8.5 2.5t-15.5 16.5q-27 32 -54.5 52.5t-88.5 57.5q-10 6 -10 15q0 8 23 20q85 48 132 103q15 17 22 17q15 0 15 -14q0 -11 -18 -46.5t-35 -56.5h361q-15 19 -33.5 55.5t-18.5 47.5q0 14 15 14q8 0 22 -17
q47 -53 132 -103q23 -12 23 -20q0 -10 -16 -19q-62 -37 -87 -57t-58 -59q-8 -9 -16 -9q-15 0 -15 15q0 29 52 101z" />
    <glyph glyph-name="arrowupdn" unicode="&#x2195;" horiz-adv-x="667" 
d="M360 513v-361q72 53 101 53q15 0 15 -15q0 -6 -2.5 -8.5t-16.5 -15.5q-33 -29 -53.5 -56t-56.5 -87q-6 -10 -15 -10q-8 0 -20 23q-49 85 -104 132q-17 14 -17 22q0 15 14 15q11 0 46.5 -18t57.5 -35v361q-20 -15 -56.5 -33.5t-47.5 -18.5q-14 0 -14 15q0 6 4 10.5
t27 24.5q45 42 90 120q12 23 20 23q10 0 19 -17q38 -63 57.5 -87.5t58.5 -57.5q9 -8 9 -16q0 -15 -15 -15q-29 0 -101 52z" />
    <glyph glyph-name="arrowupdnbse" unicode="&#x21a8;" horiz-adv-x="667" 
d="M360 513v-361q72 53 101 53q15 0 15 -15q0 -6 -2.5 -8.5t-16.5 -15.5q-33 -29 -53.5 -56t-56.5 -87q-6 -10 -15 -10q-7 0 -21 23q-48 85 -103 132q-17 14 -17 22q0 15 14 15q11 0 47 -18t57 -35v361q-20 -15 -56.5 -33.5t-47.5 -18.5q-14 0 -14 15q0 6 4 10.5t27 24.5
q45 42 90 120q12 23 20 23q10 0 19 -17q38 -63 57.5 -87.5t58.5 -57.5q9 -8 9 -16q0 -15 -15 -15q-29 0 -101 52zM201 -68h264v-43h-264v43z" />
    <glyph glyph-name="partialdiff" unicode="&#x2202;" 
d="M58 550l17 115q184 -21 282 -107q124 -109 124 -296q0 -149 -89 -222q-60 -49 -146 -49q-99 0 -164 65t-65 163q0 91 57.5 152t143.5 61q39 0 65 -9.5t56 -34.5q-27 49 -43 67.5t-51 41.5q-89 44 -187 53zM251 323q-43 0 -73 -31.5t-30 -76.5q0 -44 29.5 -75.5
t69.5 -31.5q42 0 71 31.5t29 77.5q0 44 -28 75t-68 31z" />
    <glyph glyph-name="emptyset" unicode="&#x2205;" horiz-adv-x="618" 
d="M439 667l48 -25l-48 -88q113 -80 113 -204q0 -102 -72 -172.5t-176 -70.5q-46 0 -79 16l-63 -123l-48 25l61 122q-108 79 -108 202q0 102 71 172.5t173 70.5q39 0 81 -14zM416 502l-165 -330q32 -8 58 -8q77 0 132 54.5t55 130.5q0 47 -21.5 89t-58.5 64zM200 198
l166 329q-28 8 -54 8q-78 0 -133.5 -54.5t-55.5 -130.5q0 -90 77 -152z" />
    <glyph glyph-name="Delta" unicode="&#x2206;" horiz-adv-x="650" 
d="M8 0l239 667h154l240 -667h-633zM197 129h252l-124 382z" />
    <glyph glyph-name="product" unicode="&#x220f;" horiz-adv-x="667" 
d="M18 750h630v-119h-72v-762h72v-119h-269v119h64v762h-221v-762h64v-119h-268v119h73v762h-73v119z" />
    <glyph glyph-name="summation" unicode="&#x2211;" horiz-adv-x="667" 
d="M623 750v-257h-133l-17 121h-273l242 -349l-241 -379h281l10 125h140v-261h-598v157l232 358l-232 328v157h589z" />
    <glyph glyph-name="minus" unicode="&#x2212;" 
d="M9 396h482v-73h-482v73z" />
    <glyph glyph-name="uni2218" unicode="&#x2218;" 
d="M253 479q55 0 95 -41t40 -98q0 -58 -40 -99t-97 -41t-97.5 41t-40.5 98q0 59 40.5 99.5t99.5 40.5zM252 431q-38 0 -65 -26.5t-27 -65.5q0 -37 27 -64t64 -27t63.5 26.5t26.5 64.5q0 37 -26.5 64.5t-62.5 27.5z" />
    <glyph glyph-name="radical" unicode="&#x221a;" horiz-adv-x="667" 
d="M667 827v-122h-167l-180 -705h-172l-59 254h-89v122h173l27 -105q10 -38 21 -142h8q23 152 64 315l98 383h276z" />
    <glyph glyph-name="infinity" unicode="&#x221e;" horiz-adv-x="667" 
d="M336 273q-71 -92 -160 -92q-70 0 -114 44.5t-44 114.5q0 69 44.5 113.5t113.5 44.5q90 0 156 -91q67 91 160 91q70 0 114 -44.5t44 -114.5q0 -69 -44 -113.5t-112 -44.5q-93 0 -158 92zM385 340q45 -67 93 -67q28 0 47 19t19 48q0 28 -19.5 47t-47.5 19q-48 0 -92 -66z
M283 339q-45 67 -93 67q-28 0 -47 -19t-19 -48q0 -28 19.5 -47t47.5 -19q48 0 92 66z" />
    <glyph glyph-name="orthogonal" unicode="&#x221f;" horiz-adv-x="337" 
d="M14 519h309v-97h-309v97z" />
    <glyph glyph-name="intersection" unicode="&#x2229;" horiz-adv-x="625" 
d="M591 0h-149v303q-1 95 -4.5 121.5t-16.5 48.5q-35 61 -108 61q-38 0 -69 -19t-45 -51q-16 -38 -16 -161v-303h-149v300q0 125 9 173.5t39 88.5q80 105 230 105q80 0 144 -32.5t100 -91.5q21 -34 28 -83t7 -160v-300z" />
    <glyph glyph-name="union" unicode="&#x222a;" horiz-adv-x="625" 
d="M34 667h149v-303q1 -95 4.5 -121.5t16.5 -48.5q34 -61 108 -61q38 0 69 19t45 51q16 35 16 161v303h149v-300q0 -124 -9 -173t-39 -89q-79 -105 -230 -105q-80 0 -144 32.5t-100 91.5q-21 34 -28 83t-7 160v300z" />
    <glyph glyph-name="integral" unicode="&#x222b;" 
d="M43 -240l25 140q22 -10 42 -10q42 0 55 35q5 12 5 108v406q0 111 1.5 134t9.5 52q15 58 65.5 91.5t122.5 33.5q37 0 87 -10l-24 -140q-27 10 -44 10q-40 0 -54 -34q-5 -14 -5 -61v-450q0 -134 -5 -162q-26 -151 -202 -151q-47 0 -79 8z" />
    <glyph glyph-name="uni222E" unicode="&#x222e;" 
d="M43 -240l24 140q31 -10 53 -10q42 0 53 35q5 13 5 64v67q-64 16 -106.5 74t-42.5 129q0 73 41 129t108 75v68q0 96 33 146q49 73 151 73q39 0 95 -10l-25 -140q-31 9 -54 9q-32 0 -44 -18.5t-12 -65.5v-62q69 -20 109 -75t40 -129q0 -73 -41.5 -129.5t-107.5 -73.5v-76
q0 -61 -6.5 -93.5t-24.5 -60.5q-25 -40 -64 -58t-100 -18q-45 0 -84 10zM322 395v-270q83 37 83 135q0 46 -23 83.5t-60 51.5zM178 126v269q-37 -14 -60 -51.5t-23 -82.5q0 -46 23 -83.5t60 -51.5z" />
    <glyph glyph-name="uni2236" unicode="&#x2236;" horiz-adv-x="438" 
d="M219 579q23 0 39.5 -16.5t16.5 -39.5t-16.5 -40t-39.5 -17q-24 0 -40.5 16.5t-16.5 40.5q0 23 16.5 39.5t40.5 16.5zM219 260q23 0 39.5 -16.5t16.5 -39.5q0 -24 -16.5 -40.5t-40.5 -16.5q-23 0 -39.5 16.5t-16.5 39.5q0 24 16.5 40.5t40.5 16.5z" />
    <glyph glyph-name="similar" unicode="&#x223c;" 
d="M84 233l-76 63q56 139 150 139q32 0 112 -34q59 -24 76 -24q38 0 70 60l76 -63q-20 -48 -37.5 -73.5t-43.5 -42.5q-35 -22 -74 -22q-31 0 -113 36q-50 22 -72 22q-35 0 -68 -61z" />
    <glyph glyph-name="approxequal" unicode="&#x2248;" 
d="M84 348l-76 53q56 138 150 138q33 0 113 -33q58 -24 75 -24q21 0 34.5 9.5t35.5 40.5l76 -53q-31 -75 -66.5 -106t-90.5 -31q-21 0 -40.5 6t-70.5 28q-50 22 -73 22q-19 0 -33 -10.5t-34 -39.5zM84 128l-76 53q56 138 150 138q33 0 113 -33q58 -24 75 -24q21 0 34.5 9.5
t35.5 40.5l76 -53q-31 -75 -66.5 -106t-90.5 -31q-21 0 -40.5 6t-70.5 28q-48 22 -73 22q-19 0 -33 -10.5t-34 -39.5z" />
    <glyph glyph-name="notequal" unicode="&#x2260;" 
d="M257 481l69 130l96 -52l-42 -78h86v-130h-139l-40 -76h179v-130h-227l-60 -112l-97 52l33 60h-82v130h130l41 76h-170v130h223z" />
    <glyph glyph-name="equivalence" unicode="&#x2261;" 
d="M33 606h433v-137h-433v137zM33 402h433v-137h-433v137zM33 197h433v-137h-433v137z" />
    <glyph glyph-name="lessequal" unicode="&#x2264;" 
d="M466 649v-146l-263 -83l263 -82v-146l-433 163v131zM466 165v-137h-433v137h433z" />
    <glyph glyph-name="greaterequal" unicode="&#x2265;" 
d="M33 192v146l263 82l-263 83v146l433 -163v-131zM33 28v137h433v-137h-433z" />
    <glyph glyph-name="dotmath" unicode="&#x22c5;" horiz-adv-x="250" 
d="M199 331v-167h-148v167h148z" />
    <glyph glyph-name="house" unicode="&#x2302;" horiz-adv-x="751" 
d="M84 0v401l291 328l292 -328v-401h-583zM135 51h481v328l-241 270l-240 -270v-328z" />
    <glyph glyph-name="revlogicalnot" unicode="&#x2310;" 
d="M185 0h-152v292h433v-137h-281v-155z" />
    <glyph glyph-name="uni2319" unicode="&#x2319;" 
d="M185 292v-155h281v-137h-433v292h152z" />
    <glyph glyph-name="integraltp" unicode="&#x2320;" 
d="M329 -250h-159v689q0 111 1.5 134t9.5 52q15 58 65.5 91.5t122.5 33.5q37 0 87 -10l-25 -140q-26 10 -43 10q-40 0 -54 -34q-5 -14 -5 -61v-765z" />
    <glyph glyph-name="integralbt" unicode="&#x2321;" 
d="M170 750h159v-689q0 -110 -1.5 -133.5t-9.5 -52.5q-15 -58 -65.5 -91.5t-122.5 -33.5q-37 0 -87 10l24 140q24 -10 44 -10q42 0 54 34q5 14 5 61v765z" />
    <glyph glyph-name="filledbox" unicode="&#x25a0;" horiz-adv-x="667" 
d="M667 0h-667v667h667v-667z" />
    <glyph glyph-name="uni25A1" unicode="&#x25a1;" horiz-adv-x="667" 
d="M667 0h-667v667h667v-667zM620 47v573h-573v-573h573z" />
    <glyph glyph-name="H18551" unicode="&#x25ab;" horiz-adv-x="337" 
d="M14 519h102v99h104v-99h103v-97h-103v-100h-104v100h-102v97z" />
    <glyph glyph-name="filledrect" unicode="&#x25ac;" horiz-adv-x="667" 
d="M667 333v-333h-667v333h667z" />
    <glyph glyph-name="uni25AE" unicode="&#x25ae;" horiz-adv-x="667" 
d="M500 0h-333v667h333v-667z" />
    <glyph glyph-name="uni25AF" unicode="&#x25af;" horiz-adv-x="667" 
d="M334 589q107 0 183.5 -74.5t76.5 -180.5t-76.5 -181.5t-183.5 -75.5q-110 0 -185.5 75.5t-75.5 184.5q0 104 77 178t184 74z" />
    <glyph glyph-name="triagup" unicode="&#x25b2;" horiz-adv-x="667" 
d="M633 67h-600l300 561z" />
    <glyph glyph-name="uni25B4" unicode="&#x25b4;" 
d="M466 147h-433l217 405z" />
    <glyph glyph-name="uni25B8" unicode="&#x25b8;" 
d="M71 119v433l405 -217z" />
    <glyph glyph-name="triagdn" unicode="&#x25bc;" horiz-adv-x="667" 
d="M33 600h600l-300 -561z" />
    <glyph glyph-name="uni25BE" unicode="&#x25be;" 
d="M33 520h433l-216 -405z" />
    <glyph glyph-name="uni25C2" unicode="&#x25c2;" 
d="M428 552v-433l-405 216z" />
    <glyph glyph-name="lozenge" unicode="&#x25ca;" horiz-adv-x="667" 
d="M334 693l259 -359l-259 -360l-260 360zM334 604l-197 -270l197 -271l197 271z" />
    <glyph glyph-name="circle" unicode="&#x25cb;" horiz-adv-x="667" 
d="M334 589q107 0 183.5 -74.5t76.5 -180.5t-76.5 -181.5t-183.5 -75.5q-110 0 -185.5 75.5t-75.5 184.5q0 104 77 178t184 74zM334 543q-88 0 -151 -61t-63 -146q0 -89 62 -151t152 -62q88 0 150.5 62t62.5 149q0 86 -62.5 147.5t-150.5 61.5z" />
    <glyph glyph-name="invbullet" unicode="&#x25d8;" horiz-adv-x="667" 
d="M0 0v667h667v-667h-667zM336 473q-58 0 -99 -40.5t-41 -99.5q0 -57 40.5 -98t97.5 -41t97 40.5t40 98.5q0 57 -40 98.5t-95 41.5z" />
    <glyph glyph-name="invcircle" unicode="&#x25d9;" horiz-adv-x="667" 
d="M667 0h-667v667h667v-667zM334 590q-107 0 -184 -74t-77 -178q0 -110 75.5 -185.5t185.5 -75.5q107 0 183.5 75.5t76.5 181.5t-76.5 181t-183.5 75zM334 543q88 0 150.5 -61.5t62.5 -147.5q0 -87 -62.5 -149t-150.5 -62q-90 0 -152 62t-62 151q0 85 63 146t151 61z" />
    <glyph glyph-name="openbullet" unicode="&#x25e6;" 
d="M253 479q55 0 95 -41t40 -98q0 -58 -40 -99t-97 -41t-97.5 41t-40.5 98q0 59 40.5 99.5t99.5 40.5zM252 431q-38 0 -65 -26.5t-27 -65.5q0 -37 27 -64t64 -27t63.5 26.5t26.5 64.5q0 37 -26.5 64.5t-62.5 27.5z" />
    <glyph glyph-name="smileface" unicode="&#x263a;" horiz-adv-x="667" 
d="M339 650q127 0 219 -93.5t92 -222.5q0 -131 -92.5 -224t-223.5 -93q-132 0 -224.5 93t-92.5 226q0 131 94 222.5t228 91.5zM338 608q-126 0 -208 -91q-71 -79 -71 -181q0 -116 80 -196.5t195 -80.5q114 0 194.5 80.5t80.5 194.5q0 112 -80.5 193t-190.5 81zM241 465
q17 0 30 -13t13 -31t-13 -31t-31 -13t-31 13t-13 31q0 19 13 31.5t32 12.5zM434 465q17 0 30 -13t13 -31t-13 -31t-31 -13t-31 13t-13 31q0 19 13 31.5t32 12.5zM540 372q-4 -60 -15 -95t-35 -66q-56 -70 -156 -70q-109 0 -164 82q-20 29 -28.5 60.5t-13.5 88.5
q12 -54 42 -89q61 -70 164 -70q102 0 165 70q29 35 41 89z" />
    <glyph glyph-name="invsmileface" unicode="&#x263b;" horiz-adv-x="667" 
d="M339 650q127 0 219 -93.5t92 -223.5q0 -131 -92.5 -223.5t-223.5 -92.5q-132 0 -224.5 93t-92.5 226q0 131 94 222.5t228 91.5zM240 465q-18 0 -31 -12.5t-13 -31.5q0 -18 12.5 -31t31.5 -13q18 0 30.5 13t12.5 31t-13 31t-30 13zM434 465q-19 0 -32 -12.5t-13 -31.5
q0 -18 13 -31t31 -13t31 13t13 31t-13 31t-30 13zM540 371q-13 -55 -41 -88q-63 -70 -165 -70q-103 0 -164 70q-29 33 -42 88q5 -61 15.5 -95.5t35.5 -64.5q55 -70 155 -70q110 0 165 82q35 53 41 148z" />
    <glyph glyph-name="sun" unicode="&#x263c;" horiz-adv-x="667" 
d="M159 472l-75 75l35 35l75 -75q49 40 114 48v105h50v-105q66 -8 113 -47l75 74l35 -35l-74 -74q38 -48 47 -114h105v-51h-105q-9 -64 -47 -114l74 -74l-35 -35l-75 74q-50 -40 -113 -47v-105h-50v105q-60 6 -114 47l-75 -74l-35 35l74 74q-40 51 -46 114h-105v51h105
q7 61 47 113zM336 493q-68 0 -115.5 -46t-47.5 -112q0 -67 46.5 -114t113.5 -47q66 0 112.5 47t46.5 113q0 65 -46 112t-110 47z" />
    <glyph glyph-name="female" unicode="&#x2640;" horiz-adv-x="667" 
d="M308 209v105q-68 10 -111.5 61.5t-43.5 120.5q0 76 52.5 129.5t126.5 53.5q75 0 128 -53.5t53 -129.5q0 -70 -44 -120.5t-113 -61.5v-105h163v-43h-163v-166h-48v166h-161v43h161zM335 632q-57 0 -96 -39.5t-39 -96.5q0 -56 39 -95.5t94 -39.5t94 39.5t39 95.5t-38.5 96
t-92.5 40z" />
    <glyph glyph-name="male" unicode="&#x2642;" horiz-adv-x="667" 
d="M570 499l-152 -151q36 -50 36 -110q0 -75 -53 -128.5t-127 -53.5t-127 53.5t-53 129.5q0 75 53 128.5t127 53.5q61 0 112 -39l151 151q-52 12 -106 40q-21 11 -21 23t13 12q3 0 20 -3q41 -9 83 -9q57 0 105 14l10 1q10 0 10 -10q0 -4 -5 -23q-10 -40 -10 -87q0 -43 9 -84
q3 -17 3 -20q0 -13 -12 -13q-7 0 -10.5 3.5t-12.5 17.5q-31 44 -43 104zM276 374q-57 0 -96 -39t-39 -96q0 -56 39 -95.5t94 -39.5t94 39.5t39 95.5t-38.5 95.5t-92.5 39.5z" />
    <glyph glyph-name="spade" unicode="&#x2660;" horiz-adv-x="667" 
d="M108 0v18q70 14 102 29t63 49q52 60 56 159q-12 -26 -13 -28q-20 -33 -56 -53.5t-76 -20.5q-49 0 -84.5 37t-35.5 88q0 81 104 169q142 115 164 239q26 -80 51.5 -117t99.5 -105q73 -67 97 -103.5t24 -83.5q0 -52 -35.5 -87.5t-86.5 -35.5q-84 0 -140 101
q6 -108 58.5 -163t167.5 -74v-18h-460z" />
    <glyph glyph-name="club" unicode="&#x2663;" horiz-adv-x="667" 
d="M561 0h-455v18q113 16 167 78.5t54 177.5q-22 -38 -34 -52q-27 -35 -66.5 -55t-79.5 -20q-59 0 -101.5 44.5t-42.5 107.5q0 62 38.5 104.5t93.5 42.5q19 0 33 -4.5t53 -24.5q-35 53 -35 100q0 59 43.5 101t104.5 42t104 -42t43 -101q0 -47 -35 -100q40 20 53 24.5t33 4.5
q55 0 93.5 -42.5t38.5 -104.5q0 -64 -42.5 -108t-103.5 -44q-37 0 -76 19t-64 50q-16 21 -38 58q2 -65 15 -106t44 -76q32 -32 62.5 -46.5t99.5 -27.5v-18z" />
    <glyph glyph-name="heart" unicode="&#x2665;" horiz-adv-x="667" 
d="M332 -11q-16 67 -52 128.5t-134 192.5q-54 74 -72 113t-18 82q0 56 37.5 95t91.5 39q76 0 120 -68q13 -19 27 -62q37 131 147 131q55 0 93.5 -38.5t38.5 -92.5q0 -50 -24 -100.5t-86 -128.5q-143 -179 -169 -291z" />
    <glyph glyph-name="diamond" unicode="&#x2666;" horiz-adv-x="667" 
d="M333 693q22 -47 111.5 -173t142.5 -186q-71 -85 -141.5 -184.5t-112.5 -175.5q-71 135 -253 360q180 226 253 359z" />
    <glyph glyph-name="musicalnote" unicode="&#x266a;" horiz-adv-x="667" 
d="M306 156v511h46v-61q14 -18 15 -18l52 -63q91 -107 91 -225q0 -91 -57 -162h-28q33 77 33 149q0 65 -31.5 116t-74.5 57v-304q0 -72 -42.5 -118.5t-109.5 -46.5q-32 0 -50.5 16t-18.5 45q0 45 36.5 80t84.5 35q29 0 54 -11z" />
    <glyph glyph-name="uni266C" unicode="&#x266c;" horiz-adv-x="667" 
d="M616 694v-502q0 -46 -17 -81q-19 -38 -55.5 -60.5t-79.5 -22.5q-32 0 -50 16t-18 44q0 46 36.5 80.5t83.5 34.5q29 0 54 -11v270l-329 -90v-236q0 -71 -42.5 -117t-109.5 -46q-32 0 -50.5 16t-18.5 44q0 44 36.5 78.5t84.5 34.5q26 0 54 -10v451zM241 448l329 90v70
l-329 -90v-70z" />
    <glyph glyph-name="dotlessj" unicode="&#xf6be;" horiz-adv-x="328" 
d="M249 471v-524q0 -81 -55 -126q-61 -48 -138 -48q-61 0 -102 27.5t-41 68.5q0 29 19.5 48.5t48.5 19.5q28 0 46.5 -17t18.5 -43q0 -24 -19 -42q14 -10 30 -10q31 0 41 27q7 16 8 123v333q0 53 -17.5 74t-61.5 21h-20v68h242z" />
    <glyph glyph-name="commaaccent" unicode="&#xf6c3;" 
d="M226 -275l-32 32q48 40 54 83q-9 -1 -18 -1q-26 0 -42.5 15.5t-16.5 39.5q0 27 21 45t52 18q34 0 57 -22t23 -54q0 -78 -98 -156z" />
    <glyph glyph-name="Acute" unicode="&#xf6c9;" 
d="M275 731h-106l124 150h172z" />
    <glyph glyph-name="Caron" unicode="&#xf6ca;" 
d="M45 791l36 97l179 -56l164 56l30 -80l-205 -82z" />
    <glyph glyph-name="Dieresis" unicode="&#xf6cb;" 
d="M405 887q30 0 52 -22t22 -53t-22 -53.5t-53 -22.5q-32 0 -54 22t-22 54q0 31 22.5 53t54.5 22zM96 887q30 0 52 -22t22 -53t-22 -53t-53 -22t-53 22t-22 54q0 31 22 52.5t54 21.5z" />
    <glyph glyph-name="Grave" unicode="&#xf6ce;" 
d="M332 731h-106l-192 151h173z" />
    <glyph glyph-name="Hungarumlaut" unicode="&#xf6cf;" 
d="M145 745h-90l74 127h146zM378 745h-90l74 127h146z" />
    <glyph glyph-name="Macron" unicode="&#xf6d0;" 
d="M17 760v100h467v-100h-467z" />
    <glyph glyph-name="commasuperior" unicode="&#xf6e2;" horiz-adv-x="170" 
d="M130 374v-77q0 -66 -31 -94q-22 -22 -61 -25v44q36 8 39 52h-37v100h90z" />
    <glyph glyph-name="periodsuperior" unicode="&#xf6e8;" horiz-adv-x="171" 
d="M136 383v-116h-100v116h100z" />
    <glyph glyph-name="Dbreve" horiz-adv-x="963" 
d="M50 667h463q208 0 305 -84q50 -44 80.5 -112t30.5 -138q0 -73 -34 -143.5t-91 -116.5q-50 -39 -111 -56t-152 -17h-491v69h23q105 0 105 117v295q0 117 -105 117h-23v69zM340 68h100q83 0 136 17.5t90 56.5q73 79 73 195q0 132 -92 207q-69 55 -202 55h-105v-531z
M642 904h56q-4 -85 -61 -131t-156 -46t-155.5 46.5t-61.5 130.5h57q37 -73 160 -73q124 0 161 73z" />
    <glyph glyph-name="Adotaccent" horiz-adv-x="863" 
d="M390 673h66l264 -482q37 -73 70 -96t103 -27v-68h-462v68q76 2 100 19q25 17 25 39q0 19 -10 41l-11 24h-317l-14 -29q-9 -22 -9 -39q0 -25 30 -39q23 -10 98 -16v-68h-353v68q53 2 85 23t60 73zM499 258l-123 226l-122 -226h245zM419 881q30 0 52 -22t22 -53t-22 -53
t-53 -22t-53 22t-22 54q0 31 22 52.5t54 21.5z" />
    <glyph glyph-name="Fdotaccent" horiz-adv-x="828" 
d="M795 667v-259h-75q-9 89 -44 133q-47 58 -146 58h-188v-219h70q53 0 76 12t34 47q8 27 8 64h69v-317h-69v19q0 43 -20 71q-22 33 -100 33h-68v-104q0 -46 6 -67.5t23 -38.5q32 -30 81 -30h22v-69h-424v69h23q107 0 107 117v276q0 77 -26 106q-28 30 -81 30h-23v69h745z
M415 881q30 0 52 -22t22 -53t-22 -53t-53 -22t-53 22t-22 54q0 31 22 52.5t54 21.5z" />
    <glyph glyph-name="ahungarumlaut" horiz-adv-x="713" 
d="M639 193h61v-88q0 -57 -27 -84q-36 -38 -107 -38q-103 0 -138 94q-40 -38 -71 -55q-67 -39 -147 -39q-70 0 -120 43t-50 104q0 55 34 89t109 53q42 11 154 28q86 13 86 61q0 31 -31 50.5t-78 19.5q-58 0 -117 -28q20 -23 20 -47q0 -25 -19.5 -41.5t-48.5 -16.5
q-31 0 -51 19t-20 48q0 57 64.5 90t176.5 33q133 0 193 -44q31 -22 43 -54.5t12 -94.5v-133q1 -70 6 -83q7 -18 27 -18q39 0 39 67v65zM421 265q-50 -25 -98 -37q-65 -16 -84 -30q-31 -22 -31 -57q0 -28 21 -46t53 -18q30 0 60.5 13.5t49.5 34.5q31 36 31 95q0 11 -2 45z
M254 557h-85l43 126h142zM474 557h-85l43 126h142z" />
    <glyph glyph-name="adotaccent" horiz-adv-x="713" 
d="M639 193h61v-88q0 -57 -27 -84q-36 -38 -107 -38q-103 0 -138 94q-40 -38 -71 -55q-67 -39 -147 -39q-70 0 -120 43t-50 104q0 55 34 89t109 53q42 11 154 28q86 13 86 61q0 31 -31 50.5t-78 19.5q-58 0 -117 -28q20 -23 20 -47q0 -25 -19.5 -41.5t-48.5 -16.5
q-31 0 -51 19t-20 48q0 57 64.5 90t176.5 33q133 0 193 -44q31 -22 43 -54.5t12 -94.5v-133q1 -70 6 -83q7 -18 27 -18q39 0 39 67v65zM421 265q-50 -25 -98 -37q-65 -16 -84 -30q-31 -22 -31 -57q0 -28 21 -46t53 -18q30 0 60.5 13.5t49.5 34.5q31 36 31 95q0 11 -2 45z
M331 705q33 0 56.5 -24t23.5 -57q0 -34 -23.5 -57.5t-57.5 -23.5t-57.5 24t-23.5 58q0 33 24 56.5t58 23.5z" />
    <glyph glyph-name="one.numerator" horiz-adv-x="303" 
d="M186 653v-192q0 -20 7 -28t25 -8h24v-32h-179v32h21q18 0 24.5 8t6.5 28v97q0 21 -6.5 28.5t-24.5 7.5h-24v32q68 0 79 27h47z" />
    <glyph glyph-name="two.numerator" horiz-adv-x="303" 
d="M260 481v-87h-218q1 46 20.5 70t82.5 57q42 23 42 56q0 20 -16 34t-38 14q-26 0 -42 -19q29 -8 29 -34q0 -14 -10 -23.5t-25 -9.5q-18 0 -29 11.5t-11 29.5q0 35 31 58.5t77 23.5q47 0 77.5 -24.5t30.5 -62.5q0 -35 -21.5 -55t-77.5 -36q-36 -12 -49.5 -19.5t-20.5 -20.5
h105q27 0 27 29v8h36z" />
    <glyph glyph-name="three.numerator" horiz-adv-x="303" 
d="M104 510v32q37 0 50 4q30 8 30 38q0 18 -14 30.5t-36 12.5q-19 0 -38 -11q13 -10 13 -25q0 -13 -9.5 -22t-23.5 -9q-15 0 -25 10t-10 26q0 28 31 47t77 19q47 0 78.5 -21t31.5 -53q0 -43 -50 -58q62 -21 62 -69q0 -34 -32.5 -55t-86.5 -21q-52 0 -85.5 19.5t-33.5 49.5
q0 16 10.5 26.5t26.5 10.5q15 0 26 -10.5t11 -24.5t-14 -25q21 -12 45 -12q23 0 39.5 13.5t16.5 32.5q0 43 -69 45h-21z" />
    <glyph glyph-name="four.numerator" horiz-adv-x="303" 
d="M219 653v-158h55v-32h-55v-2q0 -21 6.5 -28.5t24.5 -7.5h24v-32h-177v32h23q17 0 24 8t7 28v2h-122v28l149 162h41zM151 495v77l-71 -77h71z" />
    <glyph glyph-name="five.numerator" horiz-adv-x="303" 
d="M244 653v-50h-152v-48q30 17 67 17q49 0 79 -25t30 -66q0 -42 -34 -69t-87 -27q-46 0 -79 21.5t-33 50.5q0 16 10.5 26.5t25.5 10.5q16 0 26.5 -10.5t10.5 -24.5q0 -18 -14 -26q16 -12 39 -12q26 0 43 17.5t17 43.5q0 23 -16 38.5t-41 15.5q-24 0 -45 -22h-35v139h188z
" />
    <glyph glyph-name="six.numerator" horiz-adv-x="303" 
d="M106 554q28 19 65 19q43 0 73.5 -26.5t30.5 -63.5q0 -42 -33.5 -69.5t-84.5 -27.5q-60 0 -95 36t-35 97q0 63 39.5 103t102.5 40q42 0 70 -17t28 -43q0 -14 -9.5 -23t-24.5 -9q-14 0 -23.5 8.5t-9.5 20.5q0 9 6 16q-18 14 -38 14q-28 0 -45.5 -17.5t-17.5 -44.5
q0 -8 1 -13zM151 539q-21 0 -34 -16.5t-13 -42.5q0 -28 13 -44.5t35 -16.5q20 0 33 16t13 42q0 29 -12.5 45.5t-34.5 16.5z" />
    <glyph glyph-name="seven.numerator" horiz-adv-x="303" 
d="M261 653v-39q-33 -26 -52.5 -63t-19.5 -73q0 -15 1 -24q2 -20 2 -24q0 -20 -11.5 -32.5t-30.5 -12.5q-43 0 -43 50q0 35 20.5 70t76.5 96h-85q-24 0 -31 -5.5t-8 -26.5l-1 -11h-36v95h218z" />
    <glyph glyph-name="eight.numerator" horiz-adv-x="303" 
d="M214 528q60 -23 60 -66q0 -35 -33.5 -55.5t-90.5 -20.5t-89.5 20.5t-32.5 56.5q0 42 58 65q-50 17 -50 61q0 32 31.5 52.5t81.5 20.5q52 0 84 -20.5t32 -53.5q0 -41 -51 -60zM151 511q-21 0 -35 -13t-14 -33q0 -19 14 -32.5t34 -13.5t34 13t14 32q0 20 -13.5 33.5
t-33.5 13.5zM151 629q-18 0 -31 -13t-13 -31q0 -19 13 -31.5t31 -12.5t30.5 12.5t12.5 30.5t-13 31.5t-30 13.5z" />
    <glyph glyph-name="nine.numerator" horiz-adv-x="303" 
d="M196 492q-28 -19 -66 -19q-42 0 -72.5 27t-30.5 64q0 43 33.5 70.5t84.5 27.5q60 0 95 -36t35 -98q0 -64 -39.5 -103.5t-102.5 -39.5q-42 0 -70 17t-28 42q0 14 9.5 23t24.5 9q14 0 23.5 -8.5t9.5 -20.5q0 -8 -6 -16q19 -13 38 -13q28 0 45.5 17.5t17.5 43.5q0 8 -1 13z
M150 629q-20 0 -33 -16.5t-13 -42.5q0 -29 12.5 -46t34.5 -17q21 0 34 17t13 44q0 28 -13 44.5t-35 16.5z" />
    <glyph glyph-name="zero.numerator" horiz-adv-x="303" 
d="M151 662q64 0 99.5 -36.5t35.5 -103.5q0 -63 -35.5 -99.5t-97.5 -36.5q-64 0 -99.5 36t-35.5 102t34.5 102t98.5 36zM153 632q-59 0 -59 -105q0 -108 57 -108q59 0 59 105q0 108 -57 108z" />
    <glyph glyph-name="one.denominator" horiz-adv-x="368" 
d="M227 254v-187q0 -19 8 -26.5t29 -7.5h29v-33h-215v33h26q22 0 29.5 7t7.5 27v93q0 20 -7.5 27t-29.5 7h-29v33q82 1 96 27h56z" />
    <glyph glyph-name="two.denominator" horiz-adv-x="368" 
d="M315 87v-87h-263q2 47 25 70.5t100 54.5q49 23 49 52q0 19 -19 33t-45 14q-29 0 -48 -16q33 -9 33 -34q0 -14 -12.5 -23.5t-30.5 -9.5q-22 0 -35 11t-13 30q0 34 37.5 57t92.5 23q57 0 94 -23.5t37 -60.5q0 -35 -25.5 -54.5t-94.5 -36.5q-68 -17 -82 -36h123q32 0 32 29
v7h45z" />
    <glyph glyph-name="three.denominator" horiz-adv-x="368" 
d="M125 113v33q45 0 61 4q36 8 36 36q0 17 -17.5 28.5t-42.5 11.5q-24 0 -44 -10q14 -11 14 -24t-12 -22t-29 -9q-18 0 -30 10.5t-12 25.5q0 28 37 46.5t92 18.5q58 0 96 -20.5t38 -51.5q0 -37 -55 -57q68 -22 68 -65q0 -35 -39 -55.5t-103 -20.5q-62 0 -102 19t-40 49
q0 16 13 26.5t32 10.5q18 0 31 -10.5t13 -24.5q0 -12 -15 -24q24 -11 50 -11q28 0 47 12.5t19 30.5q0 43 -81 43h-25z" />
    <glyph glyph-name="four.denominator" horiz-adv-x="368" 
d="M265 254v-153h66v-33h-66q0 -21 7.5 -28t29.5 -7h29v-33h-213v33h28q22 0 29.5 7t7.5 28h-146v28l179 158h49zM183 101v72l-83 -72h83z" />
    <glyph glyph-name="five.denominator" horiz-adv-x="368" 
d="M295 254v-51h-182v-44q35 16 80 16q59 0 95 -24.5t36 -64.5q0 -41 -40.5 -67.5t-104.5 -26.5q-56 0 -95.5 21t-39.5 50q0 16 12.5 26.5t31.5 10.5t32 -10.5t13 -25.5q0 -12 -16 -24q14 -11 46 -11q29 0 49.5 17t20.5 41q0 22 -19.5 36.5t-48.5 14.5q-30 0 -54 -21h-42
v137h226z" />
    <glyph glyph-name="six.denominator" horiz-adv-x="368" 
d="M130 158q33 16 71 16q54 0 92.5 -25.5t38.5 -60.5q0 -43 -40 -69.5t-103 -26.5q-71 0 -112.5 35.5t-41.5 95.5q0 61 47.5 100t121.5 39q51 0 84.5 -17t33.5 -42q0 -14 -11.5 -23t-29.5 -9q-17 0 -28.5 8.5t-11.5 20.5q0 7 7 15q-21 13 -45 13q-32 0 -53 -17t-21 -43
q0 -6 1 -10zM183 141q-25 0 -40 -15.5t-15 -41.5t15.5 -42t40.5 -16t40 15.5t15 40.5q0 27 -15 43t-41 16z" />
    <glyph glyph-name="seven.denominator" horiz-adv-x="368" 
d="M314 254v-40q-40 -26 -63 -61t-23 -69q0 -6 2 -24q2 -20 2 -23q0 -20 -14 -32.5t-37 -12.5q-52 0 -52 50q0 34 24 67t90 92h-99q-28 0 -36 -5t-10 -25l-1 -11h-44v94h261z" />
    <glyph glyph-name="eight.denominator" horiz-adv-x="368" 
d="M263 131q68 -21 68 -63q0 -35 -40 -55.5t-109 -20.5q-68 0 -107 20.5t-39 56.5q0 40 67 62q-58 16 -58 59q0 32 37.5 52t98.5 20q63 0 101 -20t38 -53q0 -40 -57 -58zM185 114q-25 0 -42 -12.5t-17 -31.5t16.5 -31.5t40.5 -12.5q23 0 40 12.5t17 30.5q0 19 -16 32t-39 13
zM183 227q-21 0 -36.5 -12t-15.5 -29t15.5 -29t37.5 -12q21 0 36 12t15 28q0 17 -15.5 29.5t-36.5 12.5z" />
    <glyph glyph-name="nine.denominator" horiz-adv-x="368" 
d="M238 86v10q-35 -16 -71 -16q-53 0 -92.5 25.5t-39.5 59.5q0 43 40 70t104 27q71 0 112.5 -35.5t41.5 -95.5q0 -61 -47.5 -100t-122.5 -39q-51 0 -84.5 17t-33.5 42q0 14 11.5 23t29.5 9q17 0 28.5 -8.5t11.5 -21.5q0 -8 -6 -14q20 -13 44 -13q32 0 53 17t21 43zM183 228
q-24 0 -39.5 -15.5t-15.5 -39.5q0 -27 15 -43t41 -16q25 0 40.5 16t15.5 41t-16 41t-41 16z" />
    <glyph glyph-name="zero.denominator" horiz-adv-x="368" 
d="M182 262q77 0 119.5 -36t42.5 -101q0 -61 -42.5 -97t-116.5 -36q-77 0 -119.5 35.5t-42.5 100.5q0 64 41.5 99t117.5 35zM184 230q-69 0 -69 -100q0 -104 68 -104q69 0 69 101q0 103 -68 103z" />
    <glyph glyph-name="oneone" horiz-adv-x="961" 
d="M267 647v-280q0 -30 10 -41.5t35 -11.5h34v-47h-256v47h30q26 0 35.5 11t9.5 42v140q0 31 -9.5 42t-35.5 11h-34v47q53 0 79 9t35 31h67zM251 -33l-42 28l490 672l43 -28zM795 380v-280q0 -30 10 -41.5t35 -11.5h34v-47h-256v47h30q26 0 35.5 11t9.5 42v140q0 31 -9.5 42
t-35.5 11h-34v47q53 0 79 9t35 31h67z" />
    <glyph glyph-name="onefifth" horiz-adv-x="961" 
d="M267 647v-280q0 -30 10 -41.5t35 -11.5h34v-47h-256v47h30q26 0 35.5 11t9.5 42v140q0 31 -9.5 42t-35.5 11h-34v47q53 0 79 9t35 31h67zM251 -33l-42 28l490 672l43 -28zM876 380v-73h-218v-70q41 24 97 24q70 0 113 -36.5t43 -95.5q0 -62 -48.5 -101.5t-125.5 -39.5
q-65 0 -112.5 31.5t-47.5 74.5q0 23 15 38.5t37 15.5t37 -15t15 -37q0 -24 -21 -37q22 -18 56 -18q37 0 62 25t25 63q0 35 -23 57t-59 22q-35 0 -65 -31h-49v203h269z" />
    <glyph glyph-name="twofifth" horiz-adv-x="961" 
d="M372 395v-129h-313q4 71 31 105t118 81q59 33 59 81q0 29 -22.5 50t-54.5 21q-36 0 -60 -26q42 -14 42 -50q0 -20 -15 -34.5t-36 -14.5q-26 0 -41.5 16.5t-15.5 43.5q0 51 45 85.5t110 34.5q68 0 111.5 -36t43.5 -91q0 -63 -52 -97q-23 -16 -90 -36q-52 -17 -71.5 -28.5
t-28.5 -30.5h149q21 0 30 10.5t9 35.5v9h52zM251 -33l-41 28l489 672l43 -28zM877 380v-73h-219v-70q41 24 97 24q70 0 113.5 -36.5t43.5 -95.5q0 -62 -48.5 -101.5t-125.5 -39.5q-66 0 -113.5 31.5t-47.5 74.5q0 23 15 38.5t37 15.5t37.5 -15t15.5 -37q0 -24 -22 -37
q22 -18 57 -18q37 0 62 25.5t25 62.5q0 34 -23.5 56.5t-58.5 22.5q-36 0 -66 -31h-49v203h270z" />
    <glyph glyph-name="threefifth" horiz-adv-x="961" 
d="M148 438v47q54 0 71 5q44 13 44 56q0 27 -20.5 45t-51.5 18q-29 0 -54 -17q18 -15 18 -36q0 -19 -14 -32t-34 -13q-22 0 -36 14.5t-14 37.5q0 40 44.5 68t109.5 28q68 0 113.5 -30.5t45.5 -76.5q0 -29 -19.5 -52t-52.5 -33q88 -31 88 -101q0 -50 -46.5 -80.5
t-123.5 -30.5q-74 0 -121.5 28.5t-47.5 73.5q0 23 15.5 38.5t37.5 15.5t37.5 -15t15.5 -36q0 -24 -21 -37q29 -19 63 -19t57 19.5t23 48.5q0 32 -29 51q-22 15 -68 15h-30zM251 -33l-41 28l489 672l43 -28zM877 380v-73h-218v-70q41 24 97 24q70 0 113 -36.5t43 -95.5
q0 -62 -48.5 -101.5t-125.5 -39.5q-65 0 -112.5 31.5t-47.5 74.5q0 23 15 38.5t37 15.5t37 -15t15 -37q0 -24 -21 -37q22 -18 56 -18q37 0 62 25t25 63q0 35 -23 57t-59 22q-35 0 -65 -31h-49v203h269z" />
    <glyph glyph-name="fourfifth" horiz-adv-x="961" 
d="M312 647v-231h80v-46h-80v-3q0 -31 9.5 -42t35.5 -11h35v-47h-254v47h33q25 0 34.5 11t9.5 42v3h-174v40l213 237h58zM215 416v113l-102 -113h102zM251 -33l-41 28l489 672l43 -28zM877 380v-73h-219v-70q41 24 97 24q70 0 113.5 -36.5t43.5 -95.5q0 -62 -48.5 -101.5
t-125.5 -39.5q-66 0 -113.5 31.5t-47.5 74.5q0 23 15 38.5t37 15.5t37.5 -15t15.5 -37q0 -24 -22 -37q22 -18 57 -18q37 0 62 25.5t25 62.5q0 34 -23.5 56.5t-58.5 22.5q-36 0 -66 -31h-49v203h270z" />
    <glyph glyph-name="onesixth" horiz-adv-x="961" 
d="M267 647v-280q0 -30 10 -41.5t35 -11.5h34v-47h-256v47h30q26 0 35.5 11t9.5 42v140q0 31 -9.5 42t-35.5 11h-34v47q53 0 79 9t35 31h67zM251 -33l-42 28l490 672l43 -28zM679 235q42 27 94 27q62 0 105 -39t43 -94q0 -61 -47.5 -101t-120.5 -40q-86 0 -136 52t-50 143
q0 92 56.5 150.5t145.5 58.5q59 0 99.5 -25t40.5 -62q0 -21 -13 -34t-35 -13q-20 0 -33.5 12.5t-13.5 30.5q0 11 8 23q-23 19 -54 19q-39 0 -64.5 -25.5t-25.5 -64.5q0 -11 1 -18zM744 212q-30 0 -48.5 -24.5t-18.5 -62.5q0 -40 18.5 -64.5t49.5 -24.5q29 0 47.5 23.5
t18.5 61.5q0 41 -18 66t-49 25z" />
    <glyph glyph-name="fivesixth" horiz-adv-x="961" 
d="M349 647v-73h-218v-71q42 25 97 25q69 0 112.5 -37t43.5 -95q0 -62 -48.5 -101.5t-125.5 -39.5q-65 0 -112.5 31.5t-47.5 74.5q0 23 15 38.5t37 15.5t37 -15t15 -37q0 -24 -21 -37q24 -18 56 -18q37 0 62 25.5t25 63.5q0 34 -23 56t-59 22q-35 0 -65 -31h-49v203h269z
M252 -33l-42 28l489 672l44 -28zM680 235q42 27 94 27q62 0 105 -39t43 -94q0 -61 -47.5 -101t-120.5 -40q-86 0 -136 52t-50 143q0 92 56.5 150.5t145.5 58.5q59 0 99.5 -25t40.5 -62q0 -21 -13 -34t-35 -13q-20 0 -33.5 12.5t-13.5 30.5q0 11 8 23q-23 19 -55 19
q-38 0 -63.5 -25.5t-25.5 -64.5q0 -11 1 -18zM745 212q-30 0 -48.5 -24.5t-18.5 -62.5q0 -40 18.5 -64.5t49.5 -24.5q29 0 47.5 23.5t18.5 61.5q0 41 -18 66t-49 25z" />
    <glyph glyph-name="Dotaccent" 
d="M251 881q30 0 52 -22t22 -53t-22 -53t-53 -22t-53 22t-22 54q0 31 22 52.5t54 21.5z" />
    <glyph glyph-name="Ring" 
d="M251 924q44 0 75.5 -32t31.5 -76q0 -45 -32 -77t-76 -32q-46 0 -77.5 32t-31.5 77t32 76.5t78 31.5zM250 857q-17 0 -29.5 -12t-12.5 -29t12.5 -29.5t29.5 -12.5t29 12.5t12 29.5q0 16 -12.5 28.5t-28.5 12.5z" />
    <glyph glyph-name="Circumflex" 
d="M454 824l-36 -98l-179 57l-164 -57l-30 81l205 81z" />
    <glyph glyph-name="Breve" 
d="M411 904h56q-4 -85 -61 -131t-156 -46t-155.5 46.5t-61.5 130.5h57q36 -73 160 -73t161 73z" />
    <glyph glyph-name="Tilde" 
d="M437 880l60 -19q-25 -52 -36 -69q-43 -65 -110 -65q-21 0 -36.5 4t-83.5 26q-67 21 -107 21q-25 0 -37.5 -9.5t-19.5 -33.5l-65 18q22 55 40 78q18 25 47.5 39.5t61.5 14.5q48 0 162 -36q38 -13 58 -13q45 0 66 44z" />
    <glyph glyph-name="Cedilla" 
d="M285 0l-20 -71q48 -5 70 -20t22 -44q0 -30 -28 -49t-72 -19q-90 0 -113 65h62q4 -23 29 -23q14 0 23 7.5t9 19.5q0 15 -11 24t-29 9q-11 0 -18 -1h-10l26 102h60z" />
    <glyph glyph-name="Ogonek" 
d="M286 0h81q-79 -36 -79 -92q0 -16 12.5 -26t32.5 -10q31 0 62 29l24 -24q-54 -57 -116 -57q-40 0 -64.5 18.5t-24.5 49.5q0 56 72 112z" />
    <glyph glyph-name="commaaccent.sc" 
d="M225 -281l-34 33q51 43 57 88q-18 -2 -19 -2q-27 0 -44.5 16.5t-17.5 41.5q0 29 21.5 48t54.5 19q37 0 61 -22.5t24 -57.5q0 -81 -103 -164z" />
    <glyph glyph-name="Comma.high" horiz-adv-x="205" 
d="M44 375l-38 43q57 56 64 116q-15 -3 -21 -3q-30 0 -49.5 21.5t-19.5 53.5q0 38 24 62.5t61 24.5q40 0 67 -30t27 -75q0 -105 -115 -213z" />
    <glyph glyph-name="Dieresis.alt" 
d="M355 856q26 0 45 -19.5t19 -45.5q0 -27 -19 -46t-46 -19t-46 19t-19 45q0 28 19 47t47 19zM149 856q25 0 44 -19.5t19 -45.5q0 -27 -19 -46t-46 -19t-46 19t-19 45q0 28 19.5 47t47.5 19z" />
    <glyph glyph-name="comma.high" horiz-adv-x="205" 
d="M44 375l-38 43q57 56 64 116q-15 -3 -21 -3q-30 0 -49.5 21.5t-19.5 53.5q0 38 24 62.5t61 24.5q40 0 67 -30t27 -75q0 -105 -115 -213z" />
    <glyph glyph-name="dieresis.alt" 
d="M355 667q26 0 45 -19.5t19 -45.5q0 -27 -19 -46t-46 -19t-46 19t-19 45q0 28 19 47t47 19zM149 667q25 0 44 -19.5t19 -45.5q0 -27 -19 -46t-46 -19t-46 19t-19 45q0 28 19.5 47t47.5 19z" />
    <glyph glyph-name="zerozero.afrac" horiz-adv-x="376" 
d="M376 348v-48h-376v48h376zM187 662q64 0 99.5 -36.5t35.5 -103.5q0 -63 -35.5 -99.5t-97.5 -36.5q-64 0 -99.5 36t-35.5 102t34.5 102t98.5 36zM189 632q-59 0 -59 -105q0 -108 57 -108q59 0 59 105q0 108 -57 108zM187 262q77 0 119.5 -36t42.5 -101q0 -61 -42.5 -97
t-116.5 -36q-77 0 -119.5 35.5t-42.5 100.5q0 64 41.5 99t117.5 35zM189 230q-69 0 -69 -100q0 -104 68 -104q69 0 69 101q0 103 -68 103z" />
    </font>
</defs>
</svg>
