<?xml version="1.0" standalone="no"?>
<!DOCTYPE svg PUBLIC "-//W3C//DTD SVG 1.1//EN" "http://www.w3.org/Graphics/SVG/1.1/DTD/svg11.dtd" >
<svg>
<metadata>
Created by FontForge 20110222 at Thu Jan 29 13:44:48 2015
 By deploy user
Copyright 2010 URW++ Design &#38; Development Hamburg
</metadata>
<defs>
<font id="Volta-Reg" horiz-adv-x="500" >
  <font-face 
    font-family="Volta"
    font-weight="400"
    font-stretch="normal"
    units-per-em="1000"
    panose-1="0 0 5 0 0 0 0 0 0 0"
    ascent="667"
    descent="-333"
    x-height="457"
    cap-height="667"
    bbox="-196 -262 1296 917"
    underline-thickness="57"
    underline-position="-42"
    unicode-range="U+0020-FB04"
  />
<missing-glyph horiz-adv-x="300" 
 />
    <glyph glyph-name="ff" unicode="ff" horiz-adv-x="743" 
d="M135 409h-107v48h107v40q0 83 46 133.5t121 50.5q55 0 92 -28t37 -70q0 -28 -16 -45.5t-42 -17.5q-23 0 -38.5 15t-15.5 38q0 37 30 47q-18 19 -44 19q-40 0 -63.5 -35t-23.5 -96v-51h120v-48h-120v-237q0 -49 3 -67.5t14 -31.5q22 -25 82 -25h21v-48h-310v48h14
q58 0 75.5 22.5t17.5 98.5v240zM482 409h-106v48h106v40q0 83 46 133.5t121 50.5q56 0 93 -28t37 -70q0 -28 -16 -45.5t-42 -17.5q-24 0 -39.5 15t-15.5 38q0 36 31 47q-18 19 -45 19q-40 0 -63.5 -35t-23.5 -96v-51h121v-48h-121v-237q0 -49 3 -67.5t14 -31.5
q22 -25 83 -25h21v-48h-310v48h13q58 0 75.5 22.5t17.5 98.5v240z" />
    <glyph glyph-name="fi" unicode="fi" horiz-adv-x="685" 
d="M135 409h-107v48h107v40q0 83 62.5 133.5t165.5 50.5q87 0 144 -32.5t57 -81.5q0 -26 -16.5 -43.5t-41.5 -17.5q-23 0 -38.5 15.5t-15.5 38.5q0 36 31 46q-49 33 -118 33q-70 0 -108.5 -34.5t-38.5 -96.5v-51h120v-48h-120v-237q0 -49 3 -67.5t14 -31.5q22 -25 82 -25h21
v-48h-310v48h14q58 0 75.5 22.5t17.5 98.5v240zM562 457v-309q0 -62 18.5 -81t76.5 -19v-48h-279v48h10q56 0 74.5 20t18.5 78v166q0 58 -18.5 78t-74.5 20h-10v47h184z" />
    <glyph glyph-name="fl" unicode="fl" horiz-adv-x="676" 
d="M553 667v-519q0 -62 18.5 -81t77.5 -19v-48h-280v48h10q56 0 74.5 20t18.5 78v375q0 36 -7 54.5t-27 34.5q-38 30 -90 30q-67 0 -105 -46q-25 -29 -25 -86v-51h120v-48h-120v-237q0 -49 3 -67.5t14 -31.5q22 -25 82 -25h21v-48h-310v48h14q58 0 75.5 22.5t17.5 98.5v240
h-107v48h107v40q0 86 60.5 138t161.5 52q71 0 126 -20h70z" />
    <glyph glyph-name="ffi" unicode="ffi" horiz-adv-x="1033" 
d="M135 409h-107v48h107v40q0 83 46 133.5t121 50.5q55 0 92 -28t37 -70q0 -28 -16 -45.5t-42 -17.5q-23 0 -38.5 15t-15.5 38q0 37 30 47q-18 19 -44 19q-40 0 -63.5 -35t-23.5 -96v-51h120v-48h-120v-237q0 -49 3 -67.5t14 -31.5q22 -25 82 -25h21v-48h-310v48h14
q58 0 75.5 22.5t17.5 98.5v240zM483 409h-107v48h107v40q0 83 62.5 133.5t165.5 50.5q87 0 144 -32.5t57 -81.5q0 -26 -16.5 -43.5t-41.5 -17.5q-23 0 -38.5 15.5t-15.5 38.5q0 36 31 46q-49 33 -118 33q-70 0 -108.5 -34.5t-38.5 -96.5v-51h120v-48h-120v-237
q0 -49 3 -67.5t14 -31.5q22 -25 82 -25h21v-48h-310v48h14q58 0 75.5 22.5t17.5 98.5v240zM910 457v-309q0 -62 18.5 -81t76.5 -19v-48h-279v48h10q56 0 74.5 20t18.5 78v166q0 58 -18.5 78t-74.5 20h-10v47h184z" />
    <glyph glyph-name="ffl" unicode="ffl" horiz-adv-x="1024" 
d="M135 409h-107v48h107v40q0 83 46 133.5t121 50.5q55 0 92 -28t37 -70q0 -28 -16 -45.5t-42 -17.5q-23 0 -38.5 15t-15.5 38q0 37 30 47q-18 19 -44 19q-40 0 -63.5 -35t-23.5 -96v-51h120v-48h-120v-237q0 -49 3 -67.5t14 -31.5q22 -25 82 -25h21v-48h-310v48h14
q58 0 75.5 22.5t17.5 98.5v240zM901 667v-519q0 -62 18.5 -81t77.5 -19v-48h-280v48h10q56 0 74.5 20t18.5 78v375q0 36 -7 54.5t-27 34.5q-38 30 -90 30q-67 0 -105 -46q-25 -29 -25 -86v-51h120v-48h-120v-237q0 -49 3 -67.5t14 -31.5q22 -25 82 -25h21v-48h-310v48h14
q58 0 75.5 22.5t17.5 98.5v240h-107v48h107v40q0 86 60.5 138t161.5 52q71 0 126 -20h70z" />
    <glyph glyph-name=".notdef" horiz-adv-x="300" 
 />
    <glyph glyph-name=".null" horiz-adv-x="0" 
 />
    <glyph glyph-name="nonmarkingreturn" horiz-adv-x="333" 
 />
    <glyph glyph-name="space" unicode=" " horiz-adv-x="300" 
 />
    <glyph glyph-name="exclam" unicode="!" horiz-adv-x="378" 
d="M167 157v15q0 79 -33 330q-4 24 -4 47q0 34 16.5 54.5t43.5 20.5t44 -20.5t17 -52.5q0 -22 -16 -123q-8 -51 -19 -145t-11 -112v-14h-38zM184 105q24 0 40.5 -16.5t16.5 -40.5q0 -23 -17 -40t-41 -17q-23 0 -39.5 16.5t-16.5 40.5q0 25 16 41t41 16z" />
    <glyph glyph-name="quotedbl" unicode="&#x22;" horiz-adv-x="344" 
d="M126 400h-66l-14 267h95zM284 400h-66l-15 267h95z" />
    <glyph glyph-name="numbersign" unicode="#" horiz-adv-x="611" 
d="M393 229l-28 -195h-46l28 195h-115l-28 -195h-46l28 195h-122l6 44h122l15 110h-121l6 45h122l25 179h46l-25 -179h115l25 179h46l-25 -179h125l-6 -45h-126l-15 -110h126l-7 -44h-125zM369 383h-116l-15 -110h115z" />
    <glyph glyph-name="dollar" unicode="$" horiz-adv-x="695" 
d="M372 355l62 -6q88 -8 139.5 -54.5t51.5 -118.5q0 -62 -41 -108q-35 -39 -90.5 -63t-108.5 -24h-13v-82h-50v84q-64 18 -96 30q-56 22 -73 22q-34 0 -35 -35h-39v217h39q10 -73 64 -121t140 -61v222l-44 5q-112 11 -152 42q-56 41 -56 113q0 80 69.5 137.5t165.5 57.5h17
v77h50v-81q47 -11 87 -25q32 -10 50 -10q22 0 24 28h43v-191h-43q-3 51 -47 90.5t-114 54.5v-200zM322 560h-22q-55 0 -98 -34t-43 -77q0 -70 112 -84l51 -6v201zM372 255v-221q91 9 134 59q29 34 29 70q0 25 -14 44q-17 22 -39 31t-75 14z" />
    <glyph glyph-name="percent" unicode="%" horiz-adv-x="838" 
d="M191 615q73 0 118.5 -44t45.5 -114q0 -71 -45 -113.5t-120 -42.5q-74 0 -118.5 43.5t-44.5 115.5q0 67 46.5 111t117.5 44zM192 581q-41 0 -69 -34t-28 -85q0 -56 27 -91t70 -35q44 0 71.5 34.5t27.5 90.5q0 53 -28 86.5t-71 33.5zM672 604l-466 -630l-41 31l468 630z
M647 309q73 0 118.5 -44t45.5 -114q0 -71 -45 -113.5t-120 -42.5q-74 0 -118.5 43.5t-44.5 115.5q0 67 46.5 111t117.5 44zM648 275q-41 0 -69 -34t-28 -85q0 -56 27 -91t70 -35q44 0 71.5 34.5t27.5 90.5q0 53 -28 86.5t-71 33.5z" />
    <glyph glyph-name="ampersand" unicode="&#x26;" horiz-adv-x="813" 
d="M712 174h44q0 -106 -24 -144q-34 -49 -90 -49q-84 0 -163 67q-110 -67 -209 -67q-91 0 -152 50.5t-61 124.5q0 119 164 187q-23 45 -23 95q0 74 37 120.5t96 46.5q48 0 81.5 -33.5t33.5 -82.5q0 -45 -28 -79.5t-98 -75.5q67 -103 174 -195q65 81 65 120q0 20 -16 30
q-9 5 -65 6h-14v48h275v-48q-66 0 -87 -13q-12 -9 -25 -29q-3 -5 -39 -72q-26 -47 -48 -74q66 -49 108 -49q35 0 50 30q9 18 14 86zM294 382q49 28 69.5 53t20.5 57q0 25 -17 43.5t-40 18.5q-27 0 -47 -22t-20 -52q0 -53 34 -98zM426 85q-96 76 -172 194q-1 2 -4 6t-4 6
q-95 -48 -95 -124q0 -51 43 -85.5t107 -34.5q53 0 125 38z" />
    <glyph glyph-name="quotesingle" unicode="'" horiz-adv-x="189" 
d="M129 400h-68l-15 267h97z" />
    <glyph glyph-name="parenleft" unicode="(" horiz-adv-x="391" 
d="M325 677v-50q-60 -11 -106 -50q-44 -39 -60 -95q-19 -66 -19 -218q0 -125 16.5 -185.5t62.5 -101.5q39 -37 106 -55v-50q-89 6 -154 56q-55 41 -87 117q-30 73 -30 226q0 142 30 227t95 130q59 42 146 49z" />
    <glyph glyph-name="parenright" unicode=")" horiz-adv-x="391" 
d="M67 627v50q85 -7 146 -49q65 -45 95 -129.5t30 -226.5q0 -100 -12.5 -163t-42.5 -112q-34 -55 -90 -87.5t-126 -37.5v50q73 20 118 66q39 40 53 98.5t14 176.5q0 194 -35 258q-47 86 -150 106z" />
    <glyph glyph-name="asterisk" unicode="*" horiz-adv-x="605" 
d="M316 494l93 55q36 22 54 22q19 0 32.5 -14.5t13.5 -34.5t-13 -33q-14 -12 -62 -16l-109 -8l83 -68q39 -32 39 -58q0 -21 -13 -35t-32 -14q-20 0 -33 13t-26 44l-42 101l-42 -110q-21 -52 -56 -52q-19 0 -33 14.5t-14 34.5q0 30 33 57l88 73l-122 10q-31 2 -44.5 13.5
t-13.5 35.5q0 20 12.5 34t30.5 14t43 -15l103 -63l-28 118q-3 14 -3 25q0 21 14 35t34 14q21 0 33 -13t12 -34q0 -17 -4 -29z" />
    <glyph glyph-name="plus" unicode="+" 
d="M21 366h205v194h48v-194h205v-46h-205v-194h-48v194h-205v46z" />
    <glyph glyph-name="comma" unicode="," horiz-adv-x="295" 
d="M104 -126l-18 30q30 17 49.5 45.5t20.5 54.5q-11 -4 -17 -4q-22 0 -36.5 14t-14.5 36q0 24 16 39.5t41 15.5q28 0 45.5 -19.5t17.5 -51.5q0 -93 -104 -160z" />
    <glyph glyph-name="hyphen" unicode="-" horiz-adv-x="246" 
d="M246 267v-67h-246v67h246z" />
    <glyph glyph-name="period" unicode="." horiz-adv-x="295" 
d="M147 105q24 0 40.5 -16.5t16.5 -40.5q0 -23 -17 -40t-41 -17q-23 0 -39.5 16.5t-16.5 40.5q0 25 16 41t41 16z" />
    <glyph glyph-name="slash" unicode="/" horiz-adv-x="412" 
d="M368 667l-287 -785h-71l290 785h68z" />
    <glyph glyph-name="zero" unicode="0" horiz-adv-x="695" 
d="M350 624q136 0 223.5 -90.5t87.5 -231.5q0 -140 -88.5 -228t-227.5 -88q-135 0 -223 91.5t-88 231.5q0 136 96 230q87 85 220 85zM346 572q-86 0 -143.5 -75t-57.5 -188q0 -119 57.5 -195.5t146.5 -76.5q88 0 144.5 75t56.5 192t-57.5 192.5t-146.5 75.5z" />
    <glyph glyph-name="one" unicode="1" horiz-adv-x="695" 
d="M398 624v-453q0 -57 3 -74.5t13 -27.5q22 -21 79 -21h20v-48h-332v48h25q69 0 87 23q14 18 14 99v249q0 55 -20.5 73t-82.5 18h-9v52h10q59 0 93 14t57 48h43z" />
    <glyph glyph-name="two" unicode="2" horiz-adv-x="695" 
d="M580 175v-175h-481q10 103 51 150t167 103q111 50 141 88q31 41 31 87q0 61 -44.5 100.5t-114.5 39.5q-76 0 -119 -40q-25 -22 -32 -70q16 2 21 2q25 0 41 -15.5t16 -40.5q0 -28 -18 -45.5t-47 -17.5q-37 0 -60.5 28t-23.5 72q0 80 69 131.5t177 51.5q107 0 175.5 -55.5
t68.5 -141.5q0 -100 -86 -158q-40 -28 -157 -67q-95 -34 -129 -57t-47 -64h249q56 0 76 17q27 22 27 68v9h49z" />
    <glyph glyph-name="three" unicode="3" horiz-adv-x="695" 
d="M247 343h79q99 0 139 41q29 26 29 71q0 52 -46 85.5t-116 33.5q-98 0 -152 -57q48 -11 48 -55q0 -26 -17 -42.5t-43 -16.5q-27 0 -45.5 18.5t-18.5 46.5q0 64 71.5 110t172.5 46q99 0 175 -42q35 -20 57 -55t22 -72q0 -73 -67 -107q-29 -16 -88 -26q54 -12 84 -28
q41 -23 64 -58.5t23 -75.5q0 -75 -77.5 -124.5t-193.5 -49.5t-192.5 43.5t-76.5 109.5q0 30 18.5 49t48.5 19q28 0 45.5 -17.5t17.5 -44.5q0 -48 -48 -57q64 -50 153 -50q88 0 138.5 36.5t50.5 99.5q0 70 -57 99q-43 22 -139 22h-59v48z" />
    <glyph glyph-name="four" unicode="4" horiz-adv-x="695" 
d="M503 624v-390h117v-48h-117v-19q0 -84 28 -104q21 -15 67 -15h12v-48h-314v48h13q67 0 86 22t19 97v19h-338v55l384 383h43zM414 511l-273 -277h273v277z" />
    <glyph glyph-name="five" unicode="5" horiz-adv-x="695" 
d="M547 610v-81h-361v-163q74 56 179 56q107 0 174 -60t67 -155q0 -101 -73.5 -161t-196.5 -60q-105 0 -175.5 48.5t-70.5 121.5q0 31 19.5 50.5t49.5 19.5q29 0 47 -16.5t18 -43.5q0 -26 -16 -43t-43 -18q18 -28 48 -43q46 -23 101 -23q82 0 136 47.5t54 118.5
q0 67 -50 115.5t-120 48.5q-93 0 -142 -57h-54v298h409z" />
    <glyph glyph-name="six" unicode="6" horiz-adv-x="695" 
d="M166 309q87 114 215 114q104 0 183 -68q68 -59 68 -146q0 -98 -78 -160.5t-200 -62.5q-143 0 -218 87q-73 84 -73 212q0 148 91.5 243.5t232.5 95.5q90 0 153.5 -38t63.5 -91q0 -27 -18 -45.5t-44 -18.5t-43.5 17t-17.5 42q0 28 24 44q-52 40 -119 40q-79 0 -138.5 -54
t-76.5 -142q-5 -23 -5 -69zM359 361q-76 0 -129.5 -45.5t-53.5 -110.5q0 -70 51.5 -119t123.5 -49q74 0 127.5 50t53.5 118q0 66 -50 111t-123 45z" />
    <glyph glyph-name="seven" unicode="7" horiz-adv-x="695" 
d="M592 610v-55q-49 -54 -77.5 -95.5t-60.5 -103.5q-28 -56 -38.5 -107.5t-10.5 -135.5v-43q0 -84 -64 -84q-65 0 -65 80t61.5 203t171.5 262h-241q-64 0 -87 -19.5t-25 -74.5h-52v173h488z" />
    <glyph glyph-name="eight" unicode="8" horiz-adv-x="695" 
d="M247 315q-61 14 -94 33q-67 37 -67 107q0 76 69 122.5t182 46.5q121 0 198 -44q36 -21 58.5 -56.5t22.5 -72.5q0 -71 -67 -109q-29 -16 -82 -24q50 -10 80 -25q86 -45 86 -124q0 -77 -81 -130t-199 -53q-100 0 -184 38q-106 49 -106 144q0 38 20.5 70.5t57.5 50.5
q39 20 106 26zM343 573q-73 0 -117.5 -31t-44.5 -82q0 -58 43 -90t122 -32q83 0 124 29q49 35 49 84q0 55 -58 94q-42 28 -118 28zM347 285q-78 0 -128 -31.5t-50 -80.5q0 -56 52.5 -95t128.5 -39q77 0 128 36.5t51 91.5q0 52 -51 85t-131 33z" />
    <glyph glyph-name="nine" unicode="9" horiz-adv-x="695" 
d="M529 301q-87 -115 -215 -115q-104 0 -183 68q-68 60 -68 146q0 98 78 161t200 63q143 0 218 -87q73 -84 73 -212q0 -147 -91.5 -243t-232.5 -96q-90 0 -153.5 38t-63.5 91q0 27 18 45.5t44 18.5t43.5 -17t17.5 -42q0 -28 -24 -45q52 -39 119 -39q79 0 138.5 54t76.5 141
q5 30 5 70zM345 578q-76 0 -129 -50t-53 -121q0 -68 49.5 -113.5t123.5 -45.5q76 0 129.5 46t53.5 112q0 71 -51 121.5t-123 50.5z" />
    <glyph glyph-name="colon" unicode=":" horiz-adv-x="295" 
d="M147 105q24 0 40.5 -16.5t16.5 -40.5q0 -23 -17 -40t-41 -17q-23 0 -39.5 16.5t-16.5 40.5q0 25 16 41t41 16zM147 438q24 0 40.5 -16.5t16.5 -40.5q0 -23 -17 -40t-41 -17q-23 0 -39.5 16.5t-16.5 40.5q0 25 16 41t41 16z" />
    <glyph glyph-name="semicolon" unicode=";" horiz-adv-x="295" 
d="M104 -126l-18 30q30 17 49.5 45.5t20.5 54.5q-11 -4 -17 -4q-22 0 -36.5 14t-14.5 36q0 24 16 39.5t41 15.5q28 0 45.5 -19.5t17.5 -51.5q0 -93 -104 -160zM147 438q24 0 40.5 -16.5t16.5 -40.5q0 -23 -17 -40t-41 -17q-23 0 -39.5 16.5t-16.5 40.5q0 25 16 41t41 16z
" />
    <glyph glyph-name="less" unicode="&#x3c;" 
d="M466 581v-88l-339 -158l339 -158v-88l-433 208v76z" />
    <glyph glyph-name="equal" unicode="=" 
d="M21 437h458v-45h-458v45zM21 295h458v-45h-458v45z" />
    <glyph glyph-name="greater" unicode="&#x3e;" 
d="M34 89v89l339 158l-339 157v88l433 -208v-76z" />
    <glyph glyph-name="question" unicode="?" horiz-adv-x="644" 
d="M326 156h-53q-1 54 16.5 90t66.5 81q44 40 61.5 69t17.5 61q0 50 -38 81.5t-99 31.5q-88 0 -124 -51q33 -10 33 -53q0 -26 -15.5 -42.5t-39.5 -16.5q-28 0 -46.5 21.5t-18.5 54.5q0 59 65 100.5t159 41.5q78 0 146 -31q99 -46 99 -136q0 -45 -25.5 -81t-82.5 -71
q-78 -46 -98.5 -71.5t-23.5 -78.5zM303 105q24 0 40.5 -16.5t16.5 -40.5q0 -23 -17 -40t-41 -17q-23 0 -39.5 16.5t-16.5 40.5q0 25 16 41t41 16z" />
    <glyph glyph-name="at" unicode="@" horiz-adv-x="687" 
d="M609 167h38q-35 -78 -115.5 -126.5t-174.5 -48.5q-137 0 -233 96t-96 235q0 140 97.5 237.5t236.5 97.5q125 0 211.5 -79.5t86.5 -194.5q0 -114 -86 -186q-62 -51 -122 -51q-58 0 -68 54q-53 -53 -108 -53q-47 0 -76 33.5t-29 87.5q0 88 58.5 160t129.5 72q65 0 92 -61
l17 46h48l-80 -235q-9 -24 -9 -42q0 -33 38 -33q48 0 96 50q64 63 64 156q0 103 -75.5 173.5t-186.5 70.5q-126 0 -212 -87.5t-86 -215.5q0 -125 85 -211.5t208 -86.5q77 0 145.5 39t105.5 103zM396 287l23 63q12 34 12 53q0 28 -17.5 48t-42.5 20q-54 0 -101 -68t-47 -147
q0 -37 16.5 -58t44.5 -21q72 0 112 110z" />
    <glyph glyph-name="A" unicode="A" horiz-adv-x="894" 
d="M259 238l-45 -87q-13 -25 -15 -43q-2 -21 18 -37q20 -19 73 -19h34v-52h-343v52h29q64 0 101 47q39 50 71 109l246 459h38l267 -494q37 -68 63 -91q34 -30 86 -30h31v-52h-386v52h33q90 0 90 49q0 19 -13 45l-48 92h-330zM285 286h278l-139 271z" />
    <glyph glyph-name="B" unicode="B" horiz-adv-x="788" 
d="M34 667h409q118 0 169 -18q51 -19 82.5 -60t31.5 -89q0 -54 -41.5 -96t-112.5 -59q61 -12 93 -32q76 -50 76 -144q0 -76 -54.5 -122.5t-142.5 -46.5h-510v52h21q71 0 98 27q19 19 19 65v379q0 49 -23 68q-27 24 -94 24h-21v52zM270 371h158q91 0 141.5 31.5t50.5 87.5
q0 40 -27.5 74t-67.5 43q-32 8 -82 8h-173v-244zM270 52h145q112 0 151 17q31 14 49.5 45t18.5 69q0 64 -46.5 100t-128.5 36h-189v-267z" />
    <glyph glyph-name="C" unicode="C" horiz-adv-x="775" 
d="M680 672h48v-246h-45q-12 76 -46 119q-34 40 -91 63.5t-120 23.5q-128 0 -205 -93q-73 -90 -73 -201q0 -119 80.5 -204.5t192.5 -85.5q110 0 190 75q35 31 63 91h64q-20 -72 -66 -120q-107 -113 -267 -113t-262.5 100t-102.5 255q0 153 100.5 251t257.5 98q74 0 197 -42
q24 -9 41 -9q38 0 44 38z" />
    <glyph glyph-name="D" unicode="D" horiz-adv-x="855" 
d="M34 0v52h21q71 0 98 27q19 19 19 65v379q0 49 -23 69q-28 23 -94 23h-21v52h414q91 0 156 -24.5t117 -78.5q93 -96 93 -231q0 -139 -101 -238q-96 -95 -238 -95h-441zM270 52h108q151 0 233 69q90 78 90 211q0 121 -77 200q-83 83 -250 83h-104v-563z" />
    <glyph glyph-name="E" unicode="E" horiz-adv-x="775" 
d="M269 52h219q73 0 100 19q31 22 45 61.5t22 122.5h47v-255h-668v52h21q71 0 98 27q19 19 19 65v378q0 50 -23 69q-27 24 -94 24h-21v52h668v-232h-47q-5 57 -13 86.5t-26 51.5q-36 42 -126 42h-221v-246h105q58 0 81 45q14 30 15 97h48v-345h-48q-1 88 -21.5 120.5
t-74.5 32.5h-105v-267z" />
    <glyph glyph-name="F" unicode="F" horiz-adv-x="718" 
d="M265 319v-174q0 -30 4.5 -44t18.5 -25q27 -24 94 -24h21v-52h-373v52h21q71 0 98 27q19 20 19 66v377q0 50 -23 69q-27 24 -94 24h-21v52h657v-232h-48q1 55 -5.5 84.5t-23.5 51.5q-33 44 -124 44h-221v-246h105q47 0 69 34.5t27 112.5h48v-350h-48q-4 83 -25 117
q-21 36 -71 36h-105z" />
    <glyph glyph-name="G" unicode="G" horiz-adv-x="851" 
d="M669 0l-36 86q-37 -39 -70 -59q-81 -47 -178 -47q-145 0 -245 103t-100 253q0 152 98 250.5t249 98.5q81 0 179 -34q30 -9 43 -9q34 0 37 34h48v-249h-48q-4 54 -23 92q-29 53 -86 84.5t-124 31.5q-113 0 -187 -83t-74 -209q0 -125 78 -213t189 -88q67 0 125 44t58 95
q0 17 -10 33t-25 22q-23 11 -87 11h-15v48h369v-48h-12q-47 0 -64 -3.5t-33 -16.5q-28 -22 -28 -89v-138h-28z" />
    <glyph glyph-name="H" unicode="H" horiz-adv-x="962" 
d="M272 319v-175q0 -49 23 -69q28 -23 94 -23h21v-52h-376v52h21q71 0 98 27q19 19 19 65v378q0 49 -23 69q-28 23 -94 23h-21v53h376v-53h-21q-71 0 -98 -27q-19 -19 -19 -65v-153h416v153q0 49 -23 69q-28 23 -94 23h-21v53h377v-53h-21q-71 0 -98 -27q-19 -19 -19 -65
v-378q0 -49 23 -69q28 -23 94 -23h21v-52h-377v52h21q71 0 98 27q19 19 19 65v175h-416z" />
    <glyph glyph-name="I" unicode="I" horiz-adv-x="459" 
d="M418 52v-52h-376v52h21q71 0 98 27q19 19 19 65v378q0 49 -23 69q-28 23 -94 23h-21v53h376v-53h-21q-73 0 -98 -27q-19 -19 -19 -65v-378q0 -50 23 -69q28 -23 94 -23h21z" />
    <glyph glyph-name="J" unicode="J" horiz-adv-x="535" 
d="M378 522v-364q0 -101 -74 -145q-53 -32 -121 -32q-74 0 -121.5 37t-47.5 95q0 32 18 51.5t46 19.5q26 0 44.5 -17t18.5 -42q0 -36 -39 -56q27 -39 78 -39q99 0 99 141v351q0 49 -23 69q-28 23 -94 23h-21v53h375v-53h-21q-73 0 -98 -27q-19 -19 -19 -65z" />
    <glyph glyph-name="K" unicode="K" horiz-adv-x="917" 
d="M439 363l-166 -122v-97q0 -50 23 -69q28 -23 94 -23h21v-52h-377v52h21q71 0 98 27q19 19 19 65v378q0 49 -23 69q-28 23 -94 23h-21v53h377v-53h-21q-72 0 -98 -27q-19 -19 -19 -65v-217l319 226q49 34 49 53q0 30 -80 30h-19v53h330v-53h-15q-58 0 -124 -47l-217 -152
l211 -258q50 -61 82 -83t72 -22h12v-52h-351v52h19q80 0 80 33q0 16 -25 47z" />
    <glyph glyph-name="L" unicode="L" horiz-adv-x="700" 
d="M270 52h187q107 0 140 85q12 33 20 118h48v-255h-631v52h21q71 0 98 27q19 19 19 65v378q0 49 -23 69q-28 23 -94 23h-21v53h383v-53h-31q-72 0 -97 -27q-19 -19 -19 -65v-470z" />
    <glyph glyph-name="M" unicode="M" horiz-adv-x="1114" 
d="M562 119l263 548h255v-53h-21q-73 0 -98 -27q-19 -19 -19 -65v-378q0 -50 23 -69q28 -23 94 -23h21v-52h-378v52h21q71 0 98 27q19 19 19 65v439l-278 -583h-50l-285 583v-439q0 -50 23 -69q28 -23 94 -23h21v-52h-331v52h21q71 0 98 27q19 19 19 65v378q0 49 -23 69
q-28 23 -94 23h-21v53h261z" />
    <glyph glyph-name="N" unicode="N" horiz-adv-x="971" 
d="M224 562v-418q0 -50 23 -69q28 -23 94 -23h21v-52h-331v52h21q71 0 98 27q19 19 19 65v378q0 49 -23 69q-28 23 -94 23h-21v53h226l491 -511v366q0 49 -23 69q-28 23 -94 23h-21v53h330v-53h-21q-73 0 -98 -27q-19 -19 -19 -65v-531h-33z" />
    <glyph glyph-name="O" unicode="O" horiz-adv-x="870" 
d="M447 686q162 0 273.5 -101t111.5 -249q0 -152 -112.5 -253.5t-281.5 -101.5q-162 0 -267 83q-61 47 -96 120t-35 150q0 75 34 146t91 116q115 90 282 90zM440 629q-117 0 -199.5 -86.5t-82.5 -210.5q0 -123 81.5 -210t195.5 -87q116 0 198 87.5t82 211.5q0 115 -70 196
q-37 45 -93 72t-112 27z" />
    <glyph glyph-name="P" unicode="P" horiz-adv-x="681" 
d="M270 319v-175q0 -49 23 -69q28 -23 93 -23h31v-52h-383v52h21q71 0 98 27q19 19 19 65v379q0 49 -23 68q-27 24 -94 24h-21v52h407q126 0 179 -57q45 -51 45 -116q0 -85 -68 -137q-50 -38 -159 -38h-168zM270 371h142q68 0 107 32.5t39 87.5q0 59 -39.5 91.5t-109.5 32.5
h-139v-244z" />
    <glyph glyph-name="Q" unicode="Q" horiz-adv-x="870" 
d="M751 30h47q-1 -67 -32 -107q-37 -49 -96 -49q-54 0 -98 39q-23 20 -54 76q-59 -8 -91 -8q-140 0 -254 87q-133 104 -133 267q0 153 120 259q107 92 267 92q199 0 311 -121q44 -47 68.5 -109t24.5 -124q0 -71 -32.5 -141.5t-87.5 -116.5q-40 -33 -114 -64
q27 -44 44.5 -59.5t40.5 -15.5q24 0 44 20q21 22 25 75zM300 67q14 59 36 81q31 33 80 33q53 0 98 -40q22 -19 51 -71q49 30 78 65q71 86 71 197q0 124 -81.5 210.5t-198.5 86.5q-118 0 -198.5 -85t-80.5 -209q0 -165 145 -268zM343 50q42 -14 88 -14q21 0 53 5
q-21 44 -39.5 61.5t-43.5 17.5q-52 0 -58 -70z" />
    <glyph glyph-name="R" unicode="R" horiz-adv-x="844" 
d="M34 667h449q119 0 178 -42q63 -44 63 -122q0 -83 -74 -128q-35 -21 -93 -35q63 -10 87 -47.5t25 -127.5q2 -67 13 -94t38 -27q26 0 41 29q13 25 16 104h54q-1 -96 -23 -136q-34 -60 -110 -60q-75 0 -107 58q-13 24 -16.5 50.5t-4.5 99.5q-1 70 -29 100t-93 30h-178v-175
q0 -50 23 -69q28 -23 94 -23h22v-52h-375v52h21q71 0 98 27q19 19 19 65v379q0 49 -23 68q-27 24 -94 24h-21v52zM270 371h175q81 0 128 32.5t47 88.5q0 43 -27 73q-25 28 -59 39t-97 11h-167v-244z" />
    <glyph glyph-name="S" unicode="S" horiz-adv-x="721" 
d="M47 0v246h48q10 -57 27.5 -87t53.5 -55q44 -30 102 -48.5t109 -18.5q88 0 149 44q52 37 52 94q0 56 -46 88q-28 19 -81 23l-145 12q-84 7 -122 15.5t-67 26.5q-33 21 -53.5 61t-20.5 83q0 89 74.5 145.5t190.5 56.5q100 0 167 -32q54 -24 77 -24q16 0 24 14q3 5 6 23h48
v-210h-48q-10 49 -27.5 74.5t-55.5 48.5q-81 50 -182 50q-76 0 -129 -37.5t-53 -91.5q0 -51 50 -77q20 -10 84 -16l139 -11q79 -6 116.5 -16t70.5 -33q36 -26 57 -67.5t21 -86.5q0 -44 -20 -86.5t-54 -67.5q-77 -59 -199 -59q-98 0 -186 37q-62 26 -89 26q-40 0 -40 -44h-48
z" />
    <glyph glyph-name="T" unicode="T" horiz-adv-x="760" 
d="M24 667h712v-231h-48q0 77 -12 105q-29 74 -117 74h-127v-471q0 -49 23 -69q28 -23 93 -23h21v-52h-375v52h21q71 0 98 27q19 19 19 65v471h-114q-80 0 -112 -42q-17 -21 -24.5 -50t-9.5 -87h-48v231z" />
    <glyph glyph-name="U" unicode="U" horiz-adv-x="948" 
d="M23 614v53h377v-53h-21q-73 0 -98 -27q-19 -19 -19 -65v-270q0 -99 62.5 -156.5t170.5 -57.5t169 52t61 144v288q0 49 -23 69q-28 23 -94 23h-21v53h338v-53h-21q-72 0 -98 -27q-19 -19 -19 -65v-288q0 -134 -88 -196q-79 -57 -218 -57q-152 0 -236 68.5t-84 193.5v279
q0 49 -23 69q-28 23 -94 23h-21z" />
    <glyph glyph-name="V" unicode="V" horiz-adv-x="917" 
d="M490 116l184 356q29 58 29 92q0 24 -20 37.5t-55 13.5h-46v52h341v-52h-32q-46 0 -78 -27t-70 -99l-258 -489h-43l-268 489q-42 77 -71 101.5t-77 24.5h-32v52h391v-52h-38q-45 0 -65.5 -11.5t-20.5 -37.5q0 -22 33 -85z" />
    <glyph glyph-name="W" unicode="W" horiz-adv-x="1293" 
d="M654 525l-220 -525h-46l-204 477q-26 62 -39.5 83.5t-34.5 34.5q-30 19 -91 19h-21v53h403v-53h-25q-64 0 -89 -10.5t-25 -36.5q0 -25 19 -68l153 -360l220 528h41l224 -528l148 356q19 43 19 69q0 25 -26 39q-23 11 -93 11h-18v53h347v-53h-23q-59 0 -91 -25t-60 -94
l-203 -495h-43z" />
    <glyph glyph-name="X" unicode="X" horiz-adv-x="873" 
d="M413 295l-114 -120q-51 -54 -51 -83q0 -40 73 -40h19v-52h-316v52h17q40 0 94 42t165 159l74 78l-195 205q-42 44 -72.5 61t-67.5 17h-15v53h350v-53h-23q-61 0 -61 -32q0 -26 30 -58l124 -125l110 113q41 44 41 70q0 18 -16 25t-56 7h-15v53h317v-53h-16q-58 0 -108 -35
q-33 -23 -68 -58l-155 -159l225 -231q48 -49 67 -59q35 -20 71 -20h14v-52h-363v52h22q47 0 64 12q13 7 13 20t-11 29t-47 54z" />
    <glyph glyph-name="Y" unicode="Y" horiz-adv-x="833" 
d="M437 334l133 182q25 34 25 54q0 23 -21.5 33.5t-70.5 10.5h-18v53h329v-53h-17q-90 0 -164 -100l-168 -229v-141q0 -49 23 -69q28 -23 94 -23h22v-52h-377v52h21q71 0 98 27q19 19 19 65v141l-184 257q-31 43 -59.5 57.5t-81.5 14.5h-21v53h380v-53h-32q-80 0 -80 -41
q0 -13 3.5 -20t24.5 -38z" />
    <glyph glyph-name="Z" unicode="Z" horiz-adv-x="706" 
d="M169 52h303q44 0 69 12t45 42q26 41 37 137h48v-243h-637v47l481 568h-265q-94 0 -129 -51q-21 -33 -25 -124h-48v227h600v-47z" />
    <glyph glyph-name="bracketleft" unicode="[" horiz-adv-x="391" 
d="M301 667v-43h-126v-695h126v-47h-202v785h202z" />
    <glyph glyph-name="backslash" unicode="\" horiz-adv-x="412" 
d="M44 667h68l290 -785h-71z" />
    <glyph glyph-name="bracketright" unicode="]" horiz-adv-x="391" 
d="M90 -118v43h126v695h-126v47h202v-785h-202z" />
    <glyph glyph-name="asciicircum" unicode="^" 
d="M111 371h-82l171 298h100l171 -298h-83l-139 237z" />
    <glyph glyph-name="underscore" unicode="_" 
d="M0 -69h500v-57h-500v57z" />
    <glyph glyph-name="grave" unicode="`" 
d="M120 672h116l77 -134h-77z" />
    <glyph glyph-name="a" unicode="a" horiz-adv-x="611" 
d="M390 89v13q-29 -55 -80.5 -85.5t-116.5 -30.5q-68 0 -110 35t-42 91q0 73 73 110q33 17 56 24.5t127 33.5q52 13 71.5 27.5t19.5 38.5q0 33 -34.5 56.5t-83.5 23.5q-63 0 -99 -37q22 -16 22 -36q0 -23 -17 -39t-41 -16q-26 0 -43.5 18.5t-17.5 46.5q0 49 55 78.5
t144 29.5q83 0 136 -32q34 -21 49 -57.5t15 -98.5v-157q0 -55 13 -69q9 -9 26 -9q25 0 34.5 20t9.5 71v45h43v-74q0 -58 -29 -91t-80 -33q-44 0 -72 29t-28 74zM388 196l2 82q-15 -21 -36 -32t-86 -29q-67 -19 -97.5 -43.5t-30.5 -58.5q0 -31 21.5 -50t55.5 -19
q64 0 116.5 46t54.5 104z" />
    <glyph glyph-name="b" unicode="b" horiz-adv-x="611" 
d="M174 667v-300q56 104 177 104q97 0 159 -67t62 -172q0 -108 -61 -177t-156 -69q-59 0 -109 30q-22 12 -36.5 27t-35.5 45l-28 -88h-54v536q0 47 -14.5 65t-53.5 18h-8v48h158zM326 417q-65 0 -107.5 -51t-42.5 -129q0 -88 43 -143.5t110 -55.5q65 0 106 53t41 136
q0 85 -41.5 137.5t-108.5 52.5z" />
    <glyph glyph-name="c" unicode="c" horiz-adv-x="515" 
d="M430 138h57q-48 -152 -209 -152q-102 0 -171 71t-69 175q0 106 71.5 172.5t186.5 66.5q76 0 126 -32.5t50 -82.5q0 -26 -17 -44.5t-42 -18.5q-23 0 -39 15.5t-16 37.5q0 30 29 44q-32 36 -91 36q-70 0 -114.5 -53.5t-44.5 -139.5q0 -83 44.5 -137t114.5 -54q47 0 83.5 26
t50.5 70z" />
    <glyph glyph-name="d" unicode="d" horiz-adv-x="632" 
d="M432 0v87q-72 -102 -181 -102q-94 0 -153.5 69.5t-59.5 178.5q0 108 60.5 173t161.5 65q106 0 172 -92v142q0 59 -19 78.5t-75 19.5h-9v48h185v-520q0 -61 18.5 -80t76.5 -19v-48h-177zM282 418q-65 0 -107.5 -52t-42.5 -132q0 -84 42.5 -140.5t105.5 -56.5t109 57
t46 136q0 81 -43.5 134.5t-109.5 53.5z" />
    <glyph glyph-name="e" unicode="e" horiz-adv-x="562" 
d="M524 210h-388q4 -77 49.5 -123t117.5 -46q73 0 118 45q19 19 35 55h57q-21 -73 -78.5 -114t-138.5 -41q-114 0 -186 68.5t-72 177.5q0 104 70.5 171.5t178.5 67.5q70 0 124.5 -31t83.5 -88q28 -55 29 -142zM136 258h292q-3 56 -21 91q-17 35 -50.5 54.5t-74.5 19.5
q-65 0 -104 -44t-42 -121z" />
    <glyph glyph-name="f" unicode="f" horiz-adv-x="395" 
d="M135 409h-107v48h107v40q0 83 46 133.5t121 50.5q55 0 92 -28t37 -70q0 -28 -16 -45.5t-42 -17.5q-23 0 -38.5 15t-15.5 38q0 37 30 47q-18 19 -44 19q-40 0 -63.5 -35t-23.5 -96v-51h120v-48h-120v-237q0 -49 3 -67.5t14 -31.5q22 -25 82 -25h21v-48h-310v48h14
q58 0 75.5 22.5t17.5 98.5v240z" />
    <glyph glyph-name="g" unicode="g" horiz-adv-x="675" 
d="M202 46h206q106 0 146 -32q38 -31 38 -83q0 -74 -76.5 -114t-216.5 -40q-160 0 -222 40q-49 31 -49 76q0 59 72 89q-66 28 -66 94q0 38 24.5 65t67.5 37q-54 50 -54 115q0 76 63 127t156 51q57 0 98 -17t81 -57q36 60 104 60q39 0 66.5 -28.5t27.5 -68.5
q0 -27 -17.5 -46.5t-42.5 -19.5q-22 0 -38 15t-16 36q0 41 50 47q-15 18 -36 18q-41 0 -73 -48q17 -31 17 -70q0 -72 -65.5 -120.5t-162.5 -48.5q-67 0 -122 32q-60 -14 -60 -58q0 -29 26 -42q16 -9 74 -9zM289 426q-54 0 -91 -36.5t-37 -89.5q0 -59 36.5 -96.5t94.5 -37.5
q56 0 92.5 37t36.5 92t-38.5 93t-93.5 38zM390 -31h-174q-129 0 -129 -68q0 -76 194 -76q90 0 144 13q72 18 72 66q0 29 -29.5 47t-77.5 18z" />
    <glyph glyph-name="h" unicode="h" horiz-adv-x="653" 
d="M189 667v-305q56 110 179 110q79 0 126.5 -54t47.5 -145v-126q0 -61 18.5 -80t76.5 -19v-48h-275v48q58 0 76.5 19t18.5 80v118q0 68 -32.5 106.5t-89.5 38.5q-70 0 -110 -51q-36 -46 -36 -137v-75q0 -61 18.5 -80t77.5 -19v-48h-273v48q58 0 76.5 19t18.5 80v372
q0 62 -18.5 81t-76.5 19v48h177z" />
    <glyph glyph-name="i" unicode="i" horiz-adv-x="337" 
d="M214 457v-309q0 -62 18.5 -81t76.5 -19v-48h-279v48h10q56 0 74.5 20t18.5 78v166q0 58 -18.5 78t-74.5 20h-10v47h184zM159 662q25 0 42.5 -17t17.5 -42t-17.5 -42.5t-42.5 -17.5t-42 17t-17 42q0 26 16.5 43t42.5 17z" />
    <glyph glyph-name="j" unicode="j" horiz-adv-x="324" 
d="M214 457v-469q0 -107 -32 -152q-40 -59 -123 -59q-41 0 -68 22.5t-27 57.5q0 26 17 43.5t43 17.5q25 0 41.5 -15.5t16.5 -39.5q0 -28 -31 -44q8 -4 16 -4q31 0 48 30q16 26 16 99v368q0 58 -18.5 78t-74.5 20h-10v47h186zM163 662q25 0 42.5 -17t17.5 -42t-17.5 -42.5
t-42.5 -17.5t-42 17t-17 42q0 26 16.5 43t42.5 17z" />
    <glyph glyph-name="k" unicode="k" horiz-adv-x="644" 
d="M361 294l152 -189q45 -57 103 -57h5v-48h-272v48q0 1 1 1l31 -2q19 0 36 10q8 6 8 14q0 10 -14 27l-111 145l-100 -88v-7q0 -62 18.5 -81t76.5 -19v-48h-279v48h10q56 0 74.5 20t18.5 78v375q0 58 -18.5 78t-74.5 20h-10v48h184v-449l149 132q24 21 24 35t-17.5 19.5
t-63.5 5.5h-9v47h312v-47h-8q-93 0 -160 -58z" />
    <glyph glyph-name="l" unicode="l" horiz-adv-x="328" 
d="M205 667v-519q0 -62 18.5 -81t76.5 -19v-48h-279v48h10q56 0 74.5 20t18.5 78v375q0 58 -18.5 78t-74.5 20h-10v48h184z" />
    <glyph glyph-name="m" unicode="m" horiz-adv-x="978" 
d="M209 457v-92q24 50 69 78t100 28q64 0 105 -32q18 -13 28.5 -30t22.5 -50q15 32 28 49t34 31q48 32 110 32q43 0 80 -18.5t56 -49.5q26 -43 26 -135v-120q0 -62 18.5 -81t76.5 -19v-48h-273v48q58 0 76.5 19t18.5 81v118q0 146 -110 146q-64 0 -100 -49t-36 -138v-77
q0 -62 18.5 -81t76.5 -19v-48h-271v48q59 0 77.5 19t18.5 81v111q0 152 -105 152q-64 0 -102.5 -47t-38.5 -126v-90q0 -62 18.5 -81t77.5 -19v-48h-281v48h10q56 0 74.5 20t18.5 78v166q0 58 -18.5 78t-74.5 20h-10v47h181z" />
    <glyph glyph-name="n" unicode="n" horiz-adv-x="676" 
d="M209 457v-98q30 59 72.5 85.5t106.5 26.5q80 0 129 -49q27 -28 37.5 -63.5t10.5 -100.5v-110q0 -62 18.5 -81t77.5 -19v-48h-276v48q58 0 76.5 19t18.5 81v128q0 68 -30 99q-33 35 -92 35q-46 0 -82 -25q-34 -24 -48.5 -64.5t-14.5 -108.5v-64q0 -62 18.5 -81t77.5 -19
v-48h-281v48h10q56 0 74.5 20t18.5 78v166q0 58 -18.5 78t-74.5 20h-10v47h181z" />
    <glyph glyph-name="o" unicode="o" horiz-adv-x="587" 
d="M296 471q109 0 184 -72q31 -30 49.5 -77.5t18.5 -96.5q0 -105 -71.5 -172t-183.5 -67t-183.5 67t-71.5 172q0 108 72 177t186 69zM295 423q-73 0 -115.5 -53.5t-42.5 -145.5q0 -87 42.5 -138.5t113.5 -51.5t113.5 51.5t42.5 139.5q0 89 -42.5 143.5t-111.5 54.5z" />
    <glyph glyph-name="p" unicode="p" horiz-adv-x="614" 
d="M182 92v-117q0 -79 17 -108.5t64 -29.5h21v-46h-289v47h10q56 0 74.5 20t18.5 78v376q0 58 -18.5 78t-74.5 20h-10v47h187v-82q67 96 174 96q99 0 159 -66.5t60 -175.5q0 -97 -54 -164q-65 -79 -161 -79q-58 0 -105.5 28.5t-72.5 77.5zM331 417q-65 0 -107.5 -50.5
t-42.5 -129.5q0 -83 42.5 -139t106.5 -56t106.5 55t42.5 138q0 80 -41.5 131t-106.5 51z" />
    <glyph glyph-name="q" unicode="q" horiz-adv-x="640" 
d="M434 -64v156q-74 -106 -182 -106q-88 0 -151 69t-63 175q0 108 60 174.5t157 66.5q115 0 179 -101v87h186v-47h-9q-56 0 -75 -19.5t-19 -78.5v-376q0 -59 19 -78.5t75 -19.5h9v-47h-289v47h10q56 0 74.5 20t18.5 78zM284 413q-65 0 -107.5 -51.5t-42.5 -130.5
q0 -81 42.5 -135t106.5 -54t107.5 54t43.5 134q0 81 -41.5 132t-108.5 51z" />
    <glyph glyph-name="r" unicode="r" horiz-adv-x="478" 
d="M201 457v-128q57 142 157 142q40 0 66.5 -26t26.5 -65q0 -32 -18.5 -53.5t-45.5 -21.5q-22 0 -38 15t-16 35q0 19 12.5 30.5t32.5 12.5q-15 25 -39 25q-52 0 -98 -87q-40 -73 -40 -168q0 -71 20 -96t78 -25h15v-47h-286v48q58 0 76.5 19t18.5 81v162q0 61 -18 80t-77 19
v48h173z" />
    <glyph glyph-name="s" unicode="s" horiz-adv-x="511" 
d="M59 0v177h43q9 -47 27 -71q22 -30 63 -49t82 -19q47 0 78 22.5t31 57.5q0 59 -89 70l-104 12q-65 7 -102.5 42.5t-37.5 89.5q0 58 50 98.5t123 40.5q65 0 130 -29q13 -6 24 -6q17 0 20 21h38v-148h-38q-14 52 -39 76q-45 42 -116 42q-48 0 -79.5 -22t-31.5 -55
q0 -52 73 -59l109 -12q80 -9 116 -47q39 -42 39 -96q0 -63 -51.5 -106.5t-125.5 -43.5q-32 0 -55.5 6.5t-92.5 33.5q-12 5 -19 5q-17 0 -22 -31h-43z" />
    <glyph glyph-name="t" unicode="t" horiz-adv-x="373" 
d="M182 409v-257q0 -69 11 -87q14 -19 39 -19q27 0 40 22q10 20 10 80v30h43v-44q0 -84 -30 -115q-30 -33 -88 -33q-65 0 -92 42q-12 18 -16 42t-4 80v259h-92v43q119 3 133 167h46v-162h144v-48h-144z" />
    <glyph glyph-name="u" unicode="u" horiz-adv-x="646" 
d="M446 0v99q-61 -113 -174 -113q-89 0 -138 57q-39 45 -39 134v149q0 47 -14.5 65t-53.5 18h-8v48h158v-272q0 -63 32 -100.5t86 -37.5q29 0 59.5 15t52.5 40q39 46 39 127v80q0 62 -18.5 81t-77.5 19v48h176v-310q0 -61 18.5 -80t77.5 -19v-48h-176z" />
    <glyph glyph-name="v" unicode="v" horiz-adv-x="641" 
d="M342 97l116 203q30 54 30 74q0 36 -94 36h-13v47h269v-47h-6q-45 0 -66 -18t-62 -91l-178 -315h-31l-189 332q-32 54 -55 71t-72 21v47h306v-47h-12q-91 0 -89 -39q2 -18 12 -37z" />
    <glyph glyph-name="w" unicode="w" horiz-adv-x="927" 
d="M462 331l-147 -345h-37l-164 335q-25 55 -46.5 71t-73.5 18v47h316v-47h-15q-105 0 -105 -44q0 -19 16 -51l107 -215l149 357h33l154 -357l101 210q17 36 17 61q0 39 -90 39h-16v47h271v-47h-5q-44 0 -69 -16q-13 -8 -21.5 -20.5t-28.5 -53.5l-159 -334h-41z" />
    <glyph glyph-name="x" unicode="x" horiz-adv-x="679" 
d="M339 191l-79 -71q-30 -27 -35 -33t-5 -15q0 -14 14 -19t50 -5h15v-48h-274v48h9q41 0 62.5 9.5t60.5 44.5l139 126l-154 131q-38 32 -58 41t-57 10v47h288v-47q-10 -1 -23 -1q-50 -3 -50 -22q0 -15 27 -39l85 -73l74 72q25 23 29 28t4 13q0 13 -14.5 17.5t-53.5 4.5h-10
v47h262v-47q-49 -4 -68 -12.5t-59 -44.5l-126 -111l165 -140q42 -37 57.5 -45.5t40.5 -8.5h5v-48h-293v48h15q41 0 57 5t16 18q0 20 -45 58z" />
    <glyph glyph-name="y" unicode="y" horiz-adv-x="633" 
d="M337 66l128 257q16 32 16 50q0 37 -87 37h-22v47h267v-47q-44 0 -63.5 -13t-43.5 -58l-231 -442q-61 -120 -152 -120q-50 0 -83.5 29t-33.5 72q0 29 17 48t43 19q23 0 39 -15.5t16 -38.5q0 -19 -11.5 -31.5t-28.5 -14.5q20 -19 41 -19q31 0 56 21.5t53 70.5l32 59
l-182 362q-23 41 -48 56.5t-65 14.5v47h304v-47q-63 0 -85 -7.5t-22 -27.5q0 -15 24 -64z" />
    <glyph glyph-name="z" unicode="z" horiz-adv-x="540" 
d="M38 48l340 361h-170q-68 0 -90.5 -23t-22.5 -94v-20h-48v185h442v-48l-339 -361h182q65 0 89 22.5t26 84.5l1 41h50v-196h-460v48z" />
    <glyph glyph-name="braceleft" unicode="{" 
d="M275 510v-150q0 -47 -12 -72t-43 -42q31 -17 43 -43t12 -73v-147q0 -69 19.5 -93t76.5 -25v-52h-15q-61 0 -90 7t-47 27q-31 34 -31 115v157q0 48 -13 72t-44 34v45q31 10 44 33.5t13 69.5v171q0 72 33 104q18 18 47 25t86 7q10 0 17 -1v-55q-56 -1 -76 -25t-20 -89z" />
    <glyph glyph-name="bar" unicode="|" 
d="M206 667h89v-834h-89v834z" />
    <glyph glyph-name="braceright" unicode="}" 
d="M225 -17v150q0 47 12 72t43 42q-31 17 -43 43t-12 73v147q0 69 -19.5 92.5t-75.5 25.5v52h15q61 0 89.5 -7t46.5 -27q31 -34 31 -115v-157q0 -49 13 -72t45 -34v-45q-32 -11 -45 -34t-13 -69v-171q0 -72 -33 -104q-18 -18 -47 -25t-86 -7h-16v56q56 1 75.5 25t19.5 89z
" />
    <glyph glyph-name="asciitilde" unicode="~" horiz-adv-x="667" 
d="M140 576l-46 37q53 116 138 116q38 0 115 -38q65 -32 91 -32t46.5 16.5t42.5 55.5l47 -37q-52 -114 -146 -114q-20 0 -39.5 7t-79.5 36q-53 26 -81 26q-25 0 -45 -17t-43 -56z" />
    <glyph glyph-name="uni00A0" unicode="&#xa0;" horiz-adv-x="300" 
 />
    <glyph glyph-name="exclamdown" unicode="&#xa1;" horiz-adv-x="378" 
d="M211 305v-15q0 -79 33 -330q4 -24 4 -47q0 -34 -16.5 -54.5t-43.5 -20.5t-44 20.5t-17 52.5q0 22 16 123q8 51 19 145t11 112v14h38zM195 471q23 0 39.5 -16.5t16.5 -40.5q0 -25 -16 -41t-41 -16q-24 0 -40.5 16.5t-16.5 40.5q0 23 17 40t41 17z" />
    <glyph glyph-name="cent" unicode="&#xa2;" horiz-adv-x="695" 
d="M510 225h55q-42 -130 -177 -145v-80h-50v80q-94 14 -150.5 78.5t-56.5 158.5q0 92 59 159t148 74v74h50v-74q74 -5 118.5 -37t44.5 -80q0 -24 -16 -40.5t-41 -16.5q-22 0 -37 14t-15 34q0 28 24 45q-25 34 -78 36v-371h6q34 0 66.5 25t49.5 66zM338 138v363
q-49 -14 -80 -65t-31 -119q0 -67 29.5 -114.5t81.5 -64.5z" />
    <glyph glyph-name="sterling" unicode="&#xa3;" horiz-adv-x="695" 
d="M567 152h44q-1 -70 -42 -120t-98 -50q-28 0 -47 5.5t-106 36.5q-72 26 -121 26q-26 0 -38 -11t-15 -39h-45q1 62 37.5 100t94.5 38q10 0 40 -2q38 30 38 71q0 20 -14 35.5t-50 34.5h-160v47h93q-38 34 -53 60t-15 58q0 39 21 75.5t58 61.5q56 36 144 36q59 0 164 -34
q18 -6 30 -6q21 0 24 26h45v-201h-45q-5 38 -14.5 61t-31.5 44q-57 57 -149 57q-64 0 -106 -26.5t-42 -66.5q0 -28 18.5 -49.5t68.5 -50.5q42 -24 66 -45h136v-47h-109q7 -15 7 -31q0 -52 -82 -120q40 -10 47 -13q13 -4 62 -23q39 -14 70 -14q60 0 75 76z" />
    <glyph glyph-name="currency" unicode="&#xa4;" horiz-adv-x="691" 
d="M65 109l92 94q-46 64 -46 139q0 36 10.5 66t37.5 72l-96 95l47 47l96 -95q45 28 74 38t66 10t66 -10t72 -38l96 95l47 -47l-94 -94q48 -71 48 -141q0 -36 -10 -65t-36 -72l94 -94l-47 -48l-94 94q-67 -48 -137 -48q-68 0 -146 48l-93 -93zM349 500q-67 0 -113 -46
t-46 -112q0 -65 46 -111.5t110 -46.5q65 0 111 46.5t46 111.5t-45.5 111.5t-108.5 46.5z" />
    <glyph glyph-name="yen" unicode="&#xa5;" horiz-adv-x="695" 
d="M404 310h91v-60h-106v-53h106v-60h-106q1 -35 10 -49q21 -36 89 -36h19v-52h-320v52h18q68 0 89 36q9 14 10 49h-104v60h104v53h-104v60h89l-141 232q-27 44 -50.5 58t-69.5 14h-18v53h323v-53h-27q-68 0 -68 -41q0 -13 3 -20t21 -37l103 -181l113 181q21 32 21 54
q0 23 -18.5 33.5t-59.5 10.5h-15v53h280v-53h-14q-77 0 -140 -100z" />
    <glyph glyph-name="brokenbar" unicode="&#xa6;" 
d="M206 667h89v-337h-89v337zM206 153h89v-320h-89v320z" />
    <glyph glyph-name="section" unicode="&#xa7;" horiz-adv-x="605" 
d="M250 482l143 -72q79 -39 104 -65t25 -68q0 -41 -24 -73t-89 -78q56 -31 79 -60.5t23 -71.5q0 -68 -65 -114t-161 -46q-89 0 -155.5 45t-66.5 104q0 31 18.5 51.5t47.5 20.5q24 0 40.5 -15.5t16.5 -37.5q0 -20 -15 -33.5t-37 -13.5q-8 0 -16 2q13 -34 57 -54.5t101 -20.5
q59 0 98.5 25t39.5 62q0 28 -19.5 48.5t-70.5 45.5l-133 66q-67 34 -90 60t-23 68q0 92 108 148q-55 29 -77 57.5t-22 70.5q0 67 57.5 110t146.5 43q86 0 143 -30.5t57 -77.5q0 -26 -16 -43t-41 -17q-23 0 -40 15t-17 36q0 18 13.5 30.5t31.5 11.5h4q-30 35 -122 35
q-61 0 -99 -22t-38 -57q0 -44 83 -85zM232 218l135 -67q47 30 63.5 49t16.5 41q0 45 -73 79l-145 68q-45 -26 -63 -46.5t-18 -43.5t17 -39.5t67 -40.5z" />
    <glyph glyph-name="dieresis" unicode="&#xa8;" 
d="M366 662q24 0 40.5 -16.5t16.5 -40.5q0 -23 -17 -40t-41 -17q-23 0 -39.5 16.5t-16.5 40.5q0 25 16 41t41 16zM134 662q24 0 40.5 -16.5t16.5 -40.5q0 -23 -17 -40t-41 -17q-23 0 -39.5 16.5t-16.5 40.5q0 25 16 41t41 16z" />
    <glyph glyph-name="copyright" unicode="&#xa9;" horiz-adv-x="781" 
d="M395 679q139 0 239.5 -102t100.5 -244q0 -143 -101 -244t-243 -101q-143 0 -244 101t-101 244q0 145 101.5 245.5t247.5 100.5zM395 637q-127 0 -215 -88t-88 -216q0 -125 88 -214t211 -89t210.5 89t87.5 214q0 124 -87 214t-207 90zM551 537h29v-148h-27q-8 49 -28 71
q-19 24 -53.5 38t-72.5 14q-79 0 -123 -56q-44 -53 -44 -120q0 -71 48.5 -122.5t115.5 -51.5q66 0 114 45q20 18 38 55h38q-18 -64 -72.5 -102t-127.5 -38q-96 0 -157.5 60t-61.5 153q0 92 60.5 151t154.5 59q42 0 118 -26q17 -5 25 -5q23 0 26 23z" />
    <glyph glyph-name="ordfeminine" unicode="&#xaa;" horiz-adv-x="396" 
d="M384 382v-47q0 -36 -19 -56.5t-53 -20.5q-56 0 -65 58q-18 -26 -50.5 -42t-69.5 -16q-43 0 -70 22t-27 56q0 45 48 68q27 13 114 35q30 7 41.5 14.5t11.5 20.5q0 18 -20.5 31t-48.5 13q-36 0 -56 -18q12 -9 12 -22q0 -14 -12 -24.5t-28 -10.5q-17 0 -29 12t-12 29
q0 30 35 48.5t92 18.5q51 0 86 -19q42 -24 42 -95v-93q0 -26 4 -34.5t16 -8.5q13 0 18 11.5t5 39.5v30h35zM245 386l1 37q-13 -10 -22.5 -14t-47.5 -14q-76 -21 -76 -57q0 -17 12 -27.5t32 -10.5q38 0 69 26.5t32 59.5z" />
    <glyph glyph-name="guillemotleft" unicode="&#xab;" horiz-adv-x="459" 
d="M403 350l-120 -116l120 -117h-76l-118 117l118 116h76zM250 350l-119 -116l119 -117h-75l-118 117l118 116h75z" />
    <glyph glyph-name="logicalnot" unicode="&#xac;" 
d="M380 0v201h-347v78h433v-279h-86z" />
    <glyph glyph-name="uni00AD" unicode="&#xad;" horiz-adv-x="246" 
d="M246 267v-67h-246v67h246z" />
    <glyph glyph-name="registered" unicode="&#xae;" horiz-adv-x="844" 
d="M233 530h225q58 0 89.5 -25.5t31.5 -72.5q0 -74 -84 -99q31 -5 43 -27.5t13 -76.5q1 -72 25 -72q15 0 21 17.5t8 61.5h27q0 -57 -12 -81q-16 -36 -55 -36q-38 0 -53 34q-10 22 -11 90q0 42 -14 60t-47 18h-88v-105q0 -31 13 -43t45 -12h11v-31h-188v31h11q33 0 46 12
t13 43v227q0 31 -13 43.5t-46 12.5h-11v31zM352 352h87q41 0 64.5 19.5t23.5 53.5q0 40 -31 61q-20 13 -61 13h-83v-147zM437 679q139 0 239.5 -102t100.5 -244q0 -143 -101 -244t-243 -101q-143 0 -244 101t-101 244q0 145 101.5 245.5t247.5 100.5zM437 637
q-127 0 -215 -88t-88 -216q0 -125 88 -214t211 -89t210.5 89t87.5 214q0 124 -87 214t-207 90z" />
    <glyph glyph-name="macron" unicode="&#xaf;" 
d="M422 571h-343v68h343v-68z" />
    <glyph glyph-name="degree" unicode="&#xb0;" 
d="M250 665q60 0 101.5 -42t41.5 -103q0 -58 -42.5 -100.5t-100.5 -42.5q-60 0 -102 42t-42 102t42 102t102 42zM248 625q-41 0 -71.5 -30.5t-30.5 -73.5t30.5 -73.5t73.5 -30.5q41 0 72 30.5t31 71.5q0 44 -30.5 75t-74.5 31z" />
    <glyph glyph-name="plusminus" unicode="&#xb1;" 
d="M21 377h205v194h48v-194h205v-46h-205v-190h-48v190h-205v46zM21 97h458v-46h-458v46z" />
    <glyph glyph-name="twosuperior" unicode="&#xb2;" horiz-adv-x="449" 
d="M371 353v-112h-303q6 64 31.5 93.5t104.5 64.5q58 25 80 46.5t22 52.5q0 34 -26 55.5t-66 21.5q-35 0 -58.5 -14.5t-27.5 -39.5q46 0 46 -38q0 -18 -12.5 -30t-31.5 -12q-25 0 -40.5 18t-15.5 46q0 50 43.5 81.5t111.5 31.5q67 0 110 -34t43 -87q0 -61 -54 -97
q-26 -17 -97 -41q-57 -19 -72.5 -28.5t-29.5 -32.5h145q32 0 45 10t13 35v10h39z" />
    <glyph glyph-name="threesuperior" unicode="&#xb3;" horiz-adv-x="449" 
d="M158 452h53q98 0 98 61q0 28 -26.5 47t-67.5 19q-44 0 -83 -26q24 -13 24 -35q0 -17 -12 -28.5t-29 -11.5q-19 0 -31.5 12.5t-12.5 30.5q0 40 45 68.5t109 28.5q69 0 114 -29.5t45 -74.5q0 -31 -18 -50t-58 -30q86 -28 86 -96q0 -46 -48.5 -76.5t-121.5 -30.5
q-74 0 -121.5 27t-47.5 69q0 19 12.5 32t32.5 13q19 0 31.5 -11.5t12.5 -29.5q0 -25 -23 -36q37 -24 82 -24q52 0 81.5 20.5t29.5 55.5q0 39 -32 55q-25 12 -83 12h-41v38z" />
    <glyph glyph-name="acute" unicode="&#xb4;" 
d="M383 672l-115 -134h-78l78 134h115z" />
    <glyph glyph-name="mu" unicode="&#xb5;" 
d="M48 -167v647h76v-269q0 -48 6.5 -72.5t24.5 -44.5q37 -42 90 -42q58 0 94.5 46.5t36.5 121.5v260h76v-480h-76v89q-41 -102 -132 -102q-41 0 -69 17t-51 56v-227h-76z" />
    <glyph glyph-name="paragraph" unicode="&#xb6;" horiz-adv-x="563" 
d="M231 -113v427h-16q-80 0 -131.5 49t-51.5 126q0 49 22.5 89.5t61.5 62.5q46 26 134 26h239v-38h-58v-742h-47v742h-106v-742h-47z" />
    <glyph glyph-name="periodcentered" unicode="&#xb7;" horiz-adv-x="695" 
d="M347 290q24 0 40.5 -16.5t16.5 -40.5q0 -23 -17 -40t-41 -17q-23 0 -39.5 16.5t-16.5 40.5q0 25 16 41t41 16z" />
    <glyph glyph-name="cedilla" unicode="&#xb8;" 
d="M232 0h41l-8 -61q75 -7 75 -61q0 -32 -25.5 -52t-67.5 -20q-74 0 -87 67h44q7 -30 40 -30q36 0 36 31q0 17 -12.5 27.5t-31.5 10.5q-9 0 -16 -1z" />
    <glyph glyph-name="onesuperior" unicode="&#xb9;" horiz-adv-x="449" 
d="M260 618v-272q0 -49 9 -57q11 -11 44 -11h17v-38h-212v38h20q40 0 48.5 10t8.5 57v147q0 30 -11.5 39.5t-46.5 9.5h-10v40h11q65 0 88 37h34z" />
    <glyph glyph-name="ordmasculine" unicode="&#xba;" horiz-adv-x="381" 
d="M192 551q69 0 114.5 -42.5t45.5 -106.5q0 -63 -45.5 -103.5t-116.5 -40.5t-116.5 40.5t-45.5 104.5q0 65 46 106.5t118 41.5zM191 516q-43 0 -68 -31t-25 -83q0 -50 25 -79.5t67 -29.5t67 29.5t25 79.5q0 52 -25 83t-66 31z" />
    <glyph glyph-name="guillemotright" unicode="&#xbb;" horiz-adv-x="459" 
d="M57 350h75l118 -116l-118 -117h-75l120 117zM209 350h76l118 -116l-118 -117h-76l120 117z" />
    <glyph glyph-name="onequarter" unicode="&#xbc;" horiz-adv-x="1013" 
d="M260 618v-272q0 -49 9 -57q11 -11 44 -11h17v-38h-212v38h20q40 0 48.5 10t8.5 57v147q0 30 -11.5 39.5t-46.5 9.5h-10v40h11q65 0 88 37h34zM759 604l-466 -630l-41 31l468 630zM887 378v-230h72v-38h-72v-6q0 -40 10.5 -53t43.5 -13h12v-38h-201v38h12q38 0 48.5 11.5
t10.5 53.5v7h-206v39l237 229h33zM823 296l-150 -148h150v148z" />
    <glyph glyph-name="onehalf" unicode="&#xbd;" horiz-adv-x="1013" 
d="M260 618v-272q0 -49 9 -57q11 -11 44 -11h17v-38h-212v38h20q40 0 48.5 10t8.5 57v147q0 30 -11.5 39.5t-46.5 9.5h-10v40h11q65 0 88 37h34zM759 604l-466 -630l-41 31l468 630zM934 113v-113h-303q7 67 32 95.5t104 63.5q57 24 79.5 45.5t22.5 53.5q0 34 -26 55.5
t-66 21.5q-35 0 -58.5 -14.5t-27.5 -39.5q46 0 46 -38q0 -18 -12.5 -30t-31.5 -12q-25 0 -40.5 18t-15.5 46q0 50 43.5 81.5t111.5 31.5q67 0 110 -34t43 -87q0 -61 -54 -97q-22 -15 -97 -41q-58 -20 -73.5 -29.5t-28.5 -32.5h145q32 0 45 10t13 36v10h39z" />
    <glyph glyph-name="threequarters" unicode="&#xbe;" horiz-adv-x="1013" 
d="M158 452h53q98 0 98 61q0 28 -26.5 47t-67.5 19q-44 0 -83 -26q24 -13 24 -35q0 -17 -12 -28.5t-29 -11.5q-19 0 -31.5 12.5t-12.5 30.5q0 40 45 68.5t109 28.5q69 0 114 -29.5t45 -74.5q0 -31 -18 -50t-58 -30q86 -28 86 -96q0 -46 -48.5 -76.5t-121.5 -30.5
q-74 0 -121.5 27t-47.5 69q0 19 12.5 32t32.5 13q19 0 31.5 -11.5t12.5 -29.5q0 -25 -23 -36q37 -24 82 -24q52 0 81.5 20.5t29.5 55.5q0 39 -32 55q-25 12 -83 12h-41v38zM759 604l-466 -630l-40 31l467 630zM888 378v-230h71v-38h-71v-6q0 -40 10.5 -53t42.5 -13h12v-38
h-201v38h13q38 0 48.5 11.5t10.5 53.5v7h-206v39l237 229h33zM824 296l-150 -148h150v148z" />
    <glyph glyph-name="questiondown" unicode="&#xbf;" horiz-adv-x="644" 
d="M318 306h53q1 -54 -16.5 -90t-66.5 -81q-44 -40 -61.5 -69t-17.5 -61q0 -50 38 -81.5t99 -31.5q87 0 123 51q-32 10 -32 53q0 26 15.5 42.5t39.5 16.5q28 0 46 -21.5t18 -54.5q0 -59 -64.5 -100.5t-158.5 -41.5q-78 0 -146 31q-99 46 -99 136q0 45 25.5 81t82.5 71
q77 47 98 72.5t24 77.5zM341 471q23 0 39.5 -16.5t16.5 -40.5q0 -25 -16 -41t-41 -16q-24 0 -40.5 16.5t-16.5 40.5q0 23 17 40t41 17z" />
    <glyph glyph-name="Agrave" unicode="&#xc0;" horiz-adv-x="894" 
d="M259 238l-45 -87q-13 -25 -15 -43q-2 -21 18 -37q20 -19 73 -19h34v-52h-343v52h29q64 0 101 47q39 50 71 109l246 459h38l267 -494q37 -68 63 -91q34 -30 86 -30h31v-52h-386v52h33q90 0 90 49q0 19 -13 45l-48 92h-330zM285 286h278l-139 271zM260 861h134l106 -114
h-94z" />
    <glyph glyph-name="Aacute" unicode="&#xc1;" horiz-adv-x="894" 
d="M259 238l-45 -87q-13 -25 -15 -43q-2 -21 18 -37q20 -19 73 -19h34v-52h-343v52h29q64 0 101 47q39 50 71 109l246 459h38l267 -494q37 -68 63 -91q34 -30 86 -30h31v-52h-386v52h33q90 0 90 49q0 19 -13 45l-48 92h-330zM285 286h278l-139 271zM634 861l-146 -114h-94
l106 114h134z" />
    <glyph glyph-name="Acircumflex" unicode="&#xc2;" horiz-adv-x="894" 
d="M259 238l-45 -87q-13 -25 -15 -43q-2 -21 18 -37q20 -19 73 -19h34v-52h-343v52h29q64 0 101 47q39 50 71 109l246 459h38l267 -494q37 -68 63 -91q34 -30 86 -30h31v-52h-386v52h33q90 0 90 49q0 19 -13 45l-48 92h-330zM285 286h278l-139 271zM447 880l198 -98l-56 -54
l-142 68l-141 -68l-57 54z" />
    <glyph glyph-name="Atilde" unicode="&#xc3;" horiz-adv-x="894" 
d="M259 238l-45 -87q-13 -25 -15 -43q-2 -21 18 -37q20 -19 73 -19h34v-52h-343v52h29q64 0 101 47q39 50 71 109l246 459h38l267 -494q37 -68 63 -91q34 -30 86 -30h31v-52h-386v52h33q90 0 90 49q0 19 -13 45l-48 92h-330zM285 286h278l-139 271zM634 861l36 -9
q-19 -38 -34 -55.5t-39 -30.5q-35 -18 -72 -18q-28 0 -58 7l-78 18q-43 10 -61 10q-39 0 -64 -35l-40 8q57 101 144 101q24 0 50 -6l69 -16q53 -12 77 -12q47 0 70 38z" />
    <glyph glyph-name="Adieresis" unicode="&#xc4;" horiz-adv-x="894" 
d="M259 238l-45 -87q-13 -25 -15 -43q-2 -21 18 -37q20 -19 73 -19h34v-52h-343v52h29q64 0 101 47q39 50 71 109l246 459h38l267 -494q37 -68 63 -91q34 -30 86 -30h31v-52h-386v52h33q90 0 90 49q0 19 -13 45l-48 92h-330zM285 286h278l-139 271zM601 861q24 0 40.5 -16.5
t16.5 -40.5q0 -23 -17 -40t-41 -17q-23 0 -39.5 16.5t-16.5 40.5q0 25 16 41t41 16zM293 862q24 0 41 -16.5t17 -40.5t-17 -41t-41 -17t-40.5 16.5t-16.5 41.5t16 41t41 16z" />
    <glyph glyph-name="Aring" unicode="&#xc5;" horiz-adv-x="894" 
d="M259 238l-45 -87q-13 -25 -15 -43q-2 -21 18 -37q20 -19 73 -19h34v-52h-343v52h29q64 0 101 47q39 50 71 109l246 459h38l267 -494q37 -68 63 -91q34 -30 86 -30h31v-52h-386v52h33q90 0 90 49q0 19 -13 45l-48 92h-330zM285 286h278l-139 271zM447 917q45 0 76 -31.5
t31 -77.5q0 -43 -31 -73.5t-75 -30.5q-45 0 -76.5 31.5t-31.5 75.5t31.5 75t75.5 31zM447 856q-19 0 -32.5 -13.5t-13.5 -32.5t13.5 -32.5t32.5 -13.5t32 13t13 32q0 20 -13 33.5t-32 13.5z" />
    <glyph glyph-name="AE" unicode="&#xc6;" horiz-adv-x="1224" 
d="M723 52h229q78 0 113.5 46t42.5 156h48v-254h-672v52h21q71 0 98 27q19 19 19 65v99h-281l-56 -78q-28 -40 -28 -68q0 -25 20 -35t70 -10h31v-52h-372v52h25q59 0 93 21q50 29 95 92l255 348q32 43 32 70q0 32 -81 32h-33v52h764v-229h-48q-14 109 -49.5 143t-133.5 34
h-202v-244h80q64 0 92 30q25 27 30 112h47v-348h-47q-4 94 -27 124t-93 30h-82v-267zM378 291h244v333z" />
    <glyph glyph-name="Ccedilla" unicode="&#xc7;" horiz-adv-x="764" 
d="M370 -96l11 76q-76 9 -122 25.5t-90 49.5q-63 48 -98 121.5t-35 158.5q0 152 101.5 251.5t256.5 99.5q50 0 85.5 -8.5t108.5 -38.5q21 -9 47 -9q17 0 25 8.5t13 30.5h47v-244h-47q-8 69 -43 113q-71 91 -203 91q-129 0 -208 -93q-73 -87 -73 -202q0 -122 79 -203t199 -81
q110 0 192 85q34 35 52 78h63q-34 -101 -114 -162.5t-192 -71.5l-6 -37q73 -12 73 -66q0 -31 -24.5 -50.5t-62.5 -19.5q-74 0 -92 63h47q10 -22 33 -22q14 0 23.5 8t9.5 20q0 14 -10 23.5t-26 9.5q-9 0 -20 -4z" />
    <glyph glyph-name="Egrave" unicode="&#xc8;" horiz-adv-x="775" 
d="M269 52h219q73 0 100 19q31 22 45 61.5t22 122.5h47v-255h-668v52h21q71 0 98 27q19 19 19 65v378q0 50 -23 69q-27 24 -94 24h-21v52h668v-232h-47q-5 57 -13 86.5t-26 51.5q-36 42 -126 42h-221v-246h105q58 0 81 45q14 30 15 97h48v-345h-48q-1 88 -21.5 120.5
t-74.5 32.5h-105v-267zM201 861h133l107 -114h-94z" />
    <glyph glyph-name="Eacute" unicode="&#xc9;" horiz-adv-x="775" 
d="M269 52h219q73 0 100 19q31 22 45 61.5t22 122.5h47v-255h-668v52h21q71 0 98 27q19 19 19 65v378q0 50 -23 69q-27 24 -94 24h-21v52h668v-232h-47q-5 57 -13 86.5t-26 51.5q-36 42 -126 42h-221v-246h105q58 0 81 45q14 30 15 97h48v-345h-48q-1 88 -21.5 120.5
t-74.5 32.5h-105v-267zM541 861l-146 -114h-94l106 114h134z" />
    <glyph glyph-name="Ecircumflex" unicode="&#xca;" horiz-adv-x="775" 
d="M269 52h219q73 0 100 19q31 22 45 61.5t22 122.5h47v-255h-668v52h21q71 0 98 27q19 19 19 65v378q0 50 -23 69q-27 24 -94 24h-21v52h668v-232h-47q-5 57 -13 86.5t-26 51.5q-36 42 -126 42h-221v-246h105q58 0 81 45q14 30 15 97h48v-345h-48q-1 88 -21.5 120.5
t-74.5 32.5h-105v-267zM387 880l198 -98l-56 -54l-142 68l-141 -68l-56 54z" />
    <glyph glyph-name="Edieresis" unicode="&#xcb;" horiz-adv-x="775" 
d="M269 52h219q73 0 100 19q31 22 45 61.5t22 122.5h47v-255h-668v52h21q71 0 98 27q19 19 19 65v378q0 50 -23 69q-27 24 -94 24h-21v52h668v-232h-47q-5 57 -13 86.5t-26 51.5q-36 42 -126 42h-221v-246h105q58 0 81 45q14 30 15 97h48v-345h-48q-1 88 -21.5 120.5
t-74.5 32.5h-105v-267zM541 861q24 0 40.5 -16.5t16.5 -40.5q0 -23 -17 -40t-41 -17q-23 0 -39.5 16.5t-16.5 40.5q0 25 16 41t41 16zM233 862q24 0 41 -16.5t17 -40.5t-17 -41t-41 -17t-40.5 16.5t-16.5 41.5t16 41t41 16z" />
    <glyph glyph-name="Igrave" unicode="&#xcc;" horiz-adv-x="459" 
d="M418 52v-52h-376v52h21q71 0 98 27q19 19 19 65v378q0 49 -23 69q-28 23 -94 23h-21v53h376v-53h-21q-73 0 -98 -27q-19 -19 -19 -65v-378q0 -50 23 -69q28 -23 94 -23h21zM44 861h133l106 -114h-93z" />
    <glyph glyph-name="Iacute" unicode="&#xcd;" horiz-adv-x="459" 
d="M418 52v-52h-376v52h21q71 0 98 27q19 19 19 65v378q0 49 -23 69q-28 23 -94 23h-21v53h376v-53h-21q-73 0 -98 -27q-19 -19 -19 -65v-378q0 -50 23 -69q28 -23 94 -23h21zM417 861l-146 -114h-94l106 114h134z" />
    <glyph glyph-name="Icircumflex" unicode="&#xce;" horiz-adv-x="459" 
d="M418 52v-52h-377v52h22q69 0 98 27q19 19 19 65v378q0 49 -23 69q-28 23 -94 23h-22v53h377v-53h-21q-73 0 -98 -27q-19 -19 -19 -65v-378q0 -50 23 -69q28 -23 94 -23h21zM230 880l197 -98l-56 -54l-141 68l-142 -68l-56 54z" />
    <glyph glyph-name="Idieresis" unicode="&#xcf;" horiz-adv-x="459" 
d="M418 52v-52h-376v52h21q71 0 98 27q19 19 19 65v378q0 49 -23 69q-28 23 -94 23h-21v53h376v-53h-21q-73 0 -98 -27q-19 -19 -19 -65v-378q0 -50 23 -69q28 -23 94 -23h21zM351 861q24 0 40.5 -16.5t16.5 -40.5q0 -23 -17 -40t-41 -17q-23 0 -39.5 16.5t-16.5 40.5
q0 25 16 41t41 16zM109 862q24 0 41 -16.5t17 -40.5t-17 -41t-41 -17t-40.5 16.5t-16.5 41.5t16 41t41 16z" />
    <glyph glyph-name="Eth" unicode="&#xd0;" horiz-adv-x="847" 
d="M30 0v52h21q71 0 98 27q19 19 19 65v176h-124v50h124v153q0 29 -4.5 43t-18.5 25q-27 24 -94 24h-21v52h414q92 0 156.5 -24.5t117.5 -78.5q93 -98 93 -231q0 -139 -101 -238q-98 -95 -239 -95h-441zM266 52h108q151 0 233 69q91 76 91 211q0 121 -77 200q-83 83 -250 83
h-105v-245h172v-50h-172v-268z" />
    <glyph glyph-name="Ntilde" unicode="&#xd1;" horiz-adv-x="971" 
d="M224 562v-418q0 -50 23 -69q28 -23 94 -23h21v-52h-331v52h21q71 0 98 27q19 19 19 65v378q0 49 -23 69q-28 23 -94 23h-21v53h226l491 -511v366q0 49 -23 69q-28 23 -94 23h-21v53h330v-53h-21q-73 0 -98 -27q-19 -19 -19 -65v-531h-33zM673 861l36 -9
q-20 -38 -35.5 -55.5t-38.5 -30.5q-35 -18 -71 -18q-28 0 -58 7l-79 18q-41 10 -60 10q-39 0 -64 -35l-40 8q56 101 144 101q25 0 50 -6l69 -16q52 -12 77 -12q47 0 70 38z" />
    <glyph glyph-name="Ograve" unicode="&#xd2;" horiz-adv-x="870" 
d="M447 686q162 0 273.5 -101t111.5 -249q0 -152 -112.5 -253.5t-281.5 -101.5q-162 0 -267 83q-61 47 -96 120t-35 150q0 75 34 146t91 116q115 90 282 90zM440 629q-117 0 -199.5 -86.5t-82.5 -210.5q0 -123 81.5 -210t195.5 -87q116 0 198 87.5t82 211.5q0 115 -70 196
q-37 45 -93 72t-112 27zM249 861h133l107 -114h-94z" />
    <glyph glyph-name="Oacute" unicode="&#xd3;" horiz-adv-x="870" 
d="M447 686q162 0 273.5 -101t111.5 -249q0 -152 -112.5 -253.5t-281.5 -101.5q-162 0 -267 83q-61 47 -96 120t-35 150q0 75 34 146t91 116q115 90 282 90zM440 629q-117 0 -199.5 -86.5t-82.5 -210.5q0 -123 81.5 -210t195.5 -87q116 0 198 87.5t82 211.5q0 115 -70 196
q-37 45 -93 72t-112 27zM622 861l-146 -114h-94l107 114h133z" />
    <glyph glyph-name="Ocircumflex" unicode="&#xd4;" horiz-adv-x="870" 
d="M447 686q162 0 273.5 -101t111.5 -249q0 -152 -112.5 -253.5t-281.5 -101.5q-162 0 -267 83q-61 47 -96 120t-35 150q0 75 34 146t91 116q115 90 282 90zM440 629q-117 0 -199.5 -86.5t-82.5 -210.5q0 -123 81.5 -210t195.5 -87q116 0 198 87.5t82 211.5q0 115 -70 196
q-37 45 -93 72t-112 27zM436 880l197 -98l-56 -54l-141 68l-142 -68l-56 54z" />
    <glyph glyph-name="Otilde" unicode="&#xd5;" horiz-adv-x="870" 
d="M447 686q162 0 273.5 -101t111.5 -249q0 -152 -112.5 -253.5t-281.5 -101.5q-162 0 -267 83q-61 47 -96 120t-35 150q0 75 34 146t91 116q115 90 282 90zM440 629q-117 0 -199.5 -86.5t-82.5 -210.5q0 -123 81.5 -210t195.5 -87q116 0 198 87.5t82 211.5q0 115 -70 196
q-37 45 -93 72t-112 27zM622 861l37 -9q-20 -38 -35.5 -55.5t-38.5 -30.5q-35 -18 -71 -18q-28 0 -59 7l-78 18q-43 10 -60 10q-40 0 -65 -35l-40 8q57 101 144 101q24 0 50 -6l69 -16q53 -12 77 -12q47 0 70 38z" />
    <glyph glyph-name="Odieresis" unicode="&#xd6;" horiz-adv-x="870" 
d="M447 686q162 0 273.5 -101t111.5 -249q0 -152 -112.5 -253.5t-281.5 -101.5q-162 0 -267 83q-61 47 -96 120t-35 150q0 75 34 146t91 116q115 90 282 90zM440 629q-117 0 -199.5 -86.5t-82.5 -210.5q0 -123 81.5 -210t195.5 -87q116 0 198 87.5t82 211.5q0 115 -70 196
q-37 45 -93 72t-112 27zM589 861q24 0 40.5 -16.5t16.5 -40.5q0 -23 -17 -40t-41 -17q-23 0 -39.5 16.5t-16.5 40.5q0 25 16 41t41 16zM281 862q24 0 41 -16.5t17 -40.5t-17 -41t-41 -17t-40.5 16.5t-16.5 41.5t16 41t41 16z" />
    <glyph glyph-name="multiply" unicode="&#xd7;" 
d="M93 533l156 -157l158 158l33 -34l-158 -157l158 -157l-33 -33l-157 158l-157 -158l-34 33l158 158l-157 156z" />
    <glyph glyph-name="Oslash" unicode="&#xd8;" horiz-adv-x="864" 
d="M38 9l96 87q-97 106 -97 239q0 152 112 251.5t282 99.5q159 0 264 -80l98 91l34 -37l-95 -88q35 -36 54 -72q44 -83 44 -170q0 -149 -113.5 -249t-282.5 -100q-152 0 -263 81l-99 -88zM203 157l427 392q-49 43 -93 61.5t-100 18.5q-63 0 -121.5 -27t-99.5 -75
q-65 -79 -65 -197q0 -50 11.5 -87.5t40.5 -85.5zM662 509l-429 -391q56 -44 99.5 -62t96.5 -18q63 0 123.5 29.5t102.5 80.5q59 72 59 185q0 97 -52 176z" />
    <glyph glyph-name="Ugrave" unicode="&#xd9;" horiz-adv-x="948" 
d="M23 614v53h377v-53h-21q-73 0 -98 -27q-19 -19 -19 -65v-270q0 -99 62.5 -156.5t170.5 -57.5t169 52t61 144v288q0 49 -23 69q-28 23 -94 23h-21v53h338v-53h-21q-72 0 -98 -27q-19 -19 -19 -65v-288q0 -134 -88 -196q-79 -57 -218 -57q-152 0 -236 68.5t-84 193.5v279
q0 49 -23 69q-28 23 -94 23h-21zM308 861h133l106 -114h-93z" />
    <glyph glyph-name="Uacute" unicode="&#xda;" horiz-adv-x="948" 
d="M23 614v53h377v-53h-21q-73 0 -98 -27q-19 -19 -19 -65v-270q0 -99 62.5 -156.5t170.5 -57.5t169 52t61 144v288q0 49 -23 69q-28 23 -94 23h-21v53h338v-53h-21q-72 0 -98 -27q-19 -19 -19 -65v-288q0 -134 -88 -196q-79 -57 -218 -57q-152 0 -236 68.5t-84 193.5v279
q0 49 -23 69q-28 23 -94 23h-21zM681 861l-146 -114h-94l106 114h134z" />
    <glyph glyph-name="Ucircumflex" unicode="&#xdb;" horiz-adv-x="948" 
d="M23 614v53h377v-53h-21q-73 0 -98 -27q-19 -19 -19 -65v-270q0 -99 62.5 -156.5t170.5 -57.5t169 52t61 144v288q0 49 -23 69q-28 23 -94 23h-21v53h338v-53h-21q-72 0 -98 -27q-19 -19 -19 -65v-288q0 -134 -88 -196q-79 -57 -218 -57q-152 0 -236 68.5t-84 193.5v279
q0 49 -23 69q-28 23 -94 23h-21zM494 880l198 -98l-56 -54l-142 68l-141 -68l-56 54z" />
    <glyph glyph-name="Udieresis" unicode="&#xdc;" horiz-adv-x="948" 
d="M23 614v53h377v-53h-21q-73 0 -98 -27q-19 -19 -19 -65v-270q0 -99 62.5 -156.5t170.5 -57.5t169 52t61 144v288q0 49 -23 69q-28 23 -94 23h-21v53h338v-53h-21q-72 0 -98 -27q-19 -19 -19 -65v-288q0 -134 -88 -196q-79 -57 -218 -57q-152 0 -236 68.5t-84 193.5v279
q0 49 -23 69q-28 23 -94 23h-21zM648 861q24 0 40.5 -16.5t16.5 -40.5q0 -23 -17 -40t-41 -17q-23 0 -39.5 16.5t-16.5 40.5q0 25 16 41t41 16zM340 862q24 0 41 -16.5t17 -40.5t-17 -41t-41 -17t-40.5 16.5t-16.5 41.5t16 41t41 16z" />
    <glyph glyph-name="Yacute" unicode="&#xdd;" horiz-adv-x="833" 
d="M437 334l133 182q25 34 25 54q0 23 -21.5 33.5t-70.5 10.5h-18v53h329v-53h-17q-90 0 -164 -100l-168 -229v-141q0 -49 23 -69q28 -23 94 -23h22v-52h-377v52h21q71 0 98 27q19 19 19 65v141l-184 257q-31 43 -59.5 57.5t-81.5 14.5h-21v53h380v-53h-32q-80 0 -80 -41
q0 -13 3.5 -20t24.5 -38zM636 861l-146 -114h-93l106 114h133z" />
    <glyph glyph-name="Thorn" unicode="&#xde;" horiz-adv-x="681" 
d="M273 533h142q125 0 178 -57q45 -50 45 -115q0 -86 -68 -137q-50 -38 -158 -38h-139v-41q0 -50 23 -69q27 -24 94 -24h21v-52h-376v52h21q71 0 98 27q19 20 19 66v377q0 49 -23 69q-28 23 -94 23h-21v53h376v-53h-21q-80 0 -105 -36q-11 -14 -12 -45zM273 481v-243h113
q67 0 106 32t39 87q0 58 -39 91t-109 33h-110z" />
    <glyph glyph-name="germandbls" unicode="&#xdf;" horiz-adv-x="631" 
d="M28 457h98q1 63 11 98t33 63q54 63 160 63q78 0 128 -37.5t50 -96.5q0 -43 -26.5 -68.5t-85.5 -39.5q58 -7 89.5 -21t57.5 -45q50 -59 50 -154q0 -102 -53 -167.5t-135 -65.5q-87 0 -122 80q-17 38 -17 105h42q3 -68 18 -99q22 -41 63 -41q48 0 78 51.5t30 134.5
q0 103 -52 153q-39 39 -128 43v47q47 1 69 15q35 22 35 66q0 37 -28 63t-69 26q-56 0 -85.5 -37t-29.5 -107v-486h-178v48q58 0 76.5 19t18.5 80v183q0 44 -19 62t-65 18h-14v47z" />
    <glyph glyph-name="agrave" unicode="&#xe0;" horiz-adv-x="611" 
d="M390 89v13q-29 -55 -80.5 -85.5t-116.5 -30.5q-68 0 -110 35t-42 91q0 73 73 110q33 17 56 24.5t127 33.5q52 13 71.5 27.5t19.5 38.5q0 33 -34.5 56.5t-83.5 23.5q-63 0 -99 -37q22 -16 22 -36q0 -23 -17 -39t-41 -16q-26 0 -43.5 18.5t-17.5 46.5q0 49 55 78.5
t144 29.5q83 0 136 -32q34 -21 49 -57.5t15 -98.5v-157q0 -55 13 -69q9 -9 26 -9q25 0 34.5 20t9.5 71v45h43v-74q0 -58 -29 -91t-80 -33q-44 0 -72 29t-28 74zM388 196l2 82q-15 -21 -36 -32t-86 -29q-67 -19 -97.5 -43.5t-30.5 -58.5q0 -31 21.5 -50t55.5 -19
q64 0 116.5 46t54.5 104zM129 672h116l77 -134h-77z" />
    <glyph glyph-name="aacute" unicode="&#xe1;" horiz-adv-x="611" 
d="M390 89v13q-29 -55 -80.5 -85.5t-116.5 -30.5q-68 0 -110 35t-42 91q0 73 73 110q33 17 56 24.5t127 33.5q52 13 71.5 27.5t19.5 38.5q0 33 -34.5 56.5t-83.5 23.5q-63 0 -99 -37q22 -16 22 -36q0 -23 -17 -39t-41 -16q-26 0 -43.5 18.5t-17.5 46.5q0 49 55 78.5
t144 29.5q83 0 136 -32q34 -21 49 -57.5t15 -98.5v-157q0 -55 13 -69q9 -9 26 -9q25 0 34.5 20t9.5 71v45h43v-74q0 -58 -29 -91t-80 -33q-44 0 -72 29t-28 74zM388 196l2 82q-15 -21 -36 -32t-86 -29q-67 -19 -97.5 -43.5t-30.5 -58.5q0 -31 21.5 -50t55.5 -19
q64 0 116.5 46t54.5 104zM426 672l-116 -134h-78l78 134h116z" />
    <glyph glyph-name="acircumflex" unicode="&#xe2;" horiz-adv-x="611" 
d="M390 89v13q-29 -55 -80.5 -85.5t-116.5 -30.5q-68 0 -110 35t-42 91q0 73 73 110q33 17 56 24.5t127 33.5q52 13 71.5 27.5t19.5 38.5q0 33 -34.5 56.5t-83.5 23.5q-63 0 -99 -37q22 -16 22 -36q0 -23 -17 -39t-41 -16q-26 0 -43.5 18.5t-17.5 46.5q0 49 55 78.5
t144 29.5q83 0 136 -32q34 -21 49 -57.5t15 -98.5v-157q0 -55 13 -69q9 -9 26 -9q25 0 34.5 20t9.5 71v45h43v-74q0 -58 -29 -91t-80 -33q-44 0 -72 29t-28 74zM388 196l2 82q-15 -21 -36 -32t-86 -29q-67 -19 -97.5 -43.5t-30.5 -58.5q0 -31 21.5 -50t55.5 -19
q64 0 116.5 46t54.5 104zM272 687l168 -111l-54 -53l-114 77l-114 -77l-54 53z" />
    <glyph glyph-name="atilde" unicode="&#xe3;" horiz-adv-x="611" 
d="M390 89v13q-29 -55 -80.5 -85.5t-116.5 -30.5q-68 0 -110 35t-42 91q0 73 73 110q33 17 56 24.5t127 33.5q52 13 71.5 27.5t19.5 38.5q0 33 -34.5 56.5t-83.5 23.5q-63 0 -99 -37q22 -16 22 -36q0 -23 -17 -39t-41 -16q-26 0 -43.5 18.5t-17.5 46.5q0 49 55 78.5
t144 29.5q83 0 136 -32q34 -21 49 -57.5t15 -98.5v-157q0 -55 13 -69q9 -9 26 -9q25 0 34.5 20t9.5 71v45h43v-74q0 -58 -29 -91t-80 -33q-44 0 -72 29t-28 74zM388 196l2 82q-15 -21 -36 -32t-86 -29q-67 -19 -97.5 -43.5t-30.5 -58.5q0 -31 21.5 -50t55.5 -19
q64 0 116.5 46t54.5 104zM411 652h33q-20 -102 -101 -102q-26 0 -91 22q-56 19 -80 19q-34 0 -40 -32h-31q6 40 21 61q30 41 76 41q25 0 78 -20q56 -22 87 -22q41 0 48 33z" />
    <glyph glyph-name="adieresis" unicode="&#xe4;" horiz-adv-x="611" 
d="M390 89v13q-29 -55 -80.5 -85.5t-116.5 -30.5q-68 0 -110 35t-42 91q0 73 73 110q33 17 56 24.5t127 33.5q52 13 71.5 27.5t19.5 38.5q0 33 -34.5 56.5t-83.5 23.5q-63 0 -99 -37q22 -16 22 -36q0 -23 -17 -39t-41 -16q-26 0 -43.5 18.5t-17.5 46.5q0 49 55 78.5
t144 29.5q83 0 136 -32q34 -21 49 -57.5t15 -98.5v-157q0 -55 13 -69q9 -9 26 -9q25 0 34.5 20t9.5 71v45h43v-74q0 -58 -29 -91t-80 -33q-44 0 -72 29t-28 74zM388 196l2 82q-15 -21 -36 -32t-86 -29q-67 -19 -97.5 -43.5t-30.5 -58.5q0 -31 21.5 -50t55.5 -19
q64 0 116.5 46t54.5 104zM388 662q24 0 40.5 -16.5t16.5 -40.5q0 -23 -17 -40t-41 -17q-23 0 -39.5 16.5t-16.5 40.5q0 25 16 41t41 16zM156 662q24 0 40.5 -16.5t16.5 -40.5q0 -23 -17 -40t-41 -17q-23 0 -39.5 16.5t-16.5 40.5q0 25 16 41t41 16z" />
    <glyph glyph-name="aring" unicode="&#xe5;" horiz-adv-x="611" 
d="M390 89v13q-29 -55 -80.5 -85.5t-116.5 -30.5q-68 0 -110 35t-42 91q0 73 73 110q33 17 56 24.5t127 33.5q52 13 71.5 27.5t19.5 38.5q0 33 -34.5 56.5t-83.5 23.5q-63 0 -99 -37q22 -16 22 -36q0 -23 -17 -39t-41 -16q-26 0 -43.5 18.5t-17.5 46.5q0 49 55 78.5
t144 29.5q83 0 136 -32q34 -21 49 -57.5t15 -98.5v-157q0 -55 13 -69q9 -9 26 -9q25 0 34.5 20t9.5 71v45h43v-74q0 -58 -29 -91t-80 -33q-44 0 -72 29t-28 74zM388 196l2 82q-15 -21 -36 -32t-86 -29q-67 -19 -97.5 -43.5t-30.5 -58.5q0 -31 21.5 -50t55.5 -19
q64 0 116.5 46t54.5 104zM272 723q45 0 76 -31.5t31 -77.5q0 -43 -31 -73.5t-75 -30.5q-45 0 -76.5 31.5t-31.5 75.5t31.5 75t75.5 31zM272 662q-19 0 -32.5 -14t-13.5 -33t13.5 -32.5t32.5 -13.5t32 13t13 32q0 20 -13 34t-32 14z" />
    <glyph glyph-name="ae" unicode="&#xe6;" horiz-adv-x="890" 
d="M790 140h54q-19 -60 -61 -96q-64 -58 -158 -58q-101 0 -176 65q-32 28 -51 69q-28 -58 -85 -96t-118 -38q-65 0 -110 38.5t-45 94.5q0 63 63 103t178 59q58 10 82.5 26t24.5 45q0 32 -33.5 54t-83.5 22q-63 0 -99 -36q21 -11 21 -35t-16 -39.5t-41 -15.5q-26 0 -42.5 17
t-16.5 44q0 49 52 78.5t140 29.5q122 0 178 -66q38 37 76 51.5t94 14.5q149 0 210 -115q28 -52 29 -146h-384q10 -79 53.5 -124.5t110.5 -45.5q99 0 154 100zM381 214v18q0 20 4 41q-49 -28 -94 -42q-76 -22 -107 -39q-46 -27 -46 -70q0 -31 23 -52.5t55 -21.5
q59 0 112.5 46t53.5 97q0 11 -1 23zM472 258h286q-2 74 -39.5 117.5t-98.5 43.5t-101 -43.5t-47 -117.5z" />
    <glyph glyph-name="ccedilla" unicode="&#xe7;" horiz-adv-x="517" 
d="M252 -89l10 73q-70 5 -131 49q-42 31 -67.5 85t-25.5 112q0 105 72.5 173t184.5 68q71 0 114 -24q29 -14 47.5 -41t18.5 -55q0 -25 -17.5 -42.5t-42.5 -17.5q-23 0 -39 15.5t-16 38.5q0 31 27 41q-29 39 -87 39q-72 0 -117.5 -54.5t-45.5 -140.5q0 -85 45 -138t117 -53
q92 0 134 96h56q-20 -70 -67.5 -109t-118.5 -43l-6 -44q75 -7 75 -61q0 -32 -25.5 -52t-67.5 -20q-72 0 -87 67h44q7 -30 40 -30q36 0 36 31q0 17 -12.5 27.5t-31.5 10.5q-8 0 -16 -1z" />
    <glyph glyph-name="egrave" unicode="&#xe8;" horiz-adv-x="562" 
d="M524 210h-388q4 -77 49.5 -123t117.5 -46q73 0 118 45q19 19 35 55h57q-21 -73 -78.5 -114t-138.5 -41q-114 0 -186 68.5t-72 177.5q0 104 70.5 171.5t178.5 67.5q70 0 124.5 -31t83.5 -88q28 -55 29 -142zM136 258h292q-3 56 -21 91q-17 35 -50.5 54.5t-74.5 19.5
q-65 0 -104 -44t-42 -121zM131 672h116l77 -134h-77z" />
    <glyph glyph-name="eacute" unicode="&#xe9;" horiz-adv-x="562" 
d="M524 210h-388q4 -77 49.5 -123t117.5 -46q73 0 118 45q19 19 35 55h57q-21 -73 -78.5 -114t-138.5 -41q-114 0 -186 68.5t-72 177.5q0 104 70.5 171.5t178.5 67.5q70 0 124.5 -31t83.5 -88q28 -55 29 -142zM136 258h292q-3 56 -21 91q-17 35 -50.5 54.5t-74.5 19.5
q-65 0 -104 -44t-42 -121zM434 672l-115 -134h-78l78 134h115z" />
    <glyph glyph-name="ecircumflex" unicode="&#xea;" horiz-adv-x="562" 
d="M524 210h-388q4 -77 49.5 -123t117.5 -46q73 0 118 45q19 19 35 55h57q-21 -73 -78.5 -114t-138.5 -41q-114 0 -186 68.5t-72 177.5q0 104 70.5 171.5t178.5 67.5q70 0 124.5 -31t83.5 -88q28 -55 29 -142zM136 258h292q-3 56 -21 91q-17 35 -50.5 54.5t-74.5 19.5
q-65 0 -104 -44t-42 -121zM281 687l168 -111l-54 -53l-114 77l-114 -77l-54 53z" />
    <glyph glyph-name="edieresis" unicode="&#xeb;" horiz-adv-x="562" 
d="M524 210h-388q4 -77 49.5 -123t117.5 -46q73 0 118 45q19 19 35 55h57q-21 -73 -78.5 -114t-138.5 -41q-114 0 -186 68.5t-72 177.5q0 104 70.5 171.5t178.5 67.5q70 0 124.5 -31t83.5 -88q28 -55 29 -142zM136 258h292q-3 56 -21 91q-17 35 -50.5 54.5t-74.5 19.5
q-65 0 -104 -44t-42 -121zM397 662q24 0 40.5 -16.5t16.5 -40.5q0 -23 -17 -40t-41 -17q-23 0 -39.5 16.5t-16.5 40.5q0 25 16 41t41 16zM165 662q24 0 40.5 -16.5t16.5 -40.5q0 -23 -17 -40t-41 -17q-23 0 -39.5 16.5t-16.5 40.5q0 25 16 41t41 16z" />
    <glyph glyph-name="igrave" unicode="&#xec;" horiz-adv-x="337" 
d="M213 457v-309q0 -62 18.5 -81t77.5 -19v-48h-279v48h9q56 0 74.5 20t18.5 78v166q0 58 -18.5 78t-74.5 20h-9v47h183zM5 672h116l77 -134h-77z" />
    <glyph glyph-name="iacute" unicode="&#xed;" horiz-adv-x="337" 
d="M214 457v-309q0 -62 18.5 -81t76.5 -19v-48h-279v48h10q56 0 74.5 20t18.5 78v166q0 58 -18.5 78t-74.5 20h-10v47h184zM322 672l-116 -134h-77l77 134h116z" />
    <glyph glyph-name="icircumflex" unicode="&#xee;" horiz-adv-x="337" 
d="M214 457v-309q0 -62 18.5 -81t76.5 -19v-48h-279v48h10q56 0 74.5 20t18.5 78v166q0 58 -18.5 78t-74.5 20h-10v47h184zM168 687l169 -111l-55 -53l-114 77l-114 -77l-54 53z" />
    <glyph glyph-name="idieresis" unicode="&#xef;" horiz-adv-x="337" 
d="M213 457v-309q0 -62 18.5 -81t77.5 -19v-48h-280v48h10q56 0 74.5 20t18.5 78v166q0 58 -18.5 78t-74.5 20h-10v47h184zM214 662q24 0 40.5 -16.5t16.5 -40.5q0 -23 -17 -40t-41 -17q-23 0 -39.5 16.5t-16.5 40.5q0 25 16 41t41 16zM55 662q24 0 40.5 -16.5t16.5 -40.5
q0 -23 -17 -40t-41 -17q-23 0 -39.5 16.5t-16.5 40.5q0 25 16 41t41 16z" />
    <glyph glyph-name="eth" unicode="&#xf0;" horiz-adv-x="587" 
d="M119 642l17 33l8 -2l6 -1.5t3 -0.5q28 -10 84 -28l16 -5q1 -1 17 -9l106 68l23 -30l-87 -56q56 -31 83 -51.5t54 -50.5q99 -111 99 -258q0 -124 -67 -195t-185 -71q-116 0 -187 68t-71 178q0 135 114 203q62 38 126 38q42 0 92 -20q14 -6 32 -22q-33 54 -62.5 85.5
t-79.5 64.5l-105 -69l-23 31l91 58q-52 30 -104 42zM295 423q-73 0 -115.5 -53.5t-42.5 -145.5q0 -87 42.5 -139t113.5 -52t113.5 52t42.5 139q0 89 -42.5 144t-111.5 55z" />
    <glyph glyph-name="ntilde" unicode="&#xf1;" horiz-adv-x="676" 
d="M209 457v-98q30 59 72.5 85.5t106.5 26.5q80 0 129 -49q27 -28 37.5 -63.5t10.5 -100.5v-110q0 -62 18.5 -81t77.5 -19v-48h-276v48q58 0 76.5 19t18.5 81v128q0 68 -30 99q-33 35 -92 35q-46 0 -82 -25q-34 -24 -48.5 -64.5t-14.5 -108.5v-64q0 -62 18.5 -81t77.5 -19
v-48h-281v48h10q56 0 74.5 20t18.5 78v166q0 58 -18.5 78t-74.5 20h-10v47h181zM477 652h33q-20 -102 -101 -102q-25 0 -91 22q-56 19 -80 19q-34 0 -40 -32h-31q6 40 21 61q30 41 76 41q24 0 79 -20q55 -22 86 -22q41 0 48 33z" />
    <glyph glyph-name="ograve" unicode="&#xf2;" horiz-adv-x="587" 
d="M296 471q109 0 184 -72q31 -30 49.5 -77.5t18.5 -96.5q0 -105 -71.5 -172t-183.5 -67t-183.5 67t-71.5 172q0 108 72 177t186 69zM295 423q-73 0 -115.5 -53.5t-42.5 -145.5q0 -87 42.5 -138.5t113.5 -51.5t113.5 51.5t42.5 139.5q0 89 -42.5 143.5t-111.5 54.5zM150 672
h115l78 -134h-78z" />
    <glyph glyph-name="oacute" unicode="&#xf3;" horiz-adv-x="587" 
d="M296 471q109 0 184 -72q31 -30 49.5 -77.5t18.5 -96.5q0 -105 -71.5 -172t-183.5 -67t-183.5 67t-71.5 172q0 108 72 177t186 69zM295 423q-73 0 -115.5 -53.5t-42.5 -145.5q0 -87 42.5 -138.5t113.5 -51.5t113.5 51.5t42.5 139.5q0 89 -42.5 143.5t-111.5 54.5zM446 672
l-116 -134h-77l77 134h116z" />
    <glyph glyph-name="ocircumflex" unicode="&#xf4;" horiz-adv-x="587" 
d="M296 471q109 0 184 -72q31 -30 49.5 -77.5t18.5 -96.5q0 -105 -71.5 -172t-183.5 -67t-183.5 67t-71.5 172q0 108 72 177t186 69zM295 423q-73 0 -115.5 -53.5t-42.5 -145.5q0 -87 42.5 -138.5t113.5 -51.5t113.5 51.5t42.5 139.5q0 89 -42.5 143.5t-111.5 54.5zM293 687
l168 -111l-54 -53l-114 77l-114 -77l-54 53z" />
    <glyph glyph-name="otilde" unicode="&#xf5;" horiz-adv-x="587" 
d="M296 471q109 0 184 -72q31 -30 49.5 -77.5t18.5 -96.5q0 -105 -71.5 -172t-183.5 -67t-183.5 67t-71.5 172q0 108 72 177t186 69zM295 423q-73 0 -115.5 -53.5t-42.5 -145.5q0 -87 42.5 -138.5t113.5 -51.5t113.5 51.5t42.5 139.5q0 89 -42.5 143.5t-111.5 54.5zM432 652
h33q-20 -102 -101 -102q-26 0 -92 22q-54 19 -80 19q-33 0 -39 -32h-32q8 40 22 61q30 41 76 41q25 0 78 -20q55 -22 87 -22q41 0 48 33z" />
    <glyph glyph-name="odieresis" unicode="&#xf6;" horiz-adv-x="587" 
d="M296 471q109 0 184 -72q31 -30 49.5 -77.5t18.5 -96.5q0 -105 -71.5 -172t-183.5 -67t-183.5 67t-71.5 172q0 108 72 177t186 69zM295 423q-73 0 -115.5 -53.5t-42.5 -145.5q0 -87 42.5 -138.5t113.5 -51.5t113.5 51.5t42.5 139.5q0 89 -42.5 143.5t-111.5 54.5zM409 662
q24 0 40.5 -16.5t16.5 -40.5q0 -23 -17 -40t-41 -17q-23 0 -39.5 16.5t-16.5 40.5q0 25 16 41t41 16zM177 662q24 0 40.5 -16.5t16.5 -40.5q0 -23 -17 -40t-41 -17q-23 0 -39.5 16.5t-16.5 40.5q0 25 16 41t41 16z" />
    <glyph glyph-name="divide" unicode="&#xf7;" 
d="M21 366h458v-46h-458v46zM250 567q16 0 28.5 -12.5t12.5 -28.5q0 -17 -12 -29.5t-29 -12.5t-29.5 12t-12.5 29q0 18 12.5 30t29.5 12zM250 202q17 0 29 -12t12 -29t-12 -29.5t-29 -12.5t-29.5 12.5t-12.5 29.5t12.5 29t29.5 12z" />
    <glyph glyph-name="oslash" unicode="&#xf8;" horiz-adv-x="596" 
d="M36 18l56 54q-47 70 -47 160q0 107 69.5 173.5t182.5 66.5q92 0 167 -48l58 54l35 -36l-58 -55q52 -67 52 -163q0 -106 -71.5 -172t-184.5 -66q-93 0 -164 49l-58 -54zM158 133l250 240q-40 51 -112 51q-70 0 -113.5 -55t-43.5 -142q0 -56 19 -94zM439 328l-251 -238
q42 -56 112 -56t114 57t44 146q0 50 -19 91z" />
    <glyph glyph-name="ugrave" unicode="&#xf9;" horiz-adv-x="646" 
d="M446 0v99q-61 -113 -174 -113q-89 0 -138 57q-39 45 -39 134v149q0 47 -14.5 65t-53.5 18h-8v48h158v-272q0 -63 32 -100.5t86 -37.5q29 0 59.5 15t52.5 40q39 46 39 127v80q0 62 -18.5 81t-77.5 19v48h176v-310q0 -61 18.5 -80t77.5 -19v-48h-176zM160 672h116l77 -134
h-77z" />
    <glyph glyph-name="uacute" unicode="&#xfa;" horiz-adv-x="646" 
d="M446 0v99q-61 -113 -174 -113q-89 0 -138 57q-39 45 -39 134v149q0 47 -14.5 65t-53.5 18h-8v48h158v-272q0 -63 32 -100.5t86 -37.5q29 0 59.5 15t52.5 40q39 46 39 127v80q0 62 -18.5 81t-77.5 19v48h176v-310q0 -61 18.5 -80t77.5 -19v-48h-176zM443 672l-115 -134
h-78l78 134h115z" />
    <glyph glyph-name="ucircumflex" unicode="&#xfb;" horiz-adv-x="646" 
d="M446 0v99q-61 -113 -174 -113q-89 0 -138 57q-39 45 -39 134v149q0 47 -14.5 65t-53.5 18h-8v48h158v-272q0 -63 32 -100.5t86 -37.5q29 0 59.5 15t52.5 40q39 46 39 127v80q0 62 -18.5 81t-77.5 19v48h176v-310q0 -61 18.5 -80t77.5 -19v-48h-176zM290 687l168 -111
l-54 -53l-114 77l-114 -77l-54 53z" />
    <glyph glyph-name="udieresis" unicode="&#xfc;" horiz-adv-x="646" 
d="M446 0v99q-61 -113 -174 -113q-89 0 -138 57q-39 45 -39 134v149q0 47 -14.5 65t-53.5 18h-8v48h158v-272q0 -63 32 -100.5t86 -37.5q29 0 59.5 15t52.5 40q39 46 39 127v80q0 62 -18.5 81t-77.5 19v48h176v-310q0 -61 18.5 -80t77.5 -19v-48h-176zM406 662
q24 0 40.5 -16.5t16.5 -40.5q0 -23 -17 -40t-41 -17q-23 0 -39.5 16.5t-16.5 40.5q0 25 16 41t41 16zM174 662q24 0 40.5 -16.5t16.5 -40.5q0 -23 -17 -40t-41 -17q-23 0 -39.5 16.5t-16.5 40.5q0 25 16 41t41 16z" />
    <glyph glyph-name="yacute" unicode="&#xfd;" horiz-adv-x="633" 
d="M337 66l128 257q16 32 16 50q0 37 -87 37h-22v47h267v-47q-44 0 -63.5 -13t-43.5 -58l-231 -442q-61 -120 -152 -120q-50 0 -83.5 29t-33.5 72q0 29 17 48t43 19q23 0 39 -15.5t16 -38.5q0 -19 -11.5 -31.5t-28.5 -14.5q20 -19 41 -19q31 0 56 21.5t53 70.5l32 59
l-182 362q-23 41 -48 56.5t-65 14.5v47h304v-47q-63 0 -85 -7.5t-22 -27.5q0 -15 24 -64zM496 672l-115 -134h-78l78 134h115z" />
    <glyph glyph-name="thorn" unicode="&#xfe;" horiz-adv-x="614" 
d="M181 667v-292q69 96 175 96q99 0 159 -66.5t60 -175.5q0 -97 -54 -164q-65 -79 -161 -79q-57 0 -105 28.5t-74 76.5v-116q0 -80 17.5 -109t64.5 -29h21v-46h-289v47h9q58 0 77 19.5t19 78.5v585q0 58 -18.5 78t-74.5 20h-10v48h184zM181 261v-56q9 -73 50.5 -118
t99.5 -45q63 0 105.5 55t42.5 137q0 80 -41.5 131t-106.5 51q-61 0 -101 -41.5t-49 -113.5z" />
    <glyph glyph-name="ydieresis" unicode="&#xff;" horiz-adv-x="633" 
d="M337 66l128 257q16 32 16 50q0 37 -87 37h-22v47h267v-47q-44 0 -63.5 -13t-43.5 -58l-231 -442q-61 -120 -152 -120q-50 0 -83.5 29t-33.5 72q0 29 17 48t43 19q23 0 39 -15.5t16 -38.5q0 -19 -11.5 -31.5t-28.5 -14.5q20 -19 41 -19q31 0 56 21.5t53 70.5l32 59
l-182 362q-23 41 -48 56.5t-65 14.5v47h304v-47q-63 0 -85 -7.5t-22 -27.5q0 -15 24 -64zM466 662q24 0 40.5 -16.5t16.5 -40.5q0 -23 -17 -40t-41 -17q-23 0 -39.5 16.5t-16.5 40.5q0 25 16 41t41 16zM233 662q24 0 40.5 -16.5t16.5 -40.5q0 -23 -17 -40t-41 -17
q-23 0 -39.5 16.5t-16.5 40.5q0 25 16 41t41 16z" />
    <glyph glyph-name="Amacron" unicode="&#x100;" horiz-adv-x="894" 
d="M259 238l-45 -87q-13 -25 -15 -43q-2 -21 18 -37q20 -19 73 -19h34v-52h-343v52h29q64 0 101 47q39 50 71 109l246 459h38l267 -494q37 -68 63 -91q34 -30 86 -30h31v-52h-386v52h33q90 0 90 49q0 19 -13 45l-48 92h-330zM285 286h278l-139 271zM619 770h-343v68h343v-68
z" />
    <glyph glyph-name="amacron" unicode="&#x101;" horiz-adv-x="611" 
d="M390 89v13q-29 -55 -80.5 -85.5t-116.5 -30.5q-68 0 -110 35t-42 91q0 73 73 110q33 17 56 24.5t127 33.5q52 13 71.5 27.5t19.5 38.5q0 33 -34.5 56.5t-83.5 23.5q-63 0 -99 -37q22 -16 22 -36q0 -23 -17 -39t-41 -16q-26 0 -43.5 18.5t-17.5 46.5q0 49 55 78.5
t144 29.5q83 0 136 -32q34 -21 49 -57.5t15 -98.5v-157q0 -55 13 -69q9 -9 26 -9q25 0 34.5 20t9.5 71v45h43v-74q0 -58 -29 -91t-80 -33q-44 0 -72 29t-28 74zM388 196l2 82q-15 -21 -36 -32t-86 -29q-67 -19 -97.5 -43.5t-30.5 -58.5q0 -31 21.5 -50t55.5 -19
q64 0 116.5 46t54.5 104zM444 571h-343v68h343v-68z" />
    <glyph glyph-name="Abreve" unicode="&#x102;" horiz-adv-x="894" 
d="M259 238l-45 -87q-13 -25 -15 -43q-2 -21 18 -37q20 -19 73 -19h34v-52h-343v52h29q64 0 101 47q39 50 71 109l246 459h38l267 -494q37 -68 63 -91q34 -30 86 -30h31v-52h-386v52h33q90 0 90 49q0 19 -13 45l-48 92h-330zM285 286h278l-139 271zM254 868h42
q43 -48 151 -48q107 0 150 48h43q-7 -50 -47 -82q-60 -47 -146 -47q-94 0 -153 53q-35 31 -40 76z" />
    <glyph glyph-name="abreve" unicode="&#x103;" horiz-adv-x="611" 
d="M390 89v13q-29 -55 -80.5 -85.5t-116.5 -30.5q-68 0 -110 35t-42 91q0 73 73 110q33 17 56 24.5t127 33.5q52 13 71.5 27.5t19.5 38.5q0 33 -34.5 56.5t-83.5 23.5q-63 0 -99 -37q22 -16 22 -36q0 -23 -17 -39t-41 -16q-26 0 -43.5 18.5t-17.5 46.5q0 49 55 78.5
t144 29.5q83 0 136 -32q34 -21 49 -57.5t15 -98.5v-157q0 -55 13 -69q9 -9 26 -9q25 0 34.5 20t9.5 71v45h43v-74q0 -58 -29 -91t-80 -33q-44 0 -72 29t-28 74zM388 196l2 82q-15 -21 -36 -32t-86 -29q-67 -19 -97.5 -43.5t-30.5 -58.5q0 -31 21.5 -50t55.5 -19
q64 0 116.5 46t54.5 104zM99 669h38q42 -47 135 -47t135 47h39q-8 -50 -43 -81q-53 -47 -131 -47q-83 0 -138 53q-31 31 -35 75z" />
    <glyph glyph-name="Aogonek" unicode="&#x104;" horiz-adv-x="894" 
d="M913 52v-52h-32q-77 -33 -77 -82q0 -18 11 -29.5t28 -11.5q22 0 48 13q6 3 11 5l16 -34q-46 -39 -91 -39q-37 0 -64 24t-27 58q0 60 75 96h-284v52h33q90 0 90 49q0 19 -13 45l-48 92h-330l-45 -87q-13 -25 -15 -43q-2 -21 18 -37q20 -19 73 -19h34v-52h-343v52h29
q64 0 101 47q39 50 71 109l246 459h38l267 -494q37 -68 63 -91q34 -30 86 -30h31zM285 286h278l-139 271z" />
    <glyph glyph-name="aogonek" unicode="&#x105;" horiz-adv-x="611" 
d="M556 184h43v-74q0 -84 -61 -114q-69 -34 -69 -78q0 -18 11 -29.5t28 -11.5q22 0 48 13l2 1q2 1 4.5 2t5.5 2l16 -34q-46 -39 -92 -39q-37 0 -64 24t-27 58q0 53 57 86q-68 26 -68 99v13q-29 -55 -80.5 -85.5t-116.5 -30.5q-68 0 -110 35t-42 91q0 73 73 110
q33 17 56 24.5t127 33.5q52 13 71.5 27.5t19.5 38.5q0 33 -34.5 56.5t-83.5 23.5q-63 0 -99 -37q22 -16 22 -36q0 -23 -17 -39t-41 -16q-26 0 -43.5 18.5t-17.5 46.5q0 49 55 78.5t144 29.5q83 0 136 -32q34 -21 49 -57.5t15 -98.5v-157q0 -55 13 -69q9 -9 26 -9
q25 0 34.5 20t9.5 71v45zM388 196l2 82q-15 -21 -36 -32t-86 -29q-67 -19 -97.5 -43.5t-30.5 -58.5q0 -31 21.5 -50t55.5 -19q64 0 116.5 46t54.5 104z" />
    <glyph glyph-name="Cacute" unicode="&#x106;" horiz-adv-x="775" 
d="M680 672h48v-246h-45q-12 76 -46 119q-34 40 -91 63.5t-120 23.5q-128 0 -205 -93q-73 -90 -73 -201q0 -119 80.5 -204.5t192.5 -85.5q110 0 190 75q35 31 63 91h64q-20 -72 -66 -120q-107 -113 -267 -113t-262.5 100t-102.5 255q0 153 100.5 251t257.5 98q74 0 197 -42
q24 -9 41 -9q38 0 44 38zM595 861l-146 -114h-94l106 114h134z" />
    <glyph glyph-name="cacute" unicode="&#x107;" horiz-adv-x="515" 
d="M430 138h57q-48 -152 -209 -152q-102 0 -171 71t-69 175q0 106 71.5 172.5t186.5 66.5q76 0 126 -32.5t50 -82.5q0 -26 -17 -44.5t-42 -18.5q-23 0 -39 15.5t-16 37.5q0 30 29 44q-32 36 -91 36q-70 0 -114.5 -53.5t-44.5 -139.5q0 -83 44.5 -137t114.5 -54q47 0 83.5 26
t50.5 70zM437 672l-116 -134h-77l77 134h116z" />
    <glyph glyph-name="Ccircumflex" unicode="&#x108;" horiz-adv-x="775" 
d="M680 672h48v-246h-45q-12 76 -46 119q-34 40 -91 63.5t-120 23.5q-128 0 -205 -93q-73 -90 -73 -201q0 -119 80.5 -204.5t192.5 -85.5q110 0 190 75q35 31 63 91h64q-20 -72 -66 -120q-107 -113 -267 -113t-262.5 100t-102.5 255q0 153 100.5 251t257.5 98q74 0 197 -42
q24 -9 41 -9q38 0 44 38zM401 880l198 -98l-56 -54l-142 68l-141 -68l-56 54z" />
    <glyph glyph-name="Cdotaccent" unicode="&#x10a;" horiz-adv-x="775" 
d="M680 672h48v-246h-45q-12 76 -46 119q-34 40 -91 63.5t-120 23.5q-128 0 -205 -93q-73 -90 -73 -201q0 -119 80.5 -204.5t192.5 -85.5q110 0 190 75q35 31 63 91h64q-20 -72 -66 -120q-107 -113 -267 -113t-262.5 100t-102.5 255q0 153 100.5 251t257.5 98q74 0 197 -42
q24 -9 41 -9q38 0 44 38zM408 861q24 0 40.5 -16.5t16.5 -40.5q0 -23 -17 -40t-41 -17q-23 0 -39.5 16.5t-16.5 40.5q0 25 16 41t41 16z" />
    <glyph glyph-name="cdotaccent" unicode="&#x10b;" horiz-adv-x="515" 
d="M430 138h57q-48 -152 -209 -152q-102 0 -171 71t-69 175q0 106 71.5 172.5t186.5 66.5q76 0 126 -32.5t50 -82.5q0 -26 -17 -44.5t-42 -18.5q-23 0 -39 15.5t-16 37.5q0 30 29 44q-32 36 -91 36q-70 0 -114.5 -53.5t-44.5 -139.5q0 -83 44.5 -137t114.5 -54q47 0 83.5 26
t50.5 70zM283 662q24 0 40.5 -16.5t16.5 -40.5q0 -23 -17 -40t-41 -17q-23 0 -39.5 16.5t-16.5 40.5q0 25 16 41t41 16z" />
    <glyph glyph-name="Ccaron" unicode="&#x10c;" horiz-adv-x="775" 
d="M680 672h48v-246h-45q-12 76 -46 119q-34 40 -91 63.5t-120 23.5q-128 0 -205 -93q-73 -90 -73 -201q0 -119 80.5 -204.5t192.5 -85.5q110 0 190 75q35 31 63 91h64q-20 -72 -66 -120q-107 -113 -267 -113t-262.5 100t-102.5 255q0 153 100.5 251t257.5 98q74 0 197 -42
q24 -9 41 -9q38 0 44 38zM408 728l-198 98l56 54l142 -68l142 68l56 -54z" />
    <glyph glyph-name="ccaron" unicode="&#x10d;" horiz-adv-x="515" 
d="M430 138h57q-48 -152 -209 -152q-102 0 -171 71t-69 175q0 106 71.5 172.5t186.5 66.5q76 0 126 -32.5t50 -82.5q0 -26 -17 -44.5t-42 -18.5q-23 0 -39 15.5t-16 37.5q0 30 29 44q-32 36 -91 36q-70 0 -114.5 -53.5t-44.5 -139.5q0 -83 44.5 -137t114.5 -54q47 0 83.5 26
t50.5 70zM277 523l-168 111l54 53l114 -76l114 76l54 -53z" />
    <glyph glyph-name="Dcaron" unicode="&#x10e;" horiz-adv-x="855" 
d="M34 0v52h21q71 0 98 27q19 19 19 65v379q0 49 -23 69q-28 23 -94 23h-21v52h414q91 0 156 -24.5t117 -78.5q93 -96 93 -231q0 -139 -101 -238q-96 -95 -238 -95h-441zM270 52h108q151 0 233 69q90 78 90 211q0 121 -77 200q-83 83 -250 83h-104v-563zM427 728l-198 98
l57 54l141 -68l142 68l56 -54z" />
    <glyph glyph-name="dcaron" unicode="&#x10f;" horiz-adv-x="859" 
d="M432 0v87q-72 -102 -181 -102q-94 0 -153.5 69.5t-59.5 178.5q0 108 60.5 173t161.5 65q106 0 172 -92v142q0 59 -19 78.5t-75 19.5h-9v48h185v-520q0 -61 18.5 -80t76.5 -19v-48h-177zM282 418q-65 0 -107.5 -52t-42.5 -132q0 -84 42.5 -140.5t105.5 -56.5t109 57
t46 136q0 81 -43.5 134.5t-109.5 53.5zM639 455l-18 30q29 16 49 45t21 55q-11 -4 -18 -4q-22 0 -36 14t-14 36q0 24 16 39.5t41 15.5q28 0 45.5 -19.5t17.5 -51.5q0 -93 -104 -160z" />
    <glyph glyph-name="Dcroat" unicode="&#x110;" horiz-adv-x="847" 
d="M30 0v52h21q71 0 98 27q19 19 19 65v176h-124v50h124v153q0 29 -4.5 43t-18.5 25q-27 24 -94 24h-21v52h414q92 0 156.5 -24.5t117.5 -78.5q93 -98 93 -231q0 -139 -101 -238q-98 -95 -239 -95h-441zM266 52h108q151 0 233 69q91 76 91 211q0 121 -77 200q-83 83 -250 83
h-105v-245h172v-50h-172v-268z" />
    <glyph glyph-name="dcroat" unicode="&#x111;" horiz-adv-x="632" 
d="M432 0v87q-72 -102 -181 -102q-93 0 -153 69.5t-60 177.5q0 104 60.5 166.5t162.5 62.5q105 0 171 -82v129h-163v50h163v9q0 52 -94 52h-9v48h185v-109h76v-50h-76v-361q0 -61 18.5 -80t76.5 -19v-48h-177zM282 408q-65 0 -107.5 -49.5t-42.5 -125.5q0 -83 42.5 -139.5
t105.5 -56.5t109 57t46 134q0 83 -45 131q-47 49 -108 49z" />
    <glyph glyph-name="Emacron" unicode="&#x112;" horiz-adv-x="775" 
d="M269 52h219q73 0 100 19q31 22 45 61.5t22 122.5h47v-255h-668v52h21q71 0 98 27q19 19 19 65v378q0 50 -23 69q-27 24 -94 24h-21v52h668v-232h-47q-5 57 -13 86.5t-26 51.5q-36 42 -126 42h-221v-246h105q58 0 81 45q14 30 15 97h48v-345h-48q-1 88 -21.5 120.5
t-74.5 32.5h-105v-267zM559 770h-343v68h343v-68z" />
    <glyph glyph-name="emacron" unicode="&#x113;" horiz-adv-x="562" 
d="M524 210h-388q4 -77 49.5 -123t117.5 -46q73 0 118 45q19 19 35 55h57q-21 -73 -78.5 -114t-138.5 -41q-114 0 -186 68.5t-72 177.5q0 104 70.5 171.5t178.5 67.5q70 0 124.5 -31t83.5 -88q28 -55 29 -142zM136 258h292q-3 56 -21 91q-17 35 -50.5 54.5t-74.5 19.5
q-65 0 -104 -44t-42 -121zM452 571h-342v68h342v-68z" />
    <glyph glyph-name="Ebreve" unicode="&#x114;" horiz-adv-x="775" 
d="M269 52h219q73 0 100 19q31 22 45 61.5t22 122.5h47v-255h-668v52h21q71 0 98 27q19 19 19 65v378q0 50 -23 69q-27 24 -94 24h-21v52h668v-232h-47q-5 57 -13 86.5t-26 51.5q-36 42 -126 42h-221v-246h105q58 0 81 45q14 30 15 97h48v-345h-48q-1 88 -21.5 120.5
t-74.5 32.5h-105v-267zM194 868h42q45 -48 151 -48q107 0 150 48h44q-8 -50 -48 -82q-60 -47 -146 -47q-94 0 -153 53q-35 32 -40 76z" />
    <glyph glyph-name="Edotaccent" unicode="&#x116;" horiz-adv-x="775" 
d="M269 52h219q73 0 100 19q31 22 45 61.5t22 122.5h47v-255h-668v52h21q71 0 98 27q19 19 19 65v378q0 50 -23 69q-27 24 -94 24h-21v52h668v-232h-47q-5 57 -13 86.5t-26 51.5q-36 42 -126 42h-221v-246h105q58 0 81 45q14 30 15 97h48v-345h-48q-1 88 -21.5 120.5
t-74.5 32.5h-105v-267zM387 861q24 0 40.5 -16.5t16.5 -40.5q0 -23 -17 -40t-41 -17q-23 0 -39.5 16.5t-16.5 40.5q0 25 16 41t41 16z" />
    <glyph glyph-name="edotaccent" unicode="&#x117;" horiz-adv-x="562" 
d="M524 210h-388q4 -77 49.5 -123t117.5 -46q73 0 118 45q19 19 35 55h57q-21 -73 -78.5 -114t-138.5 -41q-114 0 -186 68.5t-72 177.5q0 104 70.5 171.5t178.5 67.5q70 0 124.5 -31t83.5 -88q28 -55 29 -142zM136 258h292q-3 56 -21 91q-17 35 -50.5 54.5t-74.5 19.5
q-65 0 -104 -44t-42 -121zM281 662q24 0 40.5 -16.5t16.5 -40.5q0 -23 -17 -40t-41 -17q-23 0 -39.5 16.5t-16.5 40.5q0 25 16 41t41 16z" />
    <glyph glyph-name="Eogonek" unicode="&#x118;" horiz-adv-x="775" 
d="M702 0h-28q-77 -33 -77 -82q0 -18 11 -29.5t28 -11.5q22 0 48 13q6 3 12 5l15 -34q-46 -39 -91 -39q-37 0 -64 24t-27 58q0 59 75 96h-570v52h21q71 0 98 27q19 19 19 65v378q0 50 -23 69q-27 24 -94 24h-21v52h668v-232h-47q-5 57 -13 86.5t-26 51.5q-36 42 -126 42
h-221v-246h105q58 0 81 45q14 30 15 97h48v-345h-48q-1 88 -21.5 120.5t-74.5 32.5h-105v-267h219q73 0 100 19q31 22 45 61.5t22 122.5h47v-255z" />
    <glyph glyph-name="eogonek" unicode="&#x119;" horiz-adv-x="562" 
d="M456 141h57q-25 -95 -125 -140q-43 -18 -59 -34q-25 -27 -25 -50q0 -18 11 -29.5t28 -11.5q22 0 48 13l2 1l5 2.5l5 2.5l16 -35q-46 -39 -92 -39q-37 0 -64 24t-27 58q0 47 50 82q-112 5 -180 72.5t-68 173.5q0 104 70.5 172t178.5 68q70 0 124.5 -31t83.5 -88
q28 -55 29 -142h-388q4 -77 49.5 -123.5t117.5 -46.5q74 0 118 46q18 17 35 55zM136 258h292q-3 56 -21 91q-17 35 -50.5 54.5t-74.5 19.5q-65 0 -104 -44t-42 -121z" />
    <glyph glyph-name="Ecaron" unicode="&#x11a;" horiz-adv-x="775" 
d="M269 52h219q73 0 100 19q31 22 45 61.5t22 122.5h47v-255h-668v52h21q71 0 98 27q19 19 19 65v378q0 50 -23 69q-27 24 -94 24h-21v52h668v-232h-47q-5 57 -13 86.5t-26 51.5q-36 42 -126 42h-221v-246h105q58 0 81 45q14 30 15 97h48v-345h-48q-1 88 -21.5 120.5
t-74.5 32.5h-105v-267zM387 728l-197 98l56 54l141 -68l142 68l56 -54z" />
    <glyph glyph-name="ecaron" unicode="&#x11b;" horiz-adv-x="562" 
d="M524 210h-388q4 -77 49.5 -123t117.5 -46q73 0 118 45q19 19 35 55h57q-21 -73 -78.5 -114t-138.5 -41q-114 0 -186 68.5t-72 177.5q0 104 70.5 171.5t178.5 67.5q70 0 124.5 -31t83.5 -88q28 -55 29 -142zM136 258h292q-3 56 -21 91q-17 35 -50.5 54.5t-74.5 19.5
q-65 0 -104 -44t-42 -121zM281 523l-168 111l54 53l114 -76l114 76l54 -53z" />
    <glyph glyph-name="Gcircumflex" unicode="&#x11c;" horiz-adv-x="851" 
d="M669 0l-36 86q-37 -39 -70 -59q-81 -47 -178 -47q-145 0 -245 103t-100 253q0 152 98 250.5t249 98.5q81 0 179 -34q30 -9 43 -9q34 0 37 34h48v-249h-48q-4 54 -23 92q-29 53 -86 84.5t-124 31.5q-113 0 -187 -83t-74 -209q0 -125 78 -213t189 -88q67 0 125 44t58 95
q0 17 -10 33t-25 22q-23 11 -87 11h-15v48h369v-48h-12q-47 0 -64 -3.5t-33 -16.5q-28 -22 -28 -89v-138h-28zM406 880l197 -98l-56 -54l-141 68l-142 -68l-56 54z" />
    <glyph glyph-name="gcircumflex" unicode="&#x11d;" horiz-adv-x="675" 
d="M202 46h206q106 0 146 -32q38 -31 38 -83q0 -74 -76.5 -114t-216.5 -40q-160 0 -222 40q-49 31 -49 76q0 59 72 89q-66 28 -66 94q0 38 24.5 65t67.5 37q-54 50 -54 115q0 76 63 127t156 51q57 0 98 -17t81 -57q36 60 104 60q39 0 66.5 -28.5t27.5 -68.5
q0 -27 -17.5 -46.5t-42.5 -19.5q-22 0 -38 15t-16 36q0 41 50 47q-15 18 -36 18q-41 0 -73 -48q17 -31 17 -70q0 -72 -65.5 -120.5t-162.5 -48.5q-67 0 -122 32q-60 -14 -60 -58q0 -29 26 -42q16 -9 74 -9zM289 426q-54 0 -91 -36.5t-37 -89.5q0 -59 36.5 -96.5t94.5 -37.5
q56 0 92.5 37t36.5 92t-38.5 93t-93.5 38zM390 -31h-174q-129 0 -129 -68q0 -76 194 -76q90 0 144 13q72 18 72 66q0 29 -29.5 47t-77.5 18zM298 687l168 -111l-54 -53l-114 77l-114 -77l-54 53z" />
    <glyph glyph-name="Gbreve" unicode="&#x11e;" horiz-adv-x="851" 
d="M669 0l-36 86q-37 -39 -70 -59q-81 -47 -178 -47q-145 0 -245 103t-100 253q0 152 98 250.5t249 98.5q81 0 179 -34q30 -9 43 -9q34 0 37 34h48v-249h-48q-4 54 -23 92q-29 53 -86 84.5t-124 31.5q-113 0 -187 -83t-74 -209q0 -125 78 -213t189 -88q67 0 125 44t58 95
q0 17 -10 33t-25 22q-23 11 -87 11h-15v48h369v-48h-12q-47 0 -64 -3.5t-33 -16.5q-28 -22 -28 -89v-138h-28zM212 868h43q43 -48 150 -48q108 0 151 48h43q-8 -50 -48 -82q-60 -47 -146 -47q-92 0 -153 53q-35 32 -40 76z" />
    <glyph glyph-name="gbreve" unicode="&#x11f;" horiz-adv-x="675" 
d="M202 46h206q106 0 146 -32q38 -31 38 -83q0 -74 -76.5 -114t-216.5 -40q-160 0 -222 40q-49 31 -49 76q0 59 72 89q-66 28 -66 94q0 38 24.5 65t67.5 37q-54 50 -54 115q0 76 63 127t156 51q57 0 98 -17t81 -57q36 60 104 60q39 0 66.5 -28.5t27.5 -68.5
q0 -27 -17.5 -46.5t-42.5 -19.5q-22 0 -38 15t-16 36q0 41 50 47q-15 18 -36 18q-41 0 -73 -48q17 -31 17 -70q0 -72 -65.5 -120.5t-162.5 -48.5q-67 0 -122 32q-60 -14 -60 -58q0 -29 26 -42q16 -9 74 -9zM289 426q-54 0 -91 -36.5t-37 -89.5q0 -59 36.5 -96.5t94.5 -37.5
q56 0 92.5 37t36.5 92t-38.5 93t-93.5 38zM390 -31h-174q-129 0 -129 -68q0 -76 194 -76q90 0 144 13q72 18 72 66q0 29 -29.5 47t-77.5 18zM124 669h39q42 -47 135 -47t135 47h38q-7 -48 -42 -81q-53 -47 -131 -47q-85 0 -138 53q-31 31 -36 75z" />
    <glyph glyph-name="Gdotaccent" unicode="&#x120;" horiz-adv-x="851" 
d="M669 0l-36 86q-37 -39 -70 -59q-81 -47 -178 -47q-145 0 -245 103t-100 253q0 152 98 250.5t249 98.5q81 0 179 -34q30 -9 43 -9q34 0 37 34h48v-249h-48q-4 54 -23 92q-29 53 -86 84.5t-124 31.5q-113 0 -187 -83t-74 -209q0 -125 78 -213t189 -88q67 0 125 44t58 95
q0 17 -10 33t-25 22q-23 11 -87 11h-15v48h369v-48h-12q-47 0 -64 -3.5t-33 -16.5q-28 -22 -28 -89v-138h-28zM406 861q24 0 40.5 -16.5t16.5 -40.5q0 -23 -17 -40t-41 -17q-23 0 -39.5 16.5t-16.5 40.5q0 25 16 41t41 16z" />
    <glyph glyph-name="gdotaccent" unicode="&#x121;" horiz-adv-x="675" 
d="M202 46h206q106 0 146 -32q38 -31 38 -83q0 -74 -76.5 -114t-216.5 -40q-160 0 -222 40q-49 31 -49 76q0 59 72 89q-66 28 -66 94q0 38 24.5 65t67.5 37q-54 50 -54 115q0 76 63 127t156 51q57 0 98 -17t81 -57q36 60 104 60q39 0 66.5 -28.5t27.5 -68.5
q0 -27 -17.5 -46.5t-42.5 -19.5q-22 0 -38 15t-16 36q0 41 50 47q-15 18 -36 18q-41 0 -73 -48q17 -31 17 -70q0 -72 -65.5 -120.5t-162.5 -48.5q-67 0 -122 32q-60 -14 -60 -58q0 -29 26 -42q16 -9 74 -9zM289 426q-54 0 -91 -36.5t-37 -89.5q0 -59 36.5 -96.5t94.5 -37.5
q56 0 92.5 37t36.5 92t-38.5 93t-93.5 38zM390 -31h-174q-129 0 -129 -68q0 -76 194 -76q90 0 144 13q72 18 72 66q0 29 -29.5 47t-77.5 18zM291 662q24 0 40.5 -16.5t16.5 -40.5q0 -23 -17 -40t-41 -17q-23 0 -39.5 16.5t-16.5 40.5q0 25 16 41t41 16z" />
    <glyph glyph-name="Gcommaaccent" unicode="&#x122;" horiz-adv-x="851" 
d="M669 0l-36 86q-37 -39 -70 -59q-81 -47 -178 -47q-145 0 -245 103t-100 253q0 152 98 250.5t249 98.5q81 0 179 -34q30 -9 43 -9q34 0 37 34h48v-249h-48q-4 54 -23 92q-29 53 -86 84.5t-124 31.5q-113 0 -187 -83t-74 -209q0 -125 78 -213t189 -88q67 0 125 44t58 95
q0 17 -10 33t-25 22q-23 11 -87 11h-15v48h369v-48h-12q-47 0 -64 -3.5t-33 -16.5q-28 -22 -28 -89v-138h-28zM343 -238l-18 30q30 13 50 33.5t20 39.5q-9 -4 -17 -4q-22 0 -36 14t-14 36q0 24 16 39.5t41 15.5q28 0 45.5 -19.5t17.5 -50.5q0 -79 -105 -134z" />
    <glyph glyph-name="gcommaaccent" unicode="&#x123;" horiz-adv-x="675" 
d="M202 46h206q106 0 146 -32q38 -31 38 -83q0 -74 -76.5 -114t-216.5 -40q-160 0 -222 40q-49 31 -49 76q0 59 72 89q-66 28 -66 94q0 38 24.5 65t67.5 37q-54 50 -54 115q0 76 63 127t156 51q57 0 98 -17t81 -57q36 60 104 60q39 0 66.5 -28.5t27.5 -68.5
q0 -27 -17.5 -46.5t-42.5 -19.5q-22 0 -38 15t-16 36q0 41 50 47q-15 18 -36 18q-41 0 -73 -48q17 -31 17 -70q0 -72 -65.5 -120.5t-162.5 -48.5q-67 0 -122 32q-60 -14 -60 -58q0 -29 26 -42q16 -9 74 -9zM289 426q-54 0 -91 -36.5t-37 -89.5q0 -59 36.5 -96.5t94.5 -37.5
q56 0 92.5 37t36.5 92t-38.5 93t-93.5 38zM390 -31h-174q-129 0 -129 -68q0 -76 194 -76q90 0 144 13q72 18 72 66q0 29 -29.5 47t-77.5 18zM341 764l18 -30q-30 -17 -50 -45.5t-20 -54.5q9 4 17 4q22 0 36 -14t14 -36q0 -24 -16 -39.5t-41 -15.5q-28 0 -45.5 19.5
t-17.5 51.5q0 94 105 160z" />
    <glyph glyph-name="Hcircumflex" unicode="&#x124;" horiz-adv-x="962" 
d="M272 319v-175q0 -49 23 -69q28 -23 94 -23h21v-52h-376v52h21q71 0 98 27q19 19 19 65v378q0 49 -23 69q-28 23 -94 23h-21v53h376v-53h-21q-71 0 -98 -27q-19 -19 -19 -65v-153h416v153q0 49 -23 69q-28 23 -94 23h-21v53h377v-53h-21q-71 0 -98 -27q-19 -19 -19 -65
v-378q0 -49 23 -69q28 -23 94 -23h21v-52h-377v52h21q71 0 98 27q19 19 19 65v175h-416zM481 880l197 -98l-56 -54l-141 68l-142 -68l-56 54z" />
    <glyph glyph-name="Hbar" unicode="&#x126;" horiz-adv-x="962" 
d="M172 453h-94v50h94v19q0 49 -23 69q-28 23 -93 23h-22v53h376v-53h-21q-73 0 -98 -27q-19 -19 -19 -65v-19h416v19q0 49 -23 69q-28 23 -94 23h-21v53h377v-53h-22q-71 0 -97 -27q-19 -19 -19 -65v-19h94v-50h-94v-309q0 -49 23 -69q28 -23 93 -23h22v-52h-377v52h21
q71 0 98 27q19 19 19 65v175h-416v-175q0 -49 23 -69q28 -23 94 -23h21v-52h-376v52h22q72 0 97 27q19 19 19 65v309zM272 453v-84h416v84h-416z" />
    <glyph glyph-name="hbar" unicode="&#x127;" horiz-adv-x="653" 
d="M107 508h-74v50h72q-5 35 -26 48.5t-67 12.5v48h177v-109h165v-50h-165v-146q56 110 179 110q79 0 126.5 -54t47.5 -145v-126q0 -61 18.5 -80t76.5 -19v-48h-275v48q58 0 76.5 19t18.5 80v118q0 68 -32.5 106.5t-90.5 38.5q-69 0 -109 -51q-36 -46 -36 -137v-75
q0 -61 18.5 -80t77.5 -19v-48h-273v48q58 0 76.5 19t18.5 80v361z" />
    <glyph glyph-name="Imacron" unicode="&#x12a;" horiz-adv-x="459" 
d="M418 52v-52h-376v52h21q71 0 98 27q19 19 19 65v378q0 49 -23 69q-28 23 -94 23h-21v53h376v-53h-21q-73 0 -98 -27q-19 -19 -19 -65v-378q0 -50 23 -69q28 -23 94 -23h21zM402 770h-343v68h343v-68z" />
    <glyph glyph-name="imacron" unicode="&#x12b;" horiz-adv-x="337" 
d="M214 457v-309q0 -62 18.5 -81t76.5 -19v-48h-279v48h10q56 0 74.5 20t18.5 78v166q0 58 -18.5 78t-74.5 20h-10v47h184zM340 571h-343v68h343v-68z" />
    <glyph glyph-name="ibreve" unicode="&#x12d;" horiz-adv-x="337" 
d="M214 457v-309q0 -62 18.5 -81t76.5 -19v-48h-279v48h10q56 0 74.5 20t18.5 78v166q0 58 -18.5 78t-74.5 20h-10v47h184zM-5 669h38q42 -47 135 -47t135 47h39q-7 -48 -42 -81q-55 -47 -132 -47q-84 0 -137 53q-30 29 -36 75z" />
    <glyph glyph-name="Iogonek" unicode="&#x12e;" horiz-adv-x="459" 
d="M418 0h-21q-30 -14 -48.5 -35t-18.5 -43q0 -17 11.5 -29t27.5 -12q22 0 48 13l12 6l15 -35q-46 -39 -91 -39q-37 0 -64 24t-27 58q0 58 66 92h-286v52h21q71 0 98 27q19 19 19 65v378q0 49 -23 69q-28 23 -94 23h-21v53h376v-53h-21q-73 0 -98 -27q-19 -19 -19 -65v-378
q0 -50 23 -69q28 -23 94 -23h21v-52z" />
    <glyph glyph-name="iogonek" unicode="&#x12f;" horiz-adv-x="337" 
d="M309 0h-12q-31 -14 -50 -35.5t-19 -43.5q0 -17 11.5 -29t27.5 -12q22 0 47 13q6 3 12 5l16 -34q-46 -39 -91 -39q-37 0 -64 24t-27 58q0 59 69 93h-199v48h10q56 0 74.5 20t18.5 78v166q0 58 -18.5 78t-74.5 20h-10v47h184v-309q0 -62 18.5 -81t76.5 -19v-48zM158 662
q26 0 43.5 -17t17.5 -43q0 -24 -17.5 -41.5t-42.5 -17.5t-42 17.5t-17 42.5t16.5 42t41.5 17z" />
    <glyph glyph-name="Idotaccent" unicode="&#x130;" horiz-adv-x="459" 
d="M418 52v-52h-376v52h21q71 0 98 27q19 19 19 65v378q0 49 -23 69q-28 23 -94 23h-21v53h376v-53h-21q-73 0 -98 -27q-19 -19 -19 -65v-378q0 -50 23 -69q28 -23 94 -23h21zM230 861q24 0 40.5 -16.5t16.5 -40.5q0 -23 -17 -40t-41 -17q-23 0 -39.5 16.5t-16.5 40.5
q0 25 16 41t41 16z" />
    <glyph glyph-name="dotlessi" unicode="&#x131;" horiz-adv-x="337" 
d="M214 457v-309q0 -62 18.5 -81t76.5 -19v-48h-279v48h10q56 0 74.5 20t18.5 78v166q0 58 -18.5 78t-74.5 20h-10v47h184z" />
    <glyph glyph-name="IJ" unicode="&#x132;" horiz-adv-x="994" 
d="M418 52v-52h-376v52h21q71 0 98 27q19 19 19 65v378q0 49 -23 69q-28 23 -94 23h-21v53h376v-53h-21q-73 0 -98 -27q-19 -19 -19 -65v-378q0 -50 23 -69q28 -23 94 -23h21zM838 522v-364q0 -101 -74 -145q-53 -32 -121 -32q-74 0 -121.5 37t-47.5 95q0 32 18 51.5
t46 19.5q26 0 44.5 -17t18.5 -42q0 -36 -39 -56q27 -39 78 -39q99 0 99 141v351q0 49 -23 69q-28 23 -94 23h-21v53h375v-53h-21q-73 0 -98 -27q-19 -19 -19 -65z" />
    <glyph glyph-name="ij" unicode="&#x133;" horiz-adv-x="661" 
d="M214 457v-309q0 -62 18.5 -81t76.5 -19v-48h-279v48h10q56 0 74.5 20t18.5 78v166q0 58 -18.5 78t-74.5 20h-10v47h184zM159 662q25 0 42.5 -17t17.5 -42t-17.5 -42.5t-42.5 -17.5t-42 17t-17 42q0 26 16.5 43t42.5 17zM551 457v-469q0 -107 -32 -152q-40 -59 -123 -59
q-41 0 -68 22.5t-27 57.5q0 26 17 43.5t43 17.5q25 0 41.5 -15.5t16.5 -39.5q0 -28 -31 -44q8 -4 16 -4q31 0 48 30q16 26 16 99v368q0 58 -18.5 78t-74.5 20h-10v47h186zM500 662q25 0 42.5 -17t17.5 -42t-17.5 -42.5t-42.5 -17.5t-42 17t-17 42q0 26 16.5 43t42.5 17z" />
    <glyph glyph-name="Kcommaaccent" unicode="&#x136;" horiz-adv-x="917" 
d="M439 363l-166 -122v-97q0 -50 23 -69q28 -23 94 -23h21v-52h-377v52h21q71 0 98 27q19 19 19 65v378q0 49 -23 69q-28 23 -94 23h-21v53h377v-53h-21q-72 0 -98 -27q-19 -19 -19 -65v-217l319 226q49 34 49 53q0 30 -80 30h-19v53h330v-53h-15q-58 0 -124 -47l-217 -152
l211 -258q50 -61 82 -83t72 -22h12v-52h-351v52h19q80 0 80 33q0 16 -25 47zM409 -238l-18 30q30 13 50 33.5t20 39.5q-9 -4 -17 -4q-22 0 -36 14t-14 36q0 24 16 39.5t41 15.5q28 0 45.5 -19.5t17.5 -50.5q0 -79 -105 -134z" />
    <glyph glyph-name="kcommaaccent" unicode="&#x137;" horiz-adv-x="644" 
d="M361 294l152 -189q45 -57 103 -57h5v-48h-272v48q0 1 1 1l31 -2q19 0 36 10q8 6 8 14q0 10 -14 27l-111 145l-100 -88v-7q0 -62 18.5 -81t76.5 -19v-48h-279v48h10q56 0 74.5 20t18.5 78v375q0 58 -18.5 78t-74.5 20h-10v48h184v-449l149 132q24 21 24 35t-17.5 19.5
t-63.5 5.5h-9v47h312v-47h-8q-93 0 -160 -58zM274 -241l-17 29q28 12 47 32t20 38q-9 -4 -16 -4q-22 0 -35.5 13.5t-13.5 34.5q0 23 15.5 38t39.5 15q26 0 43 -19t17 -48q0 -77 -100 -129z" />
    <glyph glyph-name="kgreenlandic" unicode="&#x138;" horiz-adv-x="497" 
d="M485 481l-208 -195l230 -286h-98l-187 232l-78 -71v-161h-82v481h82v-233l245 233h96z" />
    <glyph glyph-name="Lacute" unicode="&#x139;" horiz-adv-x="700" 
d="M270 52h187q107 0 140 85q12 33 20 118h48v-255h-631v52h21q71 0 98 27q19 19 19 65v378q0 49 -23 69q-28 23 -94 23h-21v53h383v-53h-31q-72 0 -97 -27q-19 -19 -19 -65v-470zM423 861l-146 -114h-94l106 114h134z" />
    <glyph glyph-name="lacute" unicode="&#x13a;" horiz-adv-x="328" 
d="M205 667v-519q0 -62 18.5 -81t76.5 -19v-48h-279v48h10q56 0 74.5 20t18.5 78v375q0 58 -18.5 78t-74.5 20h-10v48h184zM351 861l-146 -114h-94l106 114h134z" />
    <glyph glyph-name="Lcommaaccent" unicode="&#x13b;" horiz-adv-x="700" 
d="M270 52h187q107 0 140 85q12 33 20 118h48v-255h-631v52h21q71 0 98 27q19 19 19 65v378q0 49 -23 69q-28 23 -94 23h-21v53h383v-53h-31q-72 0 -97 -27q-19 -19 -19 -65v-470zM301 -238l-18 30q30 13 49.5 33.5t20.5 39.5q-11 -4 -18 -4q-22 0 -36 14t-14 36
q0 24 16 39.5t41 15.5q28 0 45.5 -19.5t17.5 -50.5q0 -79 -104 -134z" />
    <glyph glyph-name="lcommaaccent" unicode="&#x13c;" horiz-adv-x="328" 
d="M205 667v-519q0 -62 18.5 -81t76.5 -19v-48h-279v48h10q56 0 74.5 20t18.5 78v375q0 58 -18.5 78t-74.5 20h-10v48h184zM115 -241l-17 29q29 12 48 32t19 38q-9 -4 -16 -4q-22 0 -35.5 13.5t-13.5 34.5q0 23 15.5 38t39.5 15q27 0 44 -19t17 -48q0 -76 -101 -129z" />
    <glyph glyph-name="Lcaron" unicode="&#x13d;" horiz-adv-x="700" 
d="M270 52h187q107 0 140 85q12 33 20 118h48v-255h-631v52h21q71 0 98 27q19 19 19 65v378q0 49 -23 69q-28 23 -94 23h-21v53h383v-53h-31q-72 0 -97 -27q-19 -19 -19 -65v-470zM506 455l-17 30q29 16 49 45t21 55q-11 -4 -18 -4q-22 0 -36 14t-14 36q0 24 16 39.5
t41 15.5q28 0 45.5 -19.5t17.5 -51.5q0 -94 -105 -160z" />
    <glyph glyph-name="lcaron" unicode="&#x13e;" horiz-adv-x="549" 
d="M205 667v-519q0 -62 18.5 -81t76.5 -19v-48h-279v48h10q56 0 74.5 20t18.5 78v375q0 58 -18.5 78t-74.5 20h-10v48h184zM330 455l-18 30q29 16 49 45t21 55q-11 -4 -18 -4q-22 0 -36 14t-14 36q0 24 16 39.5t41 15.5q28 0 45.5 -19.5t17.5 -51.5q0 -93 -104 -160z" />
    <glyph glyph-name="Ldot" unicode="&#x13f;" horiz-adv-x="700" 
d="M270 52h187q107 0 140 85q12 33 20 118h48v-255h-631v52h21q71 0 98 27q19 19 19 65v378q0 49 -23 69q-28 23 -94 23h-21v53h383v-53h-31q-72 0 -97 -27q-19 -19 -19 -65v-470zM549 408q29 0 49 -19.5t20 -48.5q0 -28 -20 -48.5t-49 -20.5t-48.5 20t-19.5 49q0 30 19 49
t49 19z" />
    <glyph glyph-name="ldot" unicode="&#x140;" horiz-adv-x="432" 
d="M205 667v-519q0 -62 18.5 -81t76.5 -19v-48h-279v48h10q56 0 74.5 20t18.5 78v375q0 58 -18.5 78t-74.5 20h-10v48h184zM329 408q29 0 49 -19.5t20 -48.5q0 -28 -20 -48.5t-49 -20.5t-48.5 20t-19.5 49q0 30 19 49t49 19z" />
    <glyph glyph-name="Lslash" unicode="&#x141;" horiz-adv-x="692" 
d="M266 52h188q107 0 139 86q11 31 21 117h47v-255h-631v53h22q72 0 97 27q19 19 19 65v102l-109 -84v63l109 84v213q0 29 -4.5 43t-18.5 25q-27 24 -93 24h-22v52h383v-52h-31q-64 0 -90.5 -21t-26.5 -71v-157l152 116v-63l-151 -116v-251z" />
    <glyph glyph-name="lslash" unicode="&#x142;" horiz-adv-x="331" 
d="M205 667v-262l98 75v-63l-98 -75v-194q0 -62 18.5 -81t76.5 -19v-48h-279v48h10q56 0 74.5 20t18.5 78v144l-98 -75v63l98 75v168q0 58 -18.5 78t-74.5 20h-10v48h184z" />
    <glyph glyph-name="Nacute" unicode="&#x143;" horiz-adv-x="971" 
d="M224 562v-418q0 -50 23 -69q28 -23 94 -23h21v-52h-331v52h21q71 0 98 27q19 19 19 65v378q0 49 -23 69q-28 23 -94 23h-21v53h226l491 -511v366q0 49 -23 69q-28 23 -94 23h-21v53h330v-53h-21q-73 0 -98 -27q-19 -19 -19 -65v-531h-33zM672 861l-146 -114h-93l106 114
h133z" />
    <glyph glyph-name="nacute" unicode="&#x144;" horiz-adv-x="676" 
d="M209 457v-98q30 59 72.5 85.5t106.5 26.5q80 0 129 -49q27 -28 37.5 -63.5t10.5 -100.5v-110q0 -62 18.5 -81t77.5 -19v-48h-276v48q58 0 76.5 19t18.5 81v128q0 68 -30 99q-33 35 -92 35q-46 0 -82 -25q-34 -24 -48.5 -64.5t-14.5 -108.5v-64q0 -62 18.5 -81t77.5 -19
v-48h-281v48h10q56 0 74.5 20t18.5 78v166q0 58 -18.5 78t-74.5 20h-10v47h181zM492 672l-116 -134h-78l78 134h116z" />
    <glyph glyph-name="Ncommaaccent" unicode="&#x145;" horiz-adv-x="971" 
d="M224 562v-418q0 -50 23 -69q28 -23 94 -23h21v-52h-331v52h21q71 0 98 27q19 19 19 65v378q0 49 -23 69q-28 23 -94 23h-21v53h226l491 -511v366q0 49 -23 69q-28 23 -94 23h-21v53h330v-53h-21q-73 0 -98 -27q-19 -19 -19 -65v-531h-33zM437 -238l-18 30
q30 13 49.5 33.5t20.5 39.5q-11 -4 -17 -4q-22 0 -36.5 14t-14.5 36q0 24 16 39.5t41 15.5q28 0 45.5 -19.5t17.5 -50.5q0 -79 -104 -134z" />
    <glyph glyph-name="ncommaaccent" unicode="&#x146;" horiz-adv-x="676" 
d="M209 457v-98q30 59 72.5 85.5t106.5 26.5q80 0 129 -49q27 -28 37.5 -63.5t10.5 -100.5v-110q0 -62 18.5 -81t77.5 -19v-48h-276v48q58 0 76.5 19t18.5 81v128q0 68 -30 99q-33 35 -92 35q-46 0 -82 -25q-34 -24 -48.5 -64.5t-14.5 -108.5v-64q0 -62 18.5 -81t77.5 -19
v-48h-281v48h10q56 0 74.5 20t18.5 78v166q0 58 -18.5 78t-74.5 20h-10v47h181zM290 -241l-18 29q28 12 47.5 32t20.5 38q-11 -4 -17 -4q-21 0 -34.5 13.5t-13.5 34.5q0 23 15.5 38t39.5 15q26 0 43 -19t17 -48q0 -77 -100 -129z" />
    <glyph glyph-name="Ncaron" unicode="&#x147;" horiz-adv-x="971" 
d="M224 562v-418q0 -50 23 -69q28 -23 94 -23h21v-52h-331v52h21q71 0 98 27q19 19 19 65v378q0 49 -23 69q-28 23 -94 23h-21v53h226l491 -511v366q0 49 -23 69q-28 23 -94 23h-21v53h330v-53h-21q-73 0 -98 -27q-19 -19 -19 -65v-531h-33zM486 728l-198 98l56 54l142 -68
l141 68l56 -54z" />
    <glyph glyph-name="ncaron" unicode="&#x148;" horiz-adv-x="676" 
d="M209 457v-98q30 59 72.5 85.5t106.5 26.5q80 0 129 -49q27 -28 37.5 -63.5t10.5 -100.5v-110q0 -62 18.5 -81t77.5 -19v-48h-276v48q58 0 76.5 19t18.5 81v128q0 68 -30 99q-33 35 -92 35q-46 0 -82 -25q-34 -24 -48.5 -64.5t-14.5 -108.5v-64q0 -62 18.5 -81t77.5 -19
v-48h-281v48h10q56 0 74.5 20t18.5 78v166q0 58 -18.5 78t-74.5 20h-10v47h181zM338 523l-168 111l54 53l114 -76l114 76l55 -53z" />
    <glyph glyph-name="napostrophe" unicode="&#x149;" horiz-adv-x="829" 
d="M67 455l-18 30q29 16 49 45t21 55q-11 -4 -17 -4q-22 0 -36.5 14t-14.5 36q0 24 16 39.5t41 15.5q28 0 45.5 -19.5t17.5 -51.5q0 -94 -104 -160zM362 457v-98q30 59 72.5 85.5t106.5 26.5q80 0 129 -49q27 -28 37.5 -63.5t10.5 -100.5v-110q0 -62 18.5 -81t77.5 -19v-48
h-276v48q58 0 76.5 19t18.5 81v128q0 68 -30 99q-33 35 -92 35q-46 0 -82 -25q-34 -24 -48.5 -64.5t-14.5 -108.5v-64q0 -62 18.5 -81t77.5 -19v-48h-281v48h10q56 0 74.5 20t18.5 78v166q0 58 -18.5 78t-74.5 20h-10v47h181z" />
    <glyph glyph-name="Eng" unicode="&#x14a;" horiz-adv-x="650" 
d="M64 657h84v-140q27 61 51 88q64 69 169 69q107 0 170 -72q27 -31 37.5 -68t10.5 -101v-521q0 -51 -22 -69t-86 -18h-70v52h7q53 0 67.5 19.5t14.5 92.5v425q0 51 -8.5 81t-30.5 53q-45 48 -120 48q-50 0 -90.5 -23t-63.5 -64q-31 -54 -31 -156v-353h-89v657z" />
    <glyph glyph-name="eng" unicode="&#x14b;" horiz-adv-x="547" 
d="M62 479h76v-100q48 115 173 115q89 0 138 -57q21 -25 29 -54.5t8 -81.5v-385q0 -61 -37 -77q-15 -7 -68 -7h-64v41h7q47 0 63.5 13t16.5 51v348q0 56 -16 85q-31 55 -104 55q-82 0 -119 -64q-23 -40 -23 -113v-248h-80v479z" />
    <glyph glyph-name="Omacron" unicode="&#x14c;" horiz-adv-x="870" 
d="M447 686q162 0 273.5 -101t111.5 -249q0 -152 -112.5 -253.5t-281.5 -101.5q-162 0 -267 83q-61 47 -96 120t-35 150q0 75 34 146t91 116q115 90 282 90zM440 629q-117 0 -199.5 -86.5t-82.5 -210.5q0 -123 81.5 -210t195.5 -87q116 0 198 87.5t82 211.5q0 115 -70 196
q-37 45 -93 72t-112 27zM607 770h-343v68h343v-68z" />
    <glyph glyph-name="omacron" unicode="&#x14d;" horiz-adv-x="587" 
d="M296 471q109 0 184 -72q31 -30 49.5 -77.5t18.5 -96.5q0 -105 -71.5 -172t-183.5 -67t-183.5 67t-71.5 172q0 108 72 177t186 69zM295 423q-73 0 -115.5 -53.5t-42.5 -145.5q0 -87 42.5 -138.5t113.5 -51.5t113.5 51.5t42.5 139.5q0 89 -42.5 143.5t-111.5 54.5zM464 571
h-342v68h342v-68z" />
    <glyph glyph-name="Ohungarumlaut" unicode="&#x150;" horiz-adv-x="870" 
d="M447 686q162 0 273.5 -101t111.5 -249q0 -152 -112.5 -253.5t-281.5 -101.5q-162 0 -267 83q-61 47 -96 120t-35 150q0 75 34 146t91 116q115 90 282 90zM440 629q-117 0 -199.5 -86.5t-82.5 -210.5q0 -123 81.5 -210t195.5 -87q116 0 198 87.5t82 211.5q0 115 -70 196
q-37 45 -93 72t-112 27zM508 861l-146 -114h-94l106 114h134zM736 861l-146 -114h-93l106 114h133z" />
    <glyph glyph-name="ohungarumlaut" unicode="&#x151;" horiz-adv-x="587" 
d="M296 471q109 0 184 -72q31 -30 49.5 -77.5t18.5 -96.5q0 -105 -71.5 -172t-183.5 -67t-183.5 67t-71.5 172q0 108 72 177t186 69zM295 423q-73 0 -115.5 -53.5t-42.5 -145.5q0 -87 42.5 -138.5t113.5 -51.5t113.5 51.5t42.5 139.5q0 89 -42.5 143.5t-111.5 54.5zM366 662
l-146 -114h-94l106 114h134zM573 662l-146 -114h-93l106 114h133z" />
    <glyph glyph-name="OE" unicode="&#x152;" horiz-adv-x="1230" 
d="M729 52h206q97 0 132.5 41.5t46.5 164.5h48v-258h-476q-52 0 -96 -5q-106 -14 -150 -14q-171 0 -280 91q-124 102 -124 260q0 73 31 142t86 117q107 95 286 95q33 0 119 -12q61 -7 128 -7h476v-229h-48q-6 91 -34 129q-35 48 -121 48h-230v-246h86q67 0 92 30
q11 13 16.5 34.5t11.5 78.5h48v-344h-48q0 87 -26 119t-95 32h-85v-267zM632 150v362q0 29 -14.5 54t-39.5 38q-56 29 -151 29q-126 0 -205 -100q-72 -91 -72 -202q0 -126 85.5 -213t209.5 -87q45 0 87.5 12t66.5 32q19 16 26 31.5t7 43.5z" />
    <glyph glyph-name="oe" unicode="&#x153;" horiz-adv-x="956" 
d="M850 139h58q-55 -153 -219 -153q-126 0 -202 96q-56 -96 -201 -96q-117 0 -184.5 66.5t-67.5 182.5q0 106 70.5 171t186.5 65q65 0 118.5 -24t77.5 -65q68 89 195 89q149 0 211 -122q28 -56 28 -139h-385q5 -50 21 -81q21 -41 59.5 -64.5t84.5 -23.5q96 0 149 98z
M285 423q-69 0 -112 -51t-43 -133q0 -89 43 -145t111 -56q70 0 113.5 54t43.5 140t-43 138.5t-113 52.5zM535 258h290q-21 162 -142 162q-62 0 -103.5 -45.5t-44.5 -116.5z" />
    <glyph glyph-name="Racute" unicode="&#x154;" horiz-adv-x="844" 
d="M34 667h449q119 0 178 -42q63 -44 63 -122q0 -83 -74 -128q-35 -21 -93 -35q63 -10 87 -47.5t25 -127.5q2 -67 13 -94t38 -27q26 0 41 29q13 25 16 104h54q-1 -96 -23 -136q-34 -60 -110 -60q-75 0 -107 58q-13 24 -16.5 50.5t-4.5 99.5q-1 70 -29 100t-93 30h-178v-175
q0 -50 23 -69q28 -23 94 -23h22v-52h-375v52h21q71 0 98 27q19 19 19 65v379q0 49 -23 68q-27 24 -94 24h-21v52zM270 371h175q81 0 128 32.5t47 88.5q0 43 -27 73q-25 28 -59 39t-97 11h-167v-244zM608 861l-146 -114h-94l107 114h133z" />
    <glyph glyph-name="racute" unicode="&#x155;" horiz-adv-x="478" 
d="M201 457v-128q57 142 157 142q40 0 66.5 -26t26.5 -65q0 -32 -18.5 -53.5t-45.5 -21.5q-22 0 -38 15t-16 35q0 19 12.5 30.5t32.5 12.5q-15 25 -39 25q-52 0 -98 -87q-40 -73 -40 -168q0 -71 20 -96t78 -25h15v-47h-286v48q58 0 76.5 19t18.5 81v162q0 61 -18 80t-77 19
v48h173zM393 672l-116 -134h-78l78 134h116z" />
    <glyph glyph-name="Rcommaaccent" unicode="&#x156;" horiz-adv-x="844" 
d="M34 667h449q119 0 178 -42q63 -44 63 -122q0 -83 -74 -128q-35 -21 -93 -35q63 -10 87 -47.5t25 -127.5q2 -67 13 -94t38 -27q26 0 41 29q13 25 16 104h54q-1 -96 -23 -136q-34 -60 -110 -60q-75 0 -107 58q-13 24 -16.5 50.5t-4.5 99.5q-1 70 -29 100t-93 30h-178v-175
q0 -50 23 -69q28 -23 94 -23h22v-52h-375v52h21q71 0 98 27q19 19 19 65v379q0 49 -23 68q-27 24 -94 24h-21v52zM270 371h175q81 0 128 32.5t47 88.5q0 43 -27 73q-25 28 -59 39t-97 11h-167v-244zM413 -238l-18 30q30 13 49.5 33.5t20.5 39.5q-11 -4 -17 -4
q-22 0 -36.5 14t-14.5 36q0 24 16 39.5t41 15.5q28 0 45.5 -19.5t17.5 -50.5q0 -79 -104 -134z" />
    <glyph glyph-name="rcommaaccent" unicode="&#x157;" horiz-adv-x="478" 
d="M201 457v-128q57 142 157 142q40 0 66.5 -26t26.5 -65q0 -32 -18.5 -53.5t-45.5 -21.5q-22 0 -38 15t-16 35q0 19 12.5 30.5t32.5 12.5q-15 25 -39 25q-52 0 -98 -87q-40 -73 -40 -168q0 -71 20 -96t78 -25h15v-47h-286v48q58 0 76.5 19t18.5 81v162q0 61 -18 80t-77 19
v48h173zM118 -241l-18 29q28 12 47.5 32t20.5 38q-11 -4 -17 -4q-22 0 -35.5 13.5t-13.5 34.5q0 23 15.5 38t39.5 15q27 0 44 -19t17 -48q0 -77 -100 -129z" />
    <glyph glyph-name="Rcaron" unicode="&#x158;" horiz-adv-x="844" 
d="M34 667h449q119 0 178 -42q63 -44 63 -122q0 -83 -74 -128q-35 -21 -93 -35q63 -10 87 -47.5t25 -127.5q2 -67 13 -94t38 -27q26 0 41 29q13 25 16 104h54q-1 -96 -23 -136q-34 -60 -110 -60q-75 0 -107 58q-13 24 -16.5 50.5t-4.5 99.5q-1 70 -29 100t-93 30h-178v-175
q0 -50 23 -69q28 -23 94 -23h22v-52h-375v52h21q71 0 98 27q19 19 19 65v379q0 49 -23 68q-27 24 -94 24h-21v52zM270 371h175q81 0 128 32.5t47 88.5q0 43 -27 73q-25 28 -59 39t-97 11h-167v-244zM422 728l-198 98l56 54l142 -68l141 68l56 -54z" />
    <glyph glyph-name="rcaron" unicode="&#x159;" horiz-adv-x="478" 
d="M201 457v-128q57 142 157 142q40 0 66.5 -26t26.5 -65q0 -32 -18.5 -53.5t-45.5 -21.5q-22 0 -38 15t-16 35q0 19 12.5 30.5t32.5 12.5q-15 25 -39 25q-52 0 -98 -87q-40 -73 -40 -168q0 -71 20 -96t78 -25h15v-47h-286v48q58 0 76.5 19t18.5 81v162q0 61 -18 80t-77 19
v48h173zM239 523l-168 111l54 53l114 -76l114 76l55 -53z" />
    <glyph glyph-name="Sacute" unicode="&#x15a;" horiz-adv-x="721" 
d="M47 0v246h48q10 -57 27.5 -87t53.5 -55q44 -30 102 -48.5t109 -18.5q88 0 149 44q52 37 52 94q0 56 -46 88q-28 19 -81 23l-145 12q-84 7 -122 15.5t-67 26.5q-33 21 -53.5 61t-20.5 83q0 89 74.5 145.5t190.5 56.5q100 0 167 -32q54 -24 77 -24q16 0 24 14q3 5 6 23h48
v-210h-48q-10 49 -27.5 74.5t-55.5 48.5q-81 50 -182 50q-76 0 -129 -37.5t-53 -91.5q0 -51 50 -77q20 -10 84 -16l139 -11q79 -6 116.5 -16t70.5 -33q36 -26 57 -67.5t21 -86.5q0 -44 -20 -86.5t-54 -67.5q-77 -59 -199 -59q-98 0 -186 37q-62 26 -89 26q-40 0 -40 -44h-48
zM547 861l-146 -114h-94l107 114h133z" />
    <glyph glyph-name="sacute" unicode="&#x15b;" horiz-adv-x="511" 
d="M59 0v177h43q9 -47 27 -71q22 -30 63 -49t82 -19q47 0 78 22.5t31 57.5q0 59 -89 70l-104 12q-65 7 -102.5 42.5t-37.5 89.5q0 58 50 98.5t123 40.5q65 0 130 -29q13 -6 24 -6q17 0 20 21h38v-148h-38q-14 52 -39 76q-45 42 -116 42q-48 0 -79.5 -22t-31.5 -55
q0 -52 73 -59l109 -12q80 -9 116 -47q39 -42 39 -96q0 -63 -51.5 -106.5t-125.5 -43.5q-32 0 -55.5 6.5t-92.5 33.5q-12 5 -19 5q-17 0 -22 -31h-43zM409 672l-116 -134h-77l77 134h116z" />
    <glyph glyph-name="Scircumflex" unicode="&#x15c;" horiz-adv-x="721" 
d="M47 0v246h48q10 -57 27.5 -87t53.5 -55q44 -30 102 -48.5t109 -18.5q88 0 149 44q52 37 52 94q0 56 -46 88q-28 19 -81 23l-145 12q-84 7 -122 15.5t-67 26.5q-33 21 -53.5 61t-20.5 83q0 89 74.5 145.5t190.5 56.5q100 0 167 -32q54 -24 77 -24q16 0 24 14q3 5 6 23h48
v-210h-48q-10 49 -27.5 74.5t-55.5 48.5q-81 50 -182 50q-76 0 -129 -37.5t-53 -91.5q0 -51 50 -77q20 -10 84 -16l139 -11q79 -6 116.5 -16t70.5 -33q36 -26 57 -67.5t21 -86.5q0 -44 -20 -86.5t-54 -67.5q-77 -59 -199 -59q-98 0 -186 37q-62 26 -89 26q-40 0 -40 -44h-48
zM360 880l198 -98l-56 -54l-142 68l-141 -68l-56 54z" />
    <glyph glyph-name="scircumflex" unicode="&#x15d;" horiz-adv-x="511" 
d="M59 0v177h43q9 -47 27 -71q22 -30 63 -49t82 -19q47 0 78 22.5t31 57.5q0 59 -89 70l-104 12q-65 7 -102.5 42.5t-37.5 89.5q0 58 50 98.5t123 40.5q65 0 130 -29q13 -6 24 -6q17 0 20 21h38v-148h-38q-14 52 -39 76q-45 42 -116 42q-48 0 -79.5 -22t-31.5 -55
q0 -52 73 -59l109 -12q80 -9 116 -47q39 -42 39 -96q0 -63 -51.5 -106.5t-125.5 -43.5q-32 0 -55.5 6.5t-92.5 33.5q-12 5 -19 5q-17 0 -22 -31h-43zM256 687l168 -111l-55 -53l-113 77l-114 -77l-55 53z" />
    <glyph glyph-name="Scedilla" unicode="&#x15e;" horiz-adv-x="721" 
d="M383 -18l-6 -40q73 -12 73 -66q0 -31 -24.5 -50.5t-62.5 -19.5q-74 0 -92 63h47q10 -22 34 -22q14 0 23 8t9 20q0 14 -10 23.5t-26 9.5q-8 0 -20 -4l12 83q-62 9 -116 31q-62 26 -89 26q-40 0 -40 -44h-48v246h48q10 -57 27.5 -87t53.5 -55q44 -30 102 -48.5t109 -18.5
q88 0 149 44q52 37 52 94q0 56 -46 88q-28 19 -81 23l-145 12q-84 7 -122 15.5t-67 26.5q-33 21 -53.5 61t-20.5 83q0 89 74.5 145.5t190.5 56.5q100 0 167 -32q54 -24 77 -24q16 0 24 14q3 5 6 23h48v-210h-48q-10 49 -27.5 74.5t-55.5 48.5q-81 50 -182 50
q-76 0 -129 -37.5t-53 -91.5q0 -51 50 -77q20 -10 84 -16l139 -11q79 -6 116.5 -16t70.5 -33q36 -26 57 -67.5t21 -86.5q0 -44 -20 -86.5t-54 -67.5q-77 -59 -200 -59q-14 0 -26 1z" />
    <glyph glyph-name="scedilla" unicode="&#x15f;" horiz-adv-x="511" 
d="M277 -14l-6 -47q39 -5 57 -19t18 -42q0 -32 -25.5 -52t-68.5 -20q-73 0 -86 67h44q7 -30 40 -30q36 0 36 31q0 17 -12.5 27.5t-31.5 10.5q-9 0 -17 -2l12 82q-21 6 -33 10q-14 5 -32 13l-29 11q-12 5 -19 5q-17 0 -22 -31h-43v177h43q9 -47 27 -71q22 -30 63 -49t82 -19
q47 0 78 22.5t31 57.5q0 59 -89 70l-104 12q-65 7 -102.5 42.5t-37.5 89.5q0 58 50 98.5t123 40.5q65 0 130 -29q13 -6 24 -6q17 0 20 21h38v-148h-38q-14 52 -39 76q-45 42 -116 42q-48 0 -79.5 -22t-31.5 -55q0 -52 73 -59l109 -12q80 -9 116 -47q39 -42 39 -96
q0 -63 -51 -106.5t-124 -43.5h-16z" />
    <glyph glyph-name="Scaron" unicode="&#x160;" horiz-adv-x="721" 
d="M47 0v246h48q10 -57 27.5 -87t53.5 -55q44 -30 102 -48.5t109 -18.5q88 0 149 44q52 37 52 94q0 56 -46 88q-28 19 -81 23l-145 12q-84 7 -122 15.5t-67 26.5q-33 21 -53.5 61t-20.5 83q0 89 74.5 145.5t190.5 56.5q100 0 167 -32q54 -24 77 -24q16 0 24 14q3 5 6 23h48
v-210h-48q-10 49 -27.5 74.5t-55.5 48.5q-81 50 -182 50q-76 0 -129 -37.5t-53 -91.5q0 -51 50 -77q20 -10 84 -16l139 -11q79 -6 116.5 -16t70.5 -33q36 -26 57 -67.5t21 -86.5q0 -44 -20 -86.5t-54 -67.5q-77 -59 -199 -59q-98 0 -186 37q-62 26 -89 26q-40 0 -40 -44h-48
zM360 728l-197 98l56 54l141 -68l142 68l56 -54z" />
    <glyph glyph-name="scaron" unicode="&#x161;" horiz-adv-x="511" 
d="M59 0v177h43q9 -47 27 -71q22 -30 63 -49t82 -19q47 0 78 22.5t31 57.5q0 59 -89 70l-104 12q-65 7 -102.5 42.5t-37.5 89.5q0 58 50 98.5t123 40.5q65 0 130 -29q13 -6 24 -6q17 0 20 21h38v-148h-38q-14 52 -39 76q-45 42 -116 42q-48 0 -79.5 -22t-31.5 -55
q0 -52 73 -59l109 -12q80 -9 116 -47q39 -42 39 -96q0 -63 -51.5 -106.5t-125.5 -43.5q-32 0 -55.5 6.5t-92.5 33.5q-12 5 -19 5q-17 0 -22 -31h-43zM256 523l-169 111l55 53l114 -76l113 76l55 -53z" />
    <glyph glyph-name="Tcommaaccent" unicode="&#x162;" horiz-adv-x="760" 
d="M24 667h712v-231h-48q0 77 -12 105q-29 74 -117 74h-127v-471q0 -49 23 -69q28 -23 93 -23h21v-52h-375v52h21q71 0 98 27q19 19 19 65v471h-114q-80 0 -112 -42q-17 -21 -24.5 -50t-9.5 -87h-48v231zM331 -238l-18 30q30 13 50 33.5t20 39.5q-11 -4 -17 -4
q-22 0 -36.5 14t-14.5 36q0 24 16.5 39.5t41.5 15.5q28 0 45.5 -19.5t17.5 -50.5q0 -81 -105 -134z" />
    <glyph glyph-name="tcommaaccent" unicode="&#x163;" horiz-adv-x="373" 
d="M182 409v-257q0 -69 11 -87q14 -19 39 -19q27 0 40 22q10 20 10 80v30h43v-44q0 -84 -30 -115q-30 -33 -88 -33q-65 0 -92 42q-12 18 -16 42t-4 80v259h-92v43q119 3 133 167h46v-162h144v-48h-144zM118 -241l-17 29q28 12 47 32t20 38q-9 -4 -16 -4q-22 0 -35.5 13.5
t-13.5 34.5q0 23 15.5 38t39.5 15q26 0 43 -19t17 -48q0 -77 -100 -129z" />
    <glyph glyph-name="Tcaron" unicode="&#x164;" horiz-adv-x="760" 
d="M24 667h712v-231h-48q0 77 -12 105q-29 74 -117 74h-127v-471q0 -49 23 -69q28 -23 93 -23h21v-52h-375v52h21q71 0 98 27q19 19 19 65v471h-114q-80 0 -112 -42q-17 -21 -24.5 -50t-9.5 -87h-48v231zM380 728l-197 98l56 54l141 -68l142 68l56 -54z" />
    <glyph glyph-name="tcaron" unicode="&#x165;" horiz-adv-x="526" 
d="M182 409v-257q0 -69 11 -87q14 -19 39 -19q27 0 40 22q10 20 10 80v30h43v-44q0 -84 -30 -115q-30 -33 -88 -33q-65 0 -92 42q-12 18 -16 42t-4 80v259h-92v43q119 3 133 167h46v-162h144v-48h-144zM373 455l-18 30q30 16 49.5 44.5t20.5 55.5q-11 -4 -17 -4
q-22 0 -36.5 14t-14.5 36q0 24 16 39.5t41 15.5q28 0 45.5 -19.5t17.5 -51.5q0 -94 -104 -160z" />
    <glyph glyph-name="Tbar" unicode="&#x166;" horiz-adv-x="522" 
d="M305 410h182v-63h-182v-347h-89v347h-182v63h182v182h-221v75h531v-75h-221v-182z" />
    <glyph glyph-name="tbar" unicode="&#x167;" horiz-adv-x="291" 
d="M172 342h80v-51h-80v-145q0 -48 8 -63q14 -24 56 -24q13 0 40 3v-62q-36 -4 -61 -4q-79 0 -106 40q-19 27 -19 98v157h-66v51h66v84h-86v55h86v151h82v-151h104v-55h-104v-84z" />
    <glyph glyph-name="utilde" unicode="&#x169;" horiz-adv-x="646" 
d="M446 0v99q-61 -113 -174 -113q-89 0 -138 57q-39 45 -39 134v149q0 47 -14.5 65t-53.5 18h-8v48h158v-272q0 -63 32 -100.5t86 -37.5q29 0 59.5 15t52.5 40q39 46 39 127v80q0 62 -18.5 81t-77.5 19v48h176v-310q0 -61 18.5 -80t77.5 -19v-48h-176zM462 652h33
q-20 -102 -101 -102q-25 0 -91 22q-56 19 -80 19q-34 0 -40 -32h-31q6 40 21 61q30 41 76 41q24 0 79 -20q55 -22 86 -22q41 0 48 33z" />
    <glyph glyph-name="Umacron" unicode="&#x16a;" horiz-adv-x="948" 
d="M23 614v53h377v-53h-21q-73 0 -98 -27q-19 -19 -19 -65v-270q0 -99 62.5 -156.5t170.5 -57.5t169 52t61 144v288q0 49 -23 69q-28 23 -94 23h-21v53h338v-53h-21q-72 0 -98 -27q-19 -19 -19 -65v-288q0 -134 -88 -196q-79 -57 -218 -57q-152 0 -236 68.5t-84 193.5v279
q0 49 -23 69q-28 23 -94 23h-21zM646 770h-343v68h343v-68z" />
    <glyph glyph-name="umacron" unicode="&#x16b;" horiz-adv-x="646" 
d="M446 0v99q-61 -113 -174 -113q-89 0 -138 57q-39 45 -39 134v149q0 47 -14.5 65t-53.5 18h-8v48h158v-272q0 -63 32 -100.5t86 -37.5q29 0 59.5 15t52.5 40q39 46 39 127v80q0 62 -18.5 81t-77.5 19v48h176v-310q0 -61 18.5 -80t77.5 -19v-48h-176zM495 571h-343v68h343
v-68z" />
    <glyph glyph-name="ubreve" unicode="&#x16d;" horiz-adv-x="646" 
d="M446 0v99q-61 -113 -174 -113q-89 0 -138 57q-39 45 -39 134v149q0 47 -14.5 65t-53.5 18h-8v48h158v-272q0 -63 32 -100.5t86 -37.5q29 0 59.5 15t52.5 40q39 46 39 127v80q0 62 -18.5 81t-77.5 19v48h176v-310q0 -61 18.5 -80t77.5 -19v-48h-176zM130 669h38
q42 -47 135 -47t135 47h39q-7 -49 -43 -81q-53 -47 -131 -47q-83 0 -138 53q-31 31 -35 75z" />
    <glyph glyph-name="Uring" unicode="&#x16e;" horiz-adv-x="948" 
d="M23 614v53h377v-53h-21q-73 0 -98 -27q-19 -19 -19 -65v-270q0 -99 62.5 -156.5t170.5 -57.5t169 52t61 144v288q0 49 -23 69q-28 23 -94 23h-21v53h338v-53h-21q-72 0 -98 -27q-19 -19 -19 -65v-288q0 -134 -88 -196q-79 -57 -218 -57q-152 0 -236 68.5t-84 193.5v279
q0 49 -23 69q-28 23 -94 23h-21zM494 917q45 0 76 -31.5t31 -77.5q0 -43 -31 -73.5t-75 -30.5q-45 0 -76.5 31.5t-31.5 75.5t31.5 75t75.5 31zM494 856q-19 0 -32.5 -13.5t-13.5 -32.5t13.5 -32.5t32.5 -13.5t32 13t13 32q0 20 -13 33.5t-32 13.5z" />
    <glyph glyph-name="uring" unicode="&#x16f;" horiz-adv-x="646" 
d="M446 0v99q-61 -113 -174 -113q-89 0 -138 57q-39 45 -39 134v149q0 47 -14.5 65t-53.5 18h-8v48h158v-272q0 -63 32 -100.5t86 -37.5q29 0 59.5 15t52.5 40q39 46 39 127v80q0 62 -18.5 81t-77.5 19v48h176v-310q0 -61 18.5 -80t77.5 -19v-48h-176zM310 723
q45 0 76 -31.5t31 -77.5q0 -43 -31 -73.5t-75 -30.5q-45 0 -76.5 31.5t-31.5 75.5t31.5 75t75.5 31zM310 662q-19 0 -32.5 -14t-13.5 -33t13.5 -32.5t32.5 -13.5t32 13t13 32q0 20 -13 34t-32 14z" />
    <glyph glyph-name="Uhungarumlaut" unicode="&#x170;" horiz-adv-x="948" 
d="M23 614v53h377v-53h-21q-73 0 -98 -27q-19 -19 -19 -65v-270q0 -99 62.5 -156.5t170.5 -57.5t169 52t61 144v288q0 49 -23 69q-28 23 -94 23h-21v53h338v-53h-21q-72 0 -98 -27q-19 -19 -19 -65v-288q0 -134 -88 -196q-79 -57 -218 -57q-152 0 -236 68.5t-84 193.5v279
q0 49 -23 69q-28 23 -94 23h-21zM566 861l-146 -114h-93l106 114h133zM795 861l-146 -114h-94l107 114h133z" />
    <glyph glyph-name="uhungarumlaut" unicode="&#x171;" horiz-adv-x="646" 
d="M446 0v99q-61 -113 -174 -113q-89 0 -138 57q-39 45 -39 134v149q0 47 -14.5 65t-53.5 18h-8v48h158v-272q0 -63 32 -100.5t86 -37.5q29 0 59.5 15t52.5 40q39 46 39 127v80q0 62 -18.5 81t-77.5 19v48h176v-310q0 -61 18.5 -80t77.5 -19v-48h-176zM396 662l-146 -114
h-94l107 114h133zM604 662l-146 -114h-94l106 114h134z" />
    <glyph glyph-name="Uogonek" unicode="&#x172;" horiz-adv-x="948" 
d="M925 614h-21q-72 0 -98 -27q-19 -19 -19 -65v-288q0 -90 -36.5 -144t-120.5 -87q-27 -11 -46 -33.5t-19 -43.5q0 -18 11 -29.5t28 -11.5q22 0 47 13l2 1q2 1 5 2t5 2l16 -35q-46 -38 -91 -38q-37 0 -64 24t-27 58q0 41 35 71q-38 -2 -53 -2q-151 0 -234.5 69t-83.5 193
v279q0 49 -23 69q-28 23 -94 23h-21v53h377v-53h-21q-73 0 -98 -27q-19 -19 -19 -65v-270q0 -99 62.5 -156.5t170.5 -57.5t169 52t61 144v288q0 49 -23 69q-28 23 -94 23h-21v53h338v-53z" />
    <glyph glyph-name="uogonek" unicode="&#x173;" horiz-adv-x="646" 
d="M622 0h-20q-33 -14 -52 -35.5t-19 -43.5q0 -18 11 -29.5t28 -11.5q23 0 48 13l2 1q2 1 5 2t5 2l16 -35q-46 -38 -91 -38q-38 0 -65 24t-27 58q0 58 70 93h-87v99q-61 -113 -174 -113q-89 0 -138 57q-39 45 -39 134v149q0 47 -14.5 65t-53.5 18h-8v48h158v-272
q0 -63 32 -100.5t86 -37.5q29 0 59.5 15t52.5 40q39 46 39 127v80q0 62 -18.5 81t-77.5 19v48h176v-310q0 -61 18.5 -80t77.5 -19v-48z" />
    <glyph glyph-name="Wcircumflex" unicode="&#x174;" horiz-adv-x="1293" 
d="M654 525l-220 -525h-46l-204 477q-26 62 -39.5 83.5t-34.5 34.5q-30 19 -91 19h-21v53h403v-53h-25q-64 0 -89 -10.5t-25 -36.5q0 -25 19 -68l153 -360l220 528h41l224 -528l148 356q19 43 19 69q0 25 -26 39q-23 11 -93 11h-18v53h347v-53h-23q-59 0 -91 -25t-60 -94
l-203 -495h-43zM674 880l197 -98l-56 -54l-141 68l-142 -68l-56 54z" />
    <glyph glyph-name="Ycircumflex" unicode="&#x176;" horiz-adv-x="833" 
d="M437 334l133 182q25 34 25 54q0 23 -21.5 33.5t-70.5 10.5h-18v53h329v-53h-17q-90 0 -164 -100l-168 -229v-141q0 -49 23 -69q28 -23 94 -23h22v-52h-377v52h21q71 0 98 27q19 19 19 65v141l-184 257q-31 43 -59.5 57.5t-81.5 14.5h-21v53h380v-53h-32q-80 0 -80 -41
q0 -13 3.5 -20t24.5 -38zM443 880l198 -98l-56 -54l-142 68l-141 -68l-56 54z" />
    <glyph glyph-name="ycircumflex" unicode="&#x177;" horiz-adv-x="633" 
d="M337 66l128 257q16 32 16 50q0 37 -87 37h-22v47h267v-47q-44 0 -63.5 -13t-43.5 -58l-231 -442q-61 -120 -152 -120q-50 0 -83.5 29t-33.5 72q0 29 17 48t43 19q23 0 39 -15.5t16 -38.5q0 -19 -11.5 -31.5t-28.5 -14.5q20 -19 41 -19q31 0 56 21.5t53 70.5l32 59
l-182 362q-23 41 -48 56.5t-65 14.5v47h304v-47q-63 0 -85 -7.5t-22 -27.5q0 -15 24 -64zM330 687l168 -111l-54 -53l-114 77l-114 -77l-55 53z" />
    <glyph glyph-name="Ydieresis" unicode="&#x178;" horiz-adv-x="833" 
d="M410 334l133 182q25 34 25 54q0 23 -21.5 33.5t-70.5 10.5h-18v53h329v-53h-17q-90 0 -164 -100l-168 -229v-141q0 -49 23 -69q28 -23 94 -23h22v-52h-377v52h21q71 0 98 27q19 19 19 65v141l-184 257q-31 43 -59.5 57.5t-81.5 14.5h-21v53h380v-53h-32q-80 0 -80 -41
q0 -13 3.5 -20t24.5 -38zM570 861q24 0 40.5 -16.5t16.5 -40.5q0 -23 -17 -40t-41 -17q-23 0 -39.5 16.5t-16.5 40.5q0 25 16 41t41 16zM262 862q24 0 41 -16.5t17 -40.5t-17 -41t-41 -17t-40.5 16.5t-16.5 41.5t16 41t41 16z" />
    <glyph glyph-name="Zacute" unicode="&#x179;" horiz-adv-x="706" 
d="M169 52h303q44 0 69 12t45 42q26 41 37 137h48v-243h-637v47l481 568h-265q-94 0 -129 -51q-21 -33 -25 -124h-48v227h600v-47zM539 861l-146 -114h-94l107 114h133z" />
    <glyph glyph-name="zacute" unicode="&#x17a;" horiz-adv-x="540" 
d="M38 48l340 361h-170q-68 0 -90.5 -23t-22.5 -94v-20h-48v185h442v-48l-339 -361h182q65 0 89 22.5t26 84.5l1 41h50v-196h-460v48zM424 672l-116 -134h-77l77 134h116z" />
    <glyph glyph-name="Zdotaccent" unicode="&#x17b;" horiz-adv-x="706" 
d="M169 52h303q44 0 69 12t45 42q26 41 37 137h48v-243h-637v47l481 568h-265q-94 0 -129 -51q-21 -33 -25 -124h-48v227h600v-47zM352 861q24 0 40.5 -16.5t16.5 -40.5q0 -23 -17 -40t-41 -17q-23 0 -39.5 16.5t-16.5 40.5q0 25 16 41t41 16z" />
    <glyph glyph-name="zdotaccent" unicode="&#x17c;" horiz-adv-x="540" 
d="M38 48l340 361h-170q-68 0 -90.5 -23t-22.5 -94v-20h-48v185h442v-48l-339 -361h182q65 0 89 22.5t26 84.5l1 41h50v-196h-460v48zM270 662q24 0 40.5 -16.5t16.5 -40.5q0 -23 -17 -40t-41 -17q-23 0 -39.5 16.5t-16.5 40.5q0 25 16 41t41 16z" />
    <glyph glyph-name="Zcaron" unicode="&#x17d;" horiz-adv-x="706" 
d="M169 52h303q44 0 69 12t45 42q26 41 37 137h48v-243h-637v47l481 568h-265q-94 0 -129 -51q-21 -33 -25 -124h-48v227h600v-47zM353 728l-198 98l56 54l142 -68l141 68l56 -54z" />
    <glyph glyph-name="zcaron" unicode="&#x17e;" horiz-adv-x="540" 
d="M38 48l340 361h-170q-68 0 -90.5 -23t-22.5 -94v-20h-48v185h442v-48l-339 -361h182q65 0 89 22.5t26 84.5l1 41h50v-196h-460v48zM271 523l-169 111l55 53l114 -76l113 76l55 -53z" />
    <glyph glyph-name="florin" unicode="&#x192;" horiz-adv-x="695" 
d="M336 472h-107l9 48h107l7 44q14 82 69.5 133t130.5 51q52 0 83.5 -25t31.5 -66q0 -31 -16.5 -50.5t-42.5 -19.5q-23 0 -38.5 15t-15.5 37q0 36 35 48q-15 20 -40 20q-42 0 -72 -35t-40 -96l-10 -56h121l-9 -48h-121l-72 -421q-14 -83 -69 -133.5t-131 -50.5
q-51 0 -81.5 25.5t-30.5 68.5q0 30 17 50t43 20q23 0 37 -15t14 -39q0 -36 -35 -48q13 -20 39 -20q43 0 72.5 34.5t40.5 96.5z" />
    <glyph glyph-name="uni01CD" unicode="&#x1cd;" horiz-adv-x="894" 
d="M259 238l-45 -87q-13 -25 -15 -43q-2 -21 18 -37q20 -19 73 -19h34v-52h-343v52h29q64 0 101 47q39 50 71 109l246 459h38l267 -494q37 -68 63 -91q34 -30 86 -30h31v-52h-386v52h33q90 0 90 49q0 19 -13 45l-48 92h-330zM285 286h278l-139 271zM447 728l-198 98l57 54
l141 -68l142 68l56 -54z" />
    <glyph glyph-name="uni01CE" unicode="&#x1ce;" horiz-adv-x="611" 
d="M390 89v13q-29 -55 -80.5 -85.5t-116.5 -30.5q-68 0 -110 35t-42 91q0 73 73 110q33 17 56 24.5t127 33.5q52 13 71.5 27.5t19.5 38.5q0 33 -34.5 56.5t-83.5 23.5q-63 0 -99 -37q22 -16 22 -36q0 -23 -17 -39t-41 -16q-26 0 -43.5 18.5t-17.5 46.5q0 49 55 78.5
t144 29.5q83 0 136 -32q34 -21 49 -57.5t15 -98.5v-157q0 -55 13 -69q9 -9 26 -9q25 0 34.5 20t9.5 71v45h43v-74q0 -58 -29 -91t-80 -33q-44 0 -72 29t-28 74zM388 196l2 82q-15 -21 -36 -32t-86 -29q-67 -19 -97.5 -43.5t-30.5 -58.5q0 -31 21.5 -50t55.5 -19
q64 0 116.5 46t54.5 104zM272 523l-168 111l54 53l114 -76l114 76l54 -53z" />
    <glyph glyph-name="uni01D3" unicode="&#x1d3;" horiz-adv-x="948" 
d="M23 614v53h377v-53h-21q-73 0 -98 -27q-19 -19 -19 -65v-270q0 -99 62.5 -156.5t170.5 -57.5t169 52t61 144v288q0 49 -23 69q-28 23 -94 23h-21v53h338v-53h-21q-72 0 -98 -27q-19 -19 -19 -65v-288q0 -134 -88 -196q-79 -57 -218 -57q-152 0 -236 68.5t-84 193.5v279
q0 49 -23 69q-28 23 -94 23h-21zM494 728l-197 98l56 54l141 -68l142 68l56 -54z" />
    <glyph glyph-name="Gcaron" unicode="&#x1e6;" horiz-adv-x="851" 
d="M669 0l-36 86q-37 -39 -70 -59q-81 -47 -178 -47q-145 0 -245 103t-100 253q0 152 98 250.5t249 98.5q81 0 179 -34q30 -9 43 -9q34 0 37 34h48v-249h-48q-4 54 -23 92q-29 53 -86 84.5t-124 31.5q-113 0 -187 -83t-74 -209q0 -125 78 -213t189 -88q67 0 125 44t58 95
q0 17 -10 33t-25 22q-23 11 -87 11h-15v48h369v-48h-12q-47 0 -64 -3.5t-33 -16.5q-28 -22 -28 -89v-138h-28zM412 728l-197 98l56 54l141 -68l142 68l56 -54z" />
    <glyph glyph-name="gcaron" unicode="&#x1e7;" horiz-adv-x="675" 
d="M202 46h206q106 0 146 -32q38 -31 38 -83q0 -74 -76.5 -114t-216.5 -40q-160 0 -222 40q-49 31 -49 76q0 59 72 89q-66 28 -66 94q0 38 24.5 65t67.5 37q-54 50 -54 115q0 76 63 127t156 51q57 0 98 -17t81 -57q36 60 104 60q39 0 66.5 -28.5t27.5 -68.5
q0 -27 -17.5 -46.5t-42.5 -19.5q-22 0 -38 15t-16 36q0 41 50 47q-15 18 -36 18q-41 0 -73 -48q17 -31 17 -70q0 -72 -65.5 -120.5t-162.5 -48.5q-67 0 -122 32q-60 -14 -60 -58q0 -29 26 -42q16 -9 74 -9zM289 426q-54 0 -91 -36.5t-37 -89.5q0 -59 36.5 -96.5t94.5 -37.5
q56 0 92.5 37t36.5 92t-38.5 93t-93.5 38zM390 -31h-174q-129 0 -129 -68q0 -76 194 -76q90 0 144 13q72 18 72 66q0 29 -29.5 47t-77.5 18zM298 523l-168 111l54 53l114 -76l114 76l54 -53z" />
    <glyph glyph-name="uni01F4" unicode="&#x1f4;" horiz-adv-x="851" 
d="M669 0l-36 86q-37 -39 -70 -59q-81 -47 -178 -47q-145 0 -245 103t-100 253q0 152 98 250.5t249 98.5q81 0 179 -34q30 -9 43 -9q34 0 37 34h48v-249h-48q-4 54 -23 92q-29 53 -86 84.5t-124 31.5q-113 0 -187 -83t-74 -209q0 -125 78 -213t189 -88q67 0 125 44t58 95
q0 17 -10 33t-25 22q-23 11 -87 11h-15v48h369v-48h-12q-47 0 -64 -3.5t-33 -16.5q-28 -22 -28 -89v-138h-28zM592 861l-146 -114h-94l107 114h133z" />
    <glyph glyph-name="Scommaaccent" unicode="&#x218;" horiz-adv-x="721" 
d="M47 0v246h48q10 -57 27.5 -87t53.5 -55q44 -30 102 -48.5t109 -18.5q88 0 149 44q52 37 52 94q0 56 -46 88q-28 19 -81 23l-145 12q-84 7 -122 15.5t-67 26.5q-33 21 -53.5 61t-20.5 83q0 89 74.5 145.5t190.5 56.5q100 0 167 -32q54 -24 77 -24q16 0 24 14q3 5 6 23h48
v-210h-48q-10 49 -27.5 74.5t-55.5 48.5q-81 50 -182 50q-76 0 -129 -37.5t-53 -91.5q0 -51 50 -77q20 -10 84 -16l139 -11q79 -6 116.5 -16t70.5 -33q36 -26 57 -67.5t21 -86.5q0 -44 -20 -86.5t-54 -67.5q-77 -59 -199 -59q-98 0 -186 37q-62 26 -89 26q-40 0 -40 -44h-48
zM307 -262l-18 30q30 13 49.5 33.5t20.5 39.5q-11 -4 -17 -4q-22 0 -36.5 14t-14.5 36q0 24 16 39.5t41 15.5q28 0 45.5 -19.5t17.5 -50.5q0 -79 -104 -134z" />
    <glyph glyph-name="scommaaccent" unicode="&#x219;" horiz-adv-x="511" 
d="M59 0v177h43q9 -47 27 -71q22 -30 63 -49t82 -19q47 0 78 22.5t31 57.5q0 59 -89 70l-104 12q-65 7 -102.5 42.5t-37.5 89.5q0 58 50 98.5t123 40.5q65 0 130 -29q13 -6 24 -6q17 0 20 21h38v-148h-38q-14 52 -39 76q-45 42 -116 42q-48 0 -79.5 -22t-31.5 -55
q0 -52 73 -59l109 -12q80 -9 116 -47q39 -42 39 -96q0 -63 -51.5 -106.5t-125.5 -43.5q-32 0 -55.5 6.5t-92.5 33.5q-12 5 -19 5q-17 0 -22 -31h-43zM207 -241l-17 29q28 12 47 32t20 38q-9 -4 -16 -4q-22 0 -35.5 13.5t-13.5 34.5q0 23 15.5 38t39.5 15q26 0 43 -19t17 -48
q0 -77 -100 -129z" />
    <glyph glyph-name="uni021A" unicode="&#x21a;" horiz-adv-x="760" 
d="M24 667h712v-231h-48q0 77 -12 105q-29 74 -117 74h-127v-471q0 -49 23 -69q28 -23 93 -23h21v-52h-375v52h21q71 0 98 27q19 19 19 65v471h-114q-80 0 -112 -42q-17 -21 -24.5 -50t-9.5 -87h-48v231zM331 -238l-18 30q30 13 50 33.5t20 39.5q-11 -4 -17 -4
q-22 0 -36.5 14t-14.5 36q0 24 16.5 39.5t41.5 15.5q28 0 45.5 -19.5t17.5 -50.5q0 -81 -105 -134z" />
    <glyph glyph-name="uni021B" unicode="&#x21b;" horiz-adv-x="373" 
d="M182 409v-257q0 -69 11 -87q14 -19 39 -19q27 0 40 22q10 20 10 80v30h43v-44q0 -84 -30 -115q-30 -33 -88 -33q-65 0 -92 42q-12 18 -16 42t-4 80v259h-92v43q119 3 133 167h46v-162h144v-48h-144zM118 -241l-17 29q28 12 47 32t20 38q-9 -4 -16 -4q-22 0 -35.5 13.5
t-13.5 34.5q0 23 15.5 38t39.5 15q26 0 43 -19t17 -48q0 -77 -100 -129z" />
    <glyph glyph-name="afii57929" unicode="&#x2bc;" horiz-adv-x="353" 
d="M134 455l-18 30q29 16 49 45t21 55q-11 -4 -17 -4q-22 0 -36.5 14t-14.5 36q0 24 16 39.5t41 15.5q28 0 45.5 -19.5t17.5 -51.5q0 -94 -104 -160z" />
    <glyph glyph-name="circumflex" unicode="&#x2c6;" 
d="M250 687l169 -111l-55 -53l-114 77l-114 -77l-54 53z" />
    <glyph glyph-name="caron" unicode="&#x2c7;" 
d="M250 523l-168 111l54 53l114 -76l114 76l55 -53z" />
    <glyph glyph-name="uni02C9" unicode="&#x2c9;" 
d="M422 571h-343v68h343v-68z" />
    <glyph glyph-name="breve" unicode="&#x2d8;" 
d="M76 669h38q42 -47 135 -47t135 47h39q-7 -48 -42 -81q-55 -47 -132 -47q-84 0 -137 53q-30 29 -36 75z" />
    <glyph glyph-name="dotaccent" unicode="&#x2d9;" 
d="M250 662q24 0 40.5 -16.5t16.5 -40.5q0 -23 -17 -40t-41 -17q-23 0 -39.5 16.5t-16.5 40.5q0 25 16 41t41 16z" />
    <glyph glyph-name="ring" unicode="&#x2da;" 
d="M250 723q45 0 76 -31.5t31 -77.5q0 -43 -31 -73.5t-75 -30.5q-45 0 -76.5 31.5t-31.5 75.5t31.5 75t75.5 31zM250 662q-19 0 -32.5 -14t-13.5 -33t13.5 -32.5t32.5 -13.5t32 13t13 32q0 20 -13 34t-32 14z" />
    <glyph glyph-name="ogonek" unicode="&#x2db;" 
d="M234 0h70q-36 -15 -56.5 -37t-20.5 -45q0 -18 11 -29.5t28 -11.5q22 0 48 13q0 1 12 5l16 -34q-47 -39 -92 -39q-37 0 -64 24t-27 58q0 59 75 96z" />
    <glyph glyph-name="tilde" unicode="&#x2dc;" 
d="M388 652h33q-20 -102 -101 -102q-25 0 -91 22q-56 19 -80 19q-34 0 -40 -32h-31q8 43 22 61q28 41 75 41q24 0 79 -20q55 -22 86 -22q41 0 48 33z" />
    <glyph glyph-name="hungarumlaut" unicode="&#x2dd;" 
d="M323 662l-146 -114h-94l106 114h134zM531 662l-146 -114h-94l106 114h134z" />
    <glyph glyph-name="uni0387" unicode="&#x387;" horiz-adv-x="695" 
d="M347 290q24 0 40.5 -16.5t16.5 -40.5q0 -23 -17 -40t-41 -17q-23 0 -39.5 16.5t-16.5 40.5q0 25 16 41t41 16z" />
    <glyph glyph-name="Wacute" unicode="&#x1e82;" horiz-adv-x="312" 
d="M279 267v-67h-246v67h246z" />
    <glyph glyph-name="Wdieresis" unicode="&#x1e84;" horiz-adv-x="1293" 
d="M654 525l-220 -525h-46l-204 477q-26 62 -39.5 83.5t-34.5 34.5q-30 19 -91 19h-21v53h403v-53h-25q-64 0 -89 -10.5t-25 -36.5q0 -25 19 -68l153 -360l220 528h41l224 -528l148 356q19 43 19 69q0 25 -26 39q-23 11 -93 11h-18v53h347v-53h-23q-59 0 -91 -25t-60 -94
l-203 -495h-43zM821 861q24 0 40.5 -16.5t16.5 -40.5q0 -23 -17 -40t-41 -17q-23 0 -39.5 16.5t-16.5 40.5q0 25 16 41t41 16zM513 862q24 0 41 -16.5t17 -40.5t-17 -41t-41 -17t-40.5 16.5t-16.5 41.5t16 41t41 16z" />
    <glyph glyph-name="uni2006" unicode="&#x2006;" horiz-adv-x="67" 
 />
    <glyph glyph-name="uni2007" unicode="&#x2007;" horiz-adv-x="556" 
 />
    <glyph glyph-name="uni2011" unicode="&#x2011;" horiz-adv-x="246" 
d="M246 267v-67h-246v67h246z" />
    <glyph glyph-name="figuredash" unicode="&#x2012;" horiz-adv-x="695" 
d="M564 267v-67h-434v67h434z" />
    <glyph glyph-name="endash" unicode="&#x2013;" horiz-adv-x="695" 
d="M564 267v-67h-434v67h434z" />
    <glyph glyph-name="emdash" unicode="&#x2014;" horiz-adv-x="737" 
d="M737 267v-67h-737v67h737z" />
    <glyph glyph-name="afii00208" unicode="&#x2015;" horiz-adv-x="737" 
d="M737 267v-67h-737v67h737z" />
    <glyph glyph-name="underscoredbl" unicode="&#x2017;" 
d="M0 -58h500v-41h-500v41zM0 -175h500v-41h-500v41z" />
    <glyph glyph-name="quoteleft" unicode="&#x2018;" horiz-adv-x="353" 
d="M220 686l18 -30q-30 -17 -49.5 -45.5t-20.5 -54.5q11 4 17 4q22 0 36.5 -14t14.5 -36q0 -24 -16 -39.5t-41 -15.5q-28 0 -45.5 19.5t-17.5 51.5q0 94 104 160z" />
    <glyph glyph-name="quoteright" unicode="&#x2019;" horiz-adv-x="353" 
d="M134 455l-18 30q29 16 49 45t21 55q-11 -4 -17 -4q-22 0 -36.5 14t-14.5 36q0 24 16 39.5t41 15.5q28 0 45.5 -19.5t17.5 -51.5q0 -94 -104 -160z" />
    <glyph glyph-name="quotesinglbase" unicode="&#x201a;" horiz-adv-x="295" 
d="M104 -126l-18 30q30 17 49.5 45.5t20.5 54.5q-11 -4 -17 -4q-22 0 -36.5 14t-14.5 36q0 24 16 39.5t41 15.5q28 0 45.5 -19.5t17.5 -51.5q0 -93 -104 -160z" />
    <glyph glyph-name="quotedblleft" unicode="&#x201c;" horiz-adv-x="544" 
d="M220 686l18 -30q-30 -17 -49.5 -45.5t-20.5 -54.5q11 4 17 4q22 0 36.5 -14t14.5 -36q0 -24 -16 -39.5t-41 -15.5q-28 0 -45.5 19.5t-17.5 51.5q0 94 104 160zM411 686l18 -30q-30 -17 -49.5 -45.5t-20.5 -54.5q9 4 16 4q22 0 36.5 -14t14.5 -36q0 -24 -16 -39.5
t-41 -15.5q-28 0 -45.5 19.5t-17.5 51.5q0 96 105 160z" />
    <glyph glyph-name="quotedblright" unicode="&#x201d;" horiz-adv-x="544" 
d="M134 455l-18 30q29 16 49 45t21 55q-11 -4 -17 -4q-22 0 -36.5 14t-14.5 36q0 24 16 39.5t41 15.5q28 0 45.5 -19.5t17.5 -51.5q0 -94 -104 -160zM324 455l-18 30q30 16 50 45t20 55q-9 -4 -17 -4q-22 0 -36 14t-14 36q0 24 16 39.5t41 15.5q28 0 45.5 -19.5t17.5 -51.5
q0 -93 -105 -160z" />
    <glyph glyph-name="quotedblbase" unicode="&#x201e;" horiz-adv-x="549" 
d="M325 -136l-19 31q31 18 52 47.5t22 56.5q-12 -4 -19 -4q-23 0 -37.5 15t-14.5 38q0 24 17.5 40.5t42.5 16.5q29 0 47 -20.5t18 -53.5q0 -97 -109 -167zM135 -136l-19 31q31 18 51.5 47.5t21.5 56.5q-11 -4 -18 -4q-23 0 -38 15t-15 38q0 24 17.5 40.5t42.5 16.5
q29 0 47.5 -20.5t18.5 -53.5q0 -62 -41 -112q-24 -27 -68 -55z" />
    <glyph glyph-name="dagger" unicode="&#x2020;" horiz-adv-x="605" 
d="M287 426l-143 -36q-12 -3 -20 -3q-20 0 -36 15.5t-16 35.5q0 21 15 35.5t36 14.5q9 0 15 -1l148 -32l-35 163q-2 12 -2 15q0 22 15.5 37.5t38.5 15.5q22 0 37.5 -15.5t15.5 -37.5q0 -10 -1 -15l-36 -163l149 32q5 1 15 1q21 0 36 -14.5t15 -35.5q0 -20 -16 -35.5
t-36 -15.5q-8 0 -21 3l-142 36l37 -490q2 -30 2 -33q0 -25 -15 -40.5t-40 -15.5t-40 15.5t-15 40.5q0 7 2 33z" />
    <glyph glyph-name="daggerdbl" unicode="&#x2021;" horiz-adv-x="605" 
d="M319 455l149 32q5 1 15 1q21 0 36 -14.5t15 -35.5q0 -20 -16 -35.5t-36 -15.5q-8 0 -21 3l-142 36q15 -98 15 -159q0 -63 -15 -160l142 36q12 3 21 3q20 0 36 -15.5t16 -35.5q0 -21 -15 -35.5t-36 -14.5q-10 0 -15 1l-149 32l36 -163q1 -5 1 -14q0 -22 -15.5 -38
t-37.5 -16q-23 0 -38.5 15.5t-15.5 38.5q0 4 2 14l35 163l-148 -32q-5 -1 -15 -1q-21 0 -36 14.5t-15 35.5q0 20 16 35.5t36 15.5q8 0 20 -3l143 -36q-15 97 -15 160q0 61 15 159l-143 -36q-12 -3 -20 -3q-20 0 -36 15.5t-16 35.5q0 21 15 35.5t36 14.5q9 0 15 -1l148 -32
l-35 163q-2 12 -2 15q0 22 15.5 37.5t38.5 15.5q22 0 37.5 -15.5t15.5 -37.5q0 -10 -1 -15z" />
    <glyph glyph-name="bullet" unicode="&#x2022;" horiz-adv-x="667" 
d="M337 477q55 0 95.5 -41t40.5 -97q0 -58 -40.5 -98.5t-97.5 -40.5t-98 40.5t-41 97.5q0 58 41 98.5t100 40.5z" />
    <glyph glyph-name="ellipsis" unicode="&#x2026;" horiz-adv-x="885" 
d="M147 105q24 0 40.5 -16.5t16.5 -40.5q0 -23 -17 -40t-41 -17q-23 0 -39.5 16.5t-16.5 40.5q0 25 16 41t41 16zM442 105q24 0 40.5 -16.5t16.5 -40.5q0 -23 -17 -40t-41 -17q-23 0 -39.5 16.5t-16.5 40.5q0 25 16 41t41 16zM737 105q24 0 40.5 -16.5t16.5 -40.5
q0 -23 -17 -40t-41 -17q-23 0 -39.5 16.5t-16.5 40.5q0 25 16 41t41 16z" />
    <glyph glyph-name="perthousand" unicode="&#x2030;" horiz-adv-x="1226" 
d="M191 615q73 0 118.5 -44t45.5 -114q0 -71 -45 -113.5t-120 -42.5q-74 0 -118.5 43.5t-44.5 115.5q0 67 46.5 111t117.5 44zM192 581q-41 0 -69 -34t-28 -85q0 -56 27 -91t70 -35q44 0 71.5 34.5t27.5 90.5q0 53 -28 86.5t-71 33.5zM672 604l-466 -630l-41 31l468 630z
M647 309q73 0 118.5 -44t45.5 -114q0 -71 -45 -113.5t-120 -42.5q-74 0 -118.5 43.5t-44.5 115.5q0 67 46.5 111t117.5 44zM648 275q-41 0 -69 -34t-28 -85q0 -56 27 -91t70 -35q44 0 71.5 34.5t27.5 90.5q0 53 -28 86.5t-71 33.5zM1035 309q73 0 118.5 -44t45.5 -114
q0 -71 -45 -113.5t-120 -42.5q-74 0 -118.5 43.5t-44.5 115.5q0 67 46.5 111t117.5 44zM1036 275q-41 0 -69 -34t-28 -85q0 -56 27 -91t70 -35q44 0 71.5 34.5t27.5 90.5q0 53 -28 86.5t-71 33.5z" />
    <glyph glyph-name="guilsinglleft" unicode="&#x2039;" horiz-adv-x="307" 
d="M250 350l-119 -116l119 -117h-75l-118 117l118 116h75z" />
    <glyph glyph-name="guilsinglright" unicode="&#x203a;" horiz-adv-x="307" 
d="M57 350h75l118 -116l-118 -117h-75l120 117z" />
    <glyph glyph-name="exclamdbl" unicode="&#x203c;" horiz-adv-x="405" 
d="M142 667v-177l-21 -299h-45l-21 298v178h87zM144 123v-123h-90v123h90zM348 667v-177l-21 -299h-45l-21 298v178h87zM350 123v-123h-90v123h90z" />
    <glyph glyph-name="uni203E" unicode="&#x203e;" 
d="M0 856h500v-55h-500v55z" />
    <glyph glyph-name="fraction" unicode="&#x2044;" horiz-adv-x="114" 
d="M311 604l-467 -630l-40 31l467 630z" />
    <glyph glyph-name="zerosuperior" unicode="&#x2070;" horiz-adv-x="449" 
d="M227 618q85 0 139.5 -55t54.5 -140q0 -84 -55 -137.5t-142 -53.5q-85 0 -140 55.5t-55 140.5q0 80 57 135t141 55zM224 578q-51 0 -84.5 -43t-33.5 -108q0 -68 34 -112t86 -44t85 43t33 110t-33.5 110.5t-86.5 43.5z" />
    <glyph glyph-name="foursuperior" unicode="&#x2074;" horiz-adv-x="449" 
d="M324 618v-230h71v-38h-71v-6q0 -40 10.5 -53t42.5 -13h12v-38h-201v38h13q38 0 48.5 11.5t10.5 53.5v7h-206v39l237 229h33zM260 536l-150 -148h150v148z" />
    <glyph glyph-name="fivesuperior" unicode="&#x2075;" horiz-adv-x="449" 
d="M351 610v-57h-220v-83q55 29 102 29q68 0 111 -36.5t43 -95.5q0 -61 -46 -98t-123 -37q-67 0 -111.5 30t-44.5 75q0 20 13.5 33t33.5 13t32.5 -11t12.5 -29q0 -28 -31 -41q33 -29 82 -29q47 0 78.5 26.5t31.5 66.5q0 38 -29.5 65t-69.5 27q-55 0 -84 -34h-40v186h259z
" />
    <glyph glyph-name="sixsuperior" unicode="&#x2076;" horiz-adv-x="449" 
d="M118 441q34 33 62 46t65 13q65 0 111.5 -38.5t46.5 -92.5q0 -60 -49 -98.5t-126 -38.5q-84 0 -133 49t-49 132q0 89 57 147t145 58q58 0 98 -23.5t40 -57.5q0 -18 -12 -30t-29 -12q-18 0 -31 11.5t-13 27.5q0 11 11 26q-29 19 -64 19q-63 0 -101 -51q-19 -24 -29 -87z
M232 454q-45 0 -76.5 -25.5t-31.5 -62.5q0 -39 30 -67t73 -28t74.5 28t31.5 67q0 37 -29 62.5t-72 25.5z" />
    <glyph glyph-name="sevensuperior" unicode="&#x2077;" horiz-adv-x="449" 
d="M378 610v-39q-53 -56 -85 -117q-29 -58 -29 -141v-26q0 -54 -44 -54t-44 52q0 47 37 119t100 150h-137q-38 0 -51 -11t-13 -44h-41v111h307z" />
    <glyph glyph-name="eightsuperior" unicode="&#x2078;" horiz-adv-x="449" 
d="M136 433q-41 14 -58.5 32.5t-17.5 48.5q0 47 43.5 75.5t114.5 28.5q79 0 127 -29.5t48 -77.5q0 -55 -71 -79q81 -28 81 -88q0 -47 -50.5 -79.5t-124.5 -32.5q-80 0 -131 31t-51 80q0 68 90 90zM222 578q-43 0 -68.5 -17t-25.5 -45q0 -32 25 -49.5t70 -17.5
q46 0 73.5 16.5t27.5 45.5t-29.5 48t-72.5 19zM224 408q-46 0 -75 -17t-29 -44q0 -31 31 -52.5t76 -21.5q44 0 73.5 20t29.5 50q0 29 -30 47t-76 18z" />
    <glyph glyph-name="ninesuperior" unicode="&#x2079;" horiz-adv-x="449" 
d="M330 409q-34 -33 -61.5 -46t-64.5 -13q-65 0 -111.5 38.5t-46.5 92.5q0 60 49 98.5t125 38.5q84 0 133 -49t49 -132q0 -89 -57 -147t-145 -58q-57 0 -97 23.5t-40 57.5q0 18 11.5 30t28.5 12q18 0 31 -11.5t13 -27.5q0 -11 -11 -26q31 -19 64 -19q64 0 102 51
q20 27 28 87zM222 579q-44 0 -75 -28t-31 -67q0 -37 29 -62.5t72 -25.5q44 0 75.5 25.5t31.5 62.5q0 39 -30 67t-72 28z" />
    <glyph glyph-name="zeroinferior" unicode="&#x2080;" horiz-adv-x="449" 
d="M227 378q85 0 139.5 -54.5t54.5 -139.5t-55 -138.5t-142 -53.5q-85 0 -140 55.5t-55 140.5q0 80 57 135t141 55zM224 338q-51 0 -84.5 -42.5t-33.5 -107.5q0 -68 34 -112t86 -44t85 42.5t33 109.5t-33.5 110.5t-86.5 43.5z" />
    <glyph glyph-name="oneinferior" unicode="&#x2081;" horiz-adv-x="449" 
d="M260 378v-272q0 -49 9 -57q11 -11 44 -11h17v-38h-212v38h20q40 0 48.5 10t8.5 57v147q0 30 -11.5 39.5t-46.5 9.5h-10v40h11q65 0 88 37h34z" />
    <glyph glyph-name="twoinferior" unicode="&#x2082;" horiz-adv-x="449" 
d="M371 113v-113h-303q6 65 31.5 95t104.5 64q57 24 79.5 45.5t22.5 53.5q0 34 -26 55.5t-66 21.5q-35 0 -58.5 -14.5t-27.5 -39.5q46 0 46 -38q0 -18 -12.5 -30t-31.5 -12q-25 0 -40.5 18t-15.5 46q0 50 43.5 81.5t111.5 31.5q67 0 110 -34t43 -87q0 -61 -54 -97
q-22 -15 -97 -41q-58 -20 -73.5 -29.5t-28.5 -32.5h145q32 0 45 10t13 36v10h39z" />
    <glyph glyph-name="threeinferior" unicode="&#x2083;" horiz-adv-x="449" 
d="M158 212h53q98 0 98 61q0 28 -26.5 47t-67.5 19q-44 0 -83 -26q24 -13 24 -35q0 -17 -12 -28.5t-29 -11.5q-19 0 -31.5 12.5t-12.5 30.5q0 40 45 68.5t109 28.5q69 0 114 -29.5t45 -74.5q0 -31 -18 -50t-58 -30q86 -28 86 -95q0 -46 -48.5 -76.5t-121.5 -30.5t-121 27
t-48 68q0 19 12.5 32t32.5 13q19 0 31.5 -11.5t12.5 -29.5q0 -23 -23 -36q37 -23 82 -23q52 0 81.5 20.5t29.5 55.5q0 38 -32 54q-25 12 -83 12h-41v38z" />
    <glyph glyph-name="fourinferior" unicode="&#x2084;" horiz-adv-x="449" 
d="M324 378v-230h71v-38h-71v-6q0 -40 10.5 -53t42.5 -13h12v-38h-201v38h13q38 0 48.5 11.5t10.5 53.5v7h-206v39l237 229h33zM260 296l-150 -148h150v148z" />
    <glyph glyph-name="fiveinferior" unicode="&#x2085;" horiz-adv-x="449" 
d="M351 369v-57h-220v-82q56 28 102 28q69 0 111.5 -36t42.5 -95q0 -61 -46 -98t-123 -37q-67 0 -111.5 30t-44.5 75q0 20 13.5 33t33.5 13t32.5 -11t12.5 -29q0 -26 -31 -41q33 -29 82 -29q47 0 78.5 26.5t31.5 66.5q0 37 -29.5 64t-69.5 27q-54 0 -84 -33h-40v185h259z
" />
    <glyph glyph-name="sixinferior" unicode="&#x2086;" horiz-adv-x="449" 
d="M118 201q34 32 62 45t65 13q65 0 111.5 -38.5t46.5 -92.5q0 -59 -49 -97.5t-126 -38.5q-84 0 -133 49t-49 132q0 89 57 147t145 58q58 0 98 -23.5t40 -57.5q0 -18 -12 -30t-29 -12q-18 0 -31 11.5t-13 27.5q0 11 11 26q-29 19 -64 19q-63 0 -101 -51q-19 -24 -29 -87z
M232 213q-45 0 -76.5 -25.5t-31.5 -62.5q0 -39 30 -66.5t73 -27.5t74.5 28t31.5 66q0 37 -29 62.5t-72 25.5z" />
    <glyph glyph-name="seveninferior" unicode="&#x2087;" horiz-adv-x="449" 
d="M378 369v-39q-53 -56 -85 -117q-29 -58 -29 -142v-25q0 -54 -44 -54t-44 52q0 47 36.5 119.5t100.5 149.5h-137q-38 0 -51 -11t-13 -44h-41v111h307z" />
    <glyph glyph-name="eightinferior" unicode="&#x2088;" horiz-adv-x="449" 
d="M136 192q-41 14 -58.5 33t-17.5 49q0 47 43.5 75.5t114.5 28.5q79 0 127 -29.5t48 -77.5q0 -57 -71 -79q81 -29 81 -88q0 -47 -50.5 -79.5t-124.5 -32.5q-80 0 -131 31t-51 80q0 35 21.5 56.5t68.5 32.5zM222 338q-43 0 -68.5 -17t-25.5 -45q0 -32 25 -49.5t70 -17.5
q46 0 73.5 16.5t27.5 45.5t-29.5 48t-72.5 19zM224 168q-46 0 -75 -17t-29 -44q0 -31 31 -52.5t76 -21.5q44 0 73.5 20t29.5 51q0 28 -30 46t-76 18z" />
    <glyph glyph-name="nineinferior" unicode="&#x2089;" horiz-adv-x="449" 
d="M330 169q-33 -33 -61 -46t-65 -13q-65 0 -111.5 38.5t-46.5 92.5q0 60 49 98.5t125 38.5q84 0 133 -49t49 -133q0 -89 -57 -146.5t-145 -57.5q-57 0 -97 23.5t-40 57.5q0 17 11.5 29t28.5 12q18 0 31 -11.5t13 -27.5q0 -9 -11 -26q30 -18 65 -18q63 0 101 51q20 27 28 87
zM222 339q-44 0 -75 -28t-31 -67q0 -37 29 -62.5t71 -25.5q45 0 76.5 25.5t31.5 62.5q0 39 -30 67t-72 28z" />
    <glyph glyph-name="franc" unicode="&#x20a3;" horiz-adv-x="1195" 
d="M265 319v-174q0 -30 4.5 -44t18.5 -25q27 -24 94 -24h21v-52h-373v52h21q71 0 98 27q19 20 19 66v377q0 50 -23 69q-27 24 -94 24h-21v52h657v-232h-48q1 55 -5.5 84.5t-23.5 51.5q-33 44 -124 44h-221v-246h105q47 0 69 34.5t27 112.5h48v-350h-48q-4 83 -25 117
q-21 36 -71 36h-105zM918 457v-128q35 75 71.5 108.5t85.5 33.5q40 0 66.5 -26t26.5 -65q0 -32 -18.5 -53.5t-45.5 -21.5q-22 0 -38 15t-16 35q0 19 12.5 30.5t32.5 12.5q-15 25 -39 25q-51 0 -98 -87q-39 -74 -39 -168q0 -71 20 -96t77 -25h15v-47h-286v48q59 0 77.5 19
t18.5 81v162q0 61 -18.5 80t-77.5 19v48h173z" />
    <glyph glyph-name="lira" unicode="&#x20a4;" horiz-adv-x="602" 
d="M357 370v-33h-113q23 -44 30 -85h85v-33h-90q-2 -43 -21.5 -75.5t-62.5 -68.5q4 2 10 4.5t7 2.5q42 18 75 18q20 0 37 -4.5t81 -25.5q18 -7 43 -7q30 0 62.5 17.5t56.5 46.5l34 -71q-75 -72 -154 -72q-39 0 -103 24q-64 23 -93 23q-48 0 -105 -41l-47 67q44 28 70.5 72
t28.5 90h-115v33h112q-13 46 -37 85h-75v33h55q-35 65 -35 109q0 41 20 78.5t55 62.5q63 45 165 45q145 0 204 -92q31 -52 34 -143h-81q-3 84 -40.5 123.5t-113.5 39.5q-67 0 -108.5 -32.5t-41.5 -84.5q0 -24 7 -42.5t33 -63.5h131z" />
    <glyph glyph-name="peseta" unicode="&#x20a7;" horiz-adv-x="1164" 
d="M270 319v-175q0 -49 23 -69q28 -23 93 -23h31v-52h-383v52h21q71 0 98 27q19 19 19 65v379q0 49 -23 68q-27 24 -94 24h-21v52h407q126 0 179 -57q45 -51 45 -116q0 -85 -68 -137q-50 -38 -159 -38h-168zM270 371h142q68 0 107 32.5t39 87.5q0 59 -39.5 91.5t-109.5 32.5
h-139v-244zM706 241v-148q0 -35 5.5 -47t21.5 -12t21.5 12t5.5 45v21h35v-29q0 -48 -18.5 -69.5t-59.5 -21.5q-42 0 -60 26q-13 18 -13 74v149h-57v32q74 0 83 99h36v-96h90v-35h-90zM871 0v111h34q5 -29 17 -43q31 -39 87 -39q28 0 46 12.5t18 30.5q0 32 -53 39l-64 7
q-42 5 -66.5 26.5t-24.5 54.5q0 36 32.5 60.5t79.5 24.5q41 0 82 -17q7 -3 13 -3q8 0 9 12h31v-94h-31q-18 70 -93 70q-28 0 -46.5 -12t-18.5 -31q0 -27 42 -31l68 -7q48 -4 74 -27t26 -60q0 -39 -33 -65.5t-81 -26.5q-34 0 -93 23q-6 3 -11 3q-6 0 -10 -18h-34z" />
    <glyph glyph-name="Euro" unicode="&#x20ac;" horiz-adv-x="761" 
d="M187 413h402l-49 -68h-362v-3v-4q0 -20 3 -41h325l-49 -68h-260q29 -82 94.5 -131.5t145.5 -49.5q107 0 187 85q35 38 61 104v-118q-59 -74 -121 -106t-146 -32q-121 0 -212 67t-125 181h-108l48 68h48q-2 16 -2 48h-94l48 68h53q23 121 116.5 196.5t221.5 75.5
q41 0 72.5 -7.5t101.5 -34.5q21 -9 36 -9q37 0 43 38h48v-246h-45q-11 78 -41 119q-29 40 -79.5 63.5t-108.5 23.5q-94 0 -162 -59.5t-90 -159.5z" />
    <glyph glyph-name="uni2101" unicode="&#x2101;" horiz-adv-x="1196" 
d="M201 407l-25 -50q-8 -16 -8 -23q-1 -14 12 -22t36 -8h22v-38h-185v38h6q36 0 54 27q19 25 39 64l138 272h26l150 -293q22 -43 37.5 -56.5t42.5 -13.5h8v-38h-210v38h22q47 0 47 26q0 8 -7 24l-26 53h-179zM218 442h144l-72 149zM906 667l-400 -667h-56l401 667h55zM753 0
v152h33q6 -34 15.5 -52t28.5 -32q54 -39 118 -39q45 0 76 22.5t31 55.5q0 56 -68 62l-81 7q-80 8 -107 25q-43 30 -43 88q0 53 42.5 87.5t109.5 34.5q56 0 94 -19q30 -14 42 -14q10 0 12 14l2 8h33v-130h-33q-6 29 -15.5 44t-29.5 28q-44 29 -100 29q-41 0 -69.5 -21
t-28.5 -51q0 -27 26 -42q10 -6 45 -9l78 -7q73 -5 105 -29q46 -35 46 -94q0 -58 -43 -93.5t-113 -35.5q-58 0 -105 22q-33 15 -48 15q-19 0 -19 -26h-34z" />
    <glyph glyph-name="afii61248" unicode="&#x2105;" horiz-adv-x="344" 
d="M173 401q19 0 33 -14t14 -34t-14 -34t-34 -14t-34 14.5t-14 33.5q0 20 14 34t35 14z" />
    <glyph glyph-name="afii61289" unicode="&#x2113;" 
d="M246 264q-29 -153 -29 -201q0 -26 18 -26q22 0 47 53q10 18 21 18q14 0 14 -16q0 -21 -20 -53q-36 -57 -83 -57q-35 0 -53.5 24.5t-18.5 70.5q0 33 9 115q-40 -44 -53 -44q-5 0 -9.5 6t-4.5 13q0 10 19 28q17 16 55 60q40 217 88.5 318t110.5 101q31 0 49 -23t18 -61
q0 -86 -64 -188q-33 -52 -114 -138zM255 322q69 75 101 157q26 68 26 113q0 16 -7 26t-18 10q-29 0 -51 -66t-51 -240z" />
    <glyph glyph-name="uni2117" unicode="&#x2117;" horiz-adv-x="226" 
d="M145 543v-186q0 -36 10.5 -46t48.5 -10v-34h-181v34h10q33 0 43.5 10.5t10.5 44.5v97q0 34 -10.5 44.5t-43.5 10.5h-10v35h122zM105 666q17 0 28.5 -11.5t11.5 -27.5q0 -17 -11.5 -28.5t-28.5 -11.5t-28 11.5t-11 27.5q0 17 11 28.5t28 11.5z" />
    <glyph glyph-name="trademark" unicode="&#x2122;" horiz-adv-x="1196" 
d="M19 667h449v-143h-37v9q0 51 -18 73.5t-58 22.5h-75v-274q0 -29 15 -40t53 -11h17v-37h-241v37h17q39 0 54 11t15 40v274h-67q-48 0 -67 -24q-17 -20 -20 -81h-37v143zM845 349l161 318h164v-38h-17q-38 0 -53 -11t-15 -40v-223q0 -29 15 -40t53 -11h17v-37h-242v37h17
q39 0 54 11t15 40v243l-166 -331h-36l-170 331v-243q0 -29 15 -40t53 -11h17v-37h-213v37h17q39 0 54 11t15 40v223q0 29 -15 40t-54 11h-17v38h168z" />
    <glyph glyph-name="uni2126" unicode="&#x2126;" horiz-adv-x="666" 
d="M27 0v74h178q-180 105 -180 291q0 133 89.5 225.5t218.5 92.5t218 -92.5t89 -226.5q0 -186 -179 -290h177v-74h-261v69q65 35 104 82q74 89 74 200q0 108 -64 183t-157 75q-94 0 -158.5 -75t-64.5 -183q0 -185 178 -282v-69h-262z" />
    <glyph glyph-name="onethird" unicode="&#x2153;" horiz-adv-x="1013" 
d="M260 618v-272q0 -49 9 -57q11 -11 44 -11h17v-38h-212v38h20q40 0 48.5 10t8.5 57v147q0 30 -11.5 39.5t-46.5 9.5h-10v40h11q65 0 88 37h34zM759 604l-466 -630l-41 31l468 630zM722 212h53q98 0 98 61q0 28 -26.5 47t-67.5 19q-44 0 -83 -26q24 -13 24 -35
q0 -17 -12 -28.5t-29 -11.5q-19 0 -31.5 12.5t-12.5 30.5q0 40 45 68.5t109 28.5q69 0 114 -29.5t45 -74.5q0 -31 -18 -50t-58 -30q86 -28 86 -95q0 -46 -48.5 -76.5t-121.5 -30.5t-121 27t-48 68q0 19 12.5 32t32.5 13q19 0 31.5 -11.5t12.5 -29.5q0 -23 -23 -36
q37 -23 82 -23q52 0 81.5 20.5t29.5 55.5q0 38 -32 54q-25 12 -83 12h-41v38z" />
    <glyph glyph-name="twothirds" unicode="&#x2154;" horiz-adv-x="1013" 
d="M370 353v-112h-303q6 64 31.5 93.5t104.5 64.5q58 25 80 46.5t22 52.5q0 34 -26 55.5t-66 21.5q-35 0 -58.5 -14.5t-27.5 -39.5q46 0 46 -38q0 -18 -12.5 -30t-31.5 -12q-25 0 -40.5 18t-15.5 46q0 50 43.5 81.5t111.5 31.5q67 0 110 -34t43 -87q0 -61 -54 -97
q-26 -17 -97 -41q-57 -19 -72.5 -28.5t-29.5 -32.5h145q32 0 45 10t13 35v10h39zM760 604l-467 -630l-40 31l467 630zM722 212h53q98 0 98 61q0 28 -26.5 47t-67.5 19q-44 0 -83 -26q24 -13 24 -35q0 -17 -12 -28.5t-29 -11.5q-19 0 -31.5 12.5t-12.5 30.5q0 40 45 68.5
t109 28.5q69 0 114 -29.5t45 -74.5q0 -31 -18 -50t-58 -30q86 -28 86 -95q0 -46 -48.5 -76.5t-121.5 -30.5t-121 27t-48 68q0 19 12.5 32t32.5 13q19 0 31.5 -11.5t12.5 -29.5q0 -23 -23 -36q37 -23 82 -23q52 0 81.5 20.5t29.5 55.5q0 38 -32 54q-25 12 -83 12h-41v38z" />
    <glyph glyph-name="oneeighth" unicode="&#x215b;" horiz-adv-x="1013" 
d="M260 618v-272q0 -49 9 -57q11 -11 44 -11h17v-38h-212v38h20q40 0 48.5 10t8.5 57v147q0 30 -11.5 39.5t-46.5 9.5h-10v40h11q65 0 88 37h34zM759 604l-466 -630l-41 31l468 630zM700 192q-76 25 -76 82q0 47 43.5 75.5t114.5 28.5q78 0 126 -29.5t48 -77.5
q0 -57 -71 -79q81 -29 81 -88q0 -47 -50.5 -79.5t-124.5 -32.5q-80 0 -131 31t-51 80q0 35 22 56.5t69 32.5zM786 338q-43 0 -68.5 -17t-25.5 -45q0 -32 25 -49.5t69 -17.5q46 0 73.5 16.5t27.5 45.5q0 28 -29 47.5t-72 19.5zM787 168q-46 0 -75 -17t-29 -44q0 -31 31 -52.5
t76 -21.5q44 0 73.5 20t29.5 51q0 28 -30 46t-76 18z" />
    <glyph glyph-name="threeeighths" unicode="&#x215c;" horiz-adv-x="1013" 
d="M158 452h53q98 0 98 61q0 28 -26.5 47t-67.5 19q-44 0 -83 -26q24 -13 24 -35q0 -17 -12 -28.5t-29 -11.5q-19 0 -31.5 12.5t-12.5 30.5q0 40 45 68.5t109 28.5q69 0 114 -29.5t45 -74.5q0 -31 -18 -50t-58 -30q86 -28 86 -96q0 -46 -48.5 -76.5t-121.5 -30.5
q-74 0 -121.5 27t-47.5 69q0 19 12.5 32t32.5 13q19 0 31.5 -11.5t12.5 -29.5q0 -25 -23 -36q37 -24 82 -24q52 0 81.5 20.5t29.5 55.5q0 39 -32 55q-25 12 -83 12h-41v38zM759 604l-466 -630l-40 31l467 630zM700 192q-76 25 -76 82q0 47 43.5 75.5t114.5 28.5
q78 0 126 -29.5t48 -77.5q0 -57 -71 -79q82 -29 82 -88q0 -47 -50.5 -79.5t-124.5 -32.5q-80 0 -131 31t-51 80q0 69 90 89zM786 338q-43 0 -68.5 -17t-25.5 -45q0 -32 25 -49.5t69 -17.5q46 0 73.5 16.5t27.5 45.5q0 28 -29 47.5t-72 19.5zM788 168q-46 0 -75 -17t-29 -44
q0 -31 31 -52.5t76 -21.5q44 0 73.5 20t29.5 51q0 28 -30 46t-76 18z" />
    <glyph glyph-name="fiveeighths" unicode="&#x215d;" horiz-adv-x="1013" 
d="M351 610v-57h-220v-83q55 29 102 29q68 0 111 -36.5t43 -95.5q0 -61 -46 -98t-123 -37q-67 0 -111.5 30t-44.5 75q0 20 13.5 33t33.5 13t32.5 -11t12.5 -29q0 -28 -31 -41q33 -29 82 -29q47 0 78.5 26.5t31.5 66.5q0 38 -29.5 65t-69.5 27q-55 0 -84 -34h-40v186h259z
M760 604l-467 -630l-40 31l467 630zM700 192q-40 14 -58 33t-18 49q0 47 43.5 75.5t114.5 28.5q79 0 127 -29.5t48 -77.5q0 -57 -71 -79q81 -29 81 -88q0 -47 -50.5 -79.5t-124.5 -32.5q-80 0 -131 31t-51 80q0 35 21.5 56.5t68.5 32.5zM786 338q-43 0 -68.5 -17t-25.5 -45
q0 -32 25 -49.5t70 -17.5q46 0 73.5 16.5t27.5 45.5t-29.5 48t-72.5 19zM788 168q-46 0 -75 -17t-29 -44q0 -31 31 -52.5t76 -21.5q44 0 73.5 20t29.5 51q0 28 -30 46t-76 18z" />
    <glyph glyph-name="seveneighths" unicode="&#x215e;" horiz-adv-x="1013" 
d="M378 610v-39q-53 -56 -85 -117q-29 -58 -29 -141v-26q0 -54 -44 -54t-44 52q0 47 37 119t100 150h-137q-38 0 -51 -11t-13 -44h-41v111h307zM760 604l-467 -630l-40 31l467 630zM700 192q-76 25 -76 82q0 47 43.5 75.5t114.5 28.5q79 0 127 -29.5t48 -77.5q0 -57 -71 -79
q81 -29 81 -88q0 -47 -50.5 -79.5t-124.5 -32.5q-80 0 -131 31t-51 80q0 69 90 89zM786 338q-43 0 -68.5 -17t-25.5 -45q0 -32 25 -49.5t70 -17.5q46 0 73.5 16.5t27.5 45.5t-29.5 48t-72.5 19zM788 168q-46 0 -75 -17t-29 -44q0 -31 31 -52.5t76 -21.5q44 0 73.5 20
t29.5 51q0 28 -30 46t-76 18z" />
    <glyph glyph-name="arrowleft" unicode="&#x2190;" horiz-adv-x="667" 
d="M653 363v-51h-500q15 -19 33.5 -56t18.5 -48q0 -14 -15 -14q-8 0 -22 17q-46 54 -132 104q-23 11 -23 20q0 10 16 19q62 37 87 57t58 59q8 9 16 9q15 0 15 -15q0 -29 -52 -101h500z" />
    <glyph glyph-name="arrowup" unicode="&#x2191;" horiz-adv-x="667" 
d="M360 13h-51v500q-19 -15 -56 -33.5t-48 -18.5q-14 0 -14 15q0 8 17 23q53 44 103 132q13 23 21 23q10 0 19 -17q37 -61 57.5 -87t58.5 -58q9 -8 9 -16q0 -15 -15 -15q-29 0 -101 52v-500z" />
    <glyph glyph-name="arrowright" unicode="&#x2192;" horiz-adv-x="667" 
d="M13 310v51h500q-15 19 -33.5 56t-18.5 48q0 14 15 14q8 0 22 -17q46 -54 132 -104q23 -12 23 -20q0 -10 -16 -19q-62 -37 -87 -57t-58 -59q-8 -9 -16 -9q-15 0 -15 15q0 29 52 101h-500z" />
    <glyph glyph-name="arrowdown" unicode="&#x2193;" horiz-adv-x="667" 
d="M307 653h51v-500q19 16 56 34t48 18q14 0 14 -15q0 -8 -17 -22q-55 -47 -103 -132q-13 -23 -21 -23q-10 0 -19 16q-37 62 -57 87t-59 58q-9 8 -9 16q0 15 15 15q27 0 101 -52v500z" />
    <glyph glyph-name="arrowboth" unicode="&#x2194;" horiz-adv-x="667" 
d="M513 310h-361q22 -29 37.5 -59t15.5 -42q0 -15 -15 -15q-6 0 -8.5 2.5t-15.5 16.5q-29 33 -56 53.5t-87 56.5q-10 6 -10 15q0 8 23 20q85 49 132 104q14 17 22 17q15 0 15 -14q0 -11 -18.5 -47.5t-34.5 -56.5h361q-15 19 -33.5 56t-18.5 48q0 14 15 14q8 0 22 -17
q46 -54 132 -104q23 -12 23 -20q0 -10 -16 -19q-62 -37 -87 -57t-58 -59q-8 -9 -16 -9q-15 0 -15 15q0 29 52 101z" />
    <glyph glyph-name="arrowupdn" unicode="&#x2195;" horiz-adv-x="667" 
d="M360 513v-361q72 53 101 53q15 0 15 -15q0 -6 -2.5 -8.5t-16.5 -15.5q-33 -29 -53.5 -56t-56.5 -87q-6 -10 -15 -10q-8 0 -20 23q-49 85 -104 132q-17 14 -17 22q0 15 14 15q11 0 47.5 -18.5t56.5 -34.5v361q-19 -15 -56 -33.5t-48 -18.5q-14 0 -14 15q0 8 17 23
q55 46 104 132q12 23 20 23q10 0 19 -17q37 -61 57.5 -87t58.5 -58q9 -8 9 -16q0 -15 -15 -15q-29 0 -101 52z" />
    <glyph glyph-name="arrowupdnbse" unicode="&#x21a8;" horiz-adv-x="667" 
d="M360 513v-361q72 53 101 53q15 0 15 -15q0 -6 -2.5 -8.5t-16.5 -15.5q-33 -29 -53.5 -56t-56.5 -87q-6 -10 -15 -10q-7 0 -21 23q-48 85 -103 132q-17 14 -17 22q0 15 14 15q11 0 47.5 -18.5t56.5 -34.5v361q-19 -15 -56 -33.5t-48 -18.5q-14 0 -14 15q0 8 17 23
q55 46 104 132q12 23 20 23q10 0 19 -17q37 -61 57.5 -87t58.5 -58q9 -8 9 -16q0 -15 -15 -15q-29 0 -101 52zM201 -68h264v-43h-264v43z" />
    <glyph glyph-name="partialdiff" unicode="&#x2202;" 
d="M82 603l10 67q86 -11 143.5 -35.5t105.5 -69.5q128 -122 128 -323q0 -96 -40 -156q-30 -46 -77 -71.5t-101 -25.5q-92 0 -156 65.5t-64 159.5q0 92 60 156.5t146 64.5q62 0 103 -29q14 -11 42 -43q-7 14 -8 17q-16 38 -25 57q-33 67 -104 111t-163 55zM256 371
q-64 0 -107 -45.5t-43 -113.5q0 -64 42.5 -110t100.5 -46q61 0 102 46t41 115q0 66 -39 110t-97 44z" />
    <glyph glyph-name="emptyset" unicode="&#x2205;" horiz-adv-x="618" 
d="M439 667l48 -25l-48 -88q113 -80 113 -204q0 -102 -72 -172.5t-176 -70.5q-46 0 -79 16l-63 -123l-48 25l61 122q-108 79 -108 202q0 102 71 172.5t173 70.5q39 0 81 -14zM416 502l-165 -330q32 -8 58 -8q77 0 132 54.5t55 130.5q0 47 -21.5 89t-58.5 64zM200 198
l166 329q-28 8 -54 8q-78 0 -133.5 -54.5t-55.5 -130.5q0 -90 77 -152z" />
    <glyph glyph-name="Delta" unicode="&#x2206;" horiz-adv-x="625" 
d="M6 0l262 667h87l263 -667h-612zM115 74h393l-196 503z" />
    <glyph glyph-name="product" unicode="&#x220f;" horiz-adv-x="667" 
d="M26 750h615v-69h-74v-862h74v-69h-225v69h75v862h-315v-862h73v-69h-223v69h74v862h-74v69z" />
    <glyph glyph-name="summation" unicode="&#x2211;" horiz-adv-x="667" 
d="M600 750v-232h-77l-8 154h-387l248 -403l-248 -442h396l5 156h80v-233h-575v89l243 430l-243 393v88h566z" />
    <glyph glyph-name="minus" unicode="&#x2212;" 
d="M21 366h458v-46h-458v46z" />
    <glyph glyph-name="uni2218" unicode="&#x2218;" 
d="M253 480q56 0 95.5 -41t39.5 -99t-40 -99t-97 -41t-97.5 41t-40.5 99t40.5 99t99.5 41zM252 432q-39 0 -65.5 -27t-26.5 -65t26.5 -65t64.5 -27q37 0 63.5 27t26.5 65t-26 65t-63 27z" />
    <glyph glyph-name="radical" unicode="&#x221a;" horiz-adv-x="667" 
d="M667 827v-71h-190l-221 -756h-93l-82 289h-81v71h131l40 -136q4 -12 5 -18q9 -40 27 -118h4q5 18 5 21q3 12 33 129q16 61 58 202l112 387h252z" />
    <glyph glyph-name="infinity" unicode="&#x221e;" horiz-adv-x="667" 
d="M335 299q-75 -110 -167 -110q-66 0 -107.5 42.5t-41.5 110.5q0 65 42 107.5t108 42.5q90 0 164 -110q38 58 78 84t89 26q65 0 106.5 -43t41.5 -110q0 -66 -41.5 -108.5t-106.5 -42.5q-93 0 -165 111zM364 340q34 -52 64 -74.5t65 -22.5q40 0 66 27.5t26 69.5t-26 69.5
t-66 27.5q-36 0 -64.5 -21.5t-64.5 -75.5zM303 340q-34 52 -64 74.5t-66 22.5q-40 0 -65.5 -27.5t-25.5 -69.5q0 -41 26 -68.5t66 -27.5q36 0 64.5 21t64.5 75z" />
    <glyph glyph-name="orthogonal" unicode="&#x221f;" horiz-adv-x="342" 
d="M21 484h300v-58h-300v58z" />
    <glyph glyph-name="intersection" unicode="&#x2229;" horiz-adv-x="563" 
d="M528 0h-84v316q0 93 -5.5 134.5t-21.5 67.5q-22 33 -58.5 53t-77.5 20q-44 0 -83 -22.5t-58 -59.5q-22 -47 -22 -193v-316h-84v313q0 125 7.5 171t35.5 84q73 99 204 99q70 0 126.5 -30.5t88.5 -85.5q20 -34 26 -79.5t6 -158.5v-313z" />
    <glyph glyph-name="union" unicode="&#x222a;" horiz-adv-x="563" 
d="M34 667h84v-316q0 -93 5.5 -134.5t21.5 -67.5q22 -33 58.5 -53t77.5 -20q44 0 83 22.5t58 59.5q22 47 22 193v316h84v-313q0 -125 -7.5 -171t-35.5 -84q-73 -99 -204 -99q-70 0 -126.5 30.5t-88.5 85.5q-20 34 -26 79.5t-6 158.5v313z" />
    <glyph glyph-name="integral" unicode="&#x222b;" 
d="M91 -239l17 79q23 -11 40 -11q41 0 52 35q5 12 5 92v574q1 83 2 100.5t7 36.5q11 38 46 60.5t83 22.5q29 0 66 -10l-17 -79q-21 9 -40 9q-41 0 -52 -34q-5 -12 -5 -67v-597q0 -88 -4 -116.5t-20 -51.5q-38 -52 -133 -52q-24 0 -47 9z" />
    <glyph glyph-name="uni222E" unicode="&#x222e;" 
d="M90 -239l17 79q26 -11 44 -11q41 0 52 35q5 15 5 69v152q-59 9 -100 59.5t-41 114.5q0 65 39 112.5t102 60.5v144q0 82 20 117q33 57 110 57q30 0 70 -10l-17 -79q-24 9 -45 9q-40 0 -51 -34q-5 -14 -5 -62v-142q47 -9 75 -32q68 -52 68 -141q0 -66 -40.5 -115
t-102.5 -59v-155q0 -56 -3.5 -78.5t-15.5 -42.5q-32 -59 -117 -59q-37 0 -64 11zM290 389v-260q46 10 73 45t27 85q0 48 -28 84.5t-72 45.5zM208 129v260q-43 -9 -70.5 -45.5t-27.5 -84.5q0 -47 28 -84.5t70 -45.5z" />
    <glyph glyph-name="uni2236" unicode="&#x2236;" horiz-adv-x="344" 
d="M173 546q17 0 29 -12t12 -29t-12 -29.5t-29 -12.5t-29.5 12.5t-12.5 29.5t12 29t30 12zM173 243q17 0 29 -12.5t12 -28.5q0 -17 -12 -29.5t-29 -12.5t-29.5 12.5t-12.5 29.5t12.5 29t29.5 12z" />
    <glyph glyph-name="similar" unicode="&#x223c;" 
d="M56 257l-46 37q53 116 138 116q36 0 115 -39q65 -32 90 -32q27 0 47.5 17t42.5 56l47 -37q-52 -116 -142 -116q-21 0 -42.5 7.5t-80.5 37.5q-53 26 -81 26q-25 0 -45 -17t-43 -56z" />
    <glyph glyph-name="approxequal" unicode="&#x2248;" 
d="M56 348l-46 32q53 116 138 116q36 0 115 -39q66 -32 91 -32q27 0 45 14t44 54l47 -32q-52 -115 -146 -115q-20 0 -39 7t-80 37q-52 26 -82 26q-24 0 -43 -15t-44 -53zM56 171l-46 32q53 116 138 116q36 0 115 -39q66 -32 91 -32q27 0 45.5 14.5t43.5 53.5l47 -32
q-52 -115 -146 -115q-20 0 -40 7.5t-79 36.5q-52 26 -82 26q-24 0 -43.5 -15t-43.5 -53z" />
    <glyph glyph-name="notequal" unicode="&#x2260;" 
d="M269 445l62 124l59 -27l-49 -97h126v-74h-157l-47 -96h203v-74h-231l-61 -122l-59 26l47 96h-129v74h158l47 96h-205v74h236z" />
    <glyph glyph-name="equivalence" unicode="&#x2261;" 
d="M33 541h433v-78h-433v78zM33 372h433v-78h-433v78zM33 203h433v-78h-433v78z" />
    <glyph glyph-name="lessequal" unicode="&#x2264;" 
d="M466 601v-83l-336 -129l336 -129v-83l-433 174v76zM466 148v-78h-433v78h433z" />
    <glyph glyph-name="greaterequal" unicode="&#x2265;" 
d="M33 177v83l336 129l-336 129v83l433 -174v-76zM33 70v78h433v-78h-433z" />
    <glyph glyph-name="dotmath" unicode="&#x22c5;" horiz-adv-x="695" 
d="M347 290q24 0 40.5 -16.5t16.5 -40.5q0 -23 -17 -40t-41 -17q-23 0 -39.5 16.5t-16.5 40.5q0 25 16 41t41 16z" />
    <glyph glyph-name="house" unicode="&#x2302;" horiz-adv-x="751" 
d="M84 0v401l291 328l292 -328v-401h-583zM135 51h481v328l-241 270l-240 -270v-328z" />
    <glyph glyph-name="revlogicalnot" unicode="&#x2310;" 
d="M119 0h-86v279h433v-78h-347v-201z" />
    <glyph glyph-name="uni2319" unicode="&#x2319;" 
d="M119 279v-201h347v-78h-433v279h86z" />
    <glyph glyph-name="integraltp" unicode="&#x2320;" 
d="M295 -250h-90v780q1 83 2 100.5t7 36.5q11 38 46 60.5t83 22.5q29 0 66 -10l-17 -79q-22 9 -40 9q-41 0 -52 -34q-5 -14 -5 -67v-819z" />
    <glyph glyph-name="integralbt" unicode="&#x2321;" 
d="M204 750h90v-780q-1 -82 -2 -99t-7 -38q-11 -38 -45.5 -60.5t-82.5 -22.5q-30 0 -67 11l17 79q21 -10 40 -10q41 0 52 34q5 14 5 67v819z" />
    <glyph glyph-name="filledbox" unicode="&#x25a0;" horiz-adv-x="667" 
d="M667 0h-667v667h667v-667z" />
    <glyph glyph-name="uni25A1" unicode="&#x25a1;" horiz-adv-x="667" 
d="M667 0h-667v667h667v-667zM620 47v573h-573v-573h573z" />
    <glyph glyph-name="H18551" unicode="&#x25ab;" horiz-adv-x="342" 
d="M21 484h119v116h62v-116h120v-58h-120v-116h-62v116h-119v58z" />
    <glyph glyph-name="filledrect" unicode="&#x25ac;" horiz-adv-x="667" 
d="M667 333v-333h-667v333h667z" />
    <glyph glyph-name="uni25AE" unicode="&#x25ae;" horiz-adv-x="667" 
d="M500 0h-333v667h333v-667z" />
    <glyph glyph-name="uni25AF" unicode="&#x25af;" horiz-adv-x="667" 
d="M334 589q107 0 183.5 -74.5t76.5 -180.5t-76.5 -181.5t-183.5 -75.5q-110 0 -185.5 75.5t-75.5 184.5q0 104 77 178t184 74z" />
    <glyph glyph-name="triagup" unicode="&#x25b2;" horiz-adv-x="667" 
d="M633 67h-600l300 561z" />
    <glyph glyph-name="uni25B4" unicode="&#x25b4;" 
d="M466 147h-433l217 405z" />
    <glyph glyph-name="uni25B8" unicode="&#x25b8;" 
d="M71 119v433l405 -217z" />
    <glyph glyph-name="triagdn" unicode="&#x25bc;" horiz-adv-x="667" 
d="M33 600h600l-300 -561z" />
    <glyph glyph-name="uni25BE" unicode="&#x25be;" 
d="M33 520h433l-216 -405z" />
    <glyph glyph-name="uni25C2" unicode="&#x25c2;" 
d="M428 552v-433l-405 216z" />
    <glyph glyph-name="lozenge" unicode="&#x25ca;" horiz-adv-x="667" 
d="M334 693l259 -359l-259 -360l-260 360zM334 604l-197 -270l197 -271l197 271z" />
    <glyph glyph-name="circle" unicode="&#x25cb;" horiz-adv-x="667" 
d="M334 589q107 0 183.5 -74.5t76.5 -180.5t-76.5 -181.5t-183.5 -75.5q-110 0 -185.5 75.5t-75.5 184.5q0 104 77 178t184 74zM334 543q-88 0 -151 -61t-63 -146q0 -89 62 -151t152 -62q88 0 150.5 62t62.5 149q0 86 -62.5 147.5t-150.5 61.5z" />
    <glyph glyph-name="invbullet" unicode="&#x25d8;" horiz-adv-x="667" 
d="M0 0v667h667v-667h-667zM336 473q-58 0 -99 -40.5t-41 -99.5q0 -57 40.5 -98t97.5 -41q56 0 96.5 40.5t40.5 98.5q0 57 -40 98.5t-95 41.5z" />
    <glyph glyph-name="invcircle" unicode="&#x25d9;" horiz-adv-x="667" 
d="M667 0h-667v667h667v-667zM334 590q-107 0 -184 -74t-77 -178q0 -110 75.5 -185.5t185.5 -75.5q107 0 183.5 75.5t76.5 181.5t-76.5 181t-183.5 75zM334 543q88 0 150.5 -61.5t62.5 -147.5q0 -87 -62.5 -149t-150.5 -62q-90 0 -152 62t-62 151q0 85 63 146t151 61z" />
    <glyph glyph-name="openbullet" unicode="&#x25e6;" 
d="M253 480q56 0 95.5 -41t39.5 -99t-40 -99t-97 -41t-97.5 41t-40.5 99t40.5 99t99.5 41zM252 432q-39 0 -65.5 -27t-26.5 -65t26.5 -65t64.5 -27q37 0 63.5 27t26.5 65t-26 65t-63 27z" />
    <glyph glyph-name="smileface" unicode="&#x263a;" horiz-adv-x="667" 
d="M339 650q127 0 219 -93.5t92 -222.5q0 -131 -92.5 -224t-223.5 -93q-132 0 -224.5 93t-92.5 226q0 131 94 222.5t228 91.5zM338 608q-126 0 -208 -91q-71 -79 -71 -181q0 -116 80 -196.5t195 -80.5q114 0 194.5 80.5t80.5 194.5q0 112 -80.5 193t-190.5 81zM241 465
q17 0 30 -13t13 -31t-13 -31t-31 -13t-31 13t-13 31q0 19 13 31.5t32 12.5zM434 465q17 0 30 -13t13 -31t-13 -31t-31 -13t-31 13t-13 31q0 19 13 31.5t32 12.5zM540 372q-4 -60 -15 -95t-35 -66q-56 -70 -156 -70q-109 0 -164 82q-20 29 -28.5 60.5t-13.5 88.5
q12 -54 42 -89q61 -70 164 -70q102 0 165 70q29 35 41 89z" />
    <glyph glyph-name="invsmileface" unicode="&#x263b;" horiz-adv-x="667" 
d="M339 650q127 0 219 -93.5t92 -223.5q0 -131 -93 -223.5t-223 -92.5q-132 0 -224.5 93t-92.5 226q0 131 94 222.5t228 91.5zM240 465q-18 0 -31 -12.5t-13 -30.5q0 -19 12.5 -31.5t31.5 -12.5q18 0 30.5 12.5t12.5 31.5q0 17 -13 30t-30 13zM434 465q-19 0 -32 -12.5
t-13 -31.5q0 -18 13 -31t31 -13t31 13t13 31t-13 31t-30 13zM540 372q-12 -54 -41 -89q-63 -70 -165 -70q-103 0 -164 70q-30 35 -42 89q5 -62 15.5 -96t35.5 -65q55 -70 155 -70q110 0 165 82q35 53 41 149z" />
    <glyph glyph-name="sun" unicode="&#x263c;" horiz-adv-x="667" 
d="M159 472l-75 75l35 35l75 -75q49 40 114 48v105h50v-105q66 -8 113 -47l75 74l35 -35l-74 -74q38 -48 47 -114h105v-51h-105q-9 -64 -47 -114l74 -74l-35 -35l-75 74q-50 -40 -113 -47v-105h-50v105q-60 6 -114 47l-75 -74l-35 35l74 74q-40 51 -46 114h-105v51h105
q7 61 47 113zM336 493q-68 0 -115.5 -46t-47.5 -112q0 -67 46.5 -114t113.5 -47q66 0 112.5 47t46.5 113q0 65 -46 112t-110 47z" />
    <glyph glyph-name="female" unicode="&#x2640;" horiz-adv-x="667" 
d="M308 209v105q-68 10 -111.5 61.5t-43.5 120.5q0 76 52.5 129.5t126.5 53.5q75 0 128 -53.5t53 -129.5q0 -70 -44 -120.5t-113 -61.5v-105h163v-43h-163v-166h-48v166h-161v43h161zM335 632q-57 0 -96 -39.5t-39 -96.5q0 -56 39 -95.5t94 -39.5t94 39.5t39 95.5t-38.5 96
t-92.5 40z" />
    <glyph glyph-name="male" unicode="&#x2642;" horiz-adv-x="667" 
d="M570 499l-152 -151q36 -50 36 -110q0 -75 -53 -128.5t-127 -53.5t-127 53.5t-53 129.5q0 75 53 128.5t127 53.5q61 0 112 -39l151 151q-52 12 -106 40q-21 11 -21 23t13 12q3 0 20 -3q41 -9 83 -9q57 0 105 14l10 1q10 0 10 -10q0 -4 -5 -23q-10 -40 -10 -87q0 -43 9 -84
q3 -17 3 -20q0 -13 -12 -13q-7 0 -10.5 3.5t-12.5 17.5q-31 44 -43 104zM276 374q-57 0 -96 -39t-39 -96q0 -56 39 -95.5t94 -39.5t94 39.5t39 95.5t-38.5 95.5t-92.5 39.5z" />
    <glyph glyph-name="spade" unicode="&#x2660;" horiz-adv-x="667" 
d="M108 0v18q70 14 102 29t63 49q52 60 56 159q-12 -26 -13 -28q-20 -33 -56 -53.5t-76 -20.5q-49 0 -84.5 37t-35.5 88q0 81 104 169q142 115 164 239q26 -80 51.5 -117t99.5 -105q73 -67 97 -103.5t24 -83.5q0 -52 -35.5 -87.5t-86.5 -35.5q-84 0 -140 101
q6 -108 58.5 -163t167.5 -74v-18h-460z" />
    <glyph glyph-name="club" unicode="&#x2663;" horiz-adv-x="667" 
d="M561 0h-455v18q112 16 166 78.5t55 177.5q-22 -38 -34 -52q-27 -34 -66.5 -54.5t-79.5 -20.5q-59 0 -101.5 44.5t-42.5 106.5t38.5 104.5t93.5 42.5q29 0 71 -21l15 -7q-35 53 -35 100q0 59 43.5 101t104.5 42t104 -42t43 -101q0 -48 -35 -100q41 20 54 24t32 4
q55 0 93.5 -42.5t38.5 -103.5q0 -64 -42.5 -108t-103.5 -44q-37 0 -76 19t-64 50q-16 21 -38 58q2 -65 15 -106t44 -76q31 -32 62 -46t100 -28v-18z" />
    <glyph glyph-name="heart" unicode="&#x2665;" horiz-adv-x="667" 
d="M332 -11q-16 67 -52 128.5t-134 192.5q-54 74 -72 113t-18 82q0 56 37.5 95t91.5 39q76 0 120 -68q13 -19 27 -62q37 131 147 131q55 0 93.5 -38.5t38.5 -92.5q0 -50 -24 -100.5t-86 -128.5q-143 -179 -169 -291z" />
    <glyph glyph-name="diamond" unicode="&#x2666;" horiz-adv-x="667" 
d="M333 693q22 -47 111.5 -173t142.5 -186q-71 -85 -141.5 -184.5t-112.5 -175.5q-71 135 -253 360q180 226 253 359z" />
    <glyph glyph-name="musicalnote" unicode="&#x266a;" horiz-adv-x="667" 
d="M306 156v511h46v-61q14 -18 15 -18l52 -63q91 -107 91 -225q0 -91 -57 -162h-28q33 77 33 149q0 65 -31.5 116t-74.5 57v-304q0 -72 -42.5 -118.5t-109.5 -46.5q-32 0 -50.5 16t-18.5 45q0 45 36.5 80t84.5 35q29 0 54 -11z" />
    <glyph glyph-name="uni266C" unicode="&#x266c;" horiz-adv-x="667" 
d="M616 694v-502q0 -46 -17 -81q-19 -38 -55.5 -60.5t-79.5 -22.5q-32 0 -50 16t-18 44q0 46 36.5 80.5t83.5 34.5q29 0 54 -11v270l-329 -90v-236q0 -71 -42.5 -117t-109.5 -46q-32 0 -50.5 16t-18.5 44q0 44 36.5 78.5t84.5 34.5q26 0 54 -10v451zM241 448l329 90v70
l-329 -90v-70z" />
    <glyph glyph-name="dotlessj" unicode="&#xf6be;" horiz-adv-x="324" 
d="M214 457v-469q0 -107 -32 -152q-40 -59 -123 -59q-41 0 -68 22.5t-27 57.5q0 26 17 43.5t43 17.5q25 0 41.5 -15.5t16.5 -39.5q0 -28 -31 -44q8 -4 16 -4q31 0 48 30q16 26 16 99v368q0 58 -18.5 78t-74.5 20h-10v47h186z" />
    <glyph glyph-name="commaaccent" unicode="&#xf6c3;" 
d="M201 -241l-17 29q28 12 47 32t20 38q-9 -4 -16 -4q-22 0 -35.5 13.5t-13.5 34.5q0 23 15.5 38t39.5 15q26 0 43 -19t17 -48q0 -77 -100 -129z" />
    <glyph glyph-name="Acute" unicode="&#xf6c9;" 
d="M437 861l-146 -114h-94l106 114h134z" />
    <glyph glyph-name="Caron" unicode="&#xf6ca;" 
d="M250 728l-198 98l56 54l142 -68l141 68l56 -54z" />
    <glyph glyph-name="Dieresis" unicode="&#xf6cb;" 
d="M404 861q24 0 40.5 -16.5t16.5 -40.5q0 -23 -17 -40t-41 -17q-23 0 -39.5 16.5t-16.5 40.5q0 25 16 41t41 16zM96 862q24 0 41 -16.5t17 -40.5t-17 -41t-41 -17t-40.5 16.5t-16.5 41.5t16 41t41 16z" />
    <glyph glyph-name="Grave" unicode="&#xf6ce;" 
d="M63 861h133l107 -114h-94z" />
    <glyph glyph-name="Hungarumlaut" unicode="&#xf6cf;" 
d="M322 861l-146 -114h-94l106 114h134zM551 861l-146 -114h-94l106 114h134z" />
    <glyph glyph-name="Macron" unicode="&#xf6d0;" 
d="M422 770h-343v68h343v-68z" />
    <glyph glyph-name="commasuperior" unicode="&#xf6e2;" horiz-adv-x="155" 
d="M107 361v-65q0 -43 -14.5 -64.5t-47.5 -29.5v34q25 11 26 48h-19v77h55z" />
    <glyph glyph-name="periodsuperior" unicode="&#xf6e8;" horiz-adv-x="155" 
d="M108 366v-99h-60v99h60z" />
    <glyph glyph-name="Dbreve" horiz-adv-x="855" 
d="M34 0v52h21q71 0 98 27q19 19 19 65v379q0 49 -23 69q-28 23 -94 23h-21v52h414q91 0 156 -24.5t117 -78.5q93 -96 93 -231q0 -139 -101 -238q-96 -95 -238 -95h-441zM270 52h108q151 0 233 69q90 78 90 211q0 121 -77 200q-83 83 -250 83h-104v-563zM234 868h42
q43 -48 151 -48q107 0 150 48h43q-7 -50 -47 -82q-60 -47 -146 -47q-94 0 -153 53q-35 31 -40 76z" />
    <glyph glyph-name="Adotaccent" horiz-adv-x="894" 
d="M259 238l-45 -87q-13 -25 -15 -43q-2 -21 18 -37q20 -19 73 -19h34v-52h-343v52h29q64 0 101 47q39 50 71 109l246 459h38l267 -494q37 -68 63 -91q34 -30 86 -30h31v-52h-386v52h33q90 0 90 49q0 19 -13 45l-48 92h-330zM285 286h278l-139 271zM447 861q24 0 40.5 -16.5
t16.5 -40.5q0 -23 -17 -40t-41 -17q-23 0 -39.5 16.5t-16.5 40.5q0 25 16 41t41 16z" />
    <glyph glyph-name="Fdotaccent" horiz-adv-x="718" 
d="M265 319v-174q0 -30 4.5 -44t18.5 -25q27 -24 94 -24h21v-52h-373v52h21q71 0 98 27q19 20 19 66v377q0 50 -23 69q-27 24 -94 24h-21v52h657v-232h-48q1 55 -5.5 84.5t-23.5 51.5q-33 44 -124 44h-221v-246h105q47 0 69 34.5t27 112.5h48v-350h-48q-4 83 -25 117
q-21 36 -71 36h-105zM358 861q24 0 40.5 -16.5t16.5 -40.5q0 -23 -17 -40t-41 -17q-23 0 -39.5 16.5t-16.5 40.5q0 25 16 41t41 16z" />
    <glyph glyph-name="ahungarumlaut" horiz-adv-x="611" 
d="M390 89v13q-29 -55 -80.5 -85.5t-116.5 -30.5q-68 0 -110 35t-42 91q0 73 73 110q33 17 56 24.5t127 33.5q52 13 71.5 27.5t19.5 38.5q0 33 -34.5 56.5t-83.5 23.5q-63 0 -99 -37q22 -16 22 -36q0 -23 -17 -39t-41 -16q-26 0 -43.5 18.5t-17.5 46.5q0 49 55 78.5
t144 29.5q83 0 136 -32q34 -21 49 -57.5t15 -98.5v-157q0 -55 13 -69q9 -9 26 -9q25 0 34.5 20t9.5 71v45h43v-74q0 -58 -29 -91t-80 -33q-44 0 -72 29t-28 74zM388 196l2 82q-15 -21 -36 -32t-86 -29q-67 -19 -97.5 -43.5t-30.5 -58.5q0 -31 21.5 -50t55.5 -19
q64 0 116.5 46t54.5 104zM378 662l-146 -114h-94l107 114h133zM586 662l-146 -114h-94l107 114h133z" />
    <glyph glyph-name="adotaccent" horiz-adv-x="611" 
d="M390 89v13q-29 -55 -80.5 -85.5t-116.5 -30.5q-68 0 -110 35t-42 91q0 73 73 110q33 17 56 24.5t127 33.5q52 13 71.5 27.5t19.5 38.5q0 33 -34.5 56.5t-83.5 23.5q-63 0 -99 -37q22 -16 22 -36q0 -23 -17 -39t-41 -16q-26 0 -43.5 18.5t-17.5 46.5q0 49 55 78.5
t144 29.5q83 0 136 -32q34 -21 49 -57.5t15 -98.5v-157q0 -55 13 -69q9 -9 26 -9q25 0 34.5 20t9.5 71v45h43v-74q0 -58 -29 -91t-80 -33q-44 0 -72 29t-28 74zM388 196l2 82q-15 -21 -36 -32t-86 -29q-67 -19 -97.5 -43.5t-30.5 -58.5q0 -31 21.5 -50t55.5 -19
q64 0 116.5 46t54.5 104zM272 662q24 0 40.5 -16.5t16.5 -40.5q0 -23 -17 -40t-41 -17q-23 0 -39.5 16.5t-16.5 40.5q0 25 16 41t41 16z" />
    <glyph glyph-name="one.numerator" horiz-adv-x="314" 
d="M183 651v-186q0 -32 6 -39t31 -7h12v-26h-149v26h14q28 0 34 7t6 39v100q0 21 -8 27.5t-33 6.5h-7v27h8q46 0 62 25h24z" />
    <glyph glyph-name="two.numerator" horiz-adv-x="315" 
d="M260 470v-76h-213q4 44 22 64t74 44q40 16 55.5 31t15.5 37q0 23 -18 38t-46 15q-55 0 -61 -38q33 0 33 -26q0 -12 -9 -20t-22 -8q-18 0 -29 12t-11 32q0 34 30.5 55.5t78.5 21.5q47 0 77.5 -23.5t30.5 -59.5q0 -42 -38 -67q-18 -11 -69 -28q-41 -13 -51 -19t-20 -22h101
q23 0 32 7t9 23v7h28z" />
    <glyph glyph-name="three.numerator" horiz-adv-x="314" 
d="M111 538h37q68 0 68 42q0 19 -18.5 32t-46.5 13q-31 0 -59 -18q18 -8 18 -24q0 -11 -8.5 -19t-20.5 -8q-13 0 -22 8.5t-9 20.5q0 28 31.5 47.5t76.5 19.5q48 0 79.5 -20.5t31.5 -51.5q0 -40 -53 -54q60 -19 60 -66q0 -31 -34 -52t-85 -21t-84.5 18.5t-33.5 46.5
q0 14 9 22.5t23 8.5q13 0 21.5 -8t8.5 -20q0 -15 -16 -25q26 -15 57 -15q37 0 57.5 14t20.5 38t-18.5 34.5t-61.5 10.5h-29v26z" />
    <glyph glyph-name="four.numerator" horiz-adv-x="314" 
d="M227 651v-157h50v-26h-50v-4q0 -28 7 -36.5t30 -8.5h9v-26h-141v26h9q27 0 34.5 8t7.5 36v5h-145v27l166 156h23zM183 595l-106 -101h106v101z" />
    <glyph glyph-name="five.numerator" horiz-adv-x="314" 
d="M246 646v-39h-154v-56q39 19 72 19q47 0 77 -25t30 -65q0 -42 -32.5 -67t-85.5 -25q-47 0 -78 20.5t-31 51.5q0 13 9.5 22t23.5 9t22.5 -7.5t8.5 -19.5q0 -19 -22 -29q24 -19 58 -19q33 0 55 18t22 45q0 26 -20.5 44.5t-49.5 18.5q-38 0 -58 -23h-28v127h181z" />
    <glyph glyph-name="six.numerator" horiz-adv-x="315" 
d="M83 531q41 40 88 40q46 0 78.5 -26t32.5 -63q0 -41 -34.5 -67.5t-87.5 -26.5q-59 0 -93.5 33.5t-34.5 90.5q0 61 40 100.5t102 39.5q40 0 68 -16.5t28 -39.5q0 -12 -8 -20t-20 -8q-13 0 -22 8t-9 19q0 7 7 17q-20 13 -45 13q-45 0 -70 -35q-14 -17 -20 -59zM162 540
q-31 0 -53 -17.5t-22 -42.5q0 -27 21 -46t51 -19t52 19.5t22 45.5q0 25 -20.5 42.5t-50.5 17.5z" />
    <glyph glyph-name="seven.numerator" horiz-adv-x="315" 
d="M265 646v-26q-45 -47 -62.5 -86t-17.5 -91v-18q0 -37 -31 -37t-31 36q0 67 96 184h-96q-26 0 -35 -7.5t-9 -30.5h-29v76h215z" />
    <glyph glyph-name="eight.numerator" horiz-adv-x="315" 
d="M95 525q-53 17 -53 56q0 32 30 51.5t80 19.5q56 0 89.5 -20t33.5 -53q0 -39 -50 -54q57 -19 57 -61q0 -32 -35.5 -54t-86.5 -22q-56 0 -92 21.5t-36 54.5q0 47 63 61zM155 625q-30 0 -48 -11.5t-18 -31.5q0 -22 17.5 -34t49.5 -12t51.5 11.5t19.5 31.5t-20.5 33t-51.5 13
zM157 508q-32 0 -52.5 -11.5t-20.5 -30.5q0 -21 22 -35.5t53 -14.5t51.5 14t20.5 34q0 19 -21 31.5t-53 12.5z" />
    <glyph glyph-name="nine.numerator" horiz-adv-x="315" 
d="M231 508q-41 -40 -88 -40q-46 0 -78.5 26.5t-32.5 63.5q0 41 34.5 67.5t87.5 26.5q59 0 93.5 -33.5t34.5 -91.5q0 -61 -40 -100.5t-102 -39.5q-40 0 -68 16.5t-28 39.5q0 12 8 20t20 8q13 0 22 -8t9 -19q0 -8 -8 -17q20 -13 45 -13q44 0 71 35q13 17 20 59zM155 625
q-30 0 -52 -19.5t-22 -45.5t20.5 -43.5t50.5 -17.5q31 0 53 17.5t22 43.5q0 27 -21 46t-51 19z" />
    <glyph glyph-name="zero.numerator" horiz-adv-x="315" 
d="M158 652q59 0 97.5 -37.5t38.5 -95.5t-38.5 -94.5t-99.5 -36.5q-59 0 -97.5 38t-38.5 96q0 55 40 92.5t98 37.5zM156 625q-35 0 -58.5 -29.5t-23.5 -73.5q0 -47 23.5 -77t60.5 -30q36 0 59 29.5t23 75.5t-23.5 75.5t-60.5 29.5z" />
    <glyph glyph-name="one.denominator" horiz-adv-x="367" 
d="M214 253v-182q0 -30 5 -35q10 -8 39 -8h15v-28h-179v28h17q34 0 40.5 6t6.5 37v97q0 19 -9.5 25t-38.5 6h-9v30h10q54 0 74 24h29z" />
    <glyph glyph-name="two.denominator" horiz-adv-x="367" 
d="M306 78v-78h-256q6 46 27.5 66t88.5 42q48 17 66 30.5t18 33.5q0 22 -21.5 36t-53.5 14q-53 0 -72 -33q38 -2 38 -27q0 -13 -10.5 -21t-27.5 -8q-20 0 -33.5 12.5t-13.5 31.5q0 34 36.5 55t93.5 21t93 -23t36 -60q0 -24 -16 -42q-16 -17 -35.5 -25.5t-75.5 -23.5
q-48 -14 -60 -19.5t-23 -18.5h118q29 0 38 6.5t11 28.5z" />
    <glyph glyph-name="three.denominator" horiz-adv-x="367" 
d="M127 143h45q81 0 81 39q0 18 -22 30t-56 12t-66 -16q18 -8 18 -23q0 -12 -10 -20t-25 -8q-17 0 -27.5 9t-10.5 22q0 27 38 46t91 19q59 0 97 -20t38 -51q0 -38 -58 -52q66 -20 66 -63q0 -31 -41 -51.5t-102 -20.5q-62 0 -102 18t-40 46q0 13 10.5 22t27.5 9q16 0 26.5 -8
t10.5 -21q0 -14 -16 -23q30 -13 66 -13q41 0 66 13t25 34q0 23 -22 33t-73 10h-35v28z" />
    <glyph glyph-name="four.denominator" horiz-adv-x="367" 
d="M267 253v-152h60v-28h-60q0 -28 8 -36.5t36 -8.5h11v-28h-170v28h11q32 0 40.5 7.5t8.5 37.5h-172v28l199 152h28zM212 195l-120 -94h120v94z" />
    <glyph glyph-name="five.denominator" horiz-adv-x="367" 
d="M289 247v-41h-183v-50q46 18 84 18q58 0 93.5 -24.5t35.5 -63.5q0 -41 -38.5 -66t-102.5 -25q-56 0 -93.5 20t-37.5 51q0 14 11 23t29 9q16 0 27 -8t11 -20q0 -21 -25 -28q29 -17 66 -17q40 0 66 17.5t26 43.5q0 24 -24.5 41t-58.5 17q-44 0 -69 -22h-34v125h217z" />
    <glyph glyph-name="six.denominator" horiz-adv-x="367" 
d="M96 137q50 38 105 38t94 -26t39 -61q0 -41 -41 -67t-106 -26q-71 0 -112 33t-41 89q0 59 48 97.5t121 38.5q49 0 82.5 -16t33.5 -39q0 -12 -9 -20t-22 -8q-15 0 -27.5 9.5t-12.5 20.5q0 6 7 13q-23 11 -52 11q-52 0 -83 -33q-16 -18 -24 -54zM190 141q-37 0 -63 -16.5
t-26 -39.5q0 -25 25 -43t60 -18q36 0 62 18t26 43q0 23 -24.5 39.5t-59.5 16.5z" />
    <glyph glyph-name="seven.denominator" horiz-adv-x="367" 
d="M312 247v-28q-45 -38 -71 -78q-24 -37 -24 -92v-17q0 -37 -38 -37q-37 0 -37 36q0 63 111 176h-110q-33 0 -43 -7t-10 -30h-36v77h258z" />
    <glyph glyph-name="eight.denominator" horiz-adv-x="367" 
d="M101 129q-56 17 -56 53q0 32 36 51.5t96 19.5q66 0 106.5 -20t40.5 -52q0 -36 -53 -53q62 -18 62 -58q0 -32 -42.5 -53.5t-104.5 -21.5q-67 0 -110 21t-43 54q0 44 68 59zM181 224q-36 0 -57 -11t-21 -29q0 -43 79 -43q37 0 60 11t23 29t-24 30.5t-60 12.5zM183 111
q-38 0 -62 -11t-24 -28q0 -20 25.5 -33.5t62.5 -13.5q36 0 60.5 13t24.5 31q0 19 -24.5 30.5t-62.5 11.5z" />
    <glyph glyph-name="nine.denominator" horiz-adv-x="367" 
d="M271 111q-48 -38 -105 -38q-54 0 -93 26t-39 61q0 41 41 67t106 26q71 0 112 -33t41 -89q0 -59 -48 -97.5t-121 -38.5q-49 0 -83 16t-34 39q0 11 9 19.5t22 8.5q15 0 28 -9.5t13 -20.5q0 -6 -7 -13q23 -11 51 -11q53 0 84 33q15 15 23 54zM182 224q-36 0 -62 -18.5
t-26 -43.5q0 -23 24.5 -39.5t59.5 -16.5q37 0 63 17t26 40q0 25 -25 43t-60 18z" />
    <glyph glyph-name="zero.denominator" horiz-adv-x="315" 
d="M158 258q59 0 97.5 -37.5t38.5 -95.5t-38.5 -94.5t-99.5 -36.5q-59 0 -97.5 38t-38.5 96q0 55 40 92.5t98 37.5zM156 231q-35 0 -58.5 -29.5t-23.5 -73.5q0 -47 23.5 -77t60.5 -30q36 0 59 29.5t23 75.5t-23.5 75.5t-60.5 29.5z" />
    <glyph glyph-name="oneone" horiz-adv-x="1013" 
d="M260 618v-272q0 -49 9 -57q11 -11 44 -11h17v-38h-212v38h20q40 0 48.5 10t8.5 57v147q0 30 -11.5 39.5t-46.5 9.5h-10v40h11q65 0 88 37h34zM759 604l-466 -630l-41 31l468 630zM823 378v-272q0 -49 9 -57q11 -11 45 -11h17v-38h-212v38h19q40 0 48.5 10t8.5 57v147
q0 30 -11.5 39.5t-46.5 9.5h-10v40h11q65 0 88 37h34z" />
    <glyph glyph-name="onefifth" horiz-adv-x="1013" 
d="M260 618v-272q0 -49 9 -57q11 -11 44 -11h17v-38h-212v38h20q40 0 48.5 10t8.5 57v147q0 30 -11.5 39.5t-46.5 9.5h-10v40h11q65 0 88 37h34zM759 604l-466 -630l-41 31l468 630zM914 369v-57h-220v-82q56 28 102 28q69 0 111.5 -36t42.5 -95q0 -61 -46 -98t-123 -37
q-67 0 -111.5 30t-44.5 75q0 20 13.5 33t33.5 13t32.5 -11t12.5 -29q0 -26 -31 -41q33 -29 82 -29q47 0 78.5 26.5t31.5 66.5q0 37 -29.5 64t-69.5 27q-54 0 -84 -33h-40v185h259z" />
    <glyph glyph-name="twofifth" horiz-adv-x="1013" 
d="M370 353v-112h-303q6 64 31.5 93.5t104.5 64.5q58 25 80 46.5t22 52.5q0 34 -26 55.5t-66 21.5q-35 0 -58.5 -14.5t-27.5 -39.5q46 0 46 -38q0 -18 -12.5 -30t-31.5 -12q-25 0 -40.5 18t-15.5 46q0 50 43.5 81.5t111.5 31.5q67 0 110 -34t43 -87q0 -61 -54 -97
q-26 -17 -97 -41q-57 -19 -72.5 -28.5t-29.5 -32.5h145q32 0 45 10t13 35v10h39zM760 604l-467 -630l-40 31l467 630zM915 369v-57h-220v-82q56 28 102 28q69 0 111.5 -36t42.5 -95q0 -61 -46 -98t-123 -37q-67 0 -111.5 30t-44.5 75q0 20 13.5 33t33.5 13t32.5 -11
t12.5 -29q0 -26 -31 -41q33 -29 82 -29q47 0 78.5 26.5t31.5 66.5q0 37 -29.5 64t-69.5 27q-54 0 -84 -33h-40v185h259z" />
    <glyph glyph-name="threefifth" horiz-adv-x="1013" 
d="M158 452h53q98 0 98 61q0 28 -26.5 47t-67.5 19q-44 0 -83 -26q24 -13 24 -35q0 -17 -12 -28.5t-29 -11.5q-19 0 -31.5 12.5t-12.5 30.5q0 40 45 68.5t109 28.5q69 0 114 -29.5t45 -74.5q0 -31 -18 -50t-58 -30q86 -28 86 -96q0 -46 -48.5 -76.5t-121.5 -30.5
q-74 0 -121.5 27t-47.5 69q0 19 12.5 32t32.5 13q19 0 31.5 -11.5t12.5 -29.5q0 -25 -23 -36q37 -24 82 -24q52 0 81.5 20.5t29.5 55.5q0 39 -32 55q-25 12 -83 12h-41v38zM759 604l-466 -630l-40 31l467 630zM914 369v-57h-220v-82q56 28 102 28q69 0 111.5 -36t42.5 -95
q0 -61 -46 -98t-123 -37q-67 0 -111.5 30t-44.5 75q0 20 13.5 33t33.5 13t32.5 -11t12.5 -29q0 -26 -31 -41q33 -29 82 -29q47 0 78.5 26.5t31.5 66.5q0 37 -29.5 64t-69.5 27q-54 0 -84 -33h-40v185h259z" />
    <glyph glyph-name="fourfifth" horiz-adv-x="1013" 
d="M325 618v-230h70v-38h-70v-6q0 -40 10 -53t42 -13h12v-38h-201v38h13q39 0 49.5 11.5t10.5 53.5v7h-207v39l238 229h33zM261 536l-151 -148h151v148zM759 604l-466 -630l-40 31l467 630zM914 369v-57h-220v-82q56 28 102 28q69 0 111.5 -36t42.5 -95q0 -61 -46 -98
t-123 -37q-67 0 -111.5 30t-44.5 75q0 20 13.5 33t33.5 13t32.5 -11t12.5 -29q0 -26 -31 -41q33 -29 82 -29q47 0 78.5 26.5t31.5 66.5q0 37 -29.5 64t-69.5 27q-54 0 -84 -33h-40v185h259z" />
    <glyph glyph-name="onesixth" horiz-adv-x="1013" 
d="M260 618v-272q0 -49 9 -57q11 -11 44 -11h17v-38h-212v38h20q40 0 48.5 10t8.5 57v147q0 30 -11.5 39.5t-46.5 9.5h-10v40h11q65 0 88 37h34zM759 604l-466 -630l-41 31l468 630zM682 201q33 32 61 45t65 13q65 0 111.5 -38.5t46.5 -92.5q0 -60 -48.5 -98t-125.5 -38
q-84 0 -133 49t-49 132q0 89 57 147t145 58q57 0 97 -23.5t40 -57.5q0 -18 -11.5 -30t-28.5 -12q-18 0 -31 11.5t-13 27.5q0 11 11 26q-31 19 -65 19q-63 0 -101 -51q-20 -27 -28 -87zM795 213q-44 0 -75.5 -25.5t-31.5 -62.5q0 -39 30 -66.5t72 -27.5q43 0 74.5 28t31.5 66
q0 37 -29 62.5t-72 25.5z" />
    <glyph glyph-name="fivesixth" horiz-adv-x="1013" 
d="M351 610v-57h-220v-83q55 29 102 29q68 0 111 -36.5t43 -95.5q0 -61 -46 -98t-123 -37q-67 0 -111.5 30t-44.5 75q0 20 13.5 33t33.5 13t32.5 -11t12.5 -29q0 -28 -31 -41q33 -29 82 -29q47 0 78.5 26.5t31.5 66.5q0 38 -29.5 65t-69.5 27q-55 0 -84 -34h-40v186h259z
M760 604l-467 -630l-40 31l467 630zM683 201q33 32 61 45t65 13q65 0 111.5 -38.5t46.5 -92.5q0 -59 -49 -97.5t-126 -38.5q-84 0 -133 49t-49 132q0 89 57 147t145 58q58 0 98 -23.5t40 -57.5q0 -18 -11.5 -30t-28.5 -12q-18 0 -31 11.5t-13 27.5q0 13 11 26q-31 19 -65 19
q-63 0 -101 -51q-20 -27 -28 -87zM796 213q-45 0 -76.5 -25.5t-31.5 -62.5q0 -39 30 -66.5t73 -27.5t74.5 28t31.5 66q0 37 -29 62.5t-72 25.5z" />
    <glyph glyph-name="Dotaccent" 
d="M250 861q24 0 40.5 -16.5t16.5 -40.5q0 -23 -17 -40t-41 -17q-23 0 -39.5 16.5t-16.5 40.5q0 25 16 41t41 16z" />
    <glyph glyph-name="Ring" 
d="M250 917q45 0 76 -31.5t31 -77.5q0 -43 -31 -73.5t-75 -30.5q-45 0 -76.5 31.5t-31.5 75.5t31.5 75t75.5 31zM250 856q-19 0 -32.5 -13.5t-13.5 -32.5t13.5 -32.5t32.5 -13.5t32 13t13 32q0 20 -13 33.5t-32 13.5z" />
    <glyph glyph-name="Circumflex" 
d="M250 880l197 -98l-56 -54l-141 68l-142 -68l-56 54z" />
    <glyph glyph-name="Breve" 
d="M57 868h43q43 -48 150 -48q108 0 150 48h44q-8 -50 -48 -82q-60 -47 -146 -47q-94 0 -153 53q-35 32 -40 76z" />
    <glyph glyph-name="Tilde" 
d="M437 861l36 -9q-19 -38 -34 -55.5t-39 -30.5q-34 -18 -72 -18q-28 0 -58 7l-78 18q-42 10 -60 10q-40 0 -65 -35l-40 8q57 101 144 101q25 0 50 -6l69 -16q52 -12 77 -12q47 0 70 38z" />
    <glyph glyph-name="Cedilla" 
d="M232 0h44l-9 -58q73 -12 73 -66q0 -31 -24.5 -50.5t-62.5 -19.5q-74 0 -92 63h47q10 -22 34 -22q14 0 23 8t9 20q0 14 -10 23.5t-26 9.5q-8 0 -20 -4z" />
    <glyph glyph-name="Ogonek" 
d="M234 0h70q-36 -15 -56.5 -37t-20.5 -45q0 -18 11 -29.5t28 -11.5q22 0 48 13q0 1 12 5l16 -34q-47 -39 -92 -39q-37 0 -64 24t-27 58q0 59 75 96z" />
    <glyph glyph-name="commaaccent.sc" 
d="M201 -238l-18 30q30 13 49.5 33.5t20.5 39.5q-11 -4 -17 -4q-22 0 -36.5 14t-14.5 36q0 24 16 39.5t41 15.5q28 0 45.5 -19.5t17.5 -50.5q0 -81 -104 -134z" />
    <glyph glyph-name="Comma.high" horiz-adv-x="287" 
d="M67 455l-18 30q29 16 49 45t21 55q-11 -4 -17 -4q-22 0 -36.5 14t-14.5 36q0 24 16 39.5t41 15.5q28 0 45.5 -19.5t17.5 -51.5q0 -94 -104 -160z" />
    <glyph glyph-name="Dieresis.alt" 
d="M370 861q24 0 40.5 -16.5t16.5 -40.5q0 -23 -17 -40t-41 -17q-23 0 -39.5 16.5t-16.5 40.5q0 25 16 41t41 16zM129 862q24 0 41 -16.5t17 -40.5t-17 -41t-41 -17t-40.5 16.5t-16.5 41.5t16 41t41 16z" />
    <glyph glyph-name="comma.high" horiz-adv-x="287" 
d="M67 455l-18 30q29 16 49 45t21 55q-11 -4 -17 -4q-22 0 -36.5 14t-14.5 36q0 24 16 39.5t41 15.5q28 0 45.5 -19.5t17.5 -51.5q0 -94 -104 -160z" />
    <glyph glyph-name="dieresis.alt" 
d="M329 662q24 0 40.5 -16.5t16.5 -40.5q0 -23 -17 -40t-41 -17q-23 0 -39.5 16.5t-16.5 40.5q0 25 16 41t41 16zM170 662q24 0 40.5 -16.5t16.5 -40.5q0 -23 -17 -40t-41 -17q-23 0 -39.5 16.5t-16.5 40.5q0 25 16 41t41 16z" />
    <glyph glyph-name="commareversed" horiz-adv-x="287" 
d="M153 686l18 -30q-30 -17 -49.5 -45.5t-20.5 -54.5q11 4 17 4q22 0 36.5 -14t14.5 -36q0 -24 -16 -39.5t-41 -15.5q-28 0 -45.5 19.5t-17.5 51.5q0 93 104 160z" />
    <glyph glyph-name="zerozero.afrac" horiz-adv-x="552" 
d="M419 304h-286v38h286v-38zM277 652q59 0 97.5 -37.5t38.5 -95.5t-38.5 -94.5t-99.5 -36.5q-59 0 -97.5 38t-38.5 96q0 55 40 92.5t98 37.5zM275 625q-35 0 -58.5 -29.5t-23.5 -73.5q0 -47 23.5 -77t60.5 -30q36 0 59 29.5t23 75.5t-23.5 75.5t-60.5 29.5zM277 258
q59 0 97.5 -37.5t38.5 -95.5t-38.5 -94.5t-99.5 -36.5q-59 0 -97.5 38t-38.5 96q0 55 40 92.5t98 37.5zM275 231q-35 0 -58.5 -29.5t-23.5 -73.5q0 -47 23.5 -77t60.5 -30q36 0 59 29.5t23 75.5t-23.5 75.5t-60.5 29.5z" />
    </font>
</defs>
</svg>
